G04 #@! TF.GenerationSoftware,KiCad,Pcbnew,7.99.0-1.20230515git1adcb86.fc37*
G04 #@! TF.CreationDate,2023-06-10T12:58:01+01:00*
G04 #@! TF.ProjectId,tr23-sao-r1,74723233-2d73-4616-9f2d-72312e6b6963,r1*
G04 #@! TF.SameCoordinates,Original*
G04 #@! TF.FileFunction,Soldermask,Top*
G04 #@! TF.FilePolarity,Negative*
%FSLAX46Y46*%
G04 Gerber Fmt 4.6, Leading zero omitted, Abs format (unit mm)*
G04 Created by KiCad (PCBNEW 7.99.0-1.20230515git1adcb86.fc37) date 2023-06-10 12:58:01*
%MOMM*%
%LPD*%
G01*
G04 APERTURE LIST*
%ADD10C,0.100000*%
%ADD11C,0.150000*%
%ADD12C,0.300000*%
%ADD13C,0.400000*%
%ADD14C,0.010000*%
%ADD15C,1.400000*%
%ADD16O,1.800000X2.800000*%
G04 APERTURE END LIST*
D10*
D11*
X177002200Y-166007200D02*
X285002200Y-166007200D01*
X285002200Y-198007200D01*
X177002200Y-198007200D01*
X177002200Y-166007200D01*
D10*
D11*
X10000000Y-10000000D02*
X287002200Y-10000000D01*
X287002200Y-200007200D01*
X10000000Y-200007200D01*
X10000000Y-10000000D01*
D10*
D11*
X12000000Y-12000000D02*
X285002200Y-12000000D01*
X285002200Y-198007200D01*
X12000000Y-198007200D01*
X12000000Y-12000000D01*
D10*
D11*
X60000000Y-12000000D02*
X60000000Y-10000000D01*
D10*
D11*
X110000000Y-12000000D02*
X110000000Y-10000000D01*
D10*
D11*
X160000000Y-12000000D02*
X160000000Y-10000000D01*
D10*
D11*
X210000000Y-12000000D02*
X210000000Y-10000000D01*
D10*
D11*
X260000000Y-12000000D02*
X260000000Y-10000000D01*
D10*
D11*
X36089160Y-11593604D02*
X35346303Y-11593604D01*
X35717731Y-11593604D02*
X35717731Y-10293604D01*
X35717731Y-10293604D02*
X35593922Y-10479319D01*
X35593922Y-10479319D02*
X35470112Y-10603128D01*
X35470112Y-10603128D02*
X35346303Y-10665033D01*
D10*
D11*
X85346303Y-10417414D02*
X85408207Y-10355509D01*
X85408207Y-10355509D02*
X85532017Y-10293604D01*
X85532017Y-10293604D02*
X85841541Y-10293604D01*
X85841541Y-10293604D02*
X85965350Y-10355509D01*
X85965350Y-10355509D02*
X86027255Y-10417414D01*
X86027255Y-10417414D02*
X86089160Y-10541223D01*
X86089160Y-10541223D02*
X86089160Y-10665033D01*
X86089160Y-10665033D02*
X86027255Y-10850747D01*
X86027255Y-10850747D02*
X85284398Y-11593604D01*
X85284398Y-11593604D02*
X86089160Y-11593604D01*
D10*
D11*
X135284398Y-10293604D02*
X136089160Y-10293604D01*
X136089160Y-10293604D02*
X135655826Y-10788842D01*
X135655826Y-10788842D02*
X135841541Y-10788842D01*
X135841541Y-10788842D02*
X135965350Y-10850747D01*
X135965350Y-10850747D02*
X136027255Y-10912652D01*
X136027255Y-10912652D02*
X136089160Y-11036461D01*
X136089160Y-11036461D02*
X136089160Y-11345985D01*
X136089160Y-11345985D02*
X136027255Y-11469795D01*
X136027255Y-11469795D02*
X135965350Y-11531700D01*
X135965350Y-11531700D02*
X135841541Y-11593604D01*
X135841541Y-11593604D02*
X135470112Y-11593604D01*
X135470112Y-11593604D02*
X135346303Y-11531700D01*
X135346303Y-11531700D02*
X135284398Y-11469795D01*
D10*
D11*
X185965350Y-10726938D02*
X185965350Y-11593604D01*
X185655826Y-10231700D02*
X185346303Y-11160271D01*
X185346303Y-11160271D02*
X186151064Y-11160271D01*
D10*
D11*
X236027255Y-10293604D02*
X235408207Y-10293604D01*
X235408207Y-10293604D02*
X235346303Y-10912652D01*
X235346303Y-10912652D02*
X235408207Y-10850747D01*
X235408207Y-10850747D02*
X235532017Y-10788842D01*
X235532017Y-10788842D02*
X235841541Y-10788842D01*
X235841541Y-10788842D02*
X235965350Y-10850747D01*
X235965350Y-10850747D02*
X236027255Y-10912652D01*
X236027255Y-10912652D02*
X236089160Y-11036461D01*
X236089160Y-11036461D02*
X236089160Y-11345985D01*
X236089160Y-11345985D02*
X236027255Y-11469795D01*
X236027255Y-11469795D02*
X235965350Y-11531700D01*
X235965350Y-11531700D02*
X235841541Y-11593604D01*
X235841541Y-11593604D02*
X235532017Y-11593604D01*
X235532017Y-11593604D02*
X235408207Y-11531700D01*
X235408207Y-11531700D02*
X235346303Y-11469795D01*
D10*
D11*
X285965350Y-10293604D02*
X285717731Y-10293604D01*
X285717731Y-10293604D02*
X285593922Y-10355509D01*
X285593922Y-10355509D02*
X285532017Y-10417414D01*
X285532017Y-10417414D02*
X285408207Y-10603128D01*
X285408207Y-10603128D02*
X285346303Y-10850747D01*
X285346303Y-10850747D02*
X285346303Y-11345985D01*
X285346303Y-11345985D02*
X285408207Y-11469795D01*
X285408207Y-11469795D02*
X285470112Y-11531700D01*
X285470112Y-11531700D02*
X285593922Y-11593604D01*
X285593922Y-11593604D02*
X285841541Y-11593604D01*
X285841541Y-11593604D02*
X285965350Y-11531700D01*
X285965350Y-11531700D02*
X286027255Y-11469795D01*
X286027255Y-11469795D02*
X286089160Y-11345985D01*
X286089160Y-11345985D02*
X286089160Y-11036461D01*
X286089160Y-11036461D02*
X286027255Y-10912652D01*
X286027255Y-10912652D02*
X285965350Y-10850747D01*
X285965350Y-10850747D02*
X285841541Y-10788842D01*
X285841541Y-10788842D02*
X285593922Y-10788842D01*
X285593922Y-10788842D02*
X285470112Y-10850747D01*
X285470112Y-10850747D02*
X285408207Y-10912652D01*
X285408207Y-10912652D02*
X285346303Y-11036461D01*
D10*
D11*
X60000000Y-198007200D02*
X60000000Y-200007200D01*
D10*
D11*
X110000000Y-198007200D02*
X110000000Y-200007200D01*
D10*
D11*
X160000000Y-198007200D02*
X160000000Y-200007200D01*
D10*
D11*
X210000000Y-198007200D02*
X210000000Y-200007200D01*
D10*
D11*
X260000000Y-198007200D02*
X260000000Y-200007200D01*
D10*
D11*
X36089160Y-199600804D02*
X35346303Y-199600804D01*
X35717731Y-199600804D02*
X35717731Y-198300804D01*
X35717731Y-198300804D02*
X35593922Y-198486519D01*
X35593922Y-198486519D02*
X35470112Y-198610328D01*
X35470112Y-198610328D02*
X35346303Y-198672233D01*
D10*
D11*
X85346303Y-198424614D02*
X85408207Y-198362709D01*
X85408207Y-198362709D02*
X85532017Y-198300804D01*
X85532017Y-198300804D02*
X85841541Y-198300804D01*
X85841541Y-198300804D02*
X85965350Y-198362709D01*
X85965350Y-198362709D02*
X86027255Y-198424614D01*
X86027255Y-198424614D02*
X86089160Y-198548423D01*
X86089160Y-198548423D02*
X86089160Y-198672233D01*
X86089160Y-198672233D02*
X86027255Y-198857947D01*
X86027255Y-198857947D02*
X85284398Y-199600804D01*
X85284398Y-199600804D02*
X86089160Y-199600804D01*
D10*
D11*
X135284398Y-198300804D02*
X136089160Y-198300804D01*
X136089160Y-198300804D02*
X135655826Y-198796042D01*
X135655826Y-198796042D02*
X135841541Y-198796042D01*
X135841541Y-198796042D02*
X135965350Y-198857947D01*
X135965350Y-198857947D02*
X136027255Y-198919852D01*
X136027255Y-198919852D02*
X136089160Y-199043661D01*
X136089160Y-199043661D02*
X136089160Y-199353185D01*
X136089160Y-199353185D02*
X136027255Y-199476995D01*
X136027255Y-199476995D02*
X135965350Y-199538900D01*
X135965350Y-199538900D02*
X135841541Y-199600804D01*
X135841541Y-199600804D02*
X135470112Y-199600804D01*
X135470112Y-199600804D02*
X135346303Y-199538900D01*
X135346303Y-199538900D02*
X135284398Y-199476995D01*
D10*
D11*
X185965350Y-198734138D02*
X185965350Y-199600804D01*
X185655826Y-198238900D02*
X185346303Y-199167471D01*
X185346303Y-199167471D02*
X186151064Y-199167471D01*
D10*
D11*
X236027255Y-198300804D02*
X235408207Y-198300804D01*
X235408207Y-198300804D02*
X235346303Y-198919852D01*
X235346303Y-198919852D02*
X235408207Y-198857947D01*
X235408207Y-198857947D02*
X235532017Y-198796042D01*
X235532017Y-198796042D02*
X235841541Y-198796042D01*
X235841541Y-198796042D02*
X235965350Y-198857947D01*
X235965350Y-198857947D02*
X236027255Y-198919852D01*
X236027255Y-198919852D02*
X236089160Y-199043661D01*
X236089160Y-199043661D02*
X236089160Y-199353185D01*
X236089160Y-199353185D02*
X236027255Y-199476995D01*
X236027255Y-199476995D02*
X235965350Y-199538900D01*
X235965350Y-199538900D02*
X235841541Y-199600804D01*
X235841541Y-199600804D02*
X235532017Y-199600804D01*
X235532017Y-199600804D02*
X235408207Y-199538900D01*
X235408207Y-199538900D02*
X235346303Y-199476995D01*
D10*
D11*
X285965350Y-198300804D02*
X285717731Y-198300804D01*
X285717731Y-198300804D02*
X285593922Y-198362709D01*
X285593922Y-198362709D02*
X285532017Y-198424614D01*
X285532017Y-198424614D02*
X285408207Y-198610328D01*
X285408207Y-198610328D02*
X285346303Y-198857947D01*
X285346303Y-198857947D02*
X285346303Y-199353185D01*
X285346303Y-199353185D02*
X285408207Y-199476995D01*
X285408207Y-199476995D02*
X285470112Y-199538900D01*
X285470112Y-199538900D02*
X285593922Y-199600804D01*
X285593922Y-199600804D02*
X285841541Y-199600804D01*
X285841541Y-199600804D02*
X285965350Y-199538900D01*
X285965350Y-199538900D02*
X286027255Y-199476995D01*
X286027255Y-199476995D02*
X286089160Y-199353185D01*
X286089160Y-199353185D02*
X286089160Y-199043661D01*
X286089160Y-199043661D02*
X286027255Y-198919852D01*
X286027255Y-198919852D02*
X285965350Y-198857947D01*
X285965350Y-198857947D02*
X285841541Y-198796042D01*
X285841541Y-198796042D02*
X285593922Y-198796042D01*
X285593922Y-198796042D02*
X285470112Y-198857947D01*
X285470112Y-198857947D02*
X285408207Y-198919852D01*
X285408207Y-198919852D02*
X285346303Y-199043661D01*
D10*
D11*
X10000000Y-60000000D02*
X12000000Y-60000000D01*
D10*
D11*
X10000000Y-110000000D02*
X12000000Y-110000000D01*
D10*
D11*
X10000000Y-160000000D02*
X12000000Y-160000000D01*
D10*
D11*
X10789160Y-35222176D02*
X11408207Y-35222176D01*
X10665350Y-35593604D02*
X11098683Y-34293604D01*
X11098683Y-34293604D02*
X11532017Y-35593604D01*
D10*
D11*
X11191541Y-84912652D02*
X11377255Y-84974557D01*
X11377255Y-84974557D02*
X11439160Y-85036461D01*
X11439160Y-85036461D02*
X11501064Y-85160271D01*
X11501064Y-85160271D02*
X11501064Y-85345985D01*
X11501064Y-85345985D02*
X11439160Y-85469795D01*
X11439160Y-85469795D02*
X11377255Y-85531700D01*
X11377255Y-85531700D02*
X11253445Y-85593604D01*
X11253445Y-85593604D02*
X10758207Y-85593604D01*
X10758207Y-85593604D02*
X10758207Y-84293604D01*
X10758207Y-84293604D02*
X11191541Y-84293604D01*
X11191541Y-84293604D02*
X11315350Y-84355509D01*
X11315350Y-84355509D02*
X11377255Y-84417414D01*
X11377255Y-84417414D02*
X11439160Y-84541223D01*
X11439160Y-84541223D02*
X11439160Y-84665033D01*
X11439160Y-84665033D02*
X11377255Y-84788842D01*
X11377255Y-84788842D02*
X11315350Y-84850747D01*
X11315350Y-84850747D02*
X11191541Y-84912652D01*
X11191541Y-84912652D02*
X10758207Y-84912652D01*
D10*
D11*
X11501064Y-135469795D02*
X11439160Y-135531700D01*
X11439160Y-135531700D02*
X11253445Y-135593604D01*
X11253445Y-135593604D02*
X11129636Y-135593604D01*
X11129636Y-135593604D02*
X10943922Y-135531700D01*
X10943922Y-135531700D02*
X10820112Y-135407890D01*
X10820112Y-135407890D02*
X10758207Y-135284080D01*
X10758207Y-135284080D02*
X10696303Y-135036461D01*
X10696303Y-135036461D02*
X10696303Y-134850747D01*
X10696303Y-134850747D02*
X10758207Y-134603128D01*
X10758207Y-134603128D02*
X10820112Y-134479319D01*
X10820112Y-134479319D02*
X10943922Y-134355509D01*
X10943922Y-134355509D02*
X11129636Y-134293604D01*
X11129636Y-134293604D02*
X11253445Y-134293604D01*
X11253445Y-134293604D02*
X11439160Y-134355509D01*
X11439160Y-134355509D02*
X11501064Y-134417414D01*
D10*
D11*
X10758207Y-185593604D02*
X10758207Y-184293604D01*
X10758207Y-184293604D02*
X11067731Y-184293604D01*
X11067731Y-184293604D02*
X11253445Y-184355509D01*
X11253445Y-184355509D02*
X11377255Y-184479319D01*
X11377255Y-184479319D02*
X11439160Y-184603128D01*
X11439160Y-184603128D02*
X11501064Y-184850747D01*
X11501064Y-184850747D02*
X11501064Y-185036461D01*
X11501064Y-185036461D02*
X11439160Y-185284080D01*
X11439160Y-185284080D02*
X11377255Y-185407890D01*
X11377255Y-185407890D02*
X11253445Y-185531700D01*
X11253445Y-185531700D02*
X11067731Y-185593604D01*
X11067731Y-185593604D02*
X10758207Y-185593604D01*
D10*
D11*
X287002200Y-60000000D02*
X285002200Y-60000000D01*
D10*
D11*
X287002200Y-110000000D02*
X285002200Y-110000000D01*
D10*
D11*
X287002200Y-160000000D02*
X285002200Y-160000000D01*
D10*
D11*
X285791360Y-35222176D02*
X286410407Y-35222176D01*
X285667550Y-35593604D02*
X286100883Y-34293604D01*
X286100883Y-34293604D02*
X286534217Y-35593604D01*
D10*
D11*
X286193741Y-84912652D02*
X286379455Y-84974557D01*
X286379455Y-84974557D02*
X286441360Y-85036461D01*
X286441360Y-85036461D02*
X286503264Y-85160271D01*
X286503264Y-85160271D02*
X286503264Y-85345985D01*
X286503264Y-85345985D02*
X286441360Y-85469795D01*
X286441360Y-85469795D02*
X286379455Y-85531700D01*
X286379455Y-85531700D02*
X286255645Y-85593604D01*
X286255645Y-85593604D02*
X285760407Y-85593604D01*
X285760407Y-85593604D02*
X285760407Y-84293604D01*
X285760407Y-84293604D02*
X286193741Y-84293604D01*
X286193741Y-84293604D02*
X286317550Y-84355509D01*
X286317550Y-84355509D02*
X286379455Y-84417414D01*
X286379455Y-84417414D02*
X286441360Y-84541223D01*
X286441360Y-84541223D02*
X286441360Y-84665033D01*
X286441360Y-84665033D02*
X286379455Y-84788842D01*
X286379455Y-84788842D02*
X286317550Y-84850747D01*
X286317550Y-84850747D02*
X286193741Y-84912652D01*
X286193741Y-84912652D02*
X285760407Y-84912652D01*
D10*
D11*
X286503264Y-135469795D02*
X286441360Y-135531700D01*
X286441360Y-135531700D02*
X286255645Y-135593604D01*
X286255645Y-135593604D02*
X286131836Y-135593604D01*
X286131836Y-135593604D02*
X285946122Y-135531700D01*
X285946122Y-135531700D02*
X285822312Y-135407890D01*
X285822312Y-135407890D02*
X285760407Y-135284080D01*
X285760407Y-135284080D02*
X285698503Y-135036461D01*
X285698503Y-135036461D02*
X285698503Y-134850747D01*
X285698503Y-134850747D02*
X285760407Y-134603128D01*
X285760407Y-134603128D02*
X285822312Y-134479319D01*
X285822312Y-134479319D02*
X285946122Y-134355509D01*
X285946122Y-134355509D02*
X286131836Y-134293604D01*
X286131836Y-134293604D02*
X286255645Y-134293604D01*
X286255645Y-134293604D02*
X286441360Y-134355509D01*
X286441360Y-134355509D02*
X286503264Y-134417414D01*
D10*
D11*
X285760407Y-185593604D02*
X285760407Y-184293604D01*
X285760407Y-184293604D02*
X286069931Y-184293604D01*
X286069931Y-184293604D02*
X286255645Y-184355509D01*
X286255645Y-184355509D02*
X286379455Y-184479319D01*
X286379455Y-184479319D02*
X286441360Y-184603128D01*
X286441360Y-184603128D02*
X286503264Y-184850747D01*
X286503264Y-184850747D02*
X286503264Y-185036461D01*
X286503264Y-185036461D02*
X286441360Y-185284080D01*
X286441360Y-185284080D02*
X286379455Y-185407890D01*
X286379455Y-185407890D02*
X286255645Y-185531700D01*
X286255645Y-185531700D02*
X286069931Y-185593604D01*
X286069931Y-185593604D02*
X285760407Y-185593604D01*
D10*
D11*
X200458026Y-193793328D02*
X200458026Y-192293328D01*
X200458026Y-192293328D02*
X200815169Y-192293328D01*
X200815169Y-192293328D02*
X201029455Y-192364757D01*
X201029455Y-192364757D02*
X201172312Y-192507614D01*
X201172312Y-192507614D02*
X201243741Y-192650471D01*
X201243741Y-192650471D02*
X201315169Y-192936185D01*
X201315169Y-192936185D02*
X201315169Y-193150471D01*
X201315169Y-193150471D02*
X201243741Y-193436185D01*
X201243741Y-193436185D02*
X201172312Y-193579042D01*
X201172312Y-193579042D02*
X201029455Y-193721900D01*
X201029455Y-193721900D02*
X200815169Y-193793328D01*
X200815169Y-193793328D02*
X200458026Y-193793328D01*
X202600884Y-193793328D02*
X202600884Y-193007614D01*
X202600884Y-193007614D02*
X202529455Y-192864757D01*
X202529455Y-192864757D02*
X202386598Y-192793328D01*
X202386598Y-192793328D02*
X202100884Y-192793328D01*
X202100884Y-192793328D02*
X201958026Y-192864757D01*
X202600884Y-193721900D02*
X202458026Y-193793328D01*
X202458026Y-193793328D02*
X202100884Y-193793328D01*
X202100884Y-193793328D02*
X201958026Y-193721900D01*
X201958026Y-193721900D02*
X201886598Y-193579042D01*
X201886598Y-193579042D02*
X201886598Y-193436185D01*
X201886598Y-193436185D02*
X201958026Y-193293328D01*
X201958026Y-193293328D02*
X202100884Y-193221900D01*
X202100884Y-193221900D02*
X202458026Y-193221900D01*
X202458026Y-193221900D02*
X202600884Y-193150471D01*
X203100884Y-192793328D02*
X203672312Y-192793328D01*
X203315169Y-192293328D02*
X203315169Y-193579042D01*
X203315169Y-193579042D02*
X203386598Y-193721900D01*
X203386598Y-193721900D02*
X203529455Y-193793328D01*
X203529455Y-193793328D02*
X203672312Y-193793328D01*
X204743741Y-193721900D02*
X204600884Y-193793328D01*
X204600884Y-193793328D02*
X204315170Y-193793328D01*
X204315170Y-193793328D02*
X204172312Y-193721900D01*
X204172312Y-193721900D02*
X204100884Y-193579042D01*
X204100884Y-193579042D02*
X204100884Y-193007614D01*
X204100884Y-193007614D02*
X204172312Y-192864757D01*
X204172312Y-192864757D02*
X204315170Y-192793328D01*
X204315170Y-192793328D02*
X204600884Y-192793328D01*
X204600884Y-192793328D02*
X204743741Y-192864757D01*
X204743741Y-192864757D02*
X204815170Y-193007614D01*
X204815170Y-193007614D02*
X204815170Y-193150471D01*
X204815170Y-193150471D02*
X204100884Y-193293328D01*
X205458026Y-193650471D02*
X205529455Y-193721900D01*
X205529455Y-193721900D02*
X205458026Y-193793328D01*
X205458026Y-193793328D02*
X205386598Y-193721900D01*
X205386598Y-193721900D02*
X205458026Y-193650471D01*
X205458026Y-193650471D02*
X205458026Y-193793328D01*
X205458026Y-192864757D02*
X205529455Y-192936185D01*
X205529455Y-192936185D02*
X205458026Y-193007614D01*
X205458026Y-193007614D02*
X205386598Y-192936185D01*
X205386598Y-192936185D02*
X205458026Y-192864757D01*
X205458026Y-192864757D02*
X205458026Y-193007614D01*
D10*
D11*
X177002200Y-194507200D02*
X285002200Y-194507200D01*
D10*
D11*
X178458026Y-196593328D02*
X178458026Y-195093328D01*
X179315169Y-196593328D02*
X178672312Y-195736185D01*
X179315169Y-195093328D02*
X178458026Y-195950471D01*
X179958026Y-196593328D02*
X179958026Y-195593328D01*
X179958026Y-195093328D02*
X179886598Y-195164757D01*
X179886598Y-195164757D02*
X179958026Y-195236185D01*
X179958026Y-195236185D02*
X180029455Y-195164757D01*
X180029455Y-195164757D02*
X179958026Y-195093328D01*
X179958026Y-195093328D02*
X179958026Y-195236185D01*
X181529455Y-196450471D02*
X181458027Y-196521900D01*
X181458027Y-196521900D02*
X181243741Y-196593328D01*
X181243741Y-196593328D02*
X181100884Y-196593328D01*
X181100884Y-196593328D02*
X180886598Y-196521900D01*
X180886598Y-196521900D02*
X180743741Y-196379042D01*
X180743741Y-196379042D02*
X180672312Y-196236185D01*
X180672312Y-196236185D02*
X180600884Y-195950471D01*
X180600884Y-195950471D02*
X180600884Y-195736185D01*
X180600884Y-195736185D02*
X180672312Y-195450471D01*
X180672312Y-195450471D02*
X180743741Y-195307614D01*
X180743741Y-195307614D02*
X180886598Y-195164757D01*
X180886598Y-195164757D02*
X181100884Y-195093328D01*
X181100884Y-195093328D02*
X181243741Y-195093328D01*
X181243741Y-195093328D02*
X181458027Y-195164757D01*
X181458027Y-195164757D02*
X181529455Y-195236185D01*
X182815170Y-196593328D02*
X182815170Y-195807614D01*
X182815170Y-195807614D02*
X182743741Y-195664757D01*
X182743741Y-195664757D02*
X182600884Y-195593328D01*
X182600884Y-195593328D02*
X182315170Y-195593328D01*
X182315170Y-195593328D02*
X182172312Y-195664757D01*
X182815170Y-196521900D02*
X182672312Y-196593328D01*
X182672312Y-196593328D02*
X182315170Y-196593328D01*
X182315170Y-196593328D02*
X182172312Y-196521900D01*
X182172312Y-196521900D02*
X182100884Y-196379042D01*
X182100884Y-196379042D02*
X182100884Y-196236185D01*
X182100884Y-196236185D02*
X182172312Y-196093328D01*
X182172312Y-196093328D02*
X182315170Y-196021900D01*
X182315170Y-196021900D02*
X182672312Y-196021900D01*
X182672312Y-196021900D02*
X182815170Y-195950471D01*
X184172313Y-196593328D02*
X184172313Y-195093328D01*
X184172313Y-196521900D02*
X184029455Y-196593328D01*
X184029455Y-196593328D02*
X183743741Y-196593328D01*
X183743741Y-196593328D02*
X183600884Y-196521900D01*
X183600884Y-196521900D02*
X183529455Y-196450471D01*
X183529455Y-196450471D02*
X183458027Y-196307614D01*
X183458027Y-196307614D02*
X183458027Y-195879042D01*
X183458027Y-195879042D02*
X183529455Y-195736185D01*
X183529455Y-195736185D02*
X183600884Y-195664757D01*
X183600884Y-195664757D02*
X183743741Y-195593328D01*
X183743741Y-195593328D02*
X184029455Y-195593328D01*
X184029455Y-195593328D02*
X184172313Y-195664757D01*
X186029455Y-195807614D02*
X186529455Y-195807614D01*
X186743741Y-196593328D02*
X186029455Y-196593328D01*
X186029455Y-196593328D02*
X186029455Y-195093328D01*
X186029455Y-195093328D02*
X186743741Y-195093328D01*
X187386598Y-196450471D02*
X187458027Y-196521900D01*
X187458027Y-196521900D02*
X187386598Y-196593328D01*
X187386598Y-196593328D02*
X187315170Y-196521900D01*
X187315170Y-196521900D02*
X187386598Y-196450471D01*
X187386598Y-196450471D02*
X187386598Y-196593328D01*
X188100884Y-196593328D02*
X188100884Y-195093328D01*
X188100884Y-195093328D02*
X188458027Y-195093328D01*
X188458027Y-195093328D02*
X188672313Y-195164757D01*
X188672313Y-195164757D02*
X188815170Y-195307614D01*
X188815170Y-195307614D02*
X188886599Y-195450471D01*
X188886599Y-195450471D02*
X188958027Y-195736185D01*
X188958027Y-195736185D02*
X188958027Y-195950471D01*
X188958027Y-195950471D02*
X188886599Y-196236185D01*
X188886599Y-196236185D02*
X188815170Y-196379042D01*
X188815170Y-196379042D02*
X188672313Y-196521900D01*
X188672313Y-196521900D02*
X188458027Y-196593328D01*
X188458027Y-196593328D02*
X188100884Y-196593328D01*
X189600884Y-196450471D02*
X189672313Y-196521900D01*
X189672313Y-196521900D02*
X189600884Y-196593328D01*
X189600884Y-196593328D02*
X189529456Y-196521900D01*
X189529456Y-196521900D02*
X189600884Y-196450471D01*
X189600884Y-196450471D02*
X189600884Y-196593328D01*
X190243742Y-196164757D02*
X190958028Y-196164757D01*
X190100885Y-196593328D02*
X190600885Y-195093328D01*
X190600885Y-195093328D02*
X191100885Y-196593328D01*
X191600884Y-196450471D02*
X191672313Y-196521900D01*
X191672313Y-196521900D02*
X191600884Y-196593328D01*
X191600884Y-196593328D02*
X191529456Y-196521900D01*
X191529456Y-196521900D02*
X191600884Y-196450471D01*
X191600884Y-196450471D02*
X191600884Y-196593328D01*
X194600884Y-196593328D02*
X194600884Y-195093328D01*
X194743742Y-196021900D02*
X195172313Y-196593328D01*
X195172313Y-195593328D02*
X194600884Y-196164757D01*
X195815170Y-196593328D02*
X195815170Y-195593328D01*
X195815170Y-195093328D02*
X195743742Y-195164757D01*
X195743742Y-195164757D02*
X195815170Y-195236185D01*
X195815170Y-195236185D02*
X195886599Y-195164757D01*
X195886599Y-195164757D02*
X195815170Y-195093328D01*
X195815170Y-195093328D02*
X195815170Y-195236185D01*
X197172314Y-196521900D02*
X197029456Y-196593328D01*
X197029456Y-196593328D02*
X196743742Y-196593328D01*
X196743742Y-196593328D02*
X196600885Y-196521900D01*
X196600885Y-196521900D02*
X196529456Y-196450471D01*
X196529456Y-196450471D02*
X196458028Y-196307614D01*
X196458028Y-196307614D02*
X196458028Y-195879042D01*
X196458028Y-195879042D02*
X196529456Y-195736185D01*
X196529456Y-195736185D02*
X196600885Y-195664757D01*
X196600885Y-195664757D02*
X196743742Y-195593328D01*
X196743742Y-195593328D02*
X197029456Y-195593328D01*
X197029456Y-195593328D02*
X197172314Y-195664757D01*
X198458028Y-196593328D02*
X198458028Y-195807614D01*
X198458028Y-195807614D02*
X198386599Y-195664757D01*
X198386599Y-195664757D02*
X198243742Y-195593328D01*
X198243742Y-195593328D02*
X197958028Y-195593328D01*
X197958028Y-195593328D02*
X197815170Y-195664757D01*
X198458028Y-196521900D02*
X198315170Y-196593328D01*
X198315170Y-196593328D02*
X197958028Y-196593328D01*
X197958028Y-196593328D02*
X197815170Y-196521900D01*
X197815170Y-196521900D02*
X197743742Y-196379042D01*
X197743742Y-196379042D02*
X197743742Y-196236185D01*
X197743742Y-196236185D02*
X197815170Y-196093328D01*
X197815170Y-196093328D02*
X197958028Y-196021900D01*
X197958028Y-196021900D02*
X198315170Y-196021900D01*
X198315170Y-196021900D02*
X198458028Y-195950471D01*
X199815171Y-196593328D02*
X199815171Y-195093328D01*
X199815171Y-196521900D02*
X199672313Y-196593328D01*
X199672313Y-196593328D02*
X199386599Y-196593328D01*
X199386599Y-196593328D02*
X199243742Y-196521900D01*
X199243742Y-196521900D02*
X199172313Y-196450471D01*
X199172313Y-196450471D02*
X199100885Y-196307614D01*
X199100885Y-196307614D02*
X199100885Y-195879042D01*
X199100885Y-195879042D02*
X199172313Y-195736185D01*
X199172313Y-195736185D02*
X199243742Y-195664757D01*
X199243742Y-195664757D02*
X199386599Y-195593328D01*
X199386599Y-195593328D02*
X199672313Y-195593328D01*
X199672313Y-195593328D02*
X199815171Y-195664757D01*
X201529456Y-195093328D02*
X202529456Y-195093328D01*
X202529456Y-195093328D02*
X201886599Y-196593328D01*
X203100884Y-196450471D02*
X203172313Y-196521900D01*
X203172313Y-196521900D02*
X203100884Y-196593328D01*
X203100884Y-196593328D02*
X203029456Y-196521900D01*
X203029456Y-196521900D02*
X203100884Y-196450471D01*
X203100884Y-196450471D02*
X203100884Y-196593328D01*
X203886599Y-196593328D02*
X204172313Y-196593328D01*
X204172313Y-196593328D02*
X204315170Y-196521900D01*
X204315170Y-196521900D02*
X204386599Y-196450471D01*
X204386599Y-196450471D02*
X204529456Y-196236185D01*
X204529456Y-196236185D02*
X204600885Y-195950471D01*
X204600885Y-195950471D02*
X204600885Y-195379042D01*
X204600885Y-195379042D02*
X204529456Y-195236185D01*
X204529456Y-195236185D02*
X204458028Y-195164757D01*
X204458028Y-195164757D02*
X204315170Y-195093328D01*
X204315170Y-195093328D02*
X204029456Y-195093328D01*
X204029456Y-195093328D02*
X203886599Y-195164757D01*
X203886599Y-195164757D02*
X203815170Y-195236185D01*
X203815170Y-195236185D02*
X203743742Y-195379042D01*
X203743742Y-195379042D02*
X203743742Y-195736185D01*
X203743742Y-195736185D02*
X203815170Y-195879042D01*
X203815170Y-195879042D02*
X203886599Y-195950471D01*
X203886599Y-195950471D02*
X204029456Y-196021900D01*
X204029456Y-196021900D02*
X204315170Y-196021900D01*
X204315170Y-196021900D02*
X204458028Y-195950471D01*
X204458028Y-195950471D02*
X204529456Y-195879042D01*
X204529456Y-195879042D02*
X204600885Y-195736185D01*
X205315170Y-196593328D02*
X205600884Y-196593328D01*
X205600884Y-196593328D02*
X205743741Y-196521900D01*
X205743741Y-196521900D02*
X205815170Y-196450471D01*
X205815170Y-196450471D02*
X205958027Y-196236185D01*
X205958027Y-196236185D02*
X206029456Y-195950471D01*
X206029456Y-195950471D02*
X206029456Y-195379042D01*
X206029456Y-195379042D02*
X205958027Y-195236185D01*
X205958027Y-195236185D02*
X205886599Y-195164757D01*
X205886599Y-195164757D02*
X205743741Y-195093328D01*
X205743741Y-195093328D02*
X205458027Y-195093328D01*
X205458027Y-195093328D02*
X205315170Y-195164757D01*
X205315170Y-195164757D02*
X205243741Y-195236185D01*
X205243741Y-195236185D02*
X205172313Y-195379042D01*
X205172313Y-195379042D02*
X205172313Y-195736185D01*
X205172313Y-195736185D02*
X205243741Y-195879042D01*
X205243741Y-195879042D02*
X205315170Y-195950471D01*
X205315170Y-195950471D02*
X205458027Y-196021900D01*
X205458027Y-196021900D02*
X205743741Y-196021900D01*
X205743741Y-196021900D02*
X205886599Y-195950471D01*
X205886599Y-195950471D02*
X205958027Y-195879042D01*
X205958027Y-195879042D02*
X206029456Y-195736185D01*
X206672312Y-196450471D02*
X206743741Y-196521900D01*
X206743741Y-196521900D02*
X206672312Y-196593328D01*
X206672312Y-196593328D02*
X206600884Y-196521900D01*
X206600884Y-196521900D02*
X206672312Y-196450471D01*
X206672312Y-196450471D02*
X206672312Y-196593328D01*
X207672313Y-195093328D02*
X207815170Y-195093328D01*
X207815170Y-195093328D02*
X207958027Y-195164757D01*
X207958027Y-195164757D02*
X208029456Y-195236185D01*
X208029456Y-195236185D02*
X208100884Y-195379042D01*
X208100884Y-195379042D02*
X208172313Y-195664757D01*
X208172313Y-195664757D02*
X208172313Y-196021900D01*
X208172313Y-196021900D02*
X208100884Y-196307614D01*
X208100884Y-196307614D02*
X208029456Y-196450471D01*
X208029456Y-196450471D02*
X207958027Y-196521900D01*
X207958027Y-196521900D02*
X207815170Y-196593328D01*
X207815170Y-196593328D02*
X207672313Y-196593328D01*
X207672313Y-196593328D02*
X207529456Y-196521900D01*
X207529456Y-196521900D02*
X207458027Y-196450471D01*
X207458027Y-196450471D02*
X207386598Y-196307614D01*
X207386598Y-196307614D02*
X207315170Y-196021900D01*
X207315170Y-196021900D02*
X207315170Y-195664757D01*
X207315170Y-195664757D02*
X207386598Y-195379042D01*
X207386598Y-195379042D02*
X207458027Y-195236185D01*
X207458027Y-195236185D02*
X207529456Y-195164757D01*
X207529456Y-195164757D02*
X207672313Y-195093328D01*
X208815169Y-196021900D02*
X209958027Y-196021900D01*
X211458027Y-196593328D02*
X210600884Y-196593328D01*
X211029455Y-196593328D02*
X211029455Y-195093328D01*
X211029455Y-195093328D02*
X210886598Y-195307614D01*
X210886598Y-195307614D02*
X210743741Y-195450471D01*
X210743741Y-195450471D02*
X210600884Y-195521900D01*
X212100883Y-196450471D02*
X212172312Y-196521900D01*
X212172312Y-196521900D02*
X212100883Y-196593328D01*
X212100883Y-196593328D02*
X212029455Y-196521900D01*
X212029455Y-196521900D02*
X212100883Y-196450471D01*
X212100883Y-196450471D02*
X212100883Y-196593328D01*
X212743741Y-195236185D02*
X212815169Y-195164757D01*
X212815169Y-195164757D02*
X212958027Y-195093328D01*
X212958027Y-195093328D02*
X213315169Y-195093328D01*
X213315169Y-195093328D02*
X213458027Y-195164757D01*
X213458027Y-195164757D02*
X213529455Y-195236185D01*
X213529455Y-195236185D02*
X213600884Y-195379042D01*
X213600884Y-195379042D02*
X213600884Y-195521900D01*
X213600884Y-195521900D02*
X213529455Y-195736185D01*
X213529455Y-195736185D02*
X212672312Y-196593328D01*
X212672312Y-196593328D02*
X213600884Y-196593328D01*
X214529455Y-195093328D02*
X214672312Y-195093328D01*
X214672312Y-195093328D02*
X214815169Y-195164757D01*
X214815169Y-195164757D02*
X214886598Y-195236185D01*
X214886598Y-195236185D02*
X214958026Y-195379042D01*
X214958026Y-195379042D02*
X215029455Y-195664757D01*
X215029455Y-195664757D02*
X215029455Y-196021900D01*
X215029455Y-196021900D02*
X214958026Y-196307614D01*
X214958026Y-196307614D02*
X214886598Y-196450471D01*
X214886598Y-196450471D02*
X214815169Y-196521900D01*
X214815169Y-196521900D02*
X214672312Y-196593328D01*
X214672312Y-196593328D02*
X214529455Y-196593328D01*
X214529455Y-196593328D02*
X214386598Y-196521900D01*
X214386598Y-196521900D02*
X214315169Y-196450471D01*
X214315169Y-196450471D02*
X214243740Y-196307614D01*
X214243740Y-196307614D02*
X214172312Y-196021900D01*
X214172312Y-196021900D02*
X214172312Y-195664757D01*
X214172312Y-195664757D02*
X214243740Y-195379042D01*
X214243740Y-195379042D02*
X214315169Y-195236185D01*
X214315169Y-195236185D02*
X214386598Y-195164757D01*
X214386598Y-195164757D02*
X214529455Y-195093328D01*
X215600883Y-195236185D02*
X215672311Y-195164757D01*
X215672311Y-195164757D02*
X215815169Y-195093328D01*
X215815169Y-195093328D02*
X216172311Y-195093328D01*
X216172311Y-195093328D02*
X216315169Y-195164757D01*
X216315169Y-195164757D02*
X216386597Y-195236185D01*
X216386597Y-195236185D02*
X216458026Y-195379042D01*
X216458026Y-195379042D02*
X216458026Y-195521900D01*
X216458026Y-195521900D02*
X216386597Y-195736185D01*
X216386597Y-195736185D02*
X215529454Y-196593328D01*
X215529454Y-196593328D02*
X216458026Y-196593328D01*
X216958025Y-195093328D02*
X217886597Y-195093328D01*
X217886597Y-195093328D02*
X217386597Y-195664757D01*
X217386597Y-195664757D02*
X217600882Y-195664757D01*
X217600882Y-195664757D02*
X217743740Y-195736185D01*
X217743740Y-195736185D02*
X217815168Y-195807614D01*
X217815168Y-195807614D02*
X217886597Y-195950471D01*
X217886597Y-195950471D02*
X217886597Y-196307614D01*
X217886597Y-196307614D02*
X217815168Y-196450471D01*
X217815168Y-196450471D02*
X217743740Y-196521900D01*
X217743740Y-196521900D02*
X217600882Y-196593328D01*
X217600882Y-196593328D02*
X217172311Y-196593328D01*
X217172311Y-196593328D02*
X217029454Y-196521900D01*
X217029454Y-196521900D02*
X216958025Y-196450471D01*
X218815168Y-195093328D02*
X218958025Y-195093328D01*
X218958025Y-195093328D02*
X219100882Y-195164757D01*
X219100882Y-195164757D02*
X219172311Y-195236185D01*
X219172311Y-195236185D02*
X219243739Y-195379042D01*
X219243739Y-195379042D02*
X219315168Y-195664757D01*
X219315168Y-195664757D02*
X219315168Y-196021900D01*
X219315168Y-196021900D02*
X219243739Y-196307614D01*
X219243739Y-196307614D02*
X219172311Y-196450471D01*
X219172311Y-196450471D02*
X219100882Y-196521900D01*
X219100882Y-196521900D02*
X218958025Y-196593328D01*
X218958025Y-196593328D02*
X218815168Y-196593328D01*
X218815168Y-196593328D02*
X218672311Y-196521900D01*
X218672311Y-196521900D02*
X218600882Y-196450471D01*
X218600882Y-196450471D02*
X218529453Y-196307614D01*
X218529453Y-196307614D02*
X218458025Y-196021900D01*
X218458025Y-196021900D02*
X218458025Y-195664757D01*
X218458025Y-195664757D02*
X218529453Y-195379042D01*
X218529453Y-195379042D02*
X218600882Y-195236185D01*
X218600882Y-195236185D02*
X218672311Y-195164757D01*
X218672311Y-195164757D02*
X218815168Y-195093328D01*
X220672310Y-195093328D02*
X219958024Y-195093328D01*
X219958024Y-195093328D02*
X219886596Y-195807614D01*
X219886596Y-195807614D02*
X219958024Y-195736185D01*
X219958024Y-195736185D02*
X220100882Y-195664757D01*
X220100882Y-195664757D02*
X220458024Y-195664757D01*
X220458024Y-195664757D02*
X220600882Y-195736185D01*
X220600882Y-195736185D02*
X220672310Y-195807614D01*
X220672310Y-195807614D02*
X220743739Y-195950471D01*
X220743739Y-195950471D02*
X220743739Y-196307614D01*
X220743739Y-196307614D02*
X220672310Y-196450471D01*
X220672310Y-196450471D02*
X220600882Y-196521900D01*
X220600882Y-196521900D02*
X220458024Y-196593328D01*
X220458024Y-196593328D02*
X220100882Y-196593328D01*
X220100882Y-196593328D02*
X219958024Y-196521900D01*
X219958024Y-196521900D02*
X219886596Y-196450471D01*
X222172310Y-196593328D02*
X221315167Y-196593328D01*
X221743738Y-196593328D02*
X221743738Y-195093328D01*
X221743738Y-195093328D02*
X221600881Y-195307614D01*
X221600881Y-195307614D02*
X221458024Y-195450471D01*
X221458024Y-195450471D02*
X221315167Y-195521900D01*
X223529452Y-195093328D02*
X222815166Y-195093328D01*
X222815166Y-195093328D02*
X222743738Y-195807614D01*
X222743738Y-195807614D02*
X222815166Y-195736185D01*
X222815166Y-195736185D02*
X222958024Y-195664757D01*
X222958024Y-195664757D02*
X223315166Y-195664757D01*
X223315166Y-195664757D02*
X223458024Y-195736185D01*
X223458024Y-195736185D02*
X223529452Y-195807614D01*
X223529452Y-195807614D02*
X223600881Y-195950471D01*
X223600881Y-195950471D02*
X223600881Y-196307614D01*
X223600881Y-196307614D02*
X223529452Y-196450471D01*
X223529452Y-196450471D02*
X223458024Y-196521900D01*
X223458024Y-196521900D02*
X223315166Y-196593328D01*
X223315166Y-196593328D02*
X222958024Y-196593328D01*
X222958024Y-196593328D02*
X222815166Y-196521900D01*
X222815166Y-196521900D02*
X222743738Y-196450471D01*
X224886595Y-195593328D02*
X224886595Y-196807614D01*
X224886595Y-196807614D02*
X224815166Y-196950471D01*
X224815166Y-196950471D02*
X224743737Y-197021900D01*
X224743737Y-197021900D02*
X224600880Y-197093328D01*
X224600880Y-197093328D02*
X224386595Y-197093328D01*
X224386595Y-197093328D02*
X224243737Y-197021900D01*
X224886595Y-196521900D02*
X224743737Y-196593328D01*
X224743737Y-196593328D02*
X224458023Y-196593328D01*
X224458023Y-196593328D02*
X224315166Y-196521900D01*
X224315166Y-196521900D02*
X224243737Y-196450471D01*
X224243737Y-196450471D02*
X224172309Y-196307614D01*
X224172309Y-196307614D02*
X224172309Y-195879042D01*
X224172309Y-195879042D02*
X224243737Y-195736185D01*
X224243737Y-195736185D02*
X224315166Y-195664757D01*
X224315166Y-195664757D02*
X224458023Y-195593328D01*
X224458023Y-195593328D02*
X224743737Y-195593328D01*
X224743737Y-195593328D02*
X224886595Y-195664757D01*
X225600880Y-196593328D02*
X225600880Y-195593328D01*
X225600880Y-195093328D02*
X225529452Y-195164757D01*
X225529452Y-195164757D02*
X225600880Y-195236185D01*
X225600880Y-195236185D02*
X225672309Y-195164757D01*
X225672309Y-195164757D02*
X225600880Y-195093328D01*
X225600880Y-195093328D02*
X225600880Y-195236185D01*
X226100881Y-195593328D02*
X226672309Y-195593328D01*
X226315166Y-195093328D02*
X226315166Y-196379042D01*
X226315166Y-196379042D02*
X226386595Y-196521900D01*
X226386595Y-196521900D02*
X226529452Y-196593328D01*
X226529452Y-196593328D02*
X226672309Y-196593328D01*
X227958024Y-196593328D02*
X227100881Y-196593328D01*
X227529452Y-196593328D02*
X227529452Y-195093328D01*
X227529452Y-195093328D02*
X227386595Y-195307614D01*
X227386595Y-195307614D02*
X227243738Y-195450471D01*
X227243738Y-195450471D02*
X227100881Y-195521900D01*
X229243738Y-196593328D02*
X229243738Y-195807614D01*
X229243738Y-195807614D02*
X229172309Y-195664757D01*
X229172309Y-195664757D02*
X229029452Y-195593328D01*
X229029452Y-195593328D02*
X228743738Y-195593328D01*
X228743738Y-195593328D02*
X228600880Y-195664757D01*
X229243738Y-196521900D02*
X229100880Y-196593328D01*
X229100880Y-196593328D02*
X228743738Y-196593328D01*
X228743738Y-196593328D02*
X228600880Y-196521900D01*
X228600880Y-196521900D02*
X228529452Y-196379042D01*
X228529452Y-196379042D02*
X228529452Y-196236185D01*
X228529452Y-196236185D02*
X228600880Y-196093328D01*
X228600880Y-196093328D02*
X228743738Y-196021900D01*
X228743738Y-196021900D02*
X229100880Y-196021900D01*
X229100880Y-196021900D02*
X229243738Y-195950471D01*
X230600881Y-196593328D02*
X230600881Y-195093328D01*
X230600881Y-196521900D02*
X230458023Y-196593328D01*
X230458023Y-196593328D02*
X230172309Y-196593328D01*
X230172309Y-196593328D02*
X230029452Y-196521900D01*
X230029452Y-196521900D02*
X229958023Y-196450471D01*
X229958023Y-196450471D02*
X229886595Y-196307614D01*
X229886595Y-196307614D02*
X229886595Y-195879042D01*
X229886595Y-195879042D02*
X229958023Y-195736185D01*
X229958023Y-195736185D02*
X230029452Y-195664757D01*
X230029452Y-195664757D02*
X230172309Y-195593328D01*
X230172309Y-195593328D02*
X230458023Y-195593328D01*
X230458023Y-195593328D02*
X230600881Y-195664757D01*
X231958024Y-196521900D02*
X231815166Y-196593328D01*
X231815166Y-196593328D02*
X231529452Y-196593328D01*
X231529452Y-196593328D02*
X231386595Y-196521900D01*
X231386595Y-196521900D02*
X231315166Y-196450471D01*
X231315166Y-196450471D02*
X231243738Y-196307614D01*
X231243738Y-196307614D02*
X231243738Y-195879042D01*
X231243738Y-195879042D02*
X231315166Y-195736185D01*
X231315166Y-195736185D02*
X231386595Y-195664757D01*
X231386595Y-195664757D02*
X231529452Y-195593328D01*
X231529452Y-195593328D02*
X231815166Y-195593328D01*
X231815166Y-195593328D02*
X231958024Y-195664757D01*
X232600880Y-196593328D02*
X232600880Y-195093328D01*
X232600880Y-195664757D02*
X232743738Y-195593328D01*
X232743738Y-195593328D02*
X233029452Y-195593328D01*
X233029452Y-195593328D02*
X233172309Y-195664757D01*
X233172309Y-195664757D02*
X233243738Y-195736185D01*
X233243738Y-195736185D02*
X233315166Y-195879042D01*
X233315166Y-195879042D02*
X233315166Y-196307614D01*
X233315166Y-196307614D02*
X233243738Y-196450471D01*
X233243738Y-196450471D02*
X233172309Y-196521900D01*
X233172309Y-196521900D02*
X233029452Y-196593328D01*
X233029452Y-196593328D02*
X232743738Y-196593328D01*
X232743738Y-196593328D02*
X232600880Y-196521900D01*
X234172309Y-195736185D02*
X234029452Y-195664757D01*
X234029452Y-195664757D02*
X233958023Y-195593328D01*
X233958023Y-195593328D02*
X233886595Y-195450471D01*
X233886595Y-195450471D02*
X233886595Y-195379042D01*
X233886595Y-195379042D02*
X233958023Y-195236185D01*
X233958023Y-195236185D02*
X234029452Y-195164757D01*
X234029452Y-195164757D02*
X234172309Y-195093328D01*
X234172309Y-195093328D02*
X234458023Y-195093328D01*
X234458023Y-195093328D02*
X234600881Y-195164757D01*
X234600881Y-195164757D02*
X234672309Y-195236185D01*
X234672309Y-195236185D02*
X234743738Y-195379042D01*
X234743738Y-195379042D02*
X234743738Y-195450471D01*
X234743738Y-195450471D02*
X234672309Y-195593328D01*
X234672309Y-195593328D02*
X234600881Y-195664757D01*
X234600881Y-195664757D02*
X234458023Y-195736185D01*
X234458023Y-195736185D02*
X234172309Y-195736185D01*
X234172309Y-195736185D02*
X234029452Y-195807614D01*
X234029452Y-195807614D02*
X233958023Y-195879042D01*
X233958023Y-195879042D02*
X233886595Y-196021900D01*
X233886595Y-196021900D02*
X233886595Y-196307614D01*
X233886595Y-196307614D02*
X233958023Y-196450471D01*
X233958023Y-196450471D02*
X234029452Y-196521900D01*
X234029452Y-196521900D02*
X234172309Y-196593328D01*
X234172309Y-196593328D02*
X234458023Y-196593328D01*
X234458023Y-196593328D02*
X234600881Y-196521900D01*
X234600881Y-196521900D02*
X234672309Y-196450471D01*
X234672309Y-196450471D02*
X234743738Y-196307614D01*
X234743738Y-196307614D02*
X234743738Y-196021900D01*
X234743738Y-196021900D02*
X234672309Y-195879042D01*
X234672309Y-195879042D02*
X234600881Y-195807614D01*
X234600881Y-195807614D02*
X234458023Y-195736185D01*
X236029452Y-195093328D02*
X235743737Y-195093328D01*
X235743737Y-195093328D02*
X235600880Y-195164757D01*
X235600880Y-195164757D02*
X235529452Y-195236185D01*
X235529452Y-195236185D02*
X235386594Y-195450471D01*
X235386594Y-195450471D02*
X235315166Y-195736185D01*
X235315166Y-195736185D02*
X235315166Y-196307614D01*
X235315166Y-196307614D02*
X235386594Y-196450471D01*
X235386594Y-196450471D02*
X235458023Y-196521900D01*
X235458023Y-196521900D02*
X235600880Y-196593328D01*
X235600880Y-196593328D02*
X235886594Y-196593328D01*
X235886594Y-196593328D02*
X236029452Y-196521900D01*
X236029452Y-196521900D02*
X236100880Y-196450471D01*
X236100880Y-196450471D02*
X236172309Y-196307614D01*
X236172309Y-196307614D02*
X236172309Y-195950471D01*
X236172309Y-195950471D02*
X236100880Y-195807614D01*
X236100880Y-195807614D02*
X236029452Y-195736185D01*
X236029452Y-195736185D02*
X235886594Y-195664757D01*
X235886594Y-195664757D02*
X235600880Y-195664757D01*
X235600880Y-195664757D02*
X235458023Y-195736185D01*
X235458023Y-195736185D02*
X235386594Y-195807614D01*
X235386594Y-195807614D02*
X235315166Y-195950471D01*
X236815165Y-196450471D02*
X236886594Y-196521900D01*
X236886594Y-196521900D02*
X236815165Y-196593328D01*
X236815165Y-196593328D02*
X236743737Y-196521900D01*
X236743737Y-196521900D02*
X236815165Y-196450471D01*
X236815165Y-196450471D02*
X236815165Y-196593328D01*
X237315166Y-195593328D02*
X237886594Y-195593328D01*
X237529451Y-196593328D02*
X237529451Y-195307614D01*
X237529451Y-195307614D02*
X237600880Y-195164757D01*
X237600880Y-195164757D02*
X237743737Y-195093328D01*
X237743737Y-195093328D02*
X237886594Y-195093328D01*
X239029452Y-196521900D02*
X238886594Y-196593328D01*
X238886594Y-196593328D02*
X238600880Y-196593328D01*
X238600880Y-196593328D02*
X238458023Y-196521900D01*
X238458023Y-196521900D02*
X238386594Y-196450471D01*
X238386594Y-196450471D02*
X238315166Y-196307614D01*
X238315166Y-196307614D02*
X238315166Y-195879042D01*
X238315166Y-195879042D02*
X238386594Y-195736185D01*
X238386594Y-195736185D02*
X238458023Y-195664757D01*
X238458023Y-195664757D02*
X238600880Y-195593328D01*
X238600880Y-195593328D02*
X238886594Y-195593328D01*
X238886594Y-195593328D02*
X239029452Y-195664757D01*
X239529451Y-195093328D02*
X240458023Y-195093328D01*
X240458023Y-195093328D02*
X239958023Y-195664757D01*
X239958023Y-195664757D02*
X240172308Y-195664757D01*
X240172308Y-195664757D02*
X240315166Y-195736185D01*
X240315166Y-195736185D02*
X240386594Y-195807614D01*
X240386594Y-195807614D02*
X240458023Y-195950471D01*
X240458023Y-195950471D02*
X240458023Y-196307614D01*
X240458023Y-196307614D02*
X240386594Y-196450471D01*
X240386594Y-196450471D02*
X240315166Y-196521900D01*
X240315166Y-196521900D02*
X240172308Y-196593328D01*
X240172308Y-196593328D02*
X239743737Y-196593328D01*
X239743737Y-196593328D02*
X239600880Y-196521900D01*
X239600880Y-196521900D02*
X239529451Y-196450471D01*
X240958022Y-195093328D02*
X241958022Y-195093328D01*
X241958022Y-195093328D02*
X241315165Y-196593328D01*
D10*
D11*
X177002200Y-191507200D02*
X285002200Y-191507200D01*
D10*
D12*
X264413853Y-193785528D02*
X263913853Y-193071242D01*
X263556710Y-193785528D02*
X263556710Y-192285528D01*
X263556710Y-192285528D02*
X264128139Y-192285528D01*
X264128139Y-192285528D02*
X264270996Y-192356957D01*
X264270996Y-192356957D02*
X264342425Y-192428385D01*
X264342425Y-192428385D02*
X264413853Y-192571242D01*
X264413853Y-192571242D02*
X264413853Y-192785528D01*
X264413853Y-192785528D02*
X264342425Y-192928385D01*
X264342425Y-192928385D02*
X264270996Y-192999814D01*
X264270996Y-192999814D02*
X264128139Y-193071242D01*
X264128139Y-193071242D02*
X263556710Y-193071242D01*
X265628139Y-193714100D02*
X265485282Y-193785528D01*
X265485282Y-193785528D02*
X265199568Y-193785528D01*
X265199568Y-193785528D02*
X265056710Y-193714100D01*
X265056710Y-193714100D02*
X264985282Y-193571242D01*
X264985282Y-193571242D02*
X264985282Y-192999814D01*
X264985282Y-192999814D02*
X265056710Y-192856957D01*
X265056710Y-192856957D02*
X265199568Y-192785528D01*
X265199568Y-192785528D02*
X265485282Y-192785528D01*
X265485282Y-192785528D02*
X265628139Y-192856957D01*
X265628139Y-192856957D02*
X265699568Y-192999814D01*
X265699568Y-192999814D02*
X265699568Y-193142671D01*
X265699568Y-193142671D02*
X264985282Y-193285528D01*
X266199567Y-192785528D02*
X266556710Y-193785528D01*
X266556710Y-193785528D02*
X266913853Y-192785528D01*
X267485281Y-193642671D02*
X267556710Y-193714100D01*
X267556710Y-193714100D02*
X267485281Y-193785528D01*
X267485281Y-193785528D02*
X267413853Y-193714100D01*
X267413853Y-193714100D02*
X267485281Y-193642671D01*
X267485281Y-193642671D02*
X267485281Y-193785528D01*
X267485281Y-192856957D02*
X267556710Y-192928385D01*
X267556710Y-192928385D02*
X267485281Y-192999814D01*
X267485281Y-192999814D02*
X267413853Y-192928385D01*
X267413853Y-192928385D02*
X267485281Y-192856957D01*
X267485281Y-192856957D02*
X267485281Y-192999814D01*
X269342424Y-193785528D02*
X269342424Y-192785528D01*
X269342424Y-193071242D02*
X269413853Y-192928385D01*
X269413853Y-192928385D02*
X269485282Y-192856957D01*
X269485282Y-192856957D02*
X269628139Y-192785528D01*
X269628139Y-192785528D02*
X269770996Y-192785528D01*
X271056710Y-193785528D02*
X270199567Y-193785528D01*
X270628138Y-193785528D02*
X270628138Y-192285528D01*
X270628138Y-192285528D02*
X270485281Y-192499814D01*
X270485281Y-192499814D02*
X270342424Y-192642671D01*
X270342424Y-192642671D02*
X270199567Y-192714100D01*
D10*
D11*
X178386598Y-193721900D02*
X178600884Y-193793328D01*
X178600884Y-193793328D02*
X178958026Y-193793328D01*
X178958026Y-193793328D02*
X179100884Y-193721900D01*
X179100884Y-193721900D02*
X179172312Y-193650471D01*
X179172312Y-193650471D02*
X179243741Y-193507614D01*
X179243741Y-193507614D02*
X179243741Y-193364757D01*
X179243741Y-193364757D02*
X179172312Y-193221900D01*
X179172312Y-193221900D02*
X179100884Y-193150471D01*
X179100884Y-193150471D02*
X178958026Y-193079042D01*
X178958026Y-193079042D02*
X178672312Y-193007614D01*
X178672312Y-193007614D02*
X178529455Y-192936185D01*
X178529455Y-192936185D02*
X178458026Y-192864757D01*
X178458026Y-192864757D02*
X178386598Y-192721900D01*
X178386598Y-192721900D02*
X178386598Y-192579042D01*
X178386598Y-192579042D02*
X178458026Y-192436185D01*
X178458026Y-192436185D02*
X178529455Y-192364757D01*
X178529455Y-192364757D02*
X178672312Y-192293328D01*
X178672312Y-192293328D02*
X179029455Y-192293328D01*
X179029455Y-192293328D02*
X179243741Y-192364757D01*
X179886597Y-193793328D02*
X179886597Y-192793328D01*
X179886597Y-192293328D02*
X179815169Y-192364757D01*
X179815169Y-192364757D02*
X179886597Y-192436185D01*
X179886597Y-192436185D02*
X179958026Y-192364757D01*
X179958026Y-192364757D02*
X179886597Y-192293328D01*
X179886597Y-192293328D02*
X179886597Y-192436185D01*
X180458026Y-192793328D02*
X181243741Y-192793328D01*
X181243741Y-192793328D02*
X180458026Y-193793328D01*
X180458026Y-193793328D02*
X181243741Y-193793328D01*
X182386598Y-193721900D02*
X182243741Y-193793328D01*
X182243741Y-193793328D02*
X181958027Y-193793328D01*
X181958027Y-193793328D02*
X181815169Y-193721900D01*
X181815169Y-193721900D02*
X181743741Y-193579042D01*
X181743741Y-193579042D02*
X181743741Y-193007614D01*
X181743741Y-193007614D02*
X181815169Y-192864757D01*
X181815169Y-192864757D02*
X181958027Y-192793328D01*
X181958027Y-192793328D02*
X182243741Y-192793328D01*
X182243741Y-192793328D02*
X182386598Y-192864757D01*
X182386598Y-192864757D02*
X182458027Y-193007614D01*
X182458027Y-193007614D02*
X182458027Y-193150471D01*
X182458027Y-193150471D02*
X181743741Y-193293328D01*
X183100883Y-193650471D02*
X183172312Y-193721900D01*
X183172312Y-193721900D02*
X183100883Y-193793328D01*
X183100883Y-193793328D02*
X183029455Y-193721900D01*
X183029455Y-193721900D02*
X183100883Y-193650471D01*
X183100883Y-193650471D02*
X183100883Y-193793328D01*
X183100883Y-192864757D02*
X183172312Y-192936185D01*
X183172312Y-192936185D02*
X183100883Y-193007614D01*
X183100883Y-193007614D02*
X183029455Y-192936185D01*
X183029455Y-192936185D02*
X183100883Y-192864757D01*
X183100883Y-192864757D02*
X183100883Y-193007614D01*
X184886598Y-193364757D02*
X185600884Y-193364757D01*
X184743741Y-193793328D02*
X185243741Y-192293328D01*
X185243741Y-192293328D02*
X185743741Y-193793328D01*
X186886598Y-192793328D02*
X186886598Y-193793328D01*
X186529455Y-192221900D02*
X186172312Y-193293328D01*
X186172312Y-193293328D02*
X187100883Y-193293328D01*
D10*
D11*
X263458026Y-196593328D02*
X263458026Y-195093328D01*
X264815170Y-196593328D02*
X264815170Y-195093328D01*
X264815170Y-196521900D02*
X264672312Y-196593328D01*
X264672312Y-196593328D02*
X264386598Y-196593328D01*
X264386598Y-196593328D02*
X264243741Y-196521900D01*
X264243741Y-196521900D02*
X264172312Y-196450471D01*
X264172312Y-196450471D02*
X264100884Y-196307614D01*
X264100884Y-196307614D02*
X264100884Y-195879042D01*
X264100884Y-195879042D02*
X264172312Y-195736185D01*
X264172312Y-195736185D02*
X264243741Y-195664757D01*
X264243741Y-195664757D02*
X264386598Y-195593328D01*
X264386598Y-195593328D02*
X264672312Y-195593328D01*
X264672312Y-195593328D02*
X264815170Y-195664757D01*
X265529455Y-196450471D02*
X265600884Y-196521900D01*
X265600884Y-196521900D02*
X265529455Y-196593328D01*
X265529455Y-196593328D02*
X265458027Y-196521900D01*
X265458027Y-196521900D02*
X265529455Y-196450471D01*
X265529455Y-196450471D02*
X265529455Y-196593328D01*
X265529455Y-195664757D02*
X265600884Y-195736185D01*
X265600884Y-195736185D02*
X265529455Y-195807614D01*
X265529455Y-195807614D02*
X265458027Y-195736185D01*
X265458027Y-195736185D02*
X265529455Y-195664757D01*
X265529455Y-195664757D02*
X265529455Y-195807614D01*
X268172313Y-196593328D02*
X267315170Y-196593328D01*
X267743741Y-196593328D02*
X267743741Y-195093328D01*
X267743741Y-195093328D02*
X267600884Y-195307614D01*
X267600884Y-195307614D02*
X267458027Y-195450471D01*
X267458027Y-195450471D02*
X267315170Y-195521900D01*
X269886598Y-195021900D02*
X268600884Y-196950471D01*
X271172313Y-196593328D02*
X270315170Y-196593328D01*
X270743741Y-196593328D02*
X270743741Y-195093328D01*
X270743741Y-195093328D02*
X270600884Y-195307614D01*
X270600884Y-195307614D02*
X270458027Y-195450471D01*
X270458027Y-195450471D02*
X270315170Y-195521900D01*
D10*
D11*
X177002200Y-187507200D02*
X285002200Y-187507200D01*
D10*
D13*
X178693928Y-188211638D02*
X179836785Y-188211638D01*
X179015357Y-190211638D02*
X179265357Y-188211638D01*
X180253452Y-190211638D02*
X180420119Y-188878304D01*
X180503452Y-188211638D02*
X180396309Y-188306876D01*
X180396309Y-188306876D02*
X180479643Y-188402114D01*
X180479643Y-188402114D02*
X180586786Y-188306876D01*
X180586786Y-188306876D02*
X180503452Y-188211638D01*
X180503452Y-188211638D02*
X180479643Y-188402114D01*
X181086786Y-188878304D02*
X181848690Y-188878304D01*
X181455833Y-188211638D02*
X181241548Y-189925923D01*
X181241548Y-189925923D02*
X181312976Y-190116400D01*
X181312976Y-190116400D02*
X181491548Y-190211638D01*
X181491548Y-190211638D02*
X181682024Y-190211638D01*
X182634405Y-190211638D02*
X182455833Y-190116400D01*
X182455833Y-190116400D02*
X182384405Y-189925923D01*
X182384405Y-189925923D02*
X182598690Y-188211638D01*
X184170119Y-190116400D02*
X183967738Y-190211638D01*
X183967738Y-190211638D02*
X183586785Y-190211638D01*
X183586785Y-190211638D02*
X183408214Y-190116400D01*
X183408214Y-190116400D02*
X183336785Y-189925923D01*
X183336785Y-189925923D02*
X183432024Y-189164019D01*
X183432024Y-189164019D02*
X183551071Y-188973542D01*
X183551071Y-188973542D02*
X183753452Y-188878304D01*
X183753452Y-188878304D02*
X184134404Y-188878304D01*
X184134404Y-188878304D02*
X184312976Y-188973542D01*
X184312976Y-188973542D02*
X184384404Y-189164019D01*
X184384404Y-189164019D02*
X184360595Y-189354495D01*
X184360595Y-189354495D02*
X183384404Y-189544971D01*
X185134405Y-190021161D02*
X185217738Y-190116400D01*
X185217738Y-190116400D02*
X185110595Y-190211638D01*
X185110595Y-190211638D02*
X185027262Y-190116400D01*
X185027262Y-190116400D02*
X185134405Y-190021161D01*
X185134405Y-190021161D02*
X185110595Y-190211638D01*
X185265357Y-188973542D02*
X185348690Y-189068780D01*
X185348690Y-189068780D02*
X185241548Y-189164019D01*
X185241548Y-189164019D02*
X185158214Y-189068780D01*
X185158214Y-189068780D02*
X185265357Y-188973542D01*
X185265357Y-188973542D02*
X185241548Y-189164019D01*
X187551072Y-188211638D02*
X188693929Y-188211638D01*
X187872501Y-190211638D02*
X188122501Y-188211638D01*
X189110596Y-190211638D02*
X189277263Y-188878304D01*
X189229644Y-189259257D02*
X189348691Y-189068780D01*
X189348691Y-189068780D02*
X189455834Y-188973542D01*
X189455834Y-188973542D02*
X189658215Y-188878304D01*
X189658215Y-188878304D02*
X189848691Y-188878304D01*
X190634406Y-190211638D02*
X190455834Y-190116400D01*
X190455834Y-190116400D02*
X190372501Y-190021161D01*
X190372501Y-190021161D02*
X190301072Y-189830685D01*
X190301072Y-189830685D02*
X190372501Y-189259257D01*
X190372501Y-189259257D02*
X190491548Y-189068780D01*
X190491548Y-189068780D02*
X190598691Y-188973542D01*
X190598691Y-188973542D02*
X190801072Y-188878304D01*
X190801072Y-188878304D02*
X191086786Y-188878304D01*
X191086786Y-188878304D02*
X191265358Y-188973542D01*
X191265358Y-188973542D02*
X191348691Y-189068780D01*
X191348691Y-189068780D02*
X191420120Y-189259257D01*
X191420120Y-189259257D02*
X191348691Y-189830685D01*
X191348691Y-189830685D02*
X191229644Y-190021161D01*
X191229644Y-190021161D02*
X191122501Y-190116400D01*
X191122501Y-190116400D02*
X190920120Y-190211638D01*
X190920120Y-190211638D02*
X190634406Y-190211638D01*
X192443930Y-190211638D02*
X192265358Y-190116400D01*
X192265358Y-190116400D02*
X192182025Y-190021161D01*
X192182025Y-190021161D02*
X192110596Y-189830685D01*
X192110596Y-189830685D02*
X192182025Y-189259257D01*
X192182025Y-189259257D02*
X192301072Y-189068780D01*
X192301072Y-189068780D02*
X192408215Y-188973542D01*
X192408215Y-188973542D02*
X192610596Y-188878304D01*
X192610596Y-188878304D02*
X192896310Y-188878304D01*
X192896310Y-188878304D02*
X193074882Y-188973542D01*
X193074882Y-188973542D02*
X193158215Y-189068780D01*
X193158215Y-189068780D02*
X193229644Y-189259257D01*
X193229644Y-189259257D02*
X193158215Y-189830685D01*
X193158215Y-189830685D02*
X193039168Y-190021161D01*
X193039168Y-190021161D02*
X192932025Y-190116400D01*
X192932025Y-190116400D02*
X192729644Y-190211638D01*
X192729644Y-190211638D02*
X192443930Y-190211638D01*
X194134406Y-188878304D02*
X193884406Y-190878304D01*
X194122501Y-188973542D02*
X194324882Y-188878304D01*
X194324882Y-188878304D02*
X194705834Y-188878304D01*
X194705834Y-188878304D02*
X194884406Y-188973542D01*
X194884406Y-188973542D02*
X194967739Y-189068780D01*
X194967739Y-189068780D02*
X195039168Y-189259257D01*
X195039168Y-189259257D02*
X194967739Y-189830685D01*
X194967739Y-189830685D02*
X194848692Y-190021161D01*
X194848692Y-190021161D02*
X194741549Y-190116400D01*
X194741549Y-190116400D02*
X194539168Y-190211638D01*
X194539168Y-190211638D02*
X194158215Y-190211638D01*
X194158215Y-190211638D02*
X193979644Y-190116400D01*
X196551073Y-190116400D02*
X196348692Y-190211638D01*
X196348692Y-190211638D02*
X195967739Y-190211638D01*
X195967739Y-190211638D02*
X195789168Y-190116400D01*
X195789168Y-190116400D02*
X195717739Y-189925923D01*
X195717739Y-189925923D02*
X195812978Y-189164019D01*
X195812978Y-189164019D02*
X195932025Y-188973542D01*
X195932025Y-188973542D02*
X196134406Y-188878304D01*
X196134406Y-188878304D02*
X196515358Y-188878304D01*
X196515358Y-188878304D02*
X196693930Y-188973542D01*
X196693930Y-188973542D02*
X196765358Y-189164019D01*
X196765358Y-189164019D02*
X196741549Y-189354495D01*
X196741549Y-189354495D02*
X195765358Y-189544971D01*
X197491549Y-190211638D02*
X197658216Y-188878304D01*
X197610597Y-189259257D02*
X197729644Y-189068780D01*
X197729644Y-189068780D02*
X197836787Y-188973542D01*
X197836787Y-188973542D02*
X198039168Y-188878304D01*
X198039168Y-188878304D02*
X198229644Y-188878304D01*
X198646311Y-190116400D02*
X198824882Y-190211638D01*
X198824882Y-190211638D02*
X199205835Y-190211638D01*
X199205835Y-190211638D02*
X199408216Y-190116400D01*
X199408216Y-190116400D02*
X199527263Y-189925923D01*
X199527263Y-189925923D02*
X199539168Y-189830685D01*
X199539168Y-189830685D02*
X199467739Y-189640209D01*
X199467739Y-189640209D02*
X199289168Y-189544971D01*
X199289168Y-189544971D02*
X199003454Y-189544971D01*
X199003454Y-189544971D02*
X198824882Y-189449733D01*
X198824882Y-189449733D02*
X198753454Y-189259257D01*
X198753454Y-189259257D02*
X198765359Y-189164019D01*
X198765359Y-189164019D02*
X198884406Y-188973542D01*
X198884406Y-188973542D02*
X199086787Y-188878304D01*
X199086787Y-188878304D02*
X199372501Y-188878304D01*
X199372501Y-188878304D02*
X199551073Y-188973542D01*
X202003455Y-188402114D02*
X202110597Y-188306876D01*
X202110597Y-188306876D02*
X202312978Y-188211638D01*
X202312978Y-188211638D02*
X202789169Y-188211638D01*
X202789169Y-188211638D02*
X202967740Y-188306876D01*
X202967740Y-188306876D02*
X203051074Y-188402114D01*
X203051074Y-188402114D02*
X203122502Y-188592590D01*
X203122502Y-188592590D02*
X203098693Y-188783066D01*
X203098693Y-188783066D02*
X202967740Y-189068780D01*
X202967740Y-189068780D02*
X201682026Y-190211638D01*
X201682026Y-190211638D02*
X202920121Y-190211638D01*
X203836788Y-188211638D02*
X205074883Y-188211638D01*
X205074883Y-188211638D02*
X204312979Y-188973542D01*
X204312979Y-188973542D02*
X204598693Y-188973542D01*
X204598693Y-188973542D02*
X204777264Y-189068780D01*
X204777264Y-189068780D02*
X204860598Y-189164019D01*
X204860598Y-189164019D02*
X204932026Y-189354495D01*
X204932026Y-189354495D02*
X204872502Y-189830685D01*
X204872502Y-189830685D02*
X204753455Y-190021161D01*
X204753455Y-190021161D02*
X204646312Y-190116400D01*
X204646312Y-190116400D02*
X204443931Y-190211638D01*
X204443931Y-190211638D02*
X203872502Y-190211638D01*
X203872502Y-190211638D02*
X203693931Y-190116400D01*
X203693931Y-190116400D02*
X203610598Y-190021161D01*
X207122503Y-190116400D02*
X207396312Y-190211638D01*
X207396312Y-190211638D02*
X207872503Y-190211638D01*
X207872503Y-190211638D02*
X208074884Y-190116400D01*
X208074884Y-190116400D02*
X208182027Y-190021161D01*
X208182027Y-190021161D02*
X208301074Y-189830685D01*
X208301074Y-189830685D02*
X208324884Y-189640209D01*
X208324884Y-189640209D02*
X208253455Y-189449733D01*
X208253455Y-189449733D02*
X208170122Y-189354495D01*
X208170122Y-189354495D02*
X207991551Y-189259257D01*
X207991551Y-189259257D02*
X207622503Y-189164019D01*
X207622503Y-189164019D02*
X207443931Y-189068780D01*
X207443931Y-189068780D02*
X207360598Y-188973542D01*
X207360598Y-188973542D02*
X207289170Y-188783066D01*
X207289170Y-188783066D02*
X207312979Y-188592590D01*
X207312979Y-188592590D02*
X207432027Y-188402114D01*
X207432027Y-188402114D02*
X207539170Y-188306876D01*
X207539170Y-188306876D02*
X207741551Y-188211638D01*
X207741551Y-188211638D02*
X208217741Y-188211638D01*
X208217741Y-188211638D02*
X208491551Y-188306876D01*
X209110598Y-190211638D02*
X209360598Y-188211638D01*
X209967741Y-190211638D02*
X210098693Y-189164019D01*
X210098693Y-189164019D02*
X210027265Y-188973542D01*
X210027265Y-188973542D02*
X209848693Y-188878304D01*
X209848693Y-188878304D02*
X209562979Y-188878304D01*
X209562979Y-188878304D02*
X209360598Y-188973542D01*
X209360598Y-188973542D02*
X209253455Y-189068780D01*
X210920122Y-190211638D02*
X211086789Y-188878304D01*
X211170122Y-188211638D02*
X211062979Y-188306876D01*
X211062979Y-188306876D02*
X211146313Y-188402114D01*
X211146313Y-188402114D02*
X211253456Y-188306876D01*
X211253456Y-188306876D02*
X211170122Y-188211638D01*
X211170122Y-188211638D02*
X211146313Y-188402114D01*
X211753456Y-188878304D02*
X212515360Y-188878304D01*
X212122503Y-188211638D02*
X211908218Y-189925923D01*
X211908218Y-189925923D02*
X211979646Y-190116400D01*
X211979646Y-190116400D02*
X212158218Y-190211638D01*
X212158218Y-190211638D02*
X212348694Y-190211638D01*
X212896313Y-188878304D02*
X213658217Y-188878304D01*
X213265360Y-188211638D02*
X213051075Y-189925923D01*
X213051075Y-189925923D02*
X213122503Y-190116400D01*
X213122503Y-190116400D02*
X213301075Y-190211638D01*
X213301075Y-190211638D02*
X213491551Y-190211638D01*
X214134408Y-188878304D02*
X214443932Y-190211638D01*
X215086789Y-188878304D02*
X214443932Y-190211638D01*
X214443932Y-190211638D02*
X214193932Y-190687828D01*
X214193932Y-190687828D02*
X214086789Y-190783066D01*
X214086789Y-190783066D02*
X213884408Y-190878304D01*
X217182028Y-189640209D02*
X218134409Y-189640209D01*
X216920123Y-190211638D02*
X217836790Y-188211638D01*
X217836790Y-188211638D02*
X218253456Y-190211638D01*
X219777266Y-190211638D02*
X220027266Y-188211638D01*
X219789171Y-190116400D02*
X219586790Y-190211638D01*
X219586790Y-190211638D02*
X219205838Y-190211638D01*
X219205838Y-190211638D02*
X219027266Y-190116400D01*
X219027266Y-190116400D02*
X218943933Y-190021161D01*
X218943933Y-190021161D02*
X218872504Y-189830685D01*
X218872504Y-189830685D02*
X218943933Y-189259257D01*
X218943933Y-189259257D02*
X219062980Y-189068780D01*
X219062980Y-189068780D02*
X219170123Y-188973542D01*
X219170123Y-188973542D02*
X219372504Y-188878304D01*
X219372504Y-188878304D02*
X219753457Y-188878304D01*
X219753457Y-188878304D02*
X219932028Y-188973542D01*
X221586790Y-190211638D02*
X221836790Y-188211638D01*
X221598695Y-190116400D02*
X221396314Y-190211638D01*
X221396314Y-190211638D02*
X221015362Y-190211638D01*
X221015362Y-190211638D02*
X220836790Y-190116400D01*
X220836790Y-190116400D02*
X220753457Y-190021161D01*
X220753457Y-190021161D02*
X220682028Y-189830685D01*
X220682028Y-189830685D02*
X220753457Y-189259257D01*
X220753457Y-189259257D02*
X220872504Y-189068780D01*
X220872504Y-189068780D02*
X220979647Y-188973542D01*
X220979647Y-188973542D02*
X221182028Y-188878304D01*
X221182028Y-188878304D02*
X221562981Y-188878304D01*
X221562981Y-188878304D02*
X221741552Y-188973542D01*
X222634409Y-189449733D02*
X224158219Y-189449733D01*
X225646314Y-188211638D02*
X226027266Y-188211638D01*
X226027266Y-188211638D02*
X226205837Y-188306876D01*
X226205837Y-188306876D02*
X226372504Y-188497352D01*
X226372504Y-188497352D02*
X226420123Y-188878304D01*
X226420123Y-188878304D02*
X226336790Y-189544971D01*
X226336790Y-189544971D02*
X226193933Y-189925923D01*
X226193933Y-189925923D02*
X225979647Y-190116400D01*
X225979647Y-190116400D02*
X225777266Y-190211638D01*
X225777266Y-190211638D02*
X225396314Y-190211638D01*
X225396314Y-190211638D02*
X225217742Y-190116400D01*
X225217742Y-190116400D02*
X225051076Y-189925923D01*
X225051076Y-189925923D02*
X225003456Y-189544971D01*
X225003456Y-189544971D02*
X225086790Y-188878304D01*
X225086790Y-188878304D02*
X225229647Y-188497352D01*
X225229647Y-188497352D02*
X225443933Y-188306876D01*
X225443933Y-188306876D02*
X225646314Y-188211638D01*
X227277266Y-188878304D02*
X227110599Y-190211638D01*
X227253456Y-189068780D02*
X227360599Y-188973542D01*
X227360599Y-188973542D02*
X227562980Y-188878304D01*
X227562980Y-188878304D02*
X227848694Y-188878304D01*
X227848694Y-188878304D02*
X228027266Y-188973542D01*
X228027266Y-188973542D02*
X228098694Y-189164019D01*
X228098694Y-189164019D02*
X227967742Y-190211638D01*
D10*
D11*
X178958026Y-185607614D02*
X178458026Y-185607614D01*
X178458026Y-186393328D02*
X178458026Y-184893328D01*
X178458026Y-184893328D02*
X179172312Y-184893328D01*
X179743740Y-186393328D02*
X179743740Y-185393328D01*
X179743740Y-184893328D02*
X179672312Y-184964757D01*
X179672312Y-184964757D02*
X179743740Y-185036185D01*
X179743740Y-185036185D02*
X179815169Y-184964757D01*
X179815169Y-184964757D02*
X179743740Y-184893328D01*
X179743740Y-184893328D02*
X179743740Y-185036185D01*
X180672312Y-186393328D02*
X180529455Y-186321900D01*
X180529455Y-186321900D02*
X180458026Y-186179042D01*
X180458026Y-186179042D02*
X180458026Y-184893328D01*
X181815169Y-186321900D02*
X181672312Y-186393328D01*
X181672312Y-186393328D02*
X181386598Y-186393328D01*
X181386598Y-186393328D02*
X181243740Y-186321900D01*
X181243740Y-186321900D02*
X181172312Y-186179042D01*
X181172312Y-186179042D02*
X181172312Y-185607614D01*
X181172312Y-185607614D02*
X181243740Y-185464757D01*
X181243740Y-185464757D02*
X181386598Y-185393328D01*
X181386598Y-185393328D02*
X181672312Y-185393328D01*
X181672312Y-185393328D02*
X181815169Y-185464757D01*
X181815169Y-185464757D02*
X181886598Y-185607614D01*
X181886598Y-185607614D02*
X181886598Y-185750471D01*
X181886598Y-185750471D02*
X181172312Y-185893328D01*
X182529454Y-186250471D02*
X182600883Y-186321900D01*
X182600883Y-186321900D02*
X182529454Y-186393328D01*
X182529454Y-186393328D02*
X182458026Y-186321900D01*
X182458026Y-186321900D02*
X182529454Y-186250471D01*
X182529454Y-186250471D02*
X182529454Y-186393328D01*
X182529454Y-185464757D02*
X182600883Y-185536185D01*
X182600883Y-185536185D02*
X182529454Y-185607614D01*
X182529454Y-185607614D02*
X182458026Y-185536185D01*
X182458026Y-185536185D02*
X182529454Y-185464757D01*
X182529454Y-185464757D02*
X182529454Y-185607614D01*
X184172312Y-185393328D02*
X184743740Y-185393328D01*
X184386597Y-184893328D02*
X184386597Y-186179042D01*
X184386597Y-186179042D02*
X184458026Y-186321900D01*
X184458026Y-186321900D02*
X184600883Y-186393328D01*
X184600883Y-186393328D02*
X184743740Y-186393328D01*
X185243740Y-186393328D02*
X185243740Y-185393328D01*
X185243740Y-185679042D02*
X185315169Y-185536185D01*
X185315169Y-185536185D02*
X185386598Y-185464757D01*
X185386598Y-185464757D02*
X185529455Y-185393328D01*
X185529455Y-185393328D02*
X185672312Y-185393328D01*
X186100883Y-185036185D02*
X186172311Y-184964757D01*
X186172311Y-184964757D02*
X186315169Y-184893328D01*
X186315169Y-184893328D02*
X186672311Y-184893328D01*
X186672311Y-184893328D02*
X186815169Y-184964757D01*
X186815169Y-184964757D02*
X186886597Y-185036185D01*
X186886597Y-185036185D02*
X186958026Y-185179042D01*
X186958026Y-185179042D02*
X186958026Y-185321900D01*
X186958026Y-185321900D02*
X186886597Y-185536185D01*
X186886597Y-185536185D02*
X186029454Y-186393328D01*
X186029454Y-186393328D02*
X186958026Y-186393328D01*
X187458025Y-184893328D02*
X188386597Y-184893328D01*
X188386597Y-184893328D02*
X187886597Y-185464757D01*
X187886597Y-185464757D02*
X188100882Y-185464757D01*
X188100882Y-185464757D02*
X188243740Y-185536185D01*
X188243740Y-185536185D02*
X188315168Y-185607614D01*
X188315168Y-185607614D02*
X188386597Y-185750471D01*
X188386597Y-185750471D02*
X188386597Y-186107614D01*
X188386597Y-186107614D02*
X188315168Y-186250471D01*
X188315168Y-186250471D02*
X188243740Y-186321900D01*
X188243740Y-186321900D02*
X188100882Y-186393328D01*
X188100882Y-186393328D02*
X187672311Y-186393328D01*
X187672311Y-186393328D02*
X187529454Y-186321900D01*
X187529454Y-186321900D02*
X187458025Y-186250471D01*
X189029453Y-185821900D02*
X190172311Y-185821900D01*
X190815168Y-186321900D02*
X190958025Y-186393328D01*
X190958025Y-186393328D02*
X191243739Y-186393328D01*
X191243739Y-186393328D02*
X191386596Y-186321900D01*
X191386596Y-186321900D02*
X191458025Y-186179042D01*
X191458025Y-186179042D02*
X191458025Y-186107614D01*
X191458025Y-186107614D02*
X191386596Y-185964757D01*
X191386596Y-185964757D02*
X191243739Y-185893328D01*
X191243739Y-185893328D02*
X191029454Y-185893328D01*
X191029454Y-185893328D02*
X190886596Y-185821900D01*
X190886596Y-185821900D02*
X190815168Y-185679042D01*
X190815168Y-185679042D02*
X190815168Y-185607614D01*
X190815168Y-185607614D02*
X190886596Y-185464757D01*
X190886596Y-185464757D02*
X191029454Y-185393328D01*
X191029454Y-185393328D02*
X191243739Y-185393328D01*
X191243739Y-185393328D02*
X191386596Y-185464757D01*
X192743740Y-186393328D02*
X192743740Y-185607614D01*
X192743740Y-185607614D02*
X192672311Y-185464757D01*
X192672311Y-185464757D02*
X192529454Y-185393328D01*
X192529454Y-185393328D02*
X192243740Y-185393328D01*
X192243740Y-185393328D02*
X192100882Y-185464757D01*
X192743740Y-186321900D02*
X192600882Y-186393328D01*
X192600882Y-186393328D02*
X192243740Y-186393328D01*
X192243740Y-186393328D02*
X192100882Y-186321900D01*
X192100882Y-186321900D02*
X192029454Y-186179042D01*
X192029454Y-186179042D02*
X192029454Y-186036185D01*
X192029454Y-186036185D02*
X192100882Y-185893328D01*
X192100882Y-185893328D02*
X192243740Y-185821900D01*
X192243740Y-185821900D02*
X192600882Y-185821900D01*
X192600882Y-185821900D02*
X192743740Y-185750471D01*
X193672311Y-186393328D02*
X193529454Y-186321900D01*
X193529454Y-186321900D02*
X193458025Y-186250471D01*
X193458025Y-186250471D02*
X193386597Y-186107614D01*
X193386597Y-186107614D02*
X193386597Y-185679042D01*
X193386597Y-185679042D02*
X193458025Y-185536185D01*
X193458025Y-185536185D02*
X193529454Y-185464757D01*
X193529454Y-185464757D02*
X193672311Y-185393328D01*
X193672311Y-185393328D02*
X193886597Y-185393328D01*
X193886597Y-185393328D02*
X194029454Y-185464757D01*
X194029454Y-185464757D02*
X194100883Y-185536185D01*
X194100883Y-185536185D02*
X194172311Y-185679042D01*
X194172311Y-185679042D02*
X194172311Y-186107614D01*
X194172311Y-186107614D02*
X194100883Y-186250471D01*
X194100883Y-186250471D02*
X194029454Y-186321900D01*
X194029454Y-186321900D02*
X193886597Y-186393328D01*
X193886597Y-186393328D02*
X193672311Y-186393328D01*
X194815168Y-185821900D02*
X195958026Y-185821900D01*
X196672311Y-186393328D02*
X196672311Y-185393328D01*
X196672311Y-185679042D02*
X196743740Y-185536185D01*
X196743740Y-185536185D02*
X196815169Y-185464757D01*
X196815169Y-185464757D02*
X196958026Y-185393328D01*
X196958026Y-185393328D02*
X197100883Y-185393328D01*
X198386597Y-186393328D02*
X197529454Y-186393328D01*
X197958025Y-186393328D02*
X197958025Y-184893328D01*
X197958025Y-184893328D02*
X197815168Y-185107614D01*
X197815168Y-185107614D02*
X197672311Y-185250471D01*
X197672311Y-185250471D02*
X197529454Y-185321900D01*
X199029453Y-186250471D02*
X199100882Y-186321900D01*
X199100882Y-186321900D02*
X199029453Y-186393328D01*
X199029453Y-186393328D02*
X198958025Y-186321900D01*
X198958025Y-186321900D02*
X199029453Y-186250471D01*
X199029453Y-186250471D02*
X199029453Y-186393328D01*
X199743739Y-186393328D02*
X199743739Y-184893328D01*
X199886597Y-185821900D02*
X200315168Y-186393328D01*
X200315168Y-185393328D02*
X199743739Y-185964757D01*
X200958025Y-186393328D02*
X200958025Y-185393328D01*
X200958025Y-184893328D02*
X200886597Y-184964757D01*
X200886597Y-184964757D02*
X200958025Y-185036185D01*
X200958025Y-185036185D02*
X201029454Y-184964757D01*
X201029454Y-184964757D02*
X200958025Y-184893328D01*
X200958025Y-184893328D02*
X200958025Y-185036185D01*
X202315169Y-186321900D02*
X202172311Y-186393328D01*
X202172311Y-186393328D02*
X201886597Y-186393328D01*
X201886597Y-186393328D02*
X201743740Y-186321900D01*
X201743740Y-186321900D02*
X201672311Y-186250471D01*
X201672311Y-186250471D02*
X201600883Y-186107614D01*
X201600883Y-186107614D02*
X201600883Y-185679042D01*
X201600883Y-185679042D02*
X201672311Y-185536185D01*
X201672311Y-185536185D02*
X201743740Y-185464757D01*
X201743740Y-185464757D02*
X201886597Y-185393328D01*
X201886597Y-185393328D02*
X202172311Y-185393328D01*
X202172311Y-185393328D02*
X202315169Y-185464757D01*
X203600883Y-186393328D02*
X203600883Y-185607614D01*
X203600883Y-185607614D02*
X203529454Y-185464757D01*
X203529454Y-185464757D02*
X203386597Y-185393328D01*
X203386597Y-185393328D02*
X203100883Y-185393328D01*
X203100883Y-185393328D02*
X202958025Y-185464757D01*
X203600883Y-186321900D02*
X203458025Y-186393328D01*
X203458025Y-186393328D02*
X203100883Y-186393328D01*
X203100883Y-186393328D02*
X202958025Y-186321900D01*
X202958025Y-186321900D02*
X202886597Y-186179042D01*
X202886597Y-186179042D02*
X202886597Y-186036185D01*
X202886597Y-186036185D02*
X202958025Y-185893328D01*
X202958025Y-185893328D02*
X203100883Y-185821900D01*
X203100883Y-185821900D02*
X203458025Y-185821900D01*
X203458025Y-185821900D02*
X203600883Y-185750471D01*
X204958026Y-186393328D02*
X204958026Y-184893328D01*
X204958026Y-186321900D02*
X204815168Y-186393328D01*
X204815168Y-186393328D02*
X204529454Y-186393328D01*
X204529454Y-186393328D02*
X204386597Y-186321900D01*
X204386597Y-186321900D02*
X204315168Y-186250471D01*
X204315168Y-186250471D02*
X204243740Y-186107614D01*
X204243740Y-186107614D02*
X204243740Y-185679042D01*
X204243740Y-185679042D02*
X204315168Y-185536185D01*
X204315168Y-185536185D02*
X204386597Y-185464757D01*
X204386597Y-185464757D02*
X204529454Y-185393328D01*
X204529454Y-185393328D02*
X204815168Y-185393328D01*
X204815168Y-185393328D02*
X204958026Y-185464757D01*
X205315169Y-186536185D02*
X206458026Y-186536185D01*
X206815168Y-185393328D02*
X206815168Y-186893328D01*
X206815168Y-185464757D02*
X206958026Y-185393328D01*
X206958026Y-185393328D02*
X207243740Y-185393328D01*
X207243740Y-185393328D02*
X207386597Y-185464757D01*
X207386597Y-185464757D02*
X207458026Y-185536185D01*
X207458026Y-185536185D02*
X207529454Y-185679042D01*
X207529454Y-185679042D02*
X207529454Y-186107614D01*
X207529454Y-186107614D02*
X207458026Y-186250471D01*
X207458026Y-186250471D02*
X207386597Y-186321900D01*
X207386597Y-186321900D02*
X207243740Y-186393328D01*
X207243740Y-186393328D02*
X206958026Y-186393328D01*
X206958026Y-186393328D02*
X206815168Y-186321900D01*
X208815169Y-186321900D02*
X208672311Y-186393328D01*
X208672311Y-186393328D02*
X208386597Y-186393328D01*
X208386597Y-186393328D02*
X208243740Y-186321900D01*
X208243740Y-186321900D02*
X208172311Y-186250471D01*
X208172311Y-186250471D02*
X208100883Y-186107614D01*
X208100883Y-186107614D02*
X208100883Y-185679042D01*
X208100883Y-185679042D02*
X208172311Y-185536185D01*
X208172311Y-185536185D02*
X208243740Y-185464757D01*
X208243740Y-185464757D02*
X208386597Y-185393328D01*
X208386597Y-185393328D02*
X208672311Y-185393328D01*
X208672311Y-185393328D02*
X208815169Y-185464757D01*
X209458025Y-186393328D02*
X209458025Y-184893328D01*
X209458025Y-185464757D02*
X209600883Y-185393328D01*
X209600883Y-185393328D02*
X209886597Y-185393328D01*
X209886597Y-185393328D02*
X210029454Y-185464757D01*
X210029454Y-185464757D02*
X210100883Y-185536185D01*
X210100883Y-185536185D02*
X210172311Y-185679042D01*
X210172311Y-185679042D02*
X210172311Y-186107614D01*
X210172311Y-186107614D02*
X210100883Y-186250471D01*
X210100883Y-186250471D02*
X210029454Y-186321900D01*
X210029454Y-186321900D02*
X209886597Y-186393328D01*
X209886597Y-186393328D02*
X209600883Y-186393328D01*
X209600883Y-186393328D02*
X209458025Y-186321900D01*
D10*
D11*
X177002200Y-181507200D02*
X285002200Y-181507200D01*
D10*
D11*
X178386598Y-183621900D02*
X178600884Y-183693328D01*
X178600884Y-183693328D02*
X178958026Y-183693328D01*
X178958026Y-183693328D02*
X179100884Y-183621900D01*
X179100884Y-183621900D02*
X179172312Y-183550471D01*
X179172312Y-183550471D02*
X179243741Y-183407614D01*
X179243741Y-183407614D02*
X179243741Y-183264757D01*
X179243741Y-183264757D02*
X179172312Y-183121900D01*
X179172312Y-183121900D02*
X179100884Y-183050471D01*
X179100884Y-183050471D02*
X178958026Y-182979042D01*
X178958026Y-182979042D02*
X178672312Y-182907614D01*
X178672312Y-182907614D02*
X178529455Y-182836185D01*
X178529455Y-182836185D02*
X178458026Y-182764757D01*
X178458026Y-182764757D02*
X178386598Y-182621900D01*
X178386598Y-182621900D02*
X178386598Y-182479042D01*
X178386598Y-182479042D02*
X178458026Y-182336185D01*
X178458026Y-182336185D02*
X178529455Y-182264757D01*
X178529455Y-182264757D02*
X178672312Y-182193328D01*
X178672312Y-182193328D02*
X179029455Y-182193328D01*
X179029455Y-182193328D02*
X179243741Y-182264757D01*
X179886597Y-183693328D02*
X179886597Y-182193328D01*
X180529455Y-183693328D02*
X180529455Y-182907614D01*
X180529455Y-182907614D02*
X180458026Y-182764757D01*
X180458026Y-182764757D02*
X180315169Y-182693328D01*
X180315169Y-182693328D02*
X180100883Y-182693328D01*
X180100883Y-182693328D02*
X179958026Y-182764757D01*
X179958026Y-182764757D02*
X179886597Y-182836185D01*
X181815169Y-183621900D02*
X181672312Y-183693328D01*
X181672312Y-183693328D02*
X181386598Y-183693328D01*
X181386598Y-183693328D02*
X181243740Y-183621900D01*
X181243740Y-183621900D02*
X181172312Y-183479042D01*
X181172312Y-183479042D02*
X181172312Y-182907614D01*
X181172312Y-182907614D02*
X181243740Y-182764757D01*
X181243740Y-182764757D02*
X181386598Y-182693328D01*
X181386598Y-182693328D02*
X181672312Y-182693328D01*
X181672312Y-182693328D02*
X181815169Y-182764757D01*
X181815169Y-182764757D02*
X181886598Y-182907614D01*
X181886598Y-182907614D02*
X181886598Y-183050471D01*
X181886598Y-183050471D02*
X181172312Y-183193328D01*
X183100883Y-183621900D02*
X182958026Y-183693328D01*
X182958026Y-183693328D02*
X182672312Y-183693328D01*
X182672312Y-183693328D02*
X182529454Y-183621900D01*
X182529454Y-183621900D02*
X182458026Y-183479042D01*
X182458026Y-183479042D02*
X182458026Y-182907614D01*
X182458026Y-182907614D02*
X182529454Y-182764757D01*
X182529454Y-182764757D02*
X182672312Y-182693328D01*
X182672312Y-182693328D02*
X182958026Y-182693328D01*
X182958026Y-182693328D02*
X183100883Y-182764757D01*
X183100883Y-182764757D02*
X183172312Y-182907614D01*
X183172312Y-182907614D02*
X183172312Y-183050471D01*
X183172312Y-183050471D02*
X182458026Y-183193328D01*
X183600883Y-182693328D02*
X184172311Y-182693328D01*
X183815168Y-182193328D02*
X183815168Y-183479042D01*
X183815168Y-183479042D02*
X183886597Y-183621900D01*
X183886597Y-183621900D02*
X184029454Y-183693328D01*
X184029454Y-183693328D02*
X184172311Y-183693328D01*
X184672311Y-183550471D02*
X184743740Y-183621900D01*
X184743740Y-183621900D02*
X184672311Y-183693328D01*
X184672311Y-183693328D02*
X184600883Y-183621900D01*
X184600883Y-183621900D02*
X184672311Y-183550471D01*
X184672311Y-183550471D02*
X184672311Y-183693328D01*
X184672311Y-182764757D02*
X184743740Y-182836185D01*
X184743740Y-182836185D02*
X184672311Y-182907614D01*
X184672311Y-182907614D02*
X184600883Y-182836185D01*
X184600883Y-182836185D02*
X184672311Y-182764757D01*
X184672311Y-182764757D02*
X184672311Y-182907614D01*
D10*
D12*
X178556710Y-180685528D02*
X178556710Y-179185528D01*
X178556710Y-179185528D02*
X179056710Y-180256957D01*
X179056710Y-180256957D02*
X179556710Y-179185528D01*
X179556710Y-179185528D02*
X179556710Y-180685528D01*
X180485282Y-180685528D02*
X180342425Y-180614100D01*
X180342425Y-180614100D02*
X180270996Y-180542671D01*
X180270996Y-180542671D02*
X180199568Y-180399814D01*
X180199568Y-180399814D02*
X180199568Y-179971242D01*
X180199568Y-179971242D02*
X180270996Y-179828385D01*
X180270996Y-179828385D02*
X180342425Y-179756957D01*
X180342425Y-179756957D02*
X180485282Y-179685528D01*
X180485282Y-179685528D02*
X180699568Y-179685528D01*
X180699568Y-179685528D02*
X180842425Y-179756957D01*
X180842425Y-179756957D02*
X180913854Y-179828385D01*
X180913854Y-179828385D02*
X180985282Y-179971242D01*
X180985282Y-179971242D02*
X180985282Y-180399814D01*
X180985282Y-180399814D02*
X180913854Y-180542671D01*
X180913854Y-180542671D02*
X180842425Y-180614100D01*
X180842425Y-180614100D02*
X180699568Y-180685528D01*
X180699568Y-180685528D02*
X180485282Y-180685528D01*
X181628139Y-179685528D02*
X181628139Y-180685528D01*
X181628139Y-179828385D02*
X181699568Y-179756957D01*
X181699568Y-179756957D02*
X181842425Y-179685528D01*
X181842425Y-179685528D02*
X182056711Y-179685528D01*
X182056711Y-179685528D02*
X182199568Y-179756957D01*
X182199568Y-179756957D02*
X182270997Y-179899814D01*
X182270997Y-179899814D02*
X182270997Y-180685528D01*
X183628140Y-180685528D02*
X183628140Y-179899814D01*
X183628140Y-179899814D02*
X183556711Y-179756957D01*
X183556711Y-179756957D02*
X183413854Y-179685528D01*
X183413854Y-179685528D02*
X183128140Y-179685528D01*
X183128140Y-179685528D02*
X182985282Y-179756957D01*
X183628140Y-180614100D02*
X183485282Y-180685528D01*
X183485282Y-180685528D02*
X183128140Y-180685528D01*
X183128140Y-180685528D02*
X182985282Y-180614100D01*
X182985282Y-180614100D02*
X182913854Y-180471242D01*
X182913854Y-180471242D02*
X182913854Y-180328385D01*
X182913854Y-180328385D02*
X182985282Y-180185528D01*
X182985282Y-180185528D02*
X183128140Y-180114100D01*
X183128140Y-180114100D02*
X183485282Y-180114100D01*
X183485282Y-180114100D02*
X183628140Y-180042671D01*
X184985283Y-180685528D02*
X184985283Y-179185528D01*
X184985283Y-180614100D02*
X184842425Y-180685528D01*
X184842425Y-180685528D02*
X184556711Y-180685528D01*
X184556711Y-180685528D02*
X184413854Y-180614100D01*
X184413854Y-180614100D02*
X184342425Y-180542671D01*
X184342425Y-180542671D02*
X184270997Y-180399814D01*
X184270997Y-180399814D02*
X184270997Y-179971242D01*
X184270997Y-179971242D02*
X184342425Y-179828385D01*
X184342425Y-179828385D02*
X184413854Y-179756957D01*
X184413854Y-179756957D02*
X184556711Y-179685528D01*
X184556711Y-179685528D02*
X184842425Y-179685528D01*
X184842425Y-179685528D02*
X184985283Y-179756957D01*
X187628140Y-179256957D02*
X187485283Y-179185528D01*
X187485283Y-179185528D02*
X187270997Y-179185528D01*
X187270997Y-179185528D02*
X187056711Y-179256957D01*
X187056711Y-179256957D02*
X186913854Y-179399814D01*
X186913854Y-179399814D02*
X186842425Y-179542671D01*
X186842425Y-179542671D02*
X186770997Y-179828385D01*
X186770997Y-179828385D02*
X186770997Y-180042671D01*
X186770997Y-180042671D02*
X186842425Y-180328385D01*
X186842425Y-180328385D02*
X186913854Y-180471242D01*
X186913854Y-180471242D02*
X187056711Y-180614100D01*
X187056711Y-180614100D02*
X187270997Y-180685528D01*
X187270997Y-180685528D02*
X187413854Y-180685528D01*
X187413854Y-180685528D02*
X187628140Y-180614100D01*
X187628140Y-180614100D02*
X187699568Y-180542671D01*
X187699568Y-180542671D02*
X187699568Y-180042671D01*
X187699568Y-180042671D02*
X187413854Y-180042671D01*
X188556711Y-180685528D02*
X188413854Y-180614100D01*
X188413854Y-180614100D02*
X188342425Y-180542671D01*
X188342425Y-180542671D02*
X188270997Y-180399814D01*
X188270997Y-180399814D02*
X188270997Y-179971242D01*
X188270997Y-179971242D02*
X188342425Y-179828385D01*
X188342425Y-179828385D02*
X188413854Y-179756957D01*
X188413854Y-179756957D02*
X188556711Y-179685528D01*
X188556711Y-179685528D02*
X188770997Y-179685528D01*
X188770997Y-179685528D02*
X188913854Y-179756957D01*
X188913854Y-179756957D02*
X188985283Y-179828385D01*
X188985283Y-179828385D02*
X189056711Y-179971242D01*
X189056711Y-179971242D02*
X189056711Y-180399814D01*
X189056711Y-180399814D02*
X188985283Y-180542671D01*
X188985283Y-180542671D02*
X188913854Y-180614100D01*
X188913854Y-180614100D02*
X188770997Y-180685528D01*
X188770997Y-180685528D02*
X188556711Y-180685528D01*
X189485283Y-179685528D02*
X190056711Y-179685528D01*
X189699568Y-179185528D02*
X189699568Y-180471242D01*
X189699568Y-180471242D02*
X189770997Y-180614100D01*
X189770997Y-180614100D02*
X189913854Y-180685528D01*
X189913854Y-180685528D02*
X190056711Y-180685528D01*
X190342426Y-179685528D02*
X190913854Y-179685528D01*
X190556711Y-179185528D02*
X190556711Y-180471242D01*
X190556711Y-180471242D02*
X190628140Y-180614100D01*
X190628140Y-180614100D02*
X190770997Y-180685528D01*
X190770997Y-180685528D02*
X190913854Y-180685528D01*
X191199569Y-179685528D02*
X191770997Y-179685528D01*
X191413854Y-180685528D02*
X191413854Y-179399814D01*
X191413854Y-179399814D02*
X191485283Y-179256957D01*
X191485283Y-179256957D02*
X191628140Y-179185528D01*
X191628140Y-179185528D02*
X191770997Y-179185528D01*
X192270997Y-180685528D02*
X192270997Y-179685528D01*
X192270997Y-179971242D02*
X192342426Y-179828385D01*
X192342426Y-179828385D02*
X192413855Y-179756957D01*
X192413855Y-179756957D02*
X192556712Y-179685528D01*
X192556712Y-179685528D02*
X192699569Y-179685528D01*
X193199568Y-180685528D02*
X193199568Y-179685528D01*
X193199568Y-179185528D02*
X193128140Y-179256957D01*
X193128140Y-179256957D02*
X193199568Y-179328385D01*
X193199568Y-179328385D02*
X193270997Y-179256957D01*
X193270997Y-179256957D02*
X193199568Y-179185528D01*
X193199568Y-179185528D02*
X193199568Y-179328385D01*
X194485283Y-180614100D02*
X194342426Y-180685528D01*
X194342426Y-180685528D02*
X194056712Y-180685528D01*
X194056712Y-180685528D02*
X193913854Y-180614100D01*
X193913854Y-180614100D02*
X193842426Y-180471242D01*
X193842426Y-180471242D02*
X193842426Y-179899814D01*
X193842426Y-179899814D02*
X193913854Y-179756957D01*
X193913854Y-179756957D02*
X194056712Y-179685528D01*
X194056712Y-179685528D02*
X194342426Y-179685528D01*
X194342426Y-179685528D02*
X194485283Y-179756957D01*
X194485283Y-179756957D02*
X194556712Y-179899814D01*
X194556712Y-179899814D02*
X194556712Y-180042671D01*
X194556712Y-180042671D02*
X193842426Y-180185528D01*
X195842426Y-180685528D02*
X195842426Y-179185528D01*
X195842426Y-180614100D02*
X195699568Y-180685528D01*
X195699568Y-180685528D02*
X195413854Y-180685528D01*
X195413854Y-180685528D02*
X195270997Y-180614100D01*
X195270997Y-180614100D02*
X195199568Y-180542671D01*
X195199568Y-180542671D02*
X195128140Y-180399814D01*
X195128140Y-180399814D02*
X195128140Y-179971242D01*
X195128140Y-179971242D02*
X195199568Y-179828385D01*
X195199568Y-179828385D02*
X195270997Y-179756957D01*
X195270997Y-179756957D02*
X195413854Y-179685528D01*
X195413854Y-179685528D02*
X195699568Y-179685528D01*
X195699568Y-179685528D02*
X195842426Y-179756957D01*
X197628140Y-179328385D02*
X197699568Y-179256957D01*
X197699568Y-179256957D02*
X197842426Y-179185528D01*
X197842426Y-179185528D02*
X198199568Y-179185528D01*
X198199568Y-179185528D02*
X198342426Y-179256957D01*
X198342426Y-179256957D02*
X198413854Y-179328385D01*
X198413854Y-179328385D02*
X198485283Y-179471242D01*
X198485283Y-179471242D02*
X198485283Y-179614100D01*
X198485283Y-179614100D02*
X198413854Y-179828385D01*
X198413854Y-179828385D02*
X197556711Y-180685528D01*
X197556711Y-180685528D02*
X198485283Y-180685528D01*
X199413854Y-179185528D02*
X199556711Y-179185528D01*
X199556711Y-179185528D02*
X199699568Y-179256957D01*
X199699568Y-179256957D02*
X199770997Y-179328385D01*
X199770997Y-179328385D02*
X199842425Y-179471242D01*
X199842425Y-179471242D02*
X199913854Y-179756957D01*
X199913854Y-179756957D02*
X199913854Y-180114100D01*
X199913854Y-180114100D02*
X199842425Y-180399814D01*
X199842425Y-180399814D02*
X199770997Y-180542671D01*
X199770997Y-180542671D02*
X199699568Y-180614100D01*
X199699568Y-180614100D02*
X199556711Y-180685528D01*
X199556711Y-180685528D02*
X199413854Y-180685528D01*
X199413854Y-180685528D02*
X199270997Y-180614100D01*
X199270997Y-180614100D02*
X199199568Y-180542671D01*
X199199568Y-180542671D02*
X199128139Y-180399814D01*
X199128139Y-180399814D02*
X199056711Y-180114100D01*
X199056711Y-180114100D02*
X199056711Y-179756957D01*
X199056711Y-179756957D02*
X199128139Y-179471242D01*
X199128139Y-179471242D02*
X199199568Y-179328385D01*
X199199568Y-179328385D02*
X199270997Y-179256957D01*
X199270997Y-179256957D02*
X199413854Y-179185528D01*
X200485282Y-179328385D02*
X200556710Y-179256957D01*
X200556710Y-179256957D02*
X200699568Y-179185528D01*
X200699568Y-179185528D02*
X201056710Y-179185528D01*
X201056710Y-179185528D02*
X201199568Y-179256957D01*
X201199568Y-179256957D02*
X201270996Y-179328385D01*
X201270996Y-179328385D02*
X201342425Y-179471242D01*
X201342425Y-179471242D02*
X201342425Y-179614100D01*
X201342425Y-179614100D02*
X201270996Y-179828385D01*
X201270996Y-179828385D02*
X200413853Y-180685528D01*
X200413853Y-180685528D02*
X201342425Y-180685528D01*
X201842424Y-179185528D02*
X202770996Y-179185528D01*
X202770996Y-179185528D02*
X202270996Y-179756957D01*
X202270996Y-179756957D02*
X202485281Y-179756957D01*
X202485281Y-179756957D02*
X202628139Y-179828385D01*
X202628139Y-179828385D02*
X202699567Y-179899814D01*
X202699567Y-179899814D02*
X202770996Y-180042671D01*
X202770996Y-180042671D02*
X202770996Y-180399814D01*
X202770996Y-180399814D02*
X202699567Y-180542671D01*
X202699567Y-180542671D02*
X202628139Y-180614100D01*
X202628139Y-180614100D02*
X202485281Y-180685528D01*
X202485281Y-180685528D02*
X202056710Y-180685528D01*
X202056710Y-180685528D02*
X201913853Y-180614100D01*
X201913853Y-180614100D02*
X201842424Y-180542671D01*
D10*
D11*
D10*
D11*
D10*
D11*
D10*
D11*
D10*
D11*
X197002200Y-191507200D02*
X197002200Y-194507200D01*
D10*
D11*
X261002200Y-191507200D02*
X261002200Y-198007200D01*
D14*
G04 #@! TO.C,GRAPHIC1*
X149816968Y-50322616D02*
X150295725Y-50322630D01*
X150773838Y-50322655D01*
X151250834Y-50322689D01*
X151726239Y-50322734D01*
X152199579Y-50322788D01*
X152670379Y-50322853D01*
X153138165Y-50322927D01*
X153602463Y-50323011D01*
X154062799Y-50323106D01*
X154518699Y-50323210D01*
X154969689Y-50323325D01*
X155415295Y-50323449D01*
X155855042Y-50323584D01*
X156288456Y-50323728D01*
X156715064Y-50323882D01*
X157134390Y-50324047D01*
X157545962Y-50324221D01*
X157949305Y-50324405D01*
X158343944Y-50324600D01*
X158729406Y-50324804D01*
X159105217Y-50325018D01*
X159470902Y-50325242D01*
X159825987Y-50325476D01*
X160169998Y-50325720D01*
X160502461Y-50325974D01*
X160822903Y-50326237D01*
X161130848Y-50326511D01*
X161425822Y-50326795D01*
X161707352Y-50327088D01*
X161974964Y-50327392D01*
X162228182Y-50327705D01*
X162466534Y-50328028D01*
X162689545Y-50328361D01*
X162896740Y-50328704D01*
X163087647Y-50329057D01*
X163261790Y-50329420D01*
X163418695Y-50329793D01*
X163557889Y-50330175D01*
X163678897Y-50330567D01*
X163781246Y-50330970D01*
X163864460Y-50331382D01*
X163928066Y-50331804D01*
X163971590Y-50332235D01*
X163994557Y-50332677D01*
X163995141Y-50332699D01*
X164287278Y-50350056D01*
X164562944Y-50378939D01*
X164823596Y-50419622D01*
X165070690Y-50472379D01*
X165305684Y-50537483D01*
X165530034Y-50615207D01*
X165558500Y-50626255D01*
X165678266Y-50676854D01*
X165800160Y-50734817D01*
X165917356Y-50796661D01*
X166023031Y-50858904D01*
X166055916Y-50880063D01*
X166104505Y-50913420D01*
X166154477Y-50949905D01*
X166202830Y-50987072D01*
X166246563Y-51022475D01*
X166282672Y-51053666D01*
X166308157Y-51078199D01*
X166320015Y-51093628D01*
X166320500Y-51095690D01*
X166309958Y-51096102D01*
X166278498Y-51096507D01*
X166226370Y-51096906D01*
X166153822Y-51097297D01*
X166061104Y-51097681D01*
X165948464Y-51098057D01*
X165816151Y-51098426D01*
X165664415Y-51098787D01*
X165493504Y-51099140D01*
X165303668Y-51099485D01*
X165095155Y-51099822D01*
X164868215Y-51100150D01*
X164623096Y-51100470D01*
X164360047Y-51100781D01*
X164079318Y-51101084D01*
X163781158Y-51101377D01*
X163465815Y-51101661D01*
X163133538Y-51101936D01*
X162784577Y-51102201D01*
X162419181Y-51102457D01*
X162037598Y-51102703D01*
X161640078Y-51102939D01*
X161226869Y-51103165D01*
X160798221Y-51103380D01*
X160354383Y-51103586D01*
X159895603Y-51103780D01*
X159422131Y-51103964D01*
X158934215Y-51104137D01*
X158432105Y-51104299D01*
X157916050Y-51104450D01*
X157386298Y-51104590D01*
X156843099Y-51104718D01*
X156286702Y-51104834D01*
X155717355Y-51104939D01*
X155135308Y-51105032D01*
X154540810Y-51105112D01*
X153934110Y-51105181D01*
X153315456Y-51105236D01*
X152685098Y-51105280D01*
X152043285Y-51105310D01*
X151390265Y-51105328D01*
X150823073Y-51105333D01*
X150129075Y-51105334D01*
X149455926Y-51105338D01*
X148803309Y-51105345D01*
X148170907Y-51105355D01*
X147558403Y-51105369D01*
X146965478Y-51105387D01*
X146391817Y-51105409D01*
X145837101Y-51105436D01*
X145301014Y-51105468D01*
X144783237Y-51105506D01*
X144283454Y-51105550D01*
X143801348Y-51105599D01*
X143336601Y-51105655D01*
X142888895Y-51105718D01*
X142457914Y-51105788D01*
X142043340Y-51105865D01*
X141644857Y-51105951D01*
X141262145Y-51106045D01*
X140894890Y-51106147D01*
X140542772Y-51106258D01*
X140205475Y-51106378D01*
X139882681Y-51106508D01*
X139574074Y-51106648D01*
X139279335Y-51106798D01*
X138998148Y-51106959D01*
X138730195Y-51107131D01*
X138475160Y-51107314D01*
X138232723Y-51107509D01*
X138002570Y-51107716D01*
X137784381Y-51107936D01*
X137577840Y-51108168D01*
X137382630Y-51108413D01*
X137198433Y-51108672D01*
X137024931Y-51108944D01*
X136861808Y-51109231D01*
X136708747Y-51109532D01*
X136565430Y-51109848D01*
X136431539Y-51110179D01*
X136306758Y-51110526D01*
X136190769Y-51110888D01*
X136083254Y-51111267D01*
X135983897Y-51111662D01*
X135892381Y-51112074D01*
X135808387Y-51112504D01*
X135731599Y-51112951D01*
X135661699Y-51113416D01*
X135598371Y-51113899D01*
X135541296Y-51114401D01*
X135490158Y-51114922D01*
X135444638Y-51115462D01*
X135404421Y-51116022D01*
X135369188Y-51116602D01*
X135338622Y-51117203D01*
X135312407Y-51117824D01*
X135290224Y-51118466D01*
X135271756Y-51119130D01*
X135256687Y-51119815D01*
X135244698Y-51120523D01*
X135235473Y-51121253D01*
X135228694Y-51122006D01*
X135225885Y-51122431D01*
X135078290Y-51158024D01*
X134940269Y-51212154D01*
X134812954Y-51284007D01*
X134697478Y-51372770D01*
X134594973Y-51477628D01*
X134506573Y-51597767D01*
X134464719Y-51669419D01*
X134422082Y-51759953D01*
X134385694Y-51861893D01*
X134360570Y-51952000D01*
X134359973Y-51955358D01*
X134359389Y-51960798D01*
X134358818Y-51968562D01*
X134358260Y-51978894D01*
X134357715Y-51992037D01*
X134357183Y-52008234D01*
X134356663Y-52027727D01*
X134356155Y-52050761D01*
X134355658Y-52077577D01*
X134355174Y-52108421D01*
X134354701Y-52143533D01*
X134354239Y-52183158D01*
X134353788Y-52227539D01*
X134353348Y-52276918D01*
X134352918Y-52331540D01*
X134352499Y-52391646D01*
X134352091Y-52457480D01*
X134351692Y-52529286D01*
X134351303Y-52607306D01*
X134350923Y-52691784D01*
X134350553Y-52782962D01*
X134350192Y-52881084D01*
X134349840Y-52986392D01*
X134349497Y-53099131D01*
X134349162Y-53219543D01*
X134348835Y-53347870D01*
X134348517Y-53484358D01*
X134348206Y-53629247D01*
X134347903Y-53782782D01*
X134347608Y-53945206D01*
X134347320Y-54116761D01*
X134347039Y-54297692D01*
X134346765Y-54488240D01*
X134346497Y-54688649D01*
X134346236Y-54899163D01*
X134345981Y-55120024D01*
X134345732Y-55351475D01*
X134345488Y-55593760D01*
X134345251Y-55847122D01*
X134345019Y-56111804D01*
X134344791Y-56388048D01*
X134344569Y-56676098D01*
X134344352Y-56976198D01*
X134344139Y-57288590D01*
X134343930Y-57613517D01*
X134343726Y-57951223D01*
X134343525Y-58301950D01*
X134343328Y-58665943D01*
X134343135Y-59043443D01*
X134342945Y-59434693D01*
X134342758Y-59839939D01*
X134342573Y-60259421D01*
X134342392Y-60693383D01*
X134342213Y-61142069D01*
X134342036Y-61605722D01*
X134341861Y-62084584D01*
X134341688Y-62578899D01*
X134341516Y-63088910D01*
X134341346Y-63614860D01*
X134341177Y-64156992D01*
X134341009Y-64715550D01*
X134340841Y-65290775D01*
X134340675Y-65882913D01*
X134340508Y-66492205D01*
X134340342Y-67118894D01*
X134340176Y-67763224D01*
X134340009Y-68425439D01*
X134339842Y-69105780D01*
X134339674Y-69804492D01*
X134339505Y-70521817D01*
X134339335Y-71257998D01*
X134339164Y-72013279D01*
X134338991Y-72787903D01*
X134338816Y-73582112D01*
X134338639Y-74396150D01*
X134338461Y-75230260D01*
X134338279Y-76084686D01*
X134338095Y-76959669D01*
X134337909Y-77855454D01*
X134337814Y-78313619D01*
X134332375Y-104606446D01*
X134205310Y-104475619D01*
X134156825Y-104424438D01*
X134107733Y-104370421D01*
X134062518Y-104318646D01*
X134025661Y-104274194D01*
X134011995Y-104256602D01*
X133909882Y-104106899D01*
X133821487Y-103947351D01*
X133746159Y-103776269D01*
X133683246Y-103591960D01*
X133632097Y-103392735D01*
X133592062Y-103176903D01*
X133589408Y-103159458D01*
X133588744Y-103154534D01*
X133588096Y-103148559D01*
X133587463Y-103141283D01*
X133586846Y-103132456D01*
X133586243Y-103121830D01*
X133585656Y-103109155D01*
X133585083Y-103094181D01*
X133584524Y-103076660D01*
X133583980Y-103056341D01*
X133583450Y-103032977D01*
X133582934Y-103006316D01*
X133582431Y-102976110D01*
X133581943Y-102942110D01*
X133581467Y-102904066D01*
X133581005Y-102861729D01*
X133580555Y-102814849D01*
X133580119Y-102763178D01*
X133579695Y-102706465D01*
X133579284Y-102644462D01*
X133578884Y-102576919D01*
X133578497Y-102503587D01*
X133578122Y-102424216D01*
X133577758Y-102338557D01*
X133577406Y-102246361D01*
X133577066Y-102147379D01*
X133576736Y-102041360D01*
X133576418Y-101928056D01*
X133576110Y-101807217D01*
X133575813Y-101678595D01*
X133575526Y-101541939D01*
X133575249Y-101397000D01*
X133574983Y-101243529D01*
X133574726Y-101081277D01*
X133574479Y-100909994D01*
X133574242Y-100729431D01*
X133574014Y-100539339D01*
X133573795Y-100339468D01*
X133573584Y-100129568D01*
X133573383Y-99909392D01*
X133573190Y-99678688D01*
X133573006Y-99437208D01*
X133572829Y-99184703D01*
X133572661Y-98920923D01*
X133572501Y-98645618D01*
X133572348Y-98358540D01*
X133572203Y-98059440D01*
X133572064Y-97748066D01*
X133571933Y-97424172D01*
X133571809Y-97087506D01*
X133571692Y-96737820D01*
X133571581Y-96374864D01*
X133571477Y-95998390D01*
X133571378Y-95608147D01*
X133571286Y-95203886D01*
X133571199Y-94785359D01*
X133571118Y-94352315D01*
X133571043Y-93904505D01*
X133570972Y-93441680D01*
X133570907Y-92963591D01*
X133570847Y-92469988D01*
X133570791Y-91960622D01*
X133570740Y-91435243D01*
X133570693Y-90893603D01*
X133570650Y-90335451D01*
X133570611Y-89760539D01*
X133570576Y-89168617D01*
X133570545Y-88559436D01*
X133570516Y-87932747D01*
X133570491Y-87288299D01*
X133570469Y-86625844D01*
X133570450Y-85945133D01*
X133570434Y-85245916D01*
X133570420Y-84527943D01*
X133570408Y-83790966D01*
X133570399Y-83034735D01*
X133570391Y-82259000D01*
X133570385Y-81463513D01*
X133570381Y-80648024D01*
X133570377Y-79812284D01*
X133570376Y-78956043D01*
X133570375Y-78079051D01*
X133570375Y-51925541D01*
X133594786Y-51814416D01*
X133647882Y-51619386D01*
X133718690Y-51434681D01*
X133806231Y-51261153D01*
X133909526Y-51099655D01*
X134027598Y-50951041D01*
X134159468Y-50816162D01*
X134304158Y-50695870D01*
X134460689Y-50591020D01*
X134628083Y-50502463D01*
X134805362Y-50431052D01*
X134991548Y-50377639D01*
X135185662Y-50343077D01*
X135295246Y-50332427D01*
X135312223Y-50331985D01*
X135349892Y-50331553D01*
X135407779Y-50331132D01*
X135485411Y-50330721D01*
X135582313Y-50330320D01*
X135698011Y-50329930D01*
X135832032Y-50329549D01*
X135983899Y-50329179D01*
X136153141Y-50328819D01*
X136339282Y-50328469D01*
X136541848Y-50328130D01*
X136760366Y-50327800D01*
X136994361Y-50327481D01*
X137243359Y-50327172D01*
X137506885Y-50326873D01*
X137784467Y-50326584D01*
X138075629Y-50326306D01*
X138379898Y-50326037D01*
X138696799Y-50325779D01*
X139025859Y-50325531D01*
X139366602Y-50325293D01*
X139718556Y-50325066D01*
X140081245Y-50324848D01*
X140454197Y-50324640D01*
X140836936Y-50324443D01*
X141228988Y-50324256D01*
X141629880Y-50324079D01*
X142039137Y-50323912D01*
X142456285Y-50323755D01*
X142880851Y-50323608D01*
X143312359Y-50323471D01*
X143750336Y-50323345D01*
X144194308Y-50323228D01*
X144643800Y-50323122D01*
X145098338Y-50323026D01*
X145557449Y-50322939D01*
X146020658Y-50322863D01*
X146487491Y-50322797D01*
X146957474Y-50322741D01*
X147430133Y-50322695D01*
X147904993Y-50322659D01*
X148381581Y-50322633D01*
X148859422Y-50322618D01*
X149338042Y-50322612D01*
X149816968Y-50322616D01*
G36*
X149816968Y-50322616D02*
G01*
X150295725Y-50322630D01*
X150773838Y-50322655D01*
X151250834Y-50322689D01*
X151726239Y-50322734D01*
X152199579Y-50322788D01*
X152670379Y-50322853D01*
X153138165Y-50322927D01*
X153602463Y-50323011D01*
X154062799Y-50323106D01*
X154518699Y-50323210D01*
X154969689Y-50323325D01*
X155415295Y-50323449D01*
X155855042Y-50323584D01*
X156288456Y-50323728D01*
X156715064Y-50323882D01*
X157134390Y-50324047D01*
X157545962Y-50324221D01*
X157949305Y-50324405D01*
X158343944Y-50324600D01*
X158729406Y-50324804D01*
X159105217Y-50325018D01*
X159470902Y-50325242D01*
X159825987Y-50325476D01*
X160169998Y-50325720D01*
X160502461Y-50325974D01*
X160822903Y-50326237D01*
X161130848Y-50326511D01*
X161425822Y-50326795D01*
X161707352Y-50327088D01*
X161974964Y-50327392D01*
X162228182Y-50327705D01*
X162466534Y-50328028D01*
X162689545Y-50328361D01*
X162896740Y-50328704D01*
X163087647Y-50329057D01*
X163261790Y-50329420D01*
X163418695Y-50329793D01*
X163557889Y-50330175D01*
X163678897Y-50330567D01*
X163781246Y-50330970D01*
X163864460Y-50331382D01*
X163928066Y-50331804D01*
X163971590Y-50332235D01*
X163994557Y-50332677D01*
X163995141Y-50332699D01*
X164287278Y-50350056D01*
X164562944Y-50378939D01*
X164823596Y-50419622D01*
X165070690Y-50472379D01*
X165305684Y-50537483D01*
X165530034Y-50615207D01*
X165558500Y-50626255D01*
X165678266Y-50676854D01*
X165800160Y-50734817D01*
X165917356Y-50796661D01*
X166023031Y-50858904D01*
X166055916Y-50880063D01*
X166104505Y-50913420D01*
X166154477Y-50949905D01*
X166202830Y-50987072D01*
X166246563Y-51022475D01*
X166282672Y-51053666D01*
X166308157Y-51078199D01*
X166320015Y-51093628D01*
X166320500Y-51095690D01*
X166309958Y-51096102D01*
X166278498Y-51096507D01*
X166226370Y-51096906D01*
X166153822Y-51097297D01*
X166061104Y-51097681D01*
X165948464Y-51098057D01*
X165816151Y-51098426D01*
X165664415Y-51098787D01*
X165493504Y-51099140D01*
X165303668Y-51099485D01*
X165095155Y-51099822D01*
X164868215Y-51100150D01*
X164623096Y-51100470D01*
X164360047Y-51100781D01*
X164079318Y-51101084D01*
X163781158Y-51101377D01*
X163465815Y-51101661D01*
X163133538Y-51101936D01*
X162784577Y-51102201D01*
X162419181Y-51102457D01*
X162037598Y-51102703D01*
X161640078Y-51102939D01*
X161226869Y-51103165D01*
X160798221Y-51103380D01*
X160354383Y-51103586D01*
X159895603Y-51103780D01*
X159422131Y-51103964D01*
X158934215Y-51104137D01*
X158432105Y-51104299D01*
X157916050Y-51104450D01*
X157386298Y-51104590D01*
X156843099Y-51104718D01*
X156286702Y-51104834D01*
X155717355Y-51104939D01*
X155135308Y-51105032D01*
X154540810Y-51105112D01*
X153934110Y-51105181D01*
X153315456Y-51105236D01*
X152685098Y-51105280D01*
X152043285Y-51105310D01*
X151390265Y-51105328D01*
X150823073Y-51105333D01*
X150129075Y-51105334D01*
X149455926Y-51105338D01*
X148803309Y-51105345D01*
X148170907Y-51105355D01*
X147558403Y-51105369D01*
X146965478Y-51105387D01*
X146391817Y-51105409D01*
X145837101Y-51105436D01*
X145301014Y-51105468D01*
X144783237Y-51105506D01*
X144283454Y-51105550D01*
X143801348Y-51105599D01*
X143336601Y-51105655D01*
X142888895Y-51105718D01*
X142457914Y-51105788D01*
X142043340Y-51105865D01*
X141644857Y-51105951D01*
X141262145Y-51106045D01*
X140894890Y-51106147D01*
X140542772Y-51106258D01*
X140205475Y-51106378D01*
X139882681Y-51106508D01*
X139574074Y-51106648D01*
X139279335Y-51106798D01*
X138998148Y-51106959D01*
X138730195Y-51107131D01*
X138475160Y-51107314D01*
X138232723Y-51107509D01*
X138002570Y-51107716D01*
X137784381Y-51107936D01*
X137577840Y-51108168D01*
X137382630Y-51108413D01*
X137198433Y-51108672D01*
X137024931Y-51108944D01*
X136861808Y-51109231D01*
X136708747Y-51109532D01*
X136565430Y-51109848D01*
X136431539Y-51110179D01*
X136306758Y-51110526D01*
X136190769Y-51110888D01*
X136083254Y-51111267D01*
X135983897Y-51111662D01*
X135892381Y-51112074D01*
X135808387Y-51112504D01*
X135731599Y-51112951D01*
X135661699Y-51113416D01*
X135598371Y-51113899D01*
X135541296Y-51114401D01*
X135490158Y-51114922D01*
X135444638Y-51115462D01*
X135404421Y-51116022D01*
X135369188Y-51116602D01*
X135338622Y-51117203D01*
X135312407Y-51117824D01*
X135290224Y-51118466D01*
X135271756Y-51119130D01*
X135256687Y-51119815D01*
X135244698Y-51120523D01*
X135235473Y-51121253D01*
X135228694Y-51122006D01*
X135225885Y-51122431D01*
X135078290Y-51158024D01*
X134940269Y-51212154D01*
X134812954Y-51284007D01*
X134697478Y-51372770D01*
X134594973Y-51477628D01*
X134506573Y-51597767D01*
X134464719Y-51669419D01*
X134422082Y-51759953D01*
X134385694Y-51861893D01*
X134360570Y-51952000D01*
X134359973Y-51955358D01*
X134359389Y-51960798D01*
X134358818Y-51968562D01*
X134358260Y-51978894D01*
X134357715Y-51992037D01*
X134357183Y-52008234D01*
X134356663Y-52027727D01*
X134356155Y-52050761D01*
X134355658Y-52077577D01*
X134355174Y-52108421D01*
X134354701Y-52143533D01*
X134354239Y-52183158D01*
X134353788Y-52227539D01*
X134353348Y-52276918D01*
X134352918Y-52331540D01*
X134352499Y-52391646D01*
X134352091Y-52457480D01*
X134351692Y-52529286D01*
X134351303Y-52607306D01*
X134350923Y-52691784D01*
X134350553Y-52782962D01*
X134350192Y-52881084D01*
X134349840Y-52986392D01*
X134349497Y-53099131D01*
X134349162Y-53219543D01*
X134348835Y-53347870D01*
X134348517Y-53484358D01*
X134348206Y-53629247D01*
X134347903Y-53782782D01*
X134347608Y-53945206D01*
X134347320Y-54116761D01*
X134347039Y-54297692D01*
X134346765Y-54488240D01*
X134346497Y-54688649D01*
X134346236Y-54899163D01*
X134345981Y-55120024D01*
X134345732Y-55351475D01*
X134345488Y-55593760D01*
X134345251Y-55847122D01*
X134345019Y-56111804D01*
X134344791Y-56388048D01*
X134344569Y-56676098D01*
X134344352Y-56976198D01*
X134344139Y-57288590D01*
X134343930Y-57613517D01*
X134343726Y-57951223D01*
X134343525Y-58301950D01*
X134343328Y-58665943D01*
X134343135Y-59043443D01*
X134342945Y-59434693D01*
X134342758Y-59839939D01*
X134342573Y-60259421D01*
X134342392Y-60693383D01*
X134342213Y-61142069D01*
X134342036Y-61605722D01*
X134341861Y-62084584D01*
X134341688Y-62578899D01*
X134341516Y-63088910D01*
X134341346Y-63614860D01*
X134341177Y-64156992D01*
X134341009Y-64715550D01*
X134340841Y-65290775D01*
X134340675Y-65882913D01*
X134340508Y-66492205D01*
X134340342Y-67118894D01*
X134340176Y-67763224D01*
X134340009Y-68425439D01*
X134339842Y-69105780D01*
X134339674Y-69804492D01*
X134339505Y-70521817D01*
X134339335Y-71257998D01*
X134339164Y-72013279D01*
X134338991Y-72787903D01*
X134338816Y-73582112D01*
X134338639Y-74396150D01*
X134338461Y-75230260D01*
X134338279Y-76084686D01*
X134338095Y-76959669D01*
X134337909Y-77855454D01*
X134337814Y-78313619D01*
X134332375Y-104606446D01*
X134205310Y-104475619D01*
X134156825Y-104424438D01*
X134107733Y-104370421D01*
X134062518Y-104318646D01*
X134025661Y-104274194D01*
X134011995Y-104256602D01*
X133909882Y-104106899D01*
X133821487Y-103947351D01*
X133746159Y-103776269D01*
X133683246Y-103591960D01*
X133632097Y-103392735D01*
X133592062Y-103176903D01*
X133589408Y-103159458D01*
X133588744Y-103154534D01*
X133588096Y-103148559D01*
X133587463Y-103141283D01*
X133586846Y-103132456D01*
X133586243Y-103121830D01*
X133585656Y-103109155D01*
X133585083Y-103094181D01*
X133584524Y-103076660D01*
X133583980Y-103056341D01*
X133583450Y-103032977D01*
X133582934Y-103006316D01*
X133582431Y-102976110D01*
X133581943Y-102942110D01*
X133581467Y-102904066D01*
X133581005Y-102861729D01*
X133580555Y-102814849D01*
X133580119Y-102763178D01*
X133579695Y-102706465D01*
X133579284Y-102644462D01*
X133578884Y-102576919D01*
X133578497Y-102503587D01*
X133578122Y-102424216D01*
X133577758Y-102338557D01*
X133577406Y-102246361D01*
X133577066Y-102147379D01*
X133576736Y-102041360D01*
X133576418Y-101928056D01*
X133576110Y-101807217D01*
X133575813Y-101678595D01*
X133575526Y-101541939D01*
X133575249Y-101397000D01*
X133574983Y-101243529D01*
X133574726Y-101081277D01*
X133574479Y-100909994D01*
X133574242Y-100729431D01*
X133574014Y-100539339D01*
X133573795Y-100339468D01*
X133573584Y-100129568D01*
X133573383Y-99909392D01*
X133573190Y-99678688D01*
X133573006Y-99437208D01*
X133572829Y-99184703D01*
X133572661Y-98920923D01*
X133572501Y-98645618D01*
X133572348Y-98358540D01*
X133572203Y-98059440D01*
X133572064Y-97748066D01*
X133571933Y-97424172D01*
X133571809Y-97087506D01*
X133571692Y-96737820D01*
X133571581Y-96374864D01*
X133571477Y-95998390D01*
X133571378Y-95608147D01*
X133571286Y-95203886D01*
X133571199Y-94785359D01*
X133571118Y-94352315D01*
X133571043Y-93904505D01*
X133570972Y-93441680D01*
X133570907Y-92963591D01*
X133570847Y-92469988D01*
X133570791Y-91960622D01*
X133570740Y-91435243D01*
X133570693Y-90893603D01*
X133570650Y-90335451D01*
X133570611Y-89760539D01*
X133570576Y-89168617D01*
X133570545Y-88559436D01*
X133570516Y-87932747D01*
X133570491Y-87288299D01*
X133570469Y-86625844D01*
X133570450Y-85945133D01*
X133570434Y-85245916D01*
X133570420Y-84527943D01*
X133570408Y-83790966D01*
X133570399Y-83034735D01*
X133570391Y-82259000D01*
X133570385Y-81463513D01*
X133570381Y-80648024D01*
X133570377Y-79812284D01*
X133570376Y-78956043D01*
X133570375Y-78079051D01*
X133570375Y-51925541D01*
X133594786Y-51814416D01*
X133647882Y-51619386D01*
X133718690Y-51434681D01*
X133806231Y-51261153D01*
X133909526Y-51099655D01*
X134027598Y-50951041D01*
X134159468Y-50816162D01*
X134304158Y-50695870D01*
X134460689Y-50591020D01*
X134628083Y-50502463D01*
X134805362Y-50431052D01*
X134991548Y-50377639D01*
X135185662Y-50343077D01*
X135295246Y-50332427D01*
X135312223Y-50331985D01*
X135349892Y-50331553D01*
X135407779Y-50331132D01*
X135485411Y-50330721D01*
X135582313Y-50330320D01*
X135698011Y-50329930D01*
X135832032Y-50329549D01*
X135983899Y-50329179D01*
X136153141Y-50328819D01*
X136339282Y-50328469D01*
X136541848Y-50328130D01*
X136760366Y-50327800D01*
X136994361Y-50327481D01*
X137243359Y-50327172D01*
X137506885Y-50326873D01*
X137784467Y-50326584D01*
X138075629Y-50326306D01*
X138379898Y-50326037D01*
X138696799Y-50325779D01*
X139025859Y-50325531D01*
X139366602Y-50325293D01*
X139718556Y-50325066D01*
X140081245Y-50324848D01*
X140454197Y-50324640D01*
X140836936Y-50324443D01*
X141228988Y-50324256D01*
X141629880Y-50324079D01*
X142039137Y-50323912D01*
X142456285Y-50323755D01*
X142880851Y-50323608D01*
X143312359Y-50323471D01*
X143750336Y-50323345D01*
X144194308Y-50323228D01*
X144643800Y-50323122D01*
X145098338Y-50323026D01*
X145557449Y-50322939D01*
X146020658Y-50322863D01*
X146487491Y-50322797D01*
X146957474Y-50322741D01*
X147430133Y-50322695D01*
X147904993Y-50322659D01*
X148381581Y-50322633D01*
X148859422Y-50322618D01*
X149338042Y-50322612D01*
X149816968Y-50322616D01*
G37*
X146762567Y-93630766D02*
X146820708Y-93643346D01*
X146859803Y-93656407D01*
X146902993Y-93672912D01*
X146945752Y-93690852D01*
X146983556Y-93708215D01*
X147011879Y-93722990D01*
X147026196Y-93733169D01*
X147027083Y-93735036D01*
X147017455Y-93739770D01*
X146992291Y-93744820D01*
X146959359Y-93748846D01*
X146885461Y-93759757D01*
X146800299Y-93778952D01*
X146711185Y-93804564D01*
X146630208Y-93832876D01*
X146611553Y-93840814D01*
X146574757Y-93857198D01*
X146520868Y-93881544D01*
X146450936Y-93913370D01*
X146366011Y-93952192D01*
X146267141Y-93997528D01*
X146155376Y-94048893D01*
X146031766Y-94105805D01*
X145897360Y-94167781D01*
X145753206Y-94234337D01*
X145600355Y-94304990D01*
X145439856Y-94379257D01*
X145272759Y-94456654D01*
X145100111Y-94536699D01*
X144922964Y-94618909D01*
X144899833Y-94629649D01*
X144686425Y-94728736D01*
X144491356Y-94819317D01*
X144313776Y-94901823D01*
X144152837Y-94976691D01*
X144007692Y-95044352D01*
X143877493Y-95105240D01*
X143761391Y-95159790D01*
X143658539Y-95208434D01*
X143568088Y-95251607D01*
X143489190Y-95289742D01*
X143420998Y-95323272D01*
X143362662Y-95352632D01*
X143313336Y-95378254D01*
X143272171Y-95400572D01*
X143238319Y-95420021D01*
X143210932Y-95437033D01*
X143189161Y-95452042D01*
X143172160Y-95465482D01*
X143159079Y-95477786D01*
X143149071Y-95489388D01*
X143141288Y-95500722D01*
X143134881Y-95512221D01*
X143129002Y-95524318D01*
X143122804Y-95537448D01*
X143122311Y-95538471D01*
X143096402Y-95614912D01*
X143086521Y-95700986D01*
X143092127Y-95793150D01*
X143112683Y-95887860D01*
X143147649Y-95981574D01*
X143196488Y-96070746D01*
X143205182Y-96083811D01*
X143224532Y-96114545D01*
X143235706Y-96137232D01*
X143236730Y-96147719D01*
X143235685Y-96147991D01*
X143219789Y-96143695D01*
X143191305Y-96132479D01*
X143158875Y-96117917D01*
X143074639Y-96066778D01*
X143003893Y-96000641D01*
X142947926Y-95921801D01*
X142908023Y-95832554D01*
X142885473Y-95735197D01*
X142881562Y-95632026D01*
X142882056Y-95624125D01*
X142897672Y-95518257D01*
X142929442Y-95425092D01*
X142978279Y-95342648D01*
X143045094Y-95268942D01*
X143045547Y-95268526D01*
X143054154Y-95260945D01*
X143064042Y-95253082D01*
X143076086Y-95244513D01*
X143091165Y-95234816D01*
X143110154Y-95223567D01*
X143133931Y-95210343D01*
X143163373Y-95194721D01*
X143199356Y-95176278D01*
X143242759Y-95154591D01*
X143294457Y-95129235D01*
X143355328Y-95099789D01*
X143426248Y-95065828D01*
X143508095Y-95026931D01*
X143601745Y-94982672D01*
X143708076Y-94932630D01*
X143827964Y-94876381D01*
X143962287Y-94813502D01*
X144111921Y-94743570D01*
X144277743Y-94666161D01*
X144460631Y-94580852D01*
X144661460Y-94487221D01*
X144752594Y-94444741D01*
X144929859Y-94362152D01*
X145102596Y-94281738D01*
X145269770Y-94203978D01*
X145430343Y-94129353D01*
X145583282Y-94058341D01*
X145727549Y-93991422D01*
X145862110Y-93929074D01*
X145985928Y-93871777D01*
X146097969Y-93820011D01*
X146197195Y-93774253D01*
X146282572Y-93734985D01*
X146353064Y-93702684D01*
X146407634Y-93677831D01*
X146445248Y-93660904D01*
X146464870Y-93652382D01*
X146466166Y-93651870D01*
X146529749Y-93634732D01*
X146605441Y-93625379D01*
X146685595Y-93623996D01*
X146762567Y-93630766D01*
G36*
X146762567Y-93630766D02*
G01*
X146820708Y-93643346D01*
X146859803Y-93656407D01*
X146902993Y-93672912D01*
X146945752Y-93690852D01*
X146983556Y-93708215D01*
X147011879Y-93722990D01*
X147026196Y-93733169D01*
X147027083Y-93735036D01*
X147017455Y-93739770D01*
X146992291Y-93744820D01*
X146959359Y-93748846D01*
X146885461Y-93759757D01*
X146800299Y-93778952D01*
X146711185Y-93804564D01*
X146630208Y-93832876D01*
X146611553Y-93840814D01*
X146574757Y-93857198D01*
X146520868Y-93881544D01*
X146450936Y-93913370D01*
X146366011Y-93952192D01*
X146267141Y-93997528D01*
X146155376Y-94048893D01*
X146031766Y-94105805D01*
X145897360Y-94167781D01*
X145753206Y-94234337D01*
X145600355Y-94304990D01*
X145439856Y-94379257D01*
X145272759Y-94456654D01*
X145100111Y-94536699D01*
X144922964Y-94618909D01*
X144899833Y-94629649D01*
X144686425Y-94728736D01*
X144491356Y-94819317D01*
X144313776Y-94901823D01*
X144152837Y-94976691D01*
X144007692Y-95044352D01*
X143877493Y-95105240D01*
X143761391Y-95159790D01*
X143658539Y-95208434D01*
X143568088Y-95251607D01*
X143489190Y-95289742D01*
X143420998Y-95323272D01*
X143362662Y-95352632D01*
X143313336Y-95378254D01*
X143272171Y-95400572D01*
X143238319Y-95420021D01*
X143210932Y-95437033D01*
X143189161Y-95452042D01*
X143172160Y-95465482D01*
X143159079Y-95477786D01*
X143149071Y-95489388D01*
X143141288Y-95500722D01*
X143134881Y-95512221D01*
X143129002Y-95524318D01*
X143122804Y-95537448D01*
X143122311Y-95538471D01*
X143096402Y-95614912D01*
X143086521Y-95700986D01*
X143092127Y-95793150D01*
X143112683Y-95887860D01*
X143147649Y-95981574D01*
X143196488Y-96070746D01*
X143205182Y-96083811D01*
X143224532Y-96114545D01*
X143235706Y-96137232D01*
X143236730Y-96147719D01*
X143235685Y-96147991D01*
X143219789Y-96143695D01*
X143191305Y-96132479D01*
X143158875Y-96117917D01*
X143074639Y-96066778D01*
X143003893Y-96000641D01*
X142947926Y-95921801D01*
X142908023Y-95832554D01*
X142885473Y-95735197D01*
X142881562Y-95632026D01*
X142882056Y-95624125D01*
X142897672Y-95518257D01*
X142929442Y-95425092D01*
X142978279Y-95342648D01*
X143045094Y-95268942D01*
X143045547Y-95268526D01*
X143054154Y-95260945D01*
X143064042Y-95253082D01*
X143076086Y-95244513D01*
X143091165Y-95234816D01*
X143110154Y-95223567D01*
X143133931Y-95210343D01*
X143163373Y-95194721D01*
X143199356Y-95176278D01*
X143242759Y-95154591D01*
X143294457Y-95129235D01*
X143355328Y-95099789D01*
X143426248Y-95065828D01*
X143508095Y-95026931D01*
X143601745Y-94982672D01*
X143708076Y-94932630D01*
X143827964Y-94876381D01*
X143962287Y-94813502D01*
X144111921Y-94743570D01*
X144277743Y-94666161D01*
X144460631Y-94580852D01*
X144661460Y-94487221D01*
X144752594Y-94444741D01*
X144929859Y-94362152D01*
X145102596Y-94281738D01*
X145269770Y-94203978D01*
X145430343Y-94129353D01*
X145583282Y-94058341D01*
X145727549Y-93991422D01*
X145862110Y-93929074D01*
X145985928Y-93871777D01*
X146097969Y-93820011D01*
X146197195Y-93774253D01*
X146282572Y-93734985D01*
X146353064Y-93702684D01*
X146407634Y-93677831D01*
X146445248Y-93660904D01*
X146464870Y-93652382D01*
X146466166Y-93651870D01*
X146529749Y-93634732D01*
X146605441Y-93625379D01*
X146685595Y-93623996D01*
X146762567Y-93630766D01*
G37*
X154704081Y-93624642D02*
X154794013Y-93639721D01*
X154816223Y-93645798D01*
X154856915Y-93659385D01*
X154900744Y-93676232D01*
X154943206Y-93694312D01*
X154979797Y-93711598D01*
X155006014Y-93726061D01*
X155017353Y-93735674D01*
X155017500Y-93736416D01*
X155008208Y-93742538D01*
X154985437Y-93745525D01*
X154981389Y-93745583D01*
X154933297Y-93749418D01*
X154870744Y-93760173D01*
X154798850Y-93776721D01*
X154722733Y-93797938D01*
X154676697Y-93812597D01*
X154652797Y-93821848D01*
X154611444Y-93839338D01*
X154553836Y-93864511D01*
X154481167Y-93896811D01*
X154394635Y-93935681D01*
X154295436Y-93980565D01*
X154184766Y-94030905D01*
X154063821Y-94086147D01*
X153933798Y-94145733D01*
X153795894Y-94209107D01*
X153651303Y-94275712D01*
X153501224Y-94344992D01*
X153346852Y-94416391D01*
X153189383Y-94489351D01*
X153030014Y-94563317D01*
X152869941Y-94637733D01*
X152710360Y-94712041D01*
X152552469Y-94785685D01*
X152397462Y-94858109D01*
X152246537Y-94928756D01*
X152100889Y-94997070D01*
X151961716Y-95062494D01*
X151830213Y-95124472D01*
X151707577Y-95182448D01*
X151595003Y-95235865D01*
X151493690Y-95284166D01*
X151404832Y-95326795D01*
X151329626Y-95363196D01*
X151269268Y-95392812D01*
X151224955Y-95415087D01*
X151197883Y-95429464D01*
X151189988Y-95434399D01*
X151138956Y-95489408D01*
X151102640Y-95556981D01*
X151080992Y-95634514D01*
X151073963Y-95719405D01*
X151081504Y-95809051D01*
X151103566Y-95900849D01*
X151140100Y-95992197D01*
X151191058Y-96080493D01*
X151202450Y-96096826D01*
X151219810Y-96123722D01*
X151227963Y-96142205D01*
X151226003Y-96147991D01*
X151210307Y-96143697D01*
X151181774Y-96132439D01*
X151146537Y-96116639D01*
X151146022Y-96116396D01*
X151067044Y-96068078D01*
X150997056Y-96003801D01*
X150939397Y-95927690D01*
X150897408Y-95843873D01*
X150880319Y-95788166D01*
X150871966Y-95730184D01*
X150869583Y-95661550D01*
X150873017Y-95591872D01*
X150882115Y-95530760D01*
X150884592Y-95520442D01*
X150912957Y-95439490D01*
X150953388Y-95363092D01*
X151002803Y-95295556D01*
X151058120Y-95241190D01*
X151107821Y-95208377D01*
X151121748Y-95201693D01*
X151153848Y-95186540D01*
X151203110Y-95163393D01*
X151268520Y-95132724D01*
X151349067Y-95095007D01*
X151443738Y-95050714D01*
X151551521Y-95000318D01*
X151671404Y-94944294D01*
X151802375Y-94883112D01*
X151943420Y-94817248D01*
X152093529Y-94747173D01*
X152251689Y-94673360D01*
X152416887Y-94596284D01*
X152588111Y-94516416D01*
X152764349Y-94434230D01*
X152799506Y-94417837D01*
X153020832Y-94314693D01*
X153223712Y-94220256D01*
X153408845Y-94134206D01*
X153576931Y-94056225D01*
X153728670Y-93985994D01*
X153864762Y-93923196D01*
X153985906Y-93867510D01*
X154092802Y-93818620D01*
X154186150Y-93776206D01*
X154266650Y-93739949D01*
X154335002Y-93709531D01*
X154391905Y-93684634D01*
X154438059Y-93664938D01*
X154474164Y-93650126D01*
X154500919Y-93639879D01*
X154519025Y-93633877D01*
X154524589Y-93632466D01*
X154611021Y-93622075D01*
X154704081Y-93624642D01*
G36*
X154704081Y-93624642D02*
G01*
X154794013Y-93639721D01*
X154816223Y-93645798D01*
X154856915Y-93659385D01*
X154900744Y-93676232D01*
X154943206Y-93694312D01*
X154979797Y-93711598D01*
X155006014Y-93726061D01*
X155017353Y-93735674D01*
X155017500Y-93736416D01*
X155008208Y-93742538D01*
X154985437Y-93745525D01*
X154981389Y-93745583D01*
X154933297Y-93749418D01*
X154870744Y-93760173D01*
X154798850Y-93776721D01*
X154722733Y-93797938D01*
X154676697Y-93812597D01*
X154652797Y-93821848D01*
X154611444Y-93839338D01*
X154553836Y-93864511D01*
X154481167Y-93896811D01*
X154394635Y-93935681D01*
X154295436Y-93980565D01*
X154184766Y-94030905D01*
X154063821Y-94086147D01*
X153933798Y-94145733D01*
X153795894Y-94209107D01*
X153651303Y-94275712D01*
X153501224Y-94344992D01*
X153346852Y-94416391D01*
X153189383Y-94489351D01*
X153030014Y-94563317D01*
X152869941Y-94637733D01*
X152710360Y-94712041D01*
X152552469Y-94785685D01*
X152397462Y-94858109D01*
X152246537Y-94928756D01*
X152100889Y-94997070D01*
X151961716Y-95062494D01*
X151830213Y-95124472D01*
X151707577Y-95182448D01*
X151595003Y-95235865D01*
X151493690Y-95284166D01*
X151404832Y-95326795D01*
X151329626Y-95363196D01*
X151269268Y-95392812D01*
X151224955Y-95415087D01*
X151197883Y-95429464D01*
X151189988Y-95434399D01*
X151138956Y-95489408D01*
X151102640Y-95556981D01*
X151080992Y-95634514D01*
X151073963Y-95719405D01*
X151081504Y-95809051D01*
X151103566Y-95900849D01*
X151140100Y-95992197D01*
X151191058Y-96080493D01*
X151202450Y-96096826D01*
X151219810Y-96123722D01*
X151227963Y-96142205D01*
X151226003Y-96147991D01*
X151210307Y-96143697D01*
X151181774Y-96132439D01*
X151146537Y-96116639D01*
X151146022Y-96116396D01*
X151067044Y-96068078D01*
X150997056Y-96003801D01*
X150939397Y-95927690D01*
X150897408Y-95843873D01*
X150880319Y-95788166D01*
X150871966Y-95730184D01*
X150869583Y-95661550D01*
X150873017Y-95591872D01*
X150882115Y-95530760D01*
X150884592Y-95520442D01*
X150912957Y-95439490D01*
X150953388Y-95363092D01*
X151002803Y-95295556D01*
X151058120Y-95241190D01*
X151107821Y-95208377D01*
X151121748Y-95201693D01*
X151153848Y-95186540D01*
X151203110Y-95163393D01*
X151268520Y-95132724D01*
X151349067Y-95095007D01*
X151443738Y-95050714D01*
X151551521Y-95000318D01*
X151671404Y-94944294D01*
X151802375Y-94883112D01*
X151943420Y-94817248D01*
X152093529Y-94747173D01*
X152251689Y-94673360D01*
X152416887Y-94596284D01*
X152588111Y-94516416D01*
X152764349Y-94434230D01*
X152799506Y-94417837D01*
X153020832Y-94314693D01*
X153223712Y-94220256D01*
X153408845Y-94134206D01*
X153576931Y-94056225D01*
X153728670Y-93985994D01*
X153864762Y-93923196D01*
X153985906Y-93867510D01*
X154092802Y-93818620D01*
X154186150Y-93776206D01*
X154266650Y-93739949D01*
X154335002Y-93709531D01*
X154391905Y-93684634D01*
X154438059Y-93664938D01*
X154474164Y-93650126D01*
X154500919Y-93639879D01*
X154519025Y-93633877D01*
X154524589Y-93632466D01*
X154611021Y-93622075D01*
X154704081Y-93624642D01*
G37*
X139156462Y-87363621D02*
X139157442Y-87393891D01*
X139158430Y-87442791D01*
X139159415Y-87509051D01*
X139160388Y-87591404D01*
X139161336Y-87688580D01*
X139162251Y-87799311D01*
X139163121Y-87922329D01*
X139163936Y-88056365D01*
X139164686Y-88200151D01*
X139165360Y-88352417D01*
X139165947Y-88511895D01*
X139166427Y-88673520D01*
X139166941Y-88871894D01*
X139167418Y-89050249D01*
X139167901Y-89209733D01*
X139168437Y-89351493D01*
X139169070Y-89476678D01*
X139169846Y-89586434D01*
X139170809Y-89681909D01*
X139172004Y-89764251D01*
X139173477Y-89834608D01*
X139175272Y-89894127D01*
X139177435Y-89943956D01*
X139180010Y-89985243D01*
X139183042Y-90019134D01*
X139186577Y-90046779D01*
X139190659Y-90069324D01*
X139195333Y-90087917D01*
X139200645Y-90103705D01*
X139206640Y-90117837D01*
X139213362Y-90131460D01*
X139220856Y-90145722D01*
X139224435Y-90152541D01*
X139257450Y-90200616D01*
X139303833Y-90247665D01*
X139343292Y-90277942D01*
X139369459Y-90295416D01*
X139322125Y-90294470D01*
X139280225Y-90290711D01*
X139236102Y-90282595D01*
X139227166Y-90280297D01*
X139129432Y-90242490D01*
X139041315Y-90187148D01*
X138965096Y-90116590D01*
X138903053Y-90033136D01*
X138857464Y-89939105D01*
X138841205Y-89887518D01*
X138838529Y-89875094D01*
X138836158Y-89858754D01*
X138834074Y-89837254D01*
X138832259Y-89809349D01*
X138830696Y-89773793D01*
X138829367Y-89729342D01*
X138828254Y-89674751D01*
X138827339Y-89608776D01*
X138826605Y-89530170D01*
X138826034Y-89437691D01*
X138825608Y-89330092D01*
X138825309Y-89206128D01*
X138825120Y-89064556D01*
X138825023Y-88904130D01*
X138825000Y-88750544D01*
X138825000Y-87675785D01*
X138986519Y-87514517D01*
X139034334Y-87467108D01*
X139077221Y-87425212D01*
X139112906Y-87391001D01*
X139139111Y-87366648D01*
X139153561Y-87354326D01*
X139155501Y-87353250D01*
X139156462Y-87363621D01*
G36*
X139156462Y-87363621D02*
G01*
X139157442Y-87393891D01*
X139158430Y-87442791D01*
X139159415Y-87509051D01*
X139160388Y-87591404D01*
X139161336Y-87688580D01*
X139162251Y-87799311D01*
X139163121Y-87922329D01*
X139163936Y-88056365D01*
X139164686Y-88200151D01*
X139165360Y-88352417D01*
X139165947Y-88511895D01*
X139166427Y-88673520D01*
X139166941Y-88871894D01*
X139167418Y-89050249D01*
X139167901Y-89209733D01*
X139168437Y-89351493D01*
X139169070Y-89476678D01*
X139169846Y-89586434D01*
X139170809Y-89681909D01*
X139172004Y-89764251D01*
X139173477Y-89834608D01*
X139175272Y-89894127D01*
X139177435Y-89943956D01*
X139180010Y-89985243D01*
X139183042Y-90019134D01*
X139186577Y-90046779D01*
X139190659Y-90069324D01*
X139195333Y-90087917D01*
X139200645Y-90103705D01*
X139206640Y-90117837D01*
X139213362Y-90131460D01*
X139220856Y-90145722D01*
X139224435Y-90152541D01*
X139257450Y-90200616D01*
X139303833Y-90247665D01*
X139343292Y-90277942D01*
X139369459Y-90295416D01*
X139322125Y-90294470D01*
X139280225Y-90290711D01*
X139236102Y-90282595D01*
X139227166Y-90280297D01*
X139129432Y-90242490D01*
X139041315Y-90187148D01*
X138965096Y-90116590D01*
X138903053Y-90033136D01*
X138857464Y-89939105D01*
X138841205Y-89887518D01*
X138838529Y-89875094D01*
X138836158Y-89858754D01*
X138834074Y-89837254D01*
X138832259Y-89809349D01*
X138830696Y-89773793D01*
X138829367Y-89729342D01*
X138828254Y-89674751D01*
X138827339Y-89608776D01*
X138826605Y-89530170D01*
X138826034Y-89437691D01*
X138825608Y-89330092D01*
X138825309Y-89206128D01*
X138825120Y-89064556D01*
X138825023Y-88904130D01*
X138825000Y-88750544D01*
X138825000Y-87675785D01*
X138986519Y-87514517D01*
X139034334Y-87467108D01*
X139077221Y-87425212D01*
X139112906Y-87391001D01*
X139139111Y-87366648D01*
X139153561Y-87354326D01*
X139155501Y-87353250D01*
X139156462Y-87363621D01*
G37*
X157091272Y-85155689D02*
X157273805Y-85187435D01*
X157451547Y-85238419D01*
X157623140Y-85308314D01*
X157787223Y-85396794D01*
X157942440Y-85503531D01*
X158087429Y-85628198D01*
X158113921Y-85654097D01*
X158161983Y-85703576D01*
X158208649Y-85754366D01*
X158251617Y-85803679D01*
X158288590Y-85848724D01*
X158317266Y-85886713D01*
X158335346Y-85914855D01*
X158340666Y-85929108D01*
X158333043Y-85926777D01*
X158312914Y-85913981D01*
X158284389Y-85893369D01*
X158279812Y-85889897D01*
X158154206Y-85800733D01*
X158027822Y-85723588D01*
X158021149Y-85719881D01*
X157912131Y-85666411D01*
X157788309Y-85617316D01*
X157655908Y-85574544D01*
X157521150Y-85540043D01*
X157390259Y-85515758D01*
X157352646Y-85510752D01*
X157285615Y-85505360D01*
X157204827Y-85502976D01*
X157116309Y-85503413D01*
X157026084Y-85506486D01*
X156940179Y-85512007D01*
X156864620Y-85519790D01*
X156816666Y-85527326D01*
X156621037Y-85575689D01*
X156434029Y-85642955D01*
X156256701Y-85728451D01*
X156090113Y-85831500D01*
X155935324Y-85951430D01*
X155793394Y-86087566D01*
X155665382Y-86239233D01*
X155636005Y-86279041D01*
X155593699Y-86343268D01*
X155548033Y-86421628D01*
X155502065Y-86508083D01*
X155458853Y-86596593D01*
X155421452Y-86681122D01*
X155392922Y-86755632D01*
X155389497Y-86765875D01*
X155342418Y-86938395D01*
X155311348Y-87116289D01*
X155296677Y-87295100D01*
X155298800Y-87470374D01*
X155314615Y-87616533D01*
X155319330Y-87651981D01*
X155321201Y-87678306D01*
X155319991Y-87689286D01*
X155313408Y-87683228D01*
X155301308Y-87662260D01*
X155286980Y-87632378D01*
X155216025Y-87448736D01*
X155165465Y-87262016D01*
X155135428Y-87073365D01*
X155126038Y-86883931D01*
X155137422Y-86694860D01*
X155165522Y-86526010D01*
X155209902Y-86363913D01*
X155271530Y-86201660D01*
X155347681Y-86045442D01*
X155435629Y-85901450D01*
X155449049Y-85882166D01*
X155503305Y-85812008D01*
X155570294Y-85735522D01*
X155645132Y-85657596D01*
X155722934Y-85583118D01*
X155798816Y-85516978D01*
X155864166Y-85466680D01*
X155939602Y-85417572D01*
X156027321Y-85367275D01*
X156120952Y-85318986D01*
X156214125Y-85275904D01*
X156300469Y-85241225D01*
X156340416Y-85227618D01*
X156528521Y-85179145D01*
X156717271Y-85151217D01*
X156905307Y-85143507D01*
X157091272Y-85155689D01*
G36*
X157091272Y-85155689D02*
G01*
X157273805Y-85187435D01*
X157451547Y-85238419D01*
X157623140Y-85308314D01*
X157787223Y-85396794D01*
X157942440Y-85503531D01*
X158087429Y-85628198D01*
X158113921Y-85654097D01*
X158161983Y-85703576D01*
X158208649Y-85754366D01*
X158251617Y-85803679D01*
X158288590Y-85848724D01*
X158317266Y-85886713D01*
X158335346Y-85914855D01*
X158340666Y-85929108D01*
X158333043Y-85926777D01*
X158312914Y-85913981D01*
X158284389Y-85893369D01*
X158279812Y-85889897D01*
X158154206Y-85800733D01*
X158027822Y-85723588D01*
X158021149Y-85719881D01*
X157912131Y-85666411D01*
X157788309Y-85617316D01*
X157655908Y-85574544D01*
X157521150Y-85540043D01*
X157390259Y-85515758D01*
X157352646Y-85510752D01*
X157285615Y-85505360D01*
X157204827Y-85502976D01*
X157116309Y-85503413D01*
X157026084Y-85506486D01*
X156940179Y-85512007D01*
X156864620Y-85519790D01*
X156816666Y-85527326D01*
X156621037Y-85575689D01*
X156434029Y-85642955D01*
X156256701Y-85728451D01*
X156090113Y-85831500D01*
X155935324Y-85951430D01*
X155793394Y-86087566D01*
X155665382Y-86239233D01*
X155636005Y-86279041D01*
X155593699Y-86343268D01*
X155548033Y-86421628D01*
X155502065Y-86508083D01*
X155458853Y-86596593D01*
X155421452Y-86681122D01*
X155392922Y-86755632D01*
X155389497Y-86765875D01*
X155342418Y-86938395D01*
X155311348Y-87116289D01*
X155296677Y-87295100D01*
X155298800Y-87470374D01*
X155314615Y-87616533D01*
X155319330Y-87651981D01*
X155321201Y-87678306D01*
X155319991Y-87689286D01*
X155313408Y-87683228D01*
X155301308Y-87662260D01*
X155286980Y-87632378D01*
X155216025Y-87448736D01*
X155165465Y-87262016D01*
X155135428Y-87073365D01*
X155126038Y-86883931D01*
X155137422Y-86694860D01*
X155165522Y-86526010D01*
X155209902Y-86363913D01*
X155271530Y-86201660D01*
X155347681Y-86045442D01*
X155435629Y-85901450D01*
X155449049Y-85882166D01*
X155503305Y-85812008D01*
X155570294Y-85735522D01*
X155645132Y-85657596D01*
X155722934Y-85583118D01*
X155798816Y-85516978D01*
X155864166Y-85466680D01*
X155939602Y-85417572D01*
X156027321Y-85367275D01*
X156120952Y-85318986D01*
X156214125Y-85275904D01*
X156300469Y-85241225D01*
X156340416Y-85227618D01*
X156528521Y-85179145D01*
X156717271Y-85151217D01*
X156905307Y-85143507D01*
X157091272Y-85155689D01*
G37*
X138858806Y-84989928D02*
X138907174Y-85038571D01*
X138950057Y-85082360D01*
X138985317Y-85119056D01*
X139010815Y-85146420D01*
X139024411Y-85162215D01*
X139026083Y-85165021D01*
X139015719Y-85166067D01*
X138985503Y-85167074D01*
X138936752Y-85168032D01*
X138870780Y-85168933D01*
X138788904Y-85169769D01*
X138692437Y-85170531D01*
X138582696Y-85171211D01*
X138460996Y-85171799D01*
X138328652Y-85172287D01*
X138186981Y-85172666D01*
X138037296Y-85172928D01*
X137880914Y-85173065D01*
X137798076Y-85173083D01*
X137606020Y-85173117D01*
X137434053Y-85173230D01*
X137281098Y-85173432D01*
X137146079Y-85173737D01*
X137027919Y-85174157D01*
X136925541Y-85174704D01*
X136837867Y-85175391D01*
X136763821Y-85176230D01*
X136702326Y-85177234D01*
X136652305Y-85178414D01*
X136612681Y-85179785D01*
X136582377Y-85181357D01*
X136560315Y-85183144D01*
X136545420Y-85185157D01*
X136536613Y-85187410D01*
X136536014Y-85187654D01*
X136494162Y-85214127D01*
X136457262Y-85252400D01*
X136433839Y-85292834D01*
X136431781Y-85307673D01*
X136429938Y-85340906D01*
X136428308Y-85392821D01*
X136426888Y-85463706D01*
X136425676Y-85553847D01*
X136424667Y-85663531D01*
X136423861Y-85793047D01*
X136423253Y-85942680D01*
X136422841Y-86112719D01*
X136422623Y-86303449D01*
X136422583Y-86438480D01*
X136422509Y-86590200D01*
X136422295Y-86735821D01*
X136421950Y-86873965D01*
X136421483Y-87003254D01*
X136420906Y-87122309D01*
X136420226Y-87229752D01*
X136419456Y-87324204D01*
X136418603Y-87404288D01*
X136417678Y-87468624D01*
X136416691Y-87515835D01*
X136415652Y-87544541D01*
X136414645Y-87553423D01*
X136399365Y-87549899D01*
X136380250Y-87544415D01*
X136306067Y-87512029D01*
X136235660Y-87463411D01*
X136175088Y-87403370D01*
X136139471Y-87353250D01*
X136130226Y-87337511D01*
X136122068Y-87322748D01*
X136114929Y-87307603D01*
X136108741Y-87290718D01*
X136103436Y-87270733D01*
X136098945Y-87246291D01*
X136095202Y-87216031D01*
X136092138Y-87178597D01*
X136089685Y-87132628D01*
X136087776Y-87076767D01*
X136086341Y-87009655D01*
X136085315Y-86929934D01*
X136084627Y-86836244D01*
X136084212Y-86727227D01*
X136084000Y-86601525D01*
X136083924Y-86457778D01*
X136083916Y-86294629D01*
X136083916Y-86241999D01*
X136083901Y-86073530D01*
X136083910Y-85924837D01*
X136084023Y-85794528D01*
X136084322Y-85681213D01*
X136084888Y-85583502D01*
X136085802Y-85500002D01*
X136087145Y-85429324D01*
X136088998Y-85370076D01*
X136091442Y-85320867D01*
X136094558Y-85280308D01*
X136098428Y-85247005D01*
X136103131Y-85219570D01*
X136108750Y-85196610D01*
X136115365Y-85176736D01*
X136123058Y-85158556D01*
X136131909Y-85140678D01*
X136141999Y-85121714D01*
X136150076Y-85106606D01*
X136180893Y-85059905D01*
X136224066Y-85009359D01*
X136273699Y-84960821D01*
X136323895Y-84920146D01*
X136361566Y-84896650D01*
X136397729Y-84879603D01*
X136441163Y-84861026D01*
X136464407Y-84851834D01*
X136474209Y-84848228D01*
X136484362Y-84845029D01*
X136496139Y-84842208D01*
X136510814Y-84839736D01*
X136529661Y-84837585D01*
X136553953Y-84835726D01*
X136584964Y-84834131D01*
X136623967Y-84832771D01*
X136672237Y-84831618D01*
X136731046Y-84830643D01*
X136801669Y-84829817D01*
X136885379Y-84829113D01*
X136983450Y-84828500D01*
X137097155Y-84827952D01*
X137227768Y-84827439D01*
X137376564Y-84826932D01*
X137544814Y-84826404D01*
X137607327Y-84826213D01*
X138691530Y-84822897D01*
X138858806Y-84989928D01*
G36*
X138858806Y-84989928D02*
G01*
X138907174Y-85038571D01*
X138950057Y-85082360D01*
X138985317Y-85119056D01*
X139010815Y-85146420D01*
X139024411Y-85162215D01*
X139026083Y-85165021D01*
X139015719Y-85166067D01*
X138985503Y-85167074D01*
X138936752Y-85168032D01*
X138870780Y-85168933D01*
X138788904Y-85169769D01*
X138692437Y-85170531D01*
X138582696Y-85171211D01*
X138460996Y-85171799D01*
X138328652Y-85172287D01*
X138186981Y-85172666D01*
X138037296Y-85172928D01*
X137880914Y-85173065D01*
X137798076Y-85173083D01*
X137606020Y-85173117D01*
X137434053Y-85173230D01*
X137281098Y-85173432D01*
X137146079Y-85173737D01*
X137027919Y-85174157D01*
X136925541Y-85174704D01*
X136837867Y-85175391D01*
X136763821Y-85176230D01*
X136702326Y-85177234D01*
X136652305Y-85178414D01*
X136612681Y-85179785D01*
X136582377Y-85181357D01*
X136560315Y-85183144D01*
X136545420Y-85185157D01*
X136536613Y-85187410D01*
X136536014Y-85187654D01*
X136494162Y-85214127D01*
X136457262Y-85252400D01*
X136433839Y-85292834D01*
X136431781Y-85307673D01*
X136429938Y-85340906D01*
X136428308Y-85392821D01*
X136426888Y-85463706D01*
X136425676Y-85553847D01*
X136424667Y-85663531D01*
X136423861Y-85793047D01*
X136423253Y-85942680D01*
X136422841Y-86112719D01*
X136422623Y-86303449D01*
X136422583Y-86438480D01*
X136422509Y-86590200D01*
X136422295Y-86735821D01*
X136421950Y-86873965D01*
X136421483Y-87003254D01*
X136420906Y-87122309D01*
X136420226Y-87229752D01*
X136419456Y-87324204D01*
X136418603Y-87404288D01*
X136417678Y-87468624D01*
X136416691Y-87515835D01*
X136415652Y-87544541D01*
X136414645Y-87553423D01*
X136399365Y-87549899D01*
X136380250Y-87544415D01*
X136306067Y-87512029D01*
X136235660Y-87463411D01*
X136175088Y-87403370D01*
X136139471Y-87353250D01*
X136130226Y-87337511D01*
X136122068Y-87322748D01*
X136114929Y-87307603D01*
X136108741Y-87290718D01*
X136103436Y-87270733D01*
X136098945Y-87246291D01*
X136095202Y-87216031D01*
X136092138Y-87178597D01*
X136089685Y-87132628D01*
X136087776Y-87076767D01*
X136086341Y-87009655D01*
X136085315Y-86929934D01*
X136084627Y-86836244D01*
X136084212Y-86727227D01*
X136084000Y-86601525D01*
X136083924Y-86457778D01*
X136083916Y-86294629D01*
X136083916Y-86241999D01*
X136083901Y-86073530D01*
X136083910Y-85924837D01*
X136084023Y-85794528D01*
X136084322Y-85681213D01*
X136084888Y-85583502D01*
X136085802Y-85500002D01*
X136087145Y-85429324D01*
X136088998Y-85370076D01*
X136091442Y-85320867D01*
X136094558Y-85280308D01*
X136098428Y-85247005D01*
X136103131Y-85219570D01*
X136108750Y-85196610D01*
X136115365Y-85176736D01*
X136123058Y-85158556D01*
X136131909Y-85140678D01*
X136141999Y-85121714D01*
X136150076Y-85106606D01*
X136180893Y-85059905D01*
X136224066Y-85009359D01*
X136273699Y-84960821D01*
X136323895Y-84920146D01*
X136361566Y-84896650D01*
X136397729Y-84879603D01*
X136441163Y-84861026D01*
X136464407Y-84851834D01*
X136474209Y-84848228D01*
X136484362Y-84845029D01*
X136496139Y-84842208D01*
X136510814Y-84839736D01*
X136529661Y-84837585D01*
X136553953Y-84835726D01*
X136584964Y-84834131D01*
X136623967Y-84832771D01*
X136672237Y-84831618D01*
X136731046Y-84830643D01*
X136801669Y-84829817D01*
X136885379Y-84829113D01*
X136983450Y-84828500D01*
X137097155Y-84827952D01*
X137227768Y-84827439D01*
X137376564Y-84826932D01*
X137544814Y-84826404D01*
X137607327Y-84826213D01*
X138691530Y-84822897D01*
X138858806Y-84989928D01*
G37*
X143846791Y-84829345D02*
X143917170Y-84853145D01*
X144015578Y-84897220D01*
X144102705Y-84958335D01*
X144176371Y-85034650D01*
X144231150Y-85118141D01*
X144252081Y-85164187D01*
X144270649Y-85217205D01*
X144285070Y-85270631D01*
X144293558Y-85317899D01*
X144294501Y-85351105D01*
X144291811Y-85364990D01*
X144286480Y-85366121D01*
X144275611Y-85352595D01*
X144260050Y-85328461D01*
X144221166Y-85279480D01*
X144171148Y-85240863D01*
X144105735Y-85209548D01*
X144083134Y-85201346D01*
X144016125Y-85178375D01*
X142679979Y-85175492D01*
X142513670Y-85175071D01*
X142353325Y-85174540D01*
X142200207Y-85173912D01*
X142055575Y-85173197D01*
X141920691Y-85172404D01*
X141796816Y-85171545D01*
X141685211Y-85170629D01*
X141587137Y-85169668D01*
X141503854Y-85168671D01*
X141436625Y-85167648D01*
X141386710Y-85166612D01*
X141355369Y-85165570D01*
X141343865Y-85164535D01*
X141343833Y-85164478D01*
X141351026Y-85154985D01*
X141371176Y-85132893D01*
X141402139Y-85100433D01*
X141441772Y-85059840D01*
X141487929Y-85013345D01*
X141511694Y-84989666D01*
X141679555Y-84822985D01*
X143846791Y-84829345D01*
G36*
X143846791Y-84829345D02*
G01*
X143917170Y-84853145D01*
X144015578Y-84897220D01*
X144102705Y-84958335D01*
X144176371Y-85034650D01*
X144231150Y-85118141D01*
X144252081Y-85164187D01*
X144270649Y-85217205D01*
X144285070Y-85270631D01*
X144293558Y-85317899D01*
X144294501Y-85351105D01*
X144291811Y-85364990D01*
X144286480Y-85366121D01*
X144275611Y-85352595D01*
X144260050Y-85328461D01*
X144221166Y-85279480D01*
X144171148Y-85240863D01*
X144105735Y-85209548D01*
X144083134Y-85201346D01*
X144016125Y-85178375D01*
X142679979Y-85175492D01*
X142513670Y-85175071D01*
X142353325Y-85174540D01*
X142200207Y-85173912D01*
X142055575Y-85173197D01*
X141920691Y-85172404D01*
X141796816Y-85171545D01*
X141685211Y-85170629D01*
X141587137Y-85169668D01*
X141503854Y-85168671D01*
X141436625Y-85167648D01*
X141386710Y-85166612D01*
X141355369Y-85165570D01*
X141343865Y-85164535D01*
X141343833Y-85164478D01*
X141351026Y-85154985D01*
X141371176Y-85132893D01*
X141402139Y-85100433D01*
X141441772Y-85059840D01*
X141487929Y-85013345D01*
X141511694Y-84989666D01*
X141679555Y-84822985D01*
X143846791Y-84829345D01*
G37*
X162446087Y-82583104D02*
X162544927Y-82588538D01*
X162637105Y-82597443D01*
X162716022Y-82609558D01*
X162727458Y-82611879D01*
X162917673Y-82662411D01*
X163097535Y-82731105D01*
X163266480Y-82817668D01*
X163423947Y-82921807D01*
X163569373Y-83043227D01*
X163587827Y-83060710D01*
X163627341Y-83100178D01*
X163669195Y-83144499D01*
X163711080Y-83190925D01*
X163750688Y-83236706D01*
X163785711Y-83279094D01*
X163813839Y-83315339D01*
X163832765Y-83342692D01*
X163840180Y-83358406D01*
X163839671Y-83360606D01*
X163829556Y-83357072D01*
X163807421Y-83343169D01*
X163777767Y-83321764D01*
X163773209Y-83318285D01*
X163619660Y-83212679D01*
X163453886Y-83121721D01*
X163279925Y-83047262D01*
X163101815Y-82991151D01*
X163016103Y-82971294D01*
X162822742Y-82942499D01*
X162628306Y-82934406D01*
X162434534Y-82946737D01*
X162243167Y-82979214D01*
X162055946Y-83031561D01*
X161874610Y-83103499D01*
X161733913Y-83175558D01*
X161570024Y-83280454D01*
X161419645Y-83400763D01*
X161283567Y-83535058D01*
X161162582Y-83681913D01*
X161057481Y-83839901D01*
X160969055Y-84007594D01*
X160898095Y-84183566D01*
X160845393Y-84366390D01*
X160811741Y-84554638D01*
X160797928Y-84746884D01*
X160799373Y-84860875D01*
X160802692Y-84919547D01*
X160807211Y-84976901D01*
X160812329Y-85026268D01*
X160817324Y-85060348D01*
X160822911Y-85094033D01*
X160825305Y-85118397D01*
X160824428Y-85127016D01*
X160818034Y-85120584D01*
X160805540Y-85099202D01*
X160789469Y-85067253D01*
X160786918Y-85061847D01*
X160722584Y-84901251D01*
X160674225Y-84730290D01*
X160642711Y-84553430D01*
X160628914Y-84375136D01*
X160629991Y-84257625D01*
X160648863Y-84066608D01*
X160687157Y-83882263D01*
X160743883Y-83705656D01*
X160818053Y-83537855D01*
X160908678Y-83379927D01*
X161014768Y-83232939D01*
X161135334Y-83097958D01*
X161269386Y-82976052D01*
X161415936Y-82868287D01*
X161573995Y-82775730D01*
X161742573Y-82699450D01*
X161920680Y-82640513D01*
X162107329Y-82599986D01*
X162175603Y-82590210D01*
X162254825Y-82583680D01*
X162347186Y-82581398D01*
X162446087Y-82583104D01*
G36*
X162446087Y-82583104D02*
G01*
X162544927Y-82588538D01*
X162637105Y-82597443D01*
X162716022Y-82609558D01*
X162727458Y-82611879D01*
X162917673Y-82662411D01*
X163097535Y-82731105D01*
X163266480Y-82817668D01*
X163423947Y-82921807D01*
X163569373Y-83043227D01*
X163587827Y-83060710D01*
X163627341Y-83100178D01*
X163669195Y-83144499D01*
X163711080Y-83190925D01*
X163750688Y-83236706D01*
X163785711Y-83279094D01*
X163813839Y-83315339D01*
X163832765Y-83342692D01*
X163840180Y-83358406D01*
X163839671Y-83360606D01*
X163829556Y-83357072D01*
X163807421Y-83343169D01*
X163777767Y-83321764D01*
X163773209Y-83318285D01*
X163619660Y-83212679D01*
X163453886Y-83121721D01*
X163279925Y-83047262D01*
X163101815Y-82991151D01*
X163016103Y-82971294D01*
X162822742Y-82942499D01*
X162628306Y-82934406D01*
X162434534Y-82946737D01*
X162243167Y-82979214D01*
X162055946Y-83031561D01*
X161874610Y-83103499D01*
X161733913Y-83175558D01*
X161570024Y-83280454D01*
X161419645Y-83400763D01*
X161283567Y-83535058D01*
X161162582Y-83681913D01*
X161057481Y-83839901D01*
X160969055Y-84007594D01*
X160898095Y-84183566D01*
X160845393Y-84366390D01*
X160811741Y-84554638D01*
X160797928Y-84746884D01*
X160799373Y-84860875D01*
X160802692Y-84919547D01*
X160807211Y-84976901D01*
X160812329Y-85026268D01*
X160817324Y-85060348D01*
X160822911Y-85094033D01*
X160825305Y-85118397D01*
X160824428Y-85127016D01*
X160818034Y-85120584D01*
X160805540Y-85099202D01*
X160789469Y-85067253D01*
X160786918Y-85061847D01*
X160722584Y-84901251D01*
X160674225Y-84730290D01*
X160642711Y-84553430D01*
X160628914Y-84375136D01*
X160629991Y-84257625D01*
X160648863Y-84066608D01*
X160687157Y-83882263D01*
X160743883Y-83705656D01*
X160818053Y-83537855D01*
X160908678Y-83379927D01*
X161014768Y-83232939D01*
X161135334Y-83097958D01*
X161269386Y-82976052D01*
X161415936Y-82868287D01*
X161573995Y-82775730D01*
X161742573Y-82699450D01*
X161920680Y-82640513D01*
X162107329Y-82599986D01*
X162175603Y-82590210D01*
X162254825Y-82583680D01*
X162347186Y-82581398D01*
X162446087Y-82583104D01*
G37*
X140695195Y-82084377D02*
X140826302Y-82084911D01*
X140936838Y-82085816D01*
X141026682Y-82087089D01*
X141095713Y-82088730D01*
X141143809Y-82090738D01*
X141168875Y-82092827D01*
X141263780Y-82114185D01*
X141348537Y-82150849D01*
X141419856Y-82201308D01*
X141433872Y-82214565D01*
X141461805Y-82247432D01*
X141490011Y-82288750D01*
X141515288Y-82332787D01*
X141534437Y-82373808D01*
X141544258Y-82406081D01*
X141544908Y-82413479D01*
X141544072Y-82416434D01*
X141540773Y-82419058D01*
X141533828Y-82421371D01*
X141522054Y-82423391D01*
X141504266Y-82425139D01*
X141479283Y-82426633D01*
X141445920Y-82427895D01*
X141402995Y-82428943D01*
X141349323Y-82429797D01*
X141283723Y-82430477D01*
X141205010Y-82431002D01*
X141112001Y-82431391D01*
X141003513Y-82431665D01*
X140878363Y-82431844D01*
X140735368Y-82431946D01*
X140573344Y-82431991D01*
X140427953Y-82432000D01*
X140249737Y-82432011D01*
X140091456Y-82432059D01*
X139951880Y-82432165D01*
X139829777Y-82432350D01*
X139723917Y-82432636D01*
X139633069Y-82433045D01*
X139556000Y-82433596D01*
X139491481Y-82434313D01*
X139438281Y-82435215D01*
X139395167Y-82436325D01*
X139360910Y-82437664D01*
X139334277Y-82439252D01*
X139314039Y-82441113D01*
X139298964Y-82443265D01*
X139287821Y-82445733D01*
X139279378Y-82448535D01*
X139272406Y-82451694D01*
X139271724Y-82452040D01*
X139227737Y-82480297D01*
X139197516Y-82515938D01*
X139179945Y-82551109D01*
X139177430Y-82558987D01*
X139175183Y-82570676D01*
X139173190Y-82587318D01*
X139171436Y-82610055D01*
X139169906Y-82640030D01*
X139168586Y-82678384D01*
X139167460Y-82726260D01*
X139166515Y-82784800D01*
X139165735Y-82855145D01*
X139165106Y-82938438D01*
X139164612Y-83035821D01*
X139164240Y-83148435D01*
X139163974Y-83277424D01*
X139163800Y-83423930D01*
X139163702Y-83589093D01*
X139163667Y-83774057D01*
X139163666Y-83812785D01*
X139163598Y-83971757D01*
X139163399Y-84124707D01*
X139163077Y-84270318D01*
X139162642Y-84407270D01*
X139162102Y-84534245D01*
X139161466Y-84649926D01*
X139160742Y-84752993D01*
X139159940Y-84842129D01*
X139159068Y-84916016D01*
X139158134Y-84973335D01*
X139157148Y-85012768D01*
X139156118Y-85032997D01*
X139155601Y-85035500D01*
X139146072Y-85028331D01*
X139123955Y-85008278D01*
X139091530Y-84977517D01*
X139051082Y-84938226D01*
X139004893Y-84892580D01*
X138986267Y-84873980D01*
X138825000Y-84712460D01*
X138825000Y-83637953D01*
X138824993Y-83458967D01*
X138825014Y-83299846D01*
X138825124Y-83159293D01*
X138825386Y-83036005D01*
X138825860Y-82928683D01*
X138826609Y-82836027D01*
X138827694Y-82756737D01*
X138829176Y-82689512D01*
X138831118Y-82633053D01*
X138833582Y-82586059D01*
X138836628Y-82547229D01*
X138840318Y-82515265D01*
X138844715Y-82488865D01*
X138849880Y-82466730D01*
X138855874Y-82447559D01*
X138862759Y-82430052D01*
X138870597Y-82412909D01*
X138879450Y-82394830D01*
X138884451Y-82384676D01*
X138934127Y-82305613D01*
X139000568Y-82233877D01*
X139079733Y-82172910D01*
X139167580Y-82126155D01*
X139204413Y-82112146D01*
X139274791Y-82088430D01*
X140179666Y-82085000D01*
X140371756Y-82084420D01*
X140543640Y-82084212D01*
X140695195Y-82084377D01*
G36*
X140695195Y-82084377D02*
G01*
X140826302Y-82084911D01*
X140936838Y-82085816D01*
X141026682Y-82087089D01*
X141095713Y-82088730D01*
X141143809Y-82090738D01*
X141168875Y-82092827D01*
X141263780Y-82114185D01*
X141348537Y-82150849D01*
X141419856Y-82201308D01*
X141433872Y-82214565D01*
X141461805Y-82247432D01*
X141490011Y-82288750D01*
X141515288Y-82332787D01*
X141534437Y-82373808D01*
X141544258Y-82406081D01*
X141544908Y-82413479D01*
X141544072Y-82416434D01*
X141540773Y-82419058D01*
X141533828Y-82421371D01*
X141522054Y-82423391D01*
X141504266Y-82425139D01*
X141479283Y-82426633D01*
X141445920Y-82427895D01*
X141402995Y-82428943D01*
X141349323Y-82429797D01*
X141283723Y-82430477D01*
X141205010Y-82431002D01*
X141112001Y-82431391D01*
X141003513Y-82431665D01*
X140878363Y-82431844D01*
X140735368Y-82431946D01*
X140573344Y-82431991D01*
X140427953Y-82432000D01*
X140249737Y-82432011D01*
X140091456Y-82432059D01*
X139951880Y-82432165D01*
X139829777Y-82432350D01*
X139723917Y-82432636D01*
X139633069Y-82433045D01*
X139556000Y-82433596D01*
X139491481Y-82434313D01*
X139438281Y-82435215D01*
X139395167Y-82436325D01*
X139360910Y-82437664D01*
X139334277Y-82439252D01*
X139314039Y-82441113D01*
X139298964Y-82443265D01*
X139287821Y-82445733D01*
X139279378Y-82448535D01*
X139272406Y-82451694D01*
X139271724Y-82452040D01*
X139227737Y-82480297D01*
X139197516Y-82515938D01*
X139179945Y-82551109D01*
X139177430Y-82558987D01*
X139175183Y-82570676D01*
X139173190Y-82587318D01*
X139171436Y-82610055D01*
X139169906Y-82640030D01*
X139168586Y-82678384D01*
X139167460Y-82726260D01*
X139166515Y-82784800D01*
X139165735Y-82855145D01*
X139165106Y-82938438D01*
X139164612Y-83035821D01*
X139164240Y-83148435D01*
X139163974Y-83277424D01*
X139163800Y-83423930D01*
X139163702Y-83589093D01*
X139163667Y-83774057D01*
X139163666Y-83812785D01*
X139163598Y-83971757D01*
X139163399Y-84124707D01*
X139163077Y-84270318D01*
X139162642Y-84407270D01*
X139162102Y-84534245D01*
X139161466Y-84649926D01*
X139160742Y-84752993D01*
X139159940Y-84842129D01*
X139159068Y-84916016D01*
X139158134Y-84973335D01*
X139157148Y-85012768D01*
X139156118Y-85032997D01*
X139155601Y-85035500D01*
X139146072Y-85028331D01*
X139123955Y-85008278D01*
X139091530Y-84977517D01*
X139051082Y-84938226D01*
X139004893Y-84892580D01*
X138986267Y-84873980D01*
X138825000Y-84712460D01*
X138825000Y-83637953D01*
X138824993Y-83458967D01*
X138825014Y-83299846D01*
X138825124Y-83159293D01*
X138825386Y-83036005D01*
X138825860Y-82928683D01*
X138826609Y-82836027D01*
X138827694Y-82756737D01*
X138829176Y-82689512D01*
X138831118Y-82633053D01*
X138833582Y-82586059D01*
X138836628Y-82547229D01*
X138840318Y-82515265D01*
X138844715Y-82488865D01*
X138849880Y-82466730D01*
X138855874Y-82447559D01*
X138862759Y-82430052D01*
X138870597Y-82412909D01*
X138879450Y-82394830D01*
X138884451Y-82384676D01*
X138934127Y-82305613D01*
X139000568Y-82233877D01*
X139079733Y-82172910D01*
X139167580Y-82126155D01*
X139204413Y-82112146D01*
X139274791Y-82088430D01*
X140179666Y-82085000D01*
X140371756Y-82084420D01*
X140543640Y-82084212D01*
X140695195Y-82084377D01*
G37*
X159028583Y-73478500D02*
X140867583Y-73478500D01*
X140867583Y-56979083D01*
X159028583Y-56979083D01*
X159028583Y-73478500D01*
G36*
X159028583Y-73478500D02*
G01*
X140867583Y-73478500D01*
X140867583Y-56979083D01*
X159028583Y-56979083D01*
X159028583Y-73478500D01*
G37*
G04 #@! TD*
D15*
G04 #@! TO.C,J2*
X152000000Y-105900000D03*
X150000000Y-105900000D03*
X148000000Y-105900000D03*
X148000000Y-107900000D03*
X150000000Y-107900000D03*
X152000000Y-107900000D03*
D16*
X156700000Y-113850000D03*
X156700000Y-108400000D03*
X143300000Y-113850000D03*
X143300000Y-108400000D03*
G04 #@! TD*
M02*
