M48
; DRILL file {KiCad 7.99.0-1.20230515git1adcb86.fc37} date Sat 10 Jun 2023 01:39:08 BST
; FORMAT={-:-/ absolute / metric / decimal}
; #@! TF.CreationDate,2023-06-10T01:39:08+01:00
; #@! TF.GenerationSoftware,Kicad,Pcbnew,7.99.0-1.20230515git1adcb86.fc37
; #@! TF.FileFunction,Plated,1,2,PTH
FMAT,2
METRIC
; #@! TA.AperFunction,Plated,PTH,ViaDrill
T1C0.300
; #@! TA.AperFunction,Plated,PTH,ComponentDrill
T2C0.800
%
G90
G05
T1
X135.45Y-78.55
X136.95Y-78.55
X137.55Y-80.35
X137.55Y-81.8
X138.15Y-70.0
X138.15Y-78.55
X138.75Y-68.65
X140.05Y-70.0
X140.1Y-68.65
X145.9Y-55.75
X145.9Y-56.5
X149.3Y-74.1
X150.0Y-77.0
X150.0Y-80.05
X150.65Y-74.1
X151.5Y-74.4
X151.5Y-75.6
X153.25Y-78.5
X154.25Y-55.75
X154.25Y-56.55
X154.4Y-78.1
X159.55Y-65.1
X160.1Y-70.1
X161.8Y-70.1
X162.4Y-65.1
T2
X148.0Y-105.9
X148.0Y-107.9
X150.0Y-105.9
X150.0Y-107.9
X152.0Y-105.9
X152.0Y-107.9
T2
G00X143.3Y-108.9
M15
G01X143.3Y-107.9
M16
G05
G00X143.3Y-114.35
M15
G01X143.3Y-113.35
M16
G05
G00X156.7Y-108.9
M15
G01X156.7Y-107.9
M16
G05
G00X156.7Y-114.35
M15
G01X156.7Y-113.35
M16
G05
T0
M30
