%TF.GenerationSoftware,KiCad,Pcbnew,7.99.0-1.20230515git1adcb86.fc37*%
%TF.CreationDate,2023-06-10T16:00:56+01:00*%
%TF.ProjectId,tr23-sao-r1,74723233-2d73-4616-9f2d-72312e6b6963,r1*%
%TF.SameCoordinates,Original*%
%TF.FileFunction,Copper,L2,Bot*%
%TF.FilePolarity,Positive*%
%FSLAX46Y46*%
G04 Gerber Fmt 4.6, Leading zero omitted, Abs format (unit mm)*
G04 Created by KiCad (PCBNEW 7.99.0-1.20230515git1adcb86.fc37) date 2023-06-10 16:00:56*
%MOMM*%
%LPD*%
G01*
G04 APERTURE LIST*
G04 Aperture macros list*
%AMRoundRect*
0 Rectangle with rounded corners*
0 $1 Rounding radius*
0 $2 $3 $4 $5 $6 $7 $8 $9 X,Y pos of 4 corners*
0 Add a 4 corners polygon primitive as box body*
4,1,4,$2,$3,$4,$5,$6,$7,$8,$9,$2,$3,0*
0 Add four circle primitives for the rounded corners*
1,1,$1+$1,$2,$3*
1,1,$1+$1,$4,$5*
1,1,$1+$1,$6,$7*
1,1,$1+$1,$8,$9*
0 Add four rect primitives between the rounded corners*
20,1,$1+$1,$2,$3,$4,$5,0*
20,1,$1+$1,$4,$5,$6,$7,0*
20,1,$1+$1,$6,$7,$8,$9,0*
20,1,$1+$1,$8,$9,$2,$3,0*%
G04 Aperture macros list end*
%TA.AperFunction,SMDPad,CuDef*%
%ADD10C,1.000000*%
%TD*%
%TA.AperFunction,SMDPad,CuDef*%
%ADD11R,1.000000X3.150000*%
%TD*%
%TA.AperFunction,SMDPad,CuDef*%
%ADD12RoundRect,0.062500X-0.287500X-0.062500X0.287500X-0.062500X0.287500X0.062500X-0.287500X0.062500X0*%
%TD*%
%TA.AperFunction,SMDPad,CuDef*%
%ADD13R,0.900000X1.500000*%
%TD*%
%TA.AperFunction,ComponentPad*%
%ADD14C,1.400000*%
%TD*%
%TA.AperFunction,ComponentPad*%
%ADD15O,1.800000X2.800000*%
%TD*%
%TA.AperFunction,SMDPad,CuDef*%
%ADD16R,1.400000X0.800000*%
%TD*%
%TA.AperFunction,SMDPad,CuDef*%
%ADD17RoundRect,0.250000X-0.250000X-0.475000X0.250000X-0.475000X0.250000X0.475000X-0.250000X0.475000X0*%
%TD*%
%TA.AperFunction,ViaPad*%
%ADD18C,0.600000*%
%TD*%
%TA.AperFunction,Conductor*%
%ADD19C,0.200000*%
%TD*%
%TA.AperFunction,Conductor*%
%ADD20C,0.400000*%
%TD*%
%TA.AperFunction,Profile*%
%ADD21C,0.100000*%
%TD*%
G04 APERTURE END LIST*
D10*
%TO.P,FID2,*%
%TO.N,*%
X164300000Y-52500000D03*
%TD*%
%TO.P,FID1,*%
%TO.N,*%
X150000000Y-116000000D03*
%TD*%
D11*
%TO.P,J1,1,Pin_1*%
%TO.N,+3V3*%
X147460000Y-51875000D03*
%TO.P,J1,2,Pin_2*%
%TO.N,GND*%
X147460000Y-56925000D03*
%TO.P,J1,3,Pin_3*%
%TO.N,/SDA*%
X150000000Y-51875000D03*
%TO.P,J1,4,Pin_4*%
%TO.N,/SCL*%
X150000000Y-56925000D03*
%TO.P,J1,5,Pin_5*%
%TO.N,unconnected-(J1-Pin_5-Pad5)*%
X152540000Y-51875000D03*
%TO.P,J1,6,Pin_6*%
%TO.N,GND*%
X152540000Y-56925000D03*
%TD*%
D12*
%TO.P,U1,1,SCL*%
%TO.N,/SCL*%
X149000000Y-79275000D03*
%TO.P,U1,2,SDA*%
%TO.N,/SDA*%
X149000000Y-78775000D03*
%TO.P,U1,3,LED4*%
%TO.N,/LED4*%
X149000000Y-78275000D03*
%TO.P,U1,4,LED3*%
%TO.N,/LED3*%
X149000000Y-77775000D03*
%TO.P,U1,5,LED2*%
%TO.N,/LED2*%
X151000000Y-77775000D03*
%TO.P,U1,6,LED1*%
%TO.N,/LED1*%
X151000000Y-78275000D03*
%TO.P,U1,7,GND*%
%TO.N,GND*%
X151000000Y-78775000D03*
%TO.P,U1,8,VIN*%
%TO.N,+3V3*%
X151000000Y-79275000D03*
D13*
%TO.P,U1,9,EP*%
%TO.N,GND*%
X150000000Y-78525000D03*
%TD*%
D14*
%TO.P,J2,1,Pin_1*%
%TO.N,/SDA*%
X152000000Y-105900000D03*
%TO.P,J2,2,Pin_2*%
%TO.N,unconnected-(J2-Pin_2-Pad2)*%
X150000000Y-105900000D03*
%TO.P,J2,3,Pin_3*%
%TO.N,+3V3*%
X148000000Y-105900000D03*
%TO.P,J2,4,Pin_4*%
%TO.N,/SCL*%
X148000000Y-107900000D03*
%TO.P,J2,5,Pin_5*%
%TO.N,unconnected-(J2-Pin_5-Pad5)*%
X150000000Y-107900000D03*
%TO.P,J2,6,Pin_6*%
%TO.N,GND*%
X152000000Y-107900000D03*
D15*
%TO.P,J2,SH,Shield*%
X156700000Y-113850000D03*
X156700000Y-108400000D03*
X143300000Y-113850000D03*
X143300000Y-108400000D03*
%TD*%
D16*
%TO.P,D3,1,RK*%
%TO.N,/LED1*%
X148100000Y-61800000D03*
%TO.P,D3,2,A*%
%TO.N,/LED3*%
X142900000Y-61800000D03*
%TO.P,D3,3,BK*%
%TO.N,/LED2*%
X142900000Y-60400000D03*
%TO.P,D3,4,GK*%
%TO.N,/LED4*%
X148100000Y-60400000D03*
%TD*%
%TO.P,D1,1,RK*%
%TO.N,/LED3*%
X157100000Y-61800000D03*
%TO.P,D1,2,A*%
%TO.N,/LED1*%
X151900000Y-61800000D03*
%TO.P,D1,3,BK*%
%TO.N,/LED4*%
X151900000Y-60400000D03*
%TO.P,D1,4,GK*%
%TO.N,/LED2*%
X157100000Y-60400000D03*
%TD*%
%TO.P,D2,1,RK*%
%TO.N,/LED4*%
X157100000Y-70050000D03*
%TO.P,D2,2,A*%
%TO.N,/LED2*%
X151900000Y-70050000D03*
%TO.P,D2,3,BK*%
%TO.N,/LED1*%
X151900000Y-68650000D03*
%TO.P,D2,4,GK*%
%TO.N,/LED3*%
X157100000Y-68650000D03*
%TD*%
%TO.P,D4,1,RK*%
%TO.N,/LED2*%
X148100000Y-70050000D03*
%TO.P,D4,2,A*%
%TO.N,/LED4*%
X142900000Y-70050000D03*
%TO.P,D4,3,BK*%
%TO.N,/LED3*%
X142900000Y-68650000D03*
%TO.P,D4,4,GK*%
%TO.N,/LED1*%
X148100000Y-68650000D03*
%TD*%
D17*
%TO.P,C1,1*%
%TO.N,+3V3*%
X152525000Y-79855000D03*
%TO.P,C1,2*%
%TO.N,GND*%
X154425000Y-79855000D03*
%TD*%
D18*
%TO.N,GND*%
X150000000Y-77000000D03*
X145900000Y-56500000D03*
X150000000Y-80050000D03*
X145900000Y-55750000D03*
X154400000Y-78100000D03*
X154250000Y-56550000D03*
X154250000Y-55750000D03*
X153250000Y-78500000D03*
%TO.N,/SDA*%
X135450000Y-78550000D03*
X136950000Y-78550000D03*
X138150000Y-78550000D03*
%TO.N,/SCL*%
X137550000Y-80350000D03*
X137550000Y-81800000D03*
%TO.N,/LED3*%
X151500000Y-75600000D03*
X140100000Y-68650000D03*
X151500000Y-74400000D03*
X138750000Y-68650000D03*
%TO.N,/LED1*%
X159550000Y-65100000D03*
X162400000Y-65100000D03*
%TO.N,/LED4*%
X149300000Y-74100000D03*
X138150000Y-70000000D03*
X160100000Y-70100000D03*
X150650000Y-74100000D03*
X140050000Y-70000000D03*
X161800000Y-70100000D03*
%TD*%
D19*
%TO.N,+3V3*%
X151000000Y-79275000D02*
X152525000Y-79275000D01*
D20*
X148000000Y-105900000D02*
X148000000Y-104700000D01*
X147460000Y-51875000D02*
X139525000Y-51875000D01*
X139525000Y-51875000D02*
X136150000Y-55250000D01*
X137150000Y-81100000D02*
X138350000Y-81100000D01*
D19*
X152525000Y-79275000D02*
X152525000Y-79855000D01*
D20*
X148000000Y-104700000D02*
X138350000Y-95050000D01*
X136150000Y-55250000D02*
X136150000Y-80100000D01*
X138350000Y-81100000D02*
X151280000Y-81100000D01*
X138350000Y-95050000D02*
X138350000Y-81100000D01*
X136150000Y-80100000D02*
X137150000Y-81100000D01*
X151280000Y-81100000D02*
X152525000Y-79855000D01*
D19*
%TO.N,GND*%
X150250000Y-78775000D02*
X150000000Y-78525000D01*
X151000000Y-78775000D02*
X150250000Y-78775000D01*
%TO.N,/SDA*%
X136850000Y-82250000D02*
X136850000Y-95350000D01*
X153950000Y-106450000D02*
X153400000Y-105900000D01*
X153300000Y-109200000D02*
X153950000Y-108550000D01*
X136950000Y-78550000D02*
X136950000Y-55800000D01*
X147350000Y-109200000D02*
X153300000Y-109200000D01*
X138375000Y-78775000D02*
X149000000Y-78775000D01*
X153400000Y-105900000D02*
X152000000Y-105900000D01*
X149650000Y-54100000D02*
X150000000Y-53750000D01*
X150000000Y-53750000D02*
X150000000Y-51875000D01*
X144750000Y-106600000D02*
X147350000Y-109200000D01*
X135450000Y-80850000D02*
X136850000Y-82250000D01*
X153950000Y-108550000D02*
X153950000Y-106450000D01*
X138150000Y-78550000D02*
X138375000Y-78775000D01*
X138650000Y-54100000D02*
X149650000Y-54100000D01*
X135450000Y-78550000D02*
X135450000Y-80850000D01*
X144750000Y-103250000D02*
X144750000Y-106600000D01*
X136950000Y-55800000D02*
X138650000Y-54100000D01*
X136850000Y-95350000D02*
X144750000Y-103250000D01*
%TO.N,/SCL*%
X137550000Y-81800000D02*
X137550000Y-95300000D01*
X137550000Y-79250000D02*
X137550000Y-80350000D01*
X137550000Y-56000000D02*
X137550000Y-79250000D01*
X138800000Y-54750000D02*
X137550000Y-56000000D01*
X145250000Y-103000000D02*
X145250000Y-105150000D01*
X150000000Y-55100000D02*
X149650000Y-54750000D01*
X137550000Y-79250000D02*
X137575000Y-79275000D01*
X137575000Y-79275000D02*
X149000000Y-79275000D01*
X145250000Y-105150000D02*
X148000000Y-107900000D01*
X137550000Y-95300000D02*
X145250000Y-103000000D01*
X150000000Y-56925000D02*
X150000000Y-55100000D01*
X149650000Y-54750000D02*
X138800000Y-54750000D01*
%TO.N,/LED3*%
X138750000Y-68650000D02*
X138750000Y-75100000D01*
X148050000Y-77775000D02*
X149000000Y-77775000D01*
X138750000Y-75100000D02*
X141425000Y-77775000D01*
X160700000Y-73100000D02*
X159307843Y-74492157D01*
X160700000Y-68300000D02*
X160350000Y-68650000D01*
X140100000Y-62200000D02*
X140100000Y-68650000D01*
X159307843Y-74492157D02*
X151592157Y-74492157D01*
X148050000Y-76100000D02*
X148050000Y-77775000D01*
X151592157Y-74492157D02*
X151500000Y-74400000D01*
X159300000Y-61800000D02*
X160700000Y-63200000D01*
X160700000Y-69000000D02*
X160700000Y-73100000D01*
X140500000Y-61800000D02*
X140100000Y-62200000D01*
X160350000Y-68650000D02*
X160700000Y-69000000D01*
X140100000Y-68650000D02*
X142900000Y-68650000D01*
X160700000Y-63200000D02*
X160700000Y-68300000D01*
X148550000Y-75600000D02*
X148050000Y-76100000D01*
X142900000Y-61800000D02*
X140500000Y-61800000D01*
X141425000Y-77775000D02*
X148050000Y-77775000D01*
X151500000Y-75600000D02*
X148550000Y-75600000D01*
X160350000Y-68650000D02*
X157100000Y-68650000D01*
X157100000Y-61800000D02*
X159300000Y-61800000D01*
%TO.N,/LED1*%
X150000000Y-65100000D02*
X150000000Y-65300000D01*
X162400000Y-65100000D02*
X162400000Y-74050000D01*
X151900000Y-68650000D02*
X150000000Y-68650000D01*
X150000000Y-65100000D02*
X159550000Y-65100000D01*
X159200000Y-77250000D02*
X153200000Y-77250000D01*
X150000000Y-61800000D02*
X150000000Y-65100000D01*
X162400000Y-74050000D02*
X159200000Y-77250000D01*
X150000000Y-68650000D02*
X148100000Y-68650000D01*
X151900000Y-61800000D02*
X150000000Y-61800000D01*
X152175000Y-78275000D02*
X151000000Y-78275000D01*
X150000000Y-65300000D02*
X150000000Y-68650000D01*
X150000000Y-61800000D02*
X148100000Y-61800000D01*
X153200000Y-77250000D02*
X152175000Y-78275000D01*
%TO.N,/LED4*%
X138150000Y-70000000D02*
X138150000Y-75200000D01*
X140100000Y-70050000D02*
X142900000Y-70050000D01*
X151600000Y-55200000D02*
X152000000Y-54800000D01*
X140050000Y-70000000D02*
X140100000Y-70050000D01*
X151900000Y-60400000D02*
X151600000Y-60100000D01*
X150950000Y-73800000D02*
X150650000Y-74100000D01*
X159350000Y-73800000D02*
X150950000Y-73800000D01*
X138150000Y-75200000D02*
X141225000Y-78275000D01*
X151900000Y-60400000D02*
X148100000Y-60400000D01*
X141225000Y-78275000D02*
X149000000Y-78275000D01*
X160100000Y-70100000D02*
X157150000Y-70100000D01*
X161800000Y-57000000D02*
X159600000Y-54800000D01*
X159600000Y-54800000D02*
X152000000Y-54800000D01*
X161800000Y-70100000D02*
X161800000Y-57000000D01*
X160100000Y-73050000D02*
X159350000Y-73800000D01*
X151600000Y-60100000D02*
X151600000Y-55200000D01*
X141065686Y-74100000D02*
X140050000Y-73084314D01*
X160100000Y-70100000D02*
X160100000Y-73050000D01*
X140050000Y-73084314D02*
X140050000Y-70000000D01*
X157150000Y-70100000D02*
X157100000Y-70050000D01*
X149300000Y-74100000D02*
X141065686Y-74100000D01*
%TO.N,/LED2*%
X151000000Y-77775000D02*
X152025000Y-77775000D01*
X152025000Y-77775000D02*
X152400000Y-77400000D01*
X139450000Y-73050000D02*
X141400000Y-75000000D01*
X157100000Y-60400000D02*
X159800000Y-60400000D01*
X140400000Y-60400000D02*
X139450000Y-61350000D01*
X139450000Y-61350000D02*
X139450000Y-73050000D01*
X150000000Y-70050000D02*
X148100000Y-70050000D01*
X159800000Y-60400000D02*
X161150000Y-61750000D01*
X150000000Y-70050000D02*
X150000000Y-75000000D01*
X142900000Y-60400000D02*
X140400000Y-60400000D01*
X159400000Y-75000000D02*
X152400000Y-75000000D01*
X161150000Y-73250000D02*
X159400000Y-75000000D01*
X151900000Y-70050000D02*
X150000000Y-70050000D01*
X141400000Y-75000000D02*
X150000000Y-75000000D01*
X161150000Y-61750000D02*
X161150000Y-73250000D01*
X152400000Y-75000000D02*
X150000000Y-75000000D01*
X152400000Y-77400000D02*
X152400000Y-75000000D01*
%TD*%
%TA.AperFunction,Conductor*%
%TO.N,GND*%
G36*
X146702539Y-50265385D02*
G01*
X146748294Y-50318189D01*
X146759500Y-50369700D01*
X146759500Y-51350500D01*
X146739815Y-51417539D01*
X146687011Y-51463294D01*
X146635500Y-51474500D01*
X139588433Y-51474500D01*
X139461567Y-51474500D01*
X139461564Y-51474500D01*
X139461562Y-51474501D01*
X139440490Y-51481347D01*
X139421582Y-51485886D01*
X139399698Y-51489353D01*
X139399694Y-51489354D01*
X139379951Y-51499413D01*
X139361987Y-51506854D01*
X139340911Y-51513703D01*
X139322985Y-51526727D01*
X139306400Y-51536890D01*
X139286659Y-51546948D01*
X139275376Y-51558231D01*
X139264094Y-51569513D01*
X139264093Y-51569513D01*
X135844513Y-54989093D01*
X135844513Y-54989094D01*
X135833231Y-55000376D01*
X135821948Y-55011659D01*
X135821948Y-55011660D01*
X135811891Y-55031397D01*
X135801731Y-55047977D01*
X135788706Y-55065905D01*
X135788703Y-55065910D01*
X135781854Y-55086988D01*
X135774413Y-55104952D01*
X135764354Y-55124695D01*
X135760887Y-55146582D01*
X135756347Y-55165491D01*
X135749500Y-55186567D01*
X135749500Y-77950666D01*
X135729815Y-78017705D01*
X135677011Y-78063460D01*
X135607853Y-78073404D01*
X135590566Y-78069643D01*
X135521964Y-78049500D01*
X135521961Y-78049500D01*
X135378039Y-78049500D01*
X135378036Y-78049500D01*
X135239949Y-78090045D01*
X135118873Y-78167856D01*
X135024623Y-78276626D01*
X135024622Y-78276628D01*
X134964834Y-78407543D01*
X134944353Y-78549999D01*
X134964834Y-78692456D01*
X135004229Y-78778717D01*
X135024623Y-78823373D01*
X135118872Y-78932143D01*
X135118875Y-78932144D01*
X135119213Y-78932535D01*
X135148238Y-78996091D01*
X135149500Y-79013738D01*
X135149500Y-80787158D01*
X135148905Y-80795732D01*
X135147227Y-80807763D01*
X135149434Y-80855509D01*
X135149500Y-80858372D01*
X135149500Y-80877845D01*
X135149993Y-80880482D01*
X135150982Y-80889015D01*
X135152415Y-80919991D01*
X135152416Y-80919997D01*
X135155214Y-80926334D01*
X135163664Y-80953620D01*
X135164937Y-80960429D01*
X135164937Y-80960430D01*
X135181260Y-80986793D01*
X135185263Y-80994386D01*
X135197794Y-81022765D01*
X135197795Y-81022766D01*
X135197796Y-81022768D01*
X135202689Y-81027661D01*
X135220435Y-81050065D01*
X135224077Y-81055948D01*
X135224080Y-81055951D01*
X135248826Y-81074639D01*
X135255311Y-81080281D01*
X136513182Y-82338153D01*
X136546666Y-82399474D01*
X136549500Y-82425832D01*
X136549500Y-95287158D01*
X136548905Y-95295732D01*
X136547227Y-95307763D01*
X136549434Y-95355509D01*
X136549500Y-95358372D01*
X136549500Y-95377845D01*
X136549993Y-95380482D01*
X136550982Y-95389015D01*
X136552415Y-95419991D01*
X136552416Y-95419997D01*
X136555214Y-95426334D01*
X136563664Y-95453620D01*
X136564937Y-95460429D01*
X136564937Y-95460430D01*
X136581260Y-95486793D01*
X136585263Y-95494386D01*
X136597794Y-95522765D01*
X136597795Y-95522766D01*
X136597796Y-95522768D01*
X136602689Y-95527661D01*
X136620435Y-95550065D01*
X136624077Y-95555948D01*
X136624080Y-95555951D01*
X136648826Y-95574639D01*
X136655311Y-95580282D01*
X144413181Y-103338152D01*
X144446666Y-103399475D01*
X144449500Y-103425833D01*
X144449500Y-106537158D01*
X144448905Y-106545732D01*
X144447227Y-106557763D01*
X144449434Y-106605509D01*
X144449500Y-106608372D01*
X144449500Y-106627845D01*
X144449993Y-106630482D01*
X144450982Y-106639015D01*
X144452415Y-106669991D01*
X144452416Y-106669997D01*
X144455214Y-106676334D01*
X144463664Y-106703620D01*
X144464937Y-106710429D01*
X144464937Y-106710430D01*
X144464939Y-106710433D01*
X144478150Y-106731771D01*
X144481260Y-106736793D01*
X144485263Y-106744386D01*
X144497794Y-106772765D01*
X144497795Y-106772766D01*
X144497796Y-106772768D01*
X144502689Y-106777661D01*
X144520435Y-106800065D01*
X144524077Y-106805948D01*
X144524080Y-106805951D01*
X144548826Y-106824639D01*
X144555311Y-106830282D01*
X147093078Y-109368049D01*
X147098721Y-109374533D01*
X147106041Y-109384226D01*
X147106042Y-109384228D01*
X147120861Y-109397737D01*
X147141375Y-109416439D01*
X147143423Y-109418394D01*
X147157203Y-109432174D01*
X147159413Y-109433688D01*
X147166143Y-109439018D01*
X147175245Y-109447316D01*
X147189064Y-109459914D01*
X147189065Y-109459914D01*
X147189067Y-109459916D01*
X147195530Y-109462419D01*
X147220807Y-109475743D01*
X147226519Y-109479656D01*
X147256702Y-109486754D01*
X147264903Y-109489294D01*
X147293827Y-109500500D01*
X147300751Y-109500500D01*
X147329141Y-109503793D01*
X147335881Y-109505379D01*
X147366590Y-109501095D01*
X147375166Y-109500500D01*
X153237159Y-109500500D01*
X153245733Y-109501095D01*
X153257761Y-109502772D01*
X153257761Y-109502771D01*
X153257765Y-109502773D01*
X153300920Y-109500778D01*
X153305510Y-109500566D01*
X153308373Y-109500500D01*
X153327843Y-109500500D01*
X153327844Y-109500500D01*
X153330468Y-109500009D01*
X153339021Y-109499016D01*
X153340245Y-109498959D01*
X153369992Y-109497585D01*
X153376322Y-109494789D01*
X153403629Y-109486332D01*
X153410433Y-109485061D01*
X153436797Y-109468736D01*
X153444392Y-109464733D01*
X153472765Y-109452206D01*
X153477661Y-109447309D01*
X153500069Y-109429561D01*
X153505952Y-109425919D01*
X153524649Y-109401158D01*
X153530266Y-109394703D01*
X154118059Y-108806910D01*
X154124532Y-108801279D01*
X154134224Y-108793959D01*
X154134228Y-108793958D01*
X154166459Y-108758600D01*
X154168367Y-108756602D01*
X154182174Y-108742797D01*
X154183684Y-108740592D01*
X154189023Y-108733851D01*
X154192067Y-108730512D01*
X154209916Y-108710933D01*
X154212417Y-108704476D01*
X154225750Y-108679184D01*
X154229657Y-108673481D01*
X154236757Y-108643294D01*
X154239296Y-108635092D01*
X154250500Y-108606173D01*
X154250500Y-108599248D01*
X154253794Y-108570856D01*
X154255379Y-108564119D01*
X154251095Y-108533408D01*
X154250500Y-108524833D01*
X154250500Y-106512838D01*
X154251095Y-106504262D01*
X154252771Y-106492239D01*
X154252773Y-106492235D01*
X154250566Y-106444490D01*
X154250500Y-106441627D01*
X154250500Y-106422159D01*
X154250499Y-106422153D01*
X154250009Y-106419533D01*
X154249016Y-106410980D01*
X154247585Y-106380008D01*
X154244786Y-106373670D01*
X154236333Y-106346373D01*
X154235061Y-106339567D01*
X154218740Y-106313207D01*
X154214734Y-106305608D01*
X154202206Y-106277234D01*
X154197309Y-106272337D01*
X154179561Y-106249931D01*
X154175918Y-106244047D01*
X154151176Y-106225362D01*
X154144698Y-106219726D01*
X153656915Y-105731944D01*
X153651278Y-105725465D01*
X153643956Y-105715770D01*
X153608624Y-105683560D01*
X153606573Y-105681602D01*
X153592797Y-105667826D01*
X153590586Y-105666311D01*
X153583853Y-105660978D01*
X153560933Y-105640084D01*
X153554470Y-105637580D01*
X153529192Y-105624256D01*
X153523481Y-105620344D01*
X153523478Y-105620343D01*
X153523479Y-105620343D01*
X153493302Y-105613244D01*
X153485094Y-105610703D01*
X153456173Y-105599500D01*
X153449249Y-105599500D01*
X153420858Y-105596206D01*
X153414119Y-105594621D01*
X153383409Y-105598905D01*
X153374834Y-105599500D01*
X152937885Y-105599500D01*
X152870846Y-105579815D01*
X152832838Y-105535952D01*
X152830429Y-105537344D01*
X152732534Y-105367785D01*
X152610451Y-105232199D01*
X152605871Y-105227112D01*
X152605516Y-105226854D01*
X152452734Y-105115851D01*
X152452729Y-105115848D01*
X152279807Y-105038857D01*
X152279802Y-105038855D01*
X152134000Y-105007865D01*
X152094646Y-104999500D01*
X151905354Y-104999500D01*
X151872897Y-105006398D01*
X151720197Y-105038855D01*
X151720192Y-105038857D01*
X151547270Y-105115848D01*
X151547265Y-105115851D01*
X151394129Y-105227111D01*
X151267466Y-105367785D01*
X151172821Y-105531715D01*
X151172818Y-105531722D01*
X151117931Y-105700648D01*
X151078493Y-105758324D01*
X151014135Y-105785522D01*
X150945288Y-105773607D01*
X150893813Y-105726363D01*
X150882069Y-105700648D01*
X150827181Y-105531722D01*
X150827180Y-105531721D01*
X150827179Y-105531716D01*
X150732533Y-105367784D01*
X150605871Y-105227112D01*
X150605516Y-105226854D01*
X150452734Y-105115851D01*
X150452729Y-105115848D01*
X150279807Y-105038857D01*
X150279802Y-105038855D01*
X150134001Y-105007865D01*
X150094646Y-104999500D01*
X149905354Y-104999500D01*
X149872897Y-105006398D01*
X149720197Y-105038855D01*
X149720192Y-105038857D01*
X149547270Y-105115848D01*
X149547265Y-105115851D01*
X149394129Y-105227111D01*
X149267466Y-105367785D01*
X149172821Y-105531715D01*
X149172818Y-105531722D01*
X149117931Y-105700648D01*
X149078493Y-105758324D01*
X149014135Y-105785522D01*
X148945288Y-105773607D01*
X148893813Y-105726363D01*
X148882069Y-105700648D01*
X148827181Y-105531722D01*
X148827180Y-105531721D01*
X148827179Y-105531716D01*
X148732533Y-105367784D01*
X148605871Y-105227112D01*
X148605516Y-105226854D01*
X148451615Y-105115038D01*
X148408949Y-105059708D01*
X148400500Y-105014720D01*
X148400500Y-104636568D01*
X148400500Y-104636567D01*
X148393652Y-104615491D01*
X148389111Y-104596578D01*
X148385646Y-104574696D01*
X148375588Y-104554958D01*
X148368140Y-104536976D01*
X148367937Y-104536350D01*
X148361296Y-104515910D01*
X148348271Y-104497982D01*
X148338106Y-104481394D01*
X148328050Y-104461658D01*
X148307398Y-104441006D01*
X148307380Y-104440986D01*
X138786819Y-94920425D01*
X138753334Y-94859102D01*
X138750500Y-94832744D01*
X138750500Y-81624500D01*
X138770185Y-81557461D01*
X138822989Y-81511706D01*
X138874500Y-81500500D01*
X151343431Y-81500500D01*
X151343433Y-81500500D01*
X151364501Y-81493654D01*
X151383417Y-81489112D01*
X151405304Y-81485646D01*
X151425044Y-81475586D01*
X151443011Y-81468144D01*
X151464090Y-81461296D01*
X151482026Y-81448263D01*
X151498588Y-81438114D01*
X151518342Y-81428050D01*
X151533834Y-81412557D01*
X151533841Y-81412552D01*
X152129599Y-80816793D01*
X152190922Y-80783308D01*
X152217835Y-80781050D01*
X152217835Y-80780500D01*
X152829270Y-80780500D01*
X152859699Y-80777646D01*
X152859701Y-80777646D01*
X152923790Y-80755219D01*
X152987882Y-80732793D01*
X153097150Y-80652150D01*
X153177793Y-80542882D01*
X153202406Y-80472543D01*
X153222646Y-80414701D01*
X153222646Y-80414699D01*
X153225500Y-80384269D01*
X153225500Y-80155000D01*
X153525000Y-80155000D01*
X153525000Y-80395649D01*
X153527899Y-80432489D01*
X153527900Y-80432495D01*
X153573716Y-80590193D01*
X153573717Y-80590196D01*
X153657314Y-80731552D01*
X153657321Y-80731561D01*
X153773438Y-80847678D01*
X153773447Y-80847685D01*
X153914803Y-80931282D01*
X153914806Y-80931283D01*
X154072504Y-80977099D01*
X154072510Y-80977100D01*
X154109350Y-80979999D01*
X154109366Y-80980000D01*
X154125000Y-80980000D01*
X154125000Y-80155000D01*
X154725000Y-80155000D01*
X154725000Y-80980000D01*
X154740634Y-80980000D01*
X154740649Y-80979999D01*
X154777489Y-80977100D01*
X154777495Y-80977099D01*
X154935193Y-80931283D01*
X154935196Y-80931282D01*
X155076552Y-80847685D01*
X155076561Y-80847678D01*
X155192678Y-80731561D01*
X155192685Y-80731552D01*
X155276282Y-80590196D01*
X155276283Y-80590193D01*
X155322099Y-80432495D01*
X155322100Y-80432489D01*
X155324999Y-80395649D01*
X155325000Y-80395634D01*
X155325000Y-80155000D01*
X154725000Y-80155000D01*
X154125000Y-80155000D01*
X153525000Y-80155000D01*
X153225500Y-80155000D01*
X153225500Y-79555000D01*
X153525000Y-79555000D01*
X154125000Y-79555000D01*
X154125000Y-78730000D01*
X154725000Y-78730000D01*
X154725000Y-79555000D01*
X155325000Y-79555000D01*
X155325000Y-79314365D01*
X155324999Y-79314350D01*
X155322100Y-79277510D01*
X155322099Y-79277504D01*
X155276283Y-79119806D01*
X155276282Y-79119803D01*
X155192685Y-78978447D01*
X155192678Y-78978438D01*
X155076561Y-78862321D01*
X155076552Y-78862314D01*
X154935196Y-78778717D01*
X154935193Y-78778716D01*
X154777495Y-78732900D01*
X154777489Y-78732899D01*
X154740649Y-78730000D01*
X154725000Y-78730000D01*
X154125000Y-78730000D01*
X154109350Y-78730000D01*
X154072510Y-78732899D01*
X154072504Y-78732900D01*
X153914806Y-78778716D01*
X153914803Y-78778717D01*
X153773447Y-78862314D01*
X153773438Y-78862321D01*
X153657321Y-78978438D01*
X153657314Y-78978447D01*
X153573717Y-79119803D01*
X153573716Y-79119806D01*
X153527900Y-79277504D01*
X153527899Y-79277510D01*
X153525000Y-79314350D01*
X153525000Y-79555000D01*
X153225500Y-79555000D01*
X153225500Y-79325730D01*
X153222646Y-79295300D01*
X153222646Y-79295298D01*
X153177793Y-79167119D01*
X153177792Y-79167117D01*
X153139543Y-79115291D01*
X153097150Y-79057850D01*
X152987882Y-78977207D01*
X152987880Y-78977206D01*
X152859700Y-78932353D01*
X152829270Y-78929500D01*
X152829266Y-78929500D01*
X152220734Y-78929500D01*
X152220730Y-78929500D01*
X152190303Y-78932353D01*
X152145573Y-78948004D01*
X152089737Y-78967542D01*
X152048785Y-78974500D01*
X151871997Y-78974500D01*
X151804958Y-78954815D01*
X151780315Y-78933989D01*
X151749364Y-78900000D01*
X150999000Y-78900000D01*
X150931961Y-78880315D01*
X150886206Y-78827511D01*
X150875000Y-78776000D01*
X150875000Y-78774000D01*
X150894685Y-78706961D01*
X150947489Y-78661206D01*
X150999000Y-78650000D01*
X151749362Y-78650000D01*
X151780315Y-78616010D01*
X151840007Y-78579697D01*
X151871996Y-78575500D01*
X152112159Y-78575500D01*
X152120733Y-78576095D01*
X152132761Y-78577772D01*
X152132761Y-78577771D01*
X152132765Y-78577773D01*
X152175920Y-78575778D01*
X152180510Y-78575566D01*
X152183373Y-78575500D01*
X152202843Y-78575500D01*
X152202844Y-78575500D01*
X152205468Y-78575009D01*
X152214021Y-78574016D01*
X152215245Y-78573959D01*
X152244992Y-78572585D01*
X152251322Y-78569789D01*
X152278629Y-78561332D01*
X152285433Y-78560061D01*
X152311797Y-78543736D01*
X152319392Y-78539733D01*
X152347765Y-78527206D01*
X152352661Y-78522309D01*
X152375069Y-78504561D01*
X152380952Y-78500919D01*
X152399649Y-78476158D01*
X152405266Y-78469703D01*
X153288151Y-77586819D01*
X153349475Y-77553334D01*
X153375833Y-77550500D01*
X159137159Y-77550500D01*
X159145733Y-77551095D01*
X159157761Y-77552772D01*
X159157761Y-77552771D01*
X159157765Y-77552773D01*
X159200920Y-77550778D01*
X159205510Y-77550566D01*
X159208373Y-77550500D01*
X159227843Y-77550500D01*
X159227844Y-77550500D01*
X159230468Y-77550009D01*
X159239021Y-77549016D01*
X159240245Y-77548959D01*
X159269992Y-77547585D01*
X159276322Y-77544789D01*
X159303629Y-77536332D01*
X159310433Y-77535061D01*
X159336797Y-77518736D01*
X159344392Y-77514733D01*
X159372765Y-77502206D01*
X159377661Y-77497309D01*
X159400069Y-77479561D01*
X159405952Y-77475919D01*
X159424649Y-77451158D01*
X159430266Y-77444703D01*
X162568059Y-74306910D01*
X162574532Y-74301279D01*
X162584224Y-74293959D01*
X162584228Y-74293958D01*
X162616459Y-74258600D01*
X162618367Y-74256602D01*
X162632174Y-74242797D01*
X162633684Y-74240592D01*
X162639023Y-74233851D01*
X162641763Y-74230844D01*
X162659916Y-74210933D01*
X162662416Y-74204478D01*
X162675749Y-74179182D01*
X162679656Y-74173481D01*
X162686757Y-74143285D01*
X162689292Y-74135101D01*
X162700500Y-74106173D01*
X162700500Y-74099248D01*
X162703795Y-74070855D01*
X162705378Y-74064123D01*
X162705379Y-74064119D01*
X162701095Y-74033408D01*
X162700500Y-74024833D01*
X162700500Y-65563738D01*
X162720185Y-65496699D01*
X162730787Y-65482535D01*
X162731124Y-65482144D01*
X162731128Y-65482143D01*
X162825377Y-65373373D01*
X162885165Y-65242457D01*
X162905647Y-65100000D01*
X162885165Y-64957543D01*
X162825377Y-64826627D01*
X162731128Y-64717857D01*
X162610053Y-64640047D01*
X162610051Y-64640046D01*
X162610049Y-64640045D01*
X162610050Y-64640045D01*
X162471963Y-64599500D01*
X162471961Y-64599500D01*
X162328039Y-64599500D01*
X162328035Y-64599500D01*
X162259434Y-64619643D01*
X162189564Y-64619643D01*
X162130786Y-64581868D01*
X162101762Y-64518312D01*
X162100500Y-64500666D01*
X162100500Y-57062839D01*
X162101095Y-57054263D01*
X162102771Y-57042240D01*
X162102773Y-57042236D01*
X162100566Y-56994491D01*
X162100500Y-56991628D01*
X162100500Y-56972159D01*
X162100499Y-56972153D01*
X162100009Y-56969533D01*
X162099016Y-56960980D01*
X162098754Y-56955315D01*
X162097585Y-56930009D01*
X162094788Y-56923676D01*
X162086332Y-56896370D01*
X162085061Y-56889567D01*
X162068738Y-56863205D01*
X162064731Y-56855602D01*
X162052207Y-56827237D01*
X162052206Y-56827236D01*
X162052206Y-56827235D01*
X162047308Y-56822338D01*
X162029563Y-56799934D01*
X162025918Y-56794047D01*
X162001172Y-56775360D01*
X161994694Y-56769723D01*
X159856922Y-54631950D01*
X159851278Y-54625465D01*
X159843956Y-54615770D01*
X159808624Y-54583560D01*
X159806573Y-54581602D01*
X159792797Y-54567826D01*
X159790586Y-54566311D01*
X159783853Y-54560978D01*
X159760933Y-54540084D01*
X159754470Y-54537580D01*
X159729192Y-54524256D01*
X159723481Y-54520344D01*
X159723478Y-54520343D01*
X159723479Y-54520343D01*
X159693302Y-54513244D01*
X159685094Y-54510703D01*
X159656173Y-54499500D01*
X159649249Y-54499500D01*
X159620858Y-54496206D01*
X159614119Y-54494621D01*
X159583409Y-54498905D01*
X159574834Y-54499500D01*
X152062841Y-54499500D01*
X152054267Y-54498905D01*
X152042238Y-54497227D01*
X152042235Y-54497227D01*
X152017219Y-54498383D01*
X151994490Y-54499434D01*
X151991627Y-54499500D01*
X151972156Y-54499500D01*
X151972151Y-54499500D01*
X151972149Y-54499501D01*
X151969515Y-54499993D01*
X151960985Y-54500982D01*
X151930006Y-54502415D01*
X151930004Y-54502415D01*
X151923658Y-54505217D01*
X151896385Y-54513663D01*
X151889570Y-54514937D01*
X151889566Y-54514939D01*
X151863204Y-54531261D01*
X151855603Y-54535267D01*
X151827234Y-54547793D01*
X151822329Y-54552698D01*
X151799939Y-54570433D01*
X151794049Y-54574080D01*
X151794044Y-54574084D01*
X151775358Y-54598827D01*
X151769717Y-54605310D01*
X151431947Y-54943079D01*
X151425465Y-54948720D01*
X151415771Y-54956041D01*
X151383559Y-54991374D01*
X151381585Y-54993442D01*
X151367827Y-55007200D01*
X151367822Y-55007206D01*
X151366306Y-55009420D01*
X151360976Y-55016148D01*
X151340083Y-55039066D01*
X151340083Y-55039067D01*
X151337578Y-55045533D01*
X151324259Y-55070802D01*
X151320345Y-55076515D01*
X151320343Y-55076521D01*
X151313244Y-55106699D01*
X151310702Y-55114907D01*
X151299500Y-55143826D01*
X151299500Y-55150751D01*
X151296206Y-55179141D01*
X151294621Y-55185877D01*
X151294621Y-55185881D01*
X151297350Y-55205447D01*
X151298905Y-55216590D01*
X151299500Y-55225166D01*
X151299500Y-56851000D01*
X151279815Y-56918039D01*
X151227011Y-56963794D01*
X151175500Y-56975000D01*
X150824500Y-56975000D01*
X150757461Y-56955315D01*
X150711706Y-56902511D01*
X150700500Y-56851000D01*
X150700500Y-55330249D01*
X150700499Y-55330247D01*
X150688868Y-55271770D01*
X150688867Y-55271769D01*
X150644552Y-55205447D01*
X150578230Y-55161132D01*
X150578229Y-55161131D01*
X150519752Y-55149500D01*
X150519748Y-55149500D01*
X150421509Y-55149500D01*
X150354470Y-55129815D01*
X150308715Y-55077011D01*
X150297641Y-55031228D01*
X150297585Y-55030009D01*
X150294788Y-55023676D01*
X150286332Y-54996370D01*
X150285061Y-54989567D01*
X150268738Y-54963205D01*
X150264731Y-54955602D01*
X150252207Y-54927237D01*
X150252206Y-54927236D01*
X150252206Y-54927235D01*
X150247308Y-54922338D01*
X150229563Y-54899934D01*
X150225918Y-54894047D01*
X150201172Y-54875360D01*
X150194694Y-54869723D01*
X149906922Y-54581951D01*
X149901278Y-54575465D01*
X149893956Y-54565770D01*
X149858624Y-54533560D01*
X149856573Y-54531602D01*
X149845314Y-54520343D01*
X149840000Y-54515028D01*
X149806517Y-54453704D01*
X149811504Y-54384013D01*
X149848413Y-54334710D01*
X149847458Y-54333662D01*
X149852938Y-54328665D01*
X149853377Y-54328080D01*
X149854186Y-54327527D01*
X149855945Y-54325922D01*
X149855952Y-54325919D01*
X149874649Y-54301158D01*
X149880266Y-54294703D01*
X150168059Y-54006910D01*
X150174532Y-54001279D01*
X150184224Y-53993959D01*
X150184228Y-53993958D01*
X150216459Y-53958600D01*
X150218367Y-53956602D01*
X150232174Y-53942797D01*
X150233684Y-53940592D01*
X150239023Y-53933851D01*
X150240489Y-53932242D01*
X150259916Y-53910933D01*
X150262416Y-53904478D01*
X150275750Y-53879183D01*
X150279656Y-53873481D01*
X150279655Y-53873481D01*
X150279657Y-53873480D01*
X150286757Y-53843291D01*
X150289291Y-53835106D01*
X150300500Y-53806173D01*
X150300500Y-53799248D01*
X150303795Y-53770855D01*
X150308011Y-53752932D01*
X150310426Y-53753500D01*
X150327917Y-53702722D01*
X150382775Y-53659451D01*
X150429031Y-53650500D01*
X150519750Y-53650500D01*
X150519751Y-53650499D01*
X150534568Y-53647552D01*
X150578229Y-53638868D01*
X150578229Y-53638867D01*
X150578231Y-53638867D01*
X150644552Y-53594552D01*
X150688867Y-53528231D01*
X150688867Y-53528229D01*
X150688868Y-53528229D01*
X150700499Y-53469752D01*
X150700500Y-53469750D01*
X150700500Y-50369700D01*
X150720185Y-50302661D01*
X150772989Y-50256906D01*
X150824500Y-50245700D01*
X151715500Y-50245700D01*
X151782539Y-50265385D01*
X151828294Y-50318189D01*
X151839500Y-50369700D01*
X151839500Y-53469752D01*
X151851131Y-53528229D01*
X151851132Y-53528230D01*
X151895447Y-53594552D01*
X151961769Y-53638867D01*
X151961770Y-53638868D01*
X152020247Y-53650499D01*
X152020250Y-53650500D01*
X152020252Y-53650500D01*
X153059750Y-53650500D01*
X153059751Y-53650499D01*
X153074568Y-53647552D01*
X153118229Y-53638868D01*
X153118229Y-53638867D01*
X153118231Y-53638867D01*
X153184552Y-53594552D01*
X153228867Y-53528231D01*
X153228867Y-53528229D01*
X153228868Y-53528229D01*
X153240499Y-53469752D01*
X153240500Y-53469750D01*
X153240500Y-52500000D01*
X163294659Y-52500000D01*
X163313975Y-52696129D01*
X163371188Y-52884733D01*
X163464086Y-53058532D01*
X163464090Y-53058539D01*
X163589116Y-53210883D01*
X163741460Y-53335909D01*
X163741467Y-53335913D01*
X163915266Y-53428811D01*
X163915269Y-53428811D01*
X163915273Y-53428814D01*
X164103868Y-53486024D01*
X164300000Y-53505341D01*
X164496132Y-53486024D01*
X164684727Y-53428814D01*
X164858538Y-53335910D01*
X165010883Y-53210883D01*
X165135910Y-53058538D01*
X165228814Y-52884727D01*
X165286024Y-52696132D01*
X165305341Y-52500000D01*
X165286024Y-52303868D01*
X165228814Y-52115273D01*
X165228811Y-52115269D01*
X165228811Y-52115266D01*
X165135913Y-51941467D01*
X165135909Y-51941460D01*
X165010883Y-51789116D01*
X164858539Y-51664090D01*
X164858532Y-51664086D01*
X164684733Y-51571188D01*
X164684727Y-51571186D01*
X164496132Y-51513976D01*
X164496129Y-51513975D01*
X164300000Y-51494659D01*
X164103870Y-51513975D01*
X163915266Y-51571188D01*
X163741467Y-51664086D01*
X163741460Y-51664090D01*
X163589116Y-51789116D01*
X163464090Y-51941460D01*
X163464086Y-51941467D01*
X163371188Y-52115266D01*
X163313975Y-52303870D01*
X163294659Y-52500000D01*
X153240500Y-52500000D01*
X153240500Y-50369700D01*
X153260185Y-50302661D01*
X153312989Y-50256906D01*
X153364500Y-50245700D01*
X164572367Y-50245700D01*
X164575031Y-50245757D01*
X164680351Y-50250285D01*
X164736960Y-50252719D01*
X164742015Y-50253145D01*
X164898000Y-50272718D01*
X164902787Y-50273511D01*
X165055051Y-50304958D01*
X165060291Y-50306282D01*
X165209173Y-50350895D01*
X165213943Y-50352539D01*
X165359492Y-50409468D01*
X165363966Y-50411426D01*
X165504869Y-50479899D01*
X165509423Y-50482352D01*
X165643148Y-50561767D01*
X165647630Y-50564698D01*
X165773895Y-50655315D01*
X165777892Y-50658440D01*
X165896680Y-50759474D01*
X165897243Y-50759953D01*
X165900830Y-50763256D01*
X165938115Y-50800396D01*
X166011261Y-50873258D01*
X166014864Y-50877172D01*
X166101781Y-50980168D01*
X166115507Y-50996433D01*
X166118508Y-51000287D01*
X166209851Y-51127652D01*
X166212649Y-51131913D01*
X166292251Y-51264723D01*
X166294918Y-51269666D01*
X166362539Y-51409874D01*
X166364447Y-51414253D01*
X166421690Y-51560820D01*
X166423316Y-51565534D01*
X166468024Y-51714304D01*
X166469340Y-51719481D01*
X166501207Y-51872138D01*
X166502031Y-51877069D01*
X166521491Y-52031725D01*
X166521927Y-52037009D01*
X166528351Y-52198820D01*
X166528400Y-52201280D01*
X166528400Y-97290073D01*
X166528367Y-97292103D01*
X166512370Y-97780520D01*
X166512103Y-97784576D01*
X166488704Y-98021070D01*
X166464523Y-98265463D01*
X166463994Y-98269475D01*
X166385103Y-98746561D01*
X166384321Y-98750495D01*
X166274747Y-99221512D01*
X166273692Y-99225454D01*
X166133424Y-99688091D01*
X166132128Y-99691913D01*
X165962069Y-100144443D01*
X165960492Y-100148249D01*
X165760740Y-100588531D01*
X165758975Y-100592110D01*
X165531427Y-101018429D01*
X165529353Y-101022020D01*
X165274006Y-101431899D01*
X165271787Y-101435217D01*
X164990053Y-101828590D01*
X164987604Y-101831784D01*
X164681317Y-102205603D01*
X164678602Y-102208701D01*
X164347971Y-102561585D01*
X164345111Y-102564445D01*
X163992072Y-102895131D01*
X163988994Y-102897829D01*
X163615195Y-103204273D01*
X163612017Y-103206711D01*
X163219377Y-103488265D01*
X163215943Y-103490558D01*
X162805436Y-103745362D01*
X162801980Y-103747356D01*
X162375404Y-103975522D01*
X162371787Y-103977308D01*
X161931685Y-104177075D01*
X161927857Y-104178660D01*
X161475280Y-104348640D01*
X161471484Y-104349928D01*
X161008934Y-104490295D01*
X161004977Y-104491355D01*
X160534023Y-104600915D01*
X160530075Y-104601699D01*
X160052918Y-104680490D01*
X160048922Y-104681017D01*
X159568058Y-104728605D01*
X159563994Y-104728873D01*
X159075973Y-104744966D01*
X159073929Y-104745000D01*
X158392611Y-104745000D01*
X158375643Y-104742301D01*
X158375518Y-104743352D01*
X158363391Y-104741900D01*
X158328595Y-104744595D01*
X158325751Y-104744815D01*
X158320967Y-104745000D01*
X158308377Y-104745000D01*
X158308374Y-104745000D01*
X158308369Y-104745001D01*
X158302453Y-104746177D01*
X158295153Y-104747183D01*
X158289124Y-104747650D01*
X158289110Y-104747653D01*
X158276989Y-104751054D01*
X158272337Y-104752168D01*
X158235308Y-104759534D01*
X158224024Y-104764208D01*
X158223620Y-104763232D01*
X158208022Y-104770411D01*
X158206832Y-104770745D01*
X158204897Y-104771288D01*
X158200589Y-104772967D01*
X158196247Y-104774476D01*
X158120995Y-104797536D01*
X158096965Y-104804855D01*
X158096585Y-104805012D01*
X158081727Y-104813007D01*
X158075172Y-104816536D01*
X158000245Y-104856692D01*
X157981282Y-104866855D01*
X157959087Y-104878721D01*
X157959028Y-104878761D01*
X157958883Y-104878857D01*
X157939719Y-104894619D01*
X157912142Y-104917255D01*
X157862182Y-104958263D01*
X157856765Y-104962708D01*
X157837264Y-104978709D01*
X157823491Y-104995494D01*
X157752952Y-105081433D01*
X157737408Y-105100331D01*
X157737303Y-105100491D01*
X157737270Y-105100539D01*
X157725437Y-105122673D01*
X157675298Y-105216224D01*
X157663567Y-105238026D01*
X157663484Y-105238227D01*
X157663411Y-105238400D01*
X157656267Y-105261856D01*
X157642923Y-105305400D01*
X157641739Y-105308258D01*
X157624654Y-105365023D01*
X157617604Y-105388030D01*
X157617507Y-105388528D01*
X157617373Y-105389186D01*
X157615074Y-105413053D01*
X157609089Y-105472142D01*
X157609087Y-105475225D01*
X157606108Y-105506161D01*
X157605203Y-105512312D01*
X157603451Y-105521122D01*
X157603451Y-105530783D01*
X157603165Y-105536729D01*
X157602239Y-105546341D01*
X157602239Y-105546351D01*
X157603139Y-105555284D01*
X157603451Y-105561499D01*
X157603451Y-106707394D01*
X157583766Y-106774433D01*
X157530962Y-106820188D01*
X157461804Y-106830132D01*
X157408327Y-106808969D01*
X157352482Y-106769866D01*
X157146326Y-106673734D01*
X157146320Y-106673731D01*
X157000000Y-106634525D01*
X157000000Y-107634314D01*
X156938045Y-107572359D01*
X156825148Y-107514835D01*
X156700000Y-107495014D01*
X156574852Y-107514835D01*
X156461955Y-107572359D01*
X156400000Y-107634314D01*
X156400000Y-106634525D01*
X156399999Y-106634525D01*
X156253679Y-106673731D01*
X156253673Y-106673734D01*
X156047517Y-106769865D01*
X155861179Y-106900342D01*
X155700342Y-107061179D01*
X155569865Y-107247517D01*
X155473734Y-107453673D01*
X155473730Y-107453682D01*
X155414860Y-107673389D01*
X155414858Y-107673400D01*
X155400000Y-107843233D01*
X155400000Y-108100000D01*
X156300000Y-108100000D01*
X156300000Y-108700000D01*
X155400000Y-108700000D01*
X155400000Y-108956766D01*
X155414858Y-109126599D01*
X155414860Y-109126610D01*
X155473730Y-109346317D01*
X155473734Y-109346326D01*
X155569865Y-109552482D01*
X155700342Y-109738820D01*
X155861179Y-109899657D01*
X156047517Y-110030134D01*
X156253673Y-110126265D01*
X156253682Y-110126269D01*
X156400000Y-110165473D01*
X156400000Y-109165686D01*
X156461955Y-109227641D01*
X156574852Y-109285165D01*
X156700000Y-109304986D01*
X156825148Y-109285165D01*
X156938045Y-109227641D01*
X157000000Y-109165686D01*
X157000000Y-110165472D01*
X157146317Y-110126269D01*
X157146326Y-110126265D01*
X157352483Y-110030133D01*
X157408326Y-109991031D01*
X157474532Y-109968703D01*
X157542300Y-109985712D01*
X157590113Y-110036660D01*
X157603451Y-110092605D01*
X157603451Y-112157394D01*
X157583766Y-112224433D01*
X157530962Y-112270188D01*
X157461804Y-112280132D01*
X157408327Y-112258969D01*
X157352482Y-112219866D01*
X157146326Y-112123734D01*
X157146320Y-112123731D01*
X157000000Y-112084525D01*
X157000000Y-113084314D01*
X156938045Y-113022359D01*
X156825148Y-112964835D01*
X156700000Y-112945014D01*
X156574852Y-112964835D01*
X156461955Y-113022359D01*
X156400000Y-113084313D01*
X156400000Y-112084525D01*
X156399999Y-112084525D01*
X156253679Y-112123731D01*
X156253673Y-112123734D01*
X156047517Y-112219865D01*
X155861179Y-112350342D01*
X155700342Y-112511179D01*
X155569865Y-112697517D01*
X155473734Y-112903673D01*
X155473730Y-112903682D01*
X155414860Y-113123389D01*
X155414858Y-113123400D01*
X155400000Y-113293233D01*
X155400000Y-113550000D01*
X156300000Y-113550000D01*
X156300000Y-114150000D01*
X155400000Y-114150000D01*
X155400000Y-114406766D01*
X155414858Y-114576599D01*
X155414860Y-114576610D01*
X155473730Y-114796317D01*
X155473734Y-114796326D01*
X155569865Y-115002482D01*
X155700342Y-115188820D01*
X155861179Y-115349657D01*
X156047517Y-115480134D01*
X156253673Y-115576265D01*
X156253682Y-115576269D01*
X156400000Y-115615473D01*
X156400000Y-114615686D01*
X156461955Y-114677641D01*
X156574852Y-114735165D01*
X156700000Y-114754986D01*
X156825148Y-114735165D01*
X156938045Y-114677641D01*
X157000000Y-114615686D01*
X157000000Y-115615473D01*
X157146317Y-115576269D01*
X157146326Y-115576265D01*
X157352483Y-115480133D01*
X157408326Y-115441031D01*
X157474532Y-115418703D01*
X157542300Y-115435712D01*
X157590113Y-115486660D01*
X157603451Y-115542605D01*
X157603451Y-116986930D01*
X157603104Y-116993487D01*
X157587767Y-117137792D01*
X157582810Y-117161695D01*
X157547051Y-117276049D01*
X157537792Y-117297992D01*
X157481605Y-117401967D01*
X157468536Y-117421476D01*
X157394044Y-117512641D01*
X157377742Y-117529159D01*
X157287588Y-117604829D01*
X157268254Y-117618155D01*
X157165035Y-117675705D01*
X157143206Y-117685255D01*
X157029350Y-117722503D01*
X157005523Y-117727771D01*
X156927679Y-117737083D01*
X156863490Y-117744761D01*
X156856130Y-117745200D01*
X143178174Y-117745200D01*
X143172660Y-117744954D01*
X143023493Y-117731630D01*
X142999222Y-117726990D01*
X142923604Y-117704531D01*
X142883078Y-117692494D01*
X142860719Y-117683402D01*
X142754897Y-117627814D01*
X142735108Y-117614872D01*
X142642116Y-117540491D01*
X142625207Y-117524103D01*
X142547960Y-117433493D01*
X142534400Y-117414109D01*
X142511462Y-117373568D01*
X142475564Y-117310120D01*
X142465756Y-117287986D01*
X142429470Y-117178239D01*
X142427705Y-117172901D01*
X142422339Y-117148896D01*
X142420993Y-117137792D01*
X142404901Y-117005000D01*
X142404451Y-116997537D01*
X142404451Y-116000000D01*
X148994659Y-116000000D01*
X149013975Y-116196129D01*
X149071188Y-116384733D01*
X149164086Y-116558532D01*
X149164090Y-116558539D01*
X149289116Y-116710883D01*
X149441460Y-116835909D01*
X149441467Y-116835913D01*
X149615266Y-116928811D01*
X149615269Y-116928811D01*
X149615273Y-116928814D01*
X149803868Y-116986024D01*
X150000000Y-117005341D01*
X150196132Y-116986024D01*
X150384727Y-116928814D01*
X150558538Y-116835910D01*
X150710883Y-116710883D01*
X150835910Y-116558538D01*
X150928814Y-116384727D01*
X150986024Y-116196132D01*
X151005341Y-116000000D01*
X150986024Y-115803868D01*
X150928814Y-115615273D01*
X150928811Y-115615269D01*
X150928811Y-115615266D01*
X150835913Y-115441467D01*
X150835909Y-115441460D01*
X150710883Y-115289116D01*
X150558539Y-115164090D01*
X150558532Y-115164086D01*
X150384733Y-115071188D01*
X150384727Y-115071186D01*
X150196132Y-115013976D01*
X150196129Y-115013975D01*
X150000000Y-114994659D01*
X149803870Y-115013975D01*
X149615266Y-115071188D01*
X149441467Y-115164086D01*
X149441460Y-115164090D01*
X149289116Y-115289116D01*
X149164090Y-115441460D01*
X149164086Y-115441467D01*
X149071188Y-115615266D01*
X149013975Y-115803870D01*
X148994659Y-116000000D01*
X142404451Y-116000000D01*
X142404451Y-115548138D01*
X142424136Y-115481099D01*
X142476940Y-115435344D01*
X142546098Y-115425400D01*
X142599576Y-115446564D01*
X142647516Y-115480133D01*
X142853673Y-115576265D01*
X142853682Y-115576269D01*
X143000000Y-115615473D01*
X143000000Y-114615686D01*
X143061955Y-114677641D01*
X143174852Y-114735165D01*
X143300000Y-114754986D01*
X143425148Y-114735165D01*
X143538045Y-114677641D01*
X143600000Y-114615685D01*
X143600000Y-115615472D01*
X143746317Y-115576269D01*
X143746326Y-115576265D01*
X143952482Y-115480134D01*
X144138820Y-115349657D01*
X144299657Y-115188820D01*
X144430134Y-115002482D01*
X144526265Y-114796326D01*
X144526269Y-114796317D01*
X144585139Y-114576610D01*
X144585141Y-114576599D01*
X144599999Y-114406766D01*
X144600000Y-114406764D01*
X144600000Y-114150000D01*
X143700000Y-114150000D01*
X143700000Y-113550000D01*
X144600000Y-113550000D01*
X144600000Y-113293235D01*
X144599999Y-113293233D01*
X144585141Y-113123400D01*
X144585139Y-113123389D01*
X144526269Y-112903682D01*
X144526265Y-112903673D01*
X144430134Y-112697517D01*
X144299657Y-112511179D01*
X144138820Y-112350342D01*
X143952482Y-112219865D01*
X143746326Y-112123734D01*
X143746320Y-112123731D01*
X143600000Y-112084525D01*
X143600000Y-113084314D01*
X143538045Y-113022359D01*
X143425148Y-112964835D01*
X143300000Y-112945014D01*
X143174852Y-112964835D01*
X143061955Y-113022359D01*
X143000000Y-113084314D01*
X143000000Y-112084525D01*
X142999999Y-112084525D01*
X142853679Y-112123731D01*
X142853673Y-112123734D01*
X142647517Y-112219866D01*
X142599575Y-112253436D01*
X142533369Y-112275763D01*
X142465601Y-112258753D01*
X142417788Y-112207805D01*
X142404451Y-112151861D01*
X142404451Y-110098138D01*
X142424136Y-110031099D01*
X142476940Y-109985344D01*
X142546098Y-109975400D01*
X142599576Y-109996564D01*
X142647516Y-110030133D01*
X142853673Y-110126265D01*
X142853682Y-110126269D01*
X143000000Y-110165473D01*
X143000000Y-109165686D01*
X143061955Y-109227641D01*
X143174852Y-109285165D01*
X143300000Y-109304986D01*
X143425148Y-109285165D01*
X143538045Y-109227641D01*
X143600000Y-109165685D01*
X143600000Y-110165472D01*
X143746317Y-110126269D01*
X143746326Y-110126265D01*
X143952482Y-110030134D01*
X144138820Y-109899657D01*
X144299657Y-109738820D01*
X144430134Y-109552482D01*
X144526265Y-109346326D01*
X144526269Y-109346317D01*
X144585139Y-109126610D01*
X144585141Y-109126599D01*
X144599999Y-108956766D01*
X144600000Y-108956764D01*
X144600000Y-108700000D01*
X143700000Y-108700000D01*
X143700000Y-108100000D01*
X144600000Y-108100000D01*
X144600000Y-107843235D01*
X144599999Y-107843233D01*
X144585141Y-107673400D01*
X144585139Y-107673389D01*
X144526269Y-107453682D01*
X144526265Y-107453673D01*
X144430134Y-107247517D01*
X144299657Y-107061179D01*
X144138820Y-106900342D01*
X143952482Y-106769865D01*
X143746326Y-106673734D01*
X143746320Y-106673731D01*
X143600000Y-106634525D01*
X143600000Y-107634314D01*
X143538045Y-107572359D01*
X143425148Y-107514835D01*
X143300000Y-107495014D01*
X143174852Y-107514835D01*
X143061955Y-107572359D01*
X143000000Y-107634313D01*
X143000000Y-106634525D01*
X142999999Y-106634525D01*
X142853679Y-106673731D01*
X142853673Y-106673734D01*
X142647517Y-106769866D01*
X142599575Y-106803436D01*
X142533369Y-106825763D01*
X142465601Y-106808753D01*
X142417788Y-106757805D01*
X142404451Y-106701861D01*
X142404451Y-105548837D01*
X142404660Y-105543754D01*
X142405631Y-105531939D01*
X142405631Y-105531937D01*
X142404856Y-105525186D01*
X142404451Y-105518109D01*
X142404451Y-105511326D01*
X142402140Y-105499713D01*
X142401353Y-105494684D01*
X142399809Y-105481242D01*
X142397498Y-105461117D01*
X142397487Y-105460355D01*
X142393628Y-105427106D01*
X142390403Y-105399313D01*
X142389245Y-105389228D01*
X142387603Y-105374919D01*
X142387569Y-105374763D01*
X142387537Y-105374621D01*
X142387537Y-105374614D01*
X142380066Y-105351442D01*
X142364828Y-105303982D01*
X142361274Y-105292912D01*
X142360965Y-105292200D01*
X142347593Y-105250726D01*
X142346405Y-105246996D01*
X142340259Y-105227690D01*
X142340152Y-105227443D01*
X142339898Y-105226854D01*
X142328050Y-105205587D01*
X142279024Y-105116812D01*
X142268285Y-105096671D01*
X142268283Y-105096668D01*
X142267473Y-105095453D01*
X142267404Y-105095340D01*
X142267257Y-105095127D01*
X142267111Y-105094908D01*
X142267038Y-105094811D01*
X142266205Y-105093600D01*
X142251435Y-105076096D01*
X142239765Y-105061847D01*
X142187659Y-104998224D01*
X142187610Y-104998108D01*
X142187584Y-104998131D01*
X142171604Y-104978579D01*
X142171420Y-104978395D01*
X142162907Y-104971394D01*
X142152396Y-104962749D01*
X142131810Y-104945783D01*
X142073813Y-104897986D01*
X142055703Y-104882790D01*
X142054818Y-104882196D01*
X142053997Y-104881634D01*
X142033073Y-104870395D01*
X141943352Y-104821171D01*
X141922571Y-104809587D01*
X141922570Y-104809586D01*
X141922510Y-104809553D01*
X141921754Y-104809231D01*
X141921062Y-104808929D01*
X141898124Y-104801696D01*
X141857353Y-104788538D01*
X141856480Y-104788159D01*
X141845470Y-104784624D01*
X141845469Y-104784623D01*
X141797723Y-104769292D01*
X141797567Y-104769186D01*
X141797551Y-104769237D01*
X141780065Y-104763594D01*
X141774890Y-104761924D01*
X141774538Y-104761849D01*
X141753461Y-104759429D01*
X141753459Y-104759428D01*
X141750612Y-104759102D01*
X141750098Y-104759042D01*
X141749994Y-104759031D01*
X141749994Y-104759030D01*
X141689482Y-104751990D01*
X141688525Y-104751973D01*
X141654763Y-104748097D01*
X141649747Y-104747311D01*
X141642255Y-104745821D01*
X141638126Y-104745000D01*
X141638125Y-104745000D01*
X141631333Y-104745000D01*
X141624255Y-104744595D01*
X141617511Y-104743820D01*
X141605708Y-104744791D01*
X141600626Y-104745000D01*
X135437761Y-104745000D01*
X135434253Y-104744900D01*
X135268158Y-104735466D01*
X135214056Y-104732394D01*
X135207174Y-104731616D01*
X134998684Y-104696167D01*
X134991939Y-104694629D01*
X134788289Y-104636073D01*
X134781755Y-104633793D01*
X134586401Y-104553132D01*
X134580063Y-104550084D01*
X134556350Y-104536976D01*
X134394928Y-104447744D01*
X134389046Y-104444048D01*
X134216634Y-104321731D01*
X134211202Y-104317400D01*
X134067841Y-104189346D01*
X134052939Y-104176035D01*
X134047999Y-104171095D01*
X133992447Y-104108882D01*
X133907102Y-104013303D01*
X133902778Y-104007879D01*
X133780450Y-103835452D01*
X133776753Y-103829568D01*
X133674413Y-103644431D01*
X133671365Y-103638093D01*
X133652991Y-103593593D01*
X133590701Y-103442734D01*
X133588425Y-103436209D01*
X133558032Y-103330506D01*
X133529866Y-103232546D01*
X133528331Y-103225813D01*
X133492884Y-103017333D01*
X133492106Y-103010450D01*
X133479600Y-102790237D01*
X133479500Y-102786721D01*
X133479500Y-52203983D01*
X133479600Y-52200459D01*
X133484448Y-52115266D01*
X133492106Y-51980693D01*
X133492877Y-51973864D01*
X133528343Y-51764852D01*
X133529882Y-51758099D01*
X133542474Y-51714304D01*
X133588426Y-51554483D01*
X133590699Y-51547969D01*
X133671315Y-51352726D01*
X133674386Y-51346351D01*
X133718277Y-51267136D01*
X133776779Y-51161548D01*
X133780405Y-51155776D01*
X133902604Y-50983103D01*
X133907089Y-50977487D01*
X133924216Y-50958415D01*
X134048275Y-50820279D01*
X134053090Y-50815478D01*
X134211201Y-50674296D01*
X134216610Y-50669984D01*
X134389053Y-50547644D01*
X134394914Y-50543961D01*
X134580329Y-50441468D01*
X134586529Y-50438478D01*
X134782231Y-50357243D01*
X134788725Y-50354963D01*
X134992149Y-50296045D01*
X134998961Y-50294484D01*
X135207173Y-50259082D01*
X135214041Y-50258306D01*
X135434262Y-50245800D01*
X135437778Y-50245700D01*
X135453574Y-50245700D01*
X146635500Y-50245700D01*
X146702539Y-50265385D01*
G37*
%TD.AperFunction*%
%TA.AperFunction,Conductor*%
G36*
X151054711Y-106026392D02*
G01*
X151106187Y-106073636D01*
X151117931Y-106099351D01*
X151172818Y-106268277D01*
X151172820Y-106268281D01*
X151172821Y-106268284D01*
X151267467Y-106432216D01*
X151369678Y-106545732D01*
X151394129Y-106572888D01*
X151552527Y-106687971D01*
X151550856Y-106690270D01*
X151590492Y-106731771D01*
X151603772Y-106800367D01*
X151577858Y-106865253D01*
X151525121Y-106904307D01*
X151507590Y-106911098D01*
X151507586Y-106911100D01*
X151462982Y-106938717D01*
X151462982Y-106938718D01*
X152000000Y-107475736D01*
X152000001Y-107475736D01*
X152537017Y-106938718D01*
X152492412Y-106911101D01*
X152492406Y-106911098D01*
X152474879Y-106904308D01*
X152419478Y-106861734D01*
X152395889Y-106795967D01*
X152411601Y-106727887D01*
X152449020Y-106690101D01*
X152447473Y-106687971D01*
X152557031Y-106608372D01*
X152605871Y-106572888D01*
X152732533Y-106432216D01*
X152766334Y-106373671D01*
X152830429Y-106262656D01*
X152833074Y-106264183D01*
X152869603Y-106220994D01*
X152936402Y-106200509D01*
X152937885Y-106200500D01*
X153224167Y-106200500D01*
X153291206Y-106220185D01*
X153311848Y-106236819D01*
X153613181Y-106538152D01*
X153646666Y-106599475D01*
X153649500Y-106625833D01*
X153649500Y-108374167D01*
X153629815Y-108441206D01*
X153613181Y-108461848D01*
X153211848Y-108863181D01*
X153150525Y-108896666D01*
X153124167Y-108899500D01*
X152626599Y-108899500D01*
X152559560Y-108879815D01*
X152538918Y-108863181D01*
X152000001Y-108324264D01*
X152000000Y-108324264D01*
X151461081Y-108863181D01*
X151399758Y-108896666D01*
X151373400Y-108899500D01*
X150537961Y-108899500D01*
X150470922Y-108879815D01*
X150425167Y-108827011D01*
X150415223Y-108757853D01*
X150444248Y-108694297D01*
X150465076Y-108675182D01*
X150569589Y-108599248D01*
X150605871Y-108572888D01*
X150732533Y-108432216D01*
X150780113Y-108349803D01*
X150830677Y-108301589D01*
X150899284Y-108288365D01*
X150964149Y-108314332D01*
X150998499Y-108356532D01*
X151038623Y-108437112D01*
X151575736Y-107900000D01*
X151595014Y-107900000D01*
X151614835Y-108025148D01*
X151672359Y-108138045D01*
X151761955Y-108227641D01*
X151874852Y-108285165D01*
X151968519Y-108300000D01*
X152031481Y-108300000D01*
X152125148Y-108285165D01*
X152238045Y-108227641D01*
X152327641Y-108138045D01*
X152385165Y-108025148D01*
X152404986Y-107900000D01*
X152424264Y-107900000D01*
X152961376Y-108437112D01*
X153030109Y-108299078D01*
X153030115Y-108299063D01*
X153085902Y-108102991D01*
X153085903Y-108102989D01*
X153104713Y-107900000D01*
X153104713Y-107899999D01*
X153085903Y-107697010D01*
X153085902Y-107697007D01*
X153030116Y-107500936D01*
X153030113Y-107500930D01*
X152961375Y-107362886D01*
X152424264Y-107899999D01*
X152424264Y-107900000D01*
X152404986Y-107900000D01*
X152385165Y-107774852D01*
X152327641Y-107661955D01*
X152238045Y-107572359D01*
X152125148Y-107514835D01*
X152031481Y-107500000D01*
X151968519Y-107500000D01*
X151874852Y-107514835D01*
X151761955Y-107572359D01*
X151672359Y-107661955D01*
X151614835Y-107774852D01*
X151595014Y-107900000D01*
X151575736Y-107900000D01*
X151575736Y-107899999D01*
X151038623Y-107362886D01*
X151038621Y-107362886D01*
X150998499Y-107443465D01*
X150950997Y-107494702D01*
X150883334Y-107512124D01*
X150816993Y-107490199D01*
X150780113Y-107450195D01*
X150732533Y-107367784D01*
X150605871Y-107227112D01*
X150605870Y-107227111D01*
X150452734Y-107115851D01*
X150452729Y-107115848D01*
X150279807Y-107038857D01*
X150279800Y-107038855D01*
X150197161Y-107021290D01*
X150135679Y-106988098D01*
X150101902Y-106926935D01*
X150106554Y-106857221D01*
X150148158Y-106801088D01*
X150197161Y-106778710D01*
X150203201Y-106777426D01*
X150279803Y-106761144D01*
X150452730Y-106684151D01*
X150605871Y-106572888D01*
X150732533Y-106432216D01*
X150827179Y-106268284D01*
X150882068Y-106099351D01*
X150921506Y-106041675D01*
X150985865Y-106014477D01*
X151054711Y-106026392D01*
G37*
%TD.AperFunction*%
%TA.AperFunction,Conductor*%
G36*
X152069213Y-75923678D02*
G01*
X152098238Y-75987233D01*
X152099500Y-76004881D01*
X152099500Y-77224167D01*
X152079815Y-77291206D01*
X152063181Y-77311848D01*
X151936848Y-77438181D01*
X151875525Y-77471666D01*
X151849167Y-77474500D01*
X151438297Y-77474500D01*
X151390842Y-77465060D01*
X151390114Y-77464758D01*
X151313404Y-77449500D01*
X150722016Y-77449500D01*
X150665721Y-77435985D01*
X150575144Y-77389833D01*
X150481486Y-77375000D01*
X150300000Y-77375000D01*
X150300000Y-79674999D01*
X150481479Y-79674999D01*
X150575149Y-79660164D01*
X150665724Y-79614014D01*
X150722015Y-79600499D01*
X151313400Y-79600499D01*
X151390117Y-79585240D01*
X151390119Y-79585238D01*
X151390849Y-79584937D01*
X151438297Y-79575500D01*
X151700500Y-79575500D01*
X151767539Y-79595185D01*
X151813294Y-79647989D01*
X151824500Y-79699500D01*
X151824500Y-79937745D01*
X151804815Y-80004784D01*
X151788181Y-80025426D01*
X151150426Y-80663181D01*
X151089103Y-80696666D01*
X151062745Y-80699500D01*
X138391275Y-80699500D01*
X138371879Y-80697973D01*
X138350000Y-80694508D01*
X138328120Y-80697973D01*
X138308725Y-80699500D01*
X138133559Y-80699500D01*
X138066520Y-80679815D01*
X138020765Y-80627011D01*
X138010821Y-80557853D01*
X138020765Y-80523988D01*
X138035165Y-80492457D01*
X138055647Y-80350000D01*
X138035165Y-80207543D01*
X137975377Y-80076627D01*
X137975375Y-80076625D01*
X137975374Y-80076622D01*
X137880787Y-79967462D01*
X137851762Y-79903906D01*
X137850500Y-79886260D01*
X137850500Y-79699500D01*
X137870185Y-79632461D01*
X137922989Y-79586706D01*
X137974500Y-79575500D01*
X148561703Y-79575500D01*
X148609158Y-79584940D01*
X148609885Y-79585241D01*
X148659879Y-79595185D01*
X148686599Y-79600500D01*
X149277982Y-79600499D01*
X149334277Y-79614014D01*
X149424855Y-79660166D01*
X149518514Y-79674999D01*
X149699999Y-79674999D01*
X149700000Y-79674998D01*
X149700000Y-77375000D01*
X149518520Y-77375000D01*
X149424849Y-77389835D01*
X149334277Y-77435985D01*
X149277982Y-77449500D01*
X148686602Y-77449500D01*
X148629321Y-77460893D01*
X148609883Y-77464760D01*
X148609882Y-77464760D01*
X148609879Y-77464761D01*
X148609151Y-77465063D01*
X148561703Y-77474500D01*
X148474500Y-77474500D01*
X148407461Y-77454815D01*
X148361706Y-77402011D01*
X148350500Y-77350500D01*
X148350500Y-76275832D01*
X148370185Y-76208793D01*
X148386814Y-76188156D01*
X148638151Y-75936819D01*
X148699475Y-75903334D01*
X148725833Y-75900500D01*
X151041499Y-75900500D01*
X151108538Y-75920185D01*
X151135211Y-75943296D01*
X151168872Y-75982143D01*
X151289947Y-76059953D01*
X151289950Y-76059954D01*
X151289949Y-76059954D01*
X151428036Y-76100499D01*
X151428038Y-76100500D01*
X151428039Y-76100500D01*
X151571962Y-76100500D01*
X151571962Y-76100499D01*
X151710053Y-76059953D01*
X151831128Y-75982143D01*
X151881786Y-75923679D01*
X151940565Y-75885904D01*
X152010434Y-75885904D01*
X152069213Y-75923678D01*
G37*
%TD.AperFunction*%
%TA.AperFunction,Conductor*%
G36*
X146528362Y-55070185D02*
G01*
X146574117Y-55122989D01*
X146584061Y-55192147D01*
X146576746Y-55215215D01*
X146577850Y-55215574D01*
X146574833Y-55224855D01*
X146560000Y-55318513D01*
X146560000Y-56625000D01*
X148359999Y-56625000D01*
X148359999Y-55318520D01*
X148345164Y-55224850D01*
X148342148Y-55215566D01*
X148345151Y-55214590D01*
X148335296Y-55162135D01*
X148361567Y-55097393D01*
X148418670Y-55057131D01*
X148458678Y-55050500D01*
X149226993Y-55050500D01*
X149294032Y-55070185D01*
X149339787Y-55122989D01*
X149349731Y-55192147D01*
X149330094Y-55243392D01*
X149311132Y-55271768D01*
X149311131Y-55271770D01*
X149299500Y-55330247D01*
X149299500Y-56851000D01*
X149279815Y-56918039D01*
X149227011Y-56963794D01*
X149175500Y-56975000D01*
X140837500Y-56975000D01*
X140837500Y-59975500D01*
X140817815Y-60042539D01*
X140765011Y-60088294D01*
X140713500Y-60099500D01*
X140462842Y-60099500D01*
X140454268Y-60098905D01*
X140442239Y-60097227D01*
X140442236Y-60097227D01*
X140417220Y-60098383D01*
X140394491Y-60099434D01*
X140391628Y-60099500D01*
X140372156Y-60099500D01*
X140372151Y-60099500D01*
X140372149Y-60099501D01*
X140369515Y-60099993D01*
X140360985Y-60100982D01*
X140330008Y-60102415D01*
X140330006Y-60102415D01*
X140323665Y-60105215D01*
X140296379Y-60113664D01*
X140289572Y-60114936D01*
X140289566Y-60114939D01*
X140263202Y-60131261D01*
X140255603Y-60135266D01*
X140227237Y-60147792D01*
X140222336Y-60152693D01*
X140199942Y-60170431D01*
X140194048Y-60174080D01*
X140175359Y-60198827D01*
X140169718Y-60205310D01*
X139281948Y-61093080D01*
X139275464Y-61098722D01*
X139265768Y-61106044D01*
X139233559Y-61141374D01*
X139231585Y-61143442D01*
X139217827Y-61157200D01*
X139217822Y-61157206D01*
X139216306Y-61159420D01*
X139210976Y-61166148D01*
X139190083Y-61189066D01*
X139190083Y-61189067D01*
X139187578Y-61195533D01*
X139174259Y-61220802D01*
X139170345Y-61226515D01*
X139170343Y-61226521D01*
X139163244Y-61256699D01*
X139160702Y-61264907D01*
X139149500Y-61293826D01*
X139149500Y-61300751D01*
X139146206Y-61329141D01*
X139144621Y-61335877D01*
X139144621Y-61335881D01*
X139148905Y-61366590D01*
X139149500Y-61375166D01*
X139149500Y-68084708D01*
X139129815Y-68151747D01*
X139077011Y-68197502D01*
X139007853Y-68207446D01*
X138968548Y-68192786D01*
X138968118Y-68193730D01*
X138960050Y-68190045D01*
X138821963Y-68149500D01*
X138821961Y-68149500D01*
X138678039Y-68149500D01*
X138678036Y-68149500D01*
X138539949Y-68190045D01*
X138418873Y-68267856D01*
X138324623Y-68376626D01*
X138324622Y-68376628D01*
X138264834Y-68507543D01*
X138244353Y-68650000D01*
X138264834Y-68792456D01*
X138324622Y-68923371D01*
X138324623Y-68923373D01*
X138418872Y-69032143D01*
X138418875Y-69032144D01*
X138419213Y-69032535D01*
X138448238Y-69096091D01*
X138449500Y-69113738D01*
X138449500Y-69400666D01*
X138429815Y-69467705D01*
X138377011Y-69513460D01*
X138307853Y-69523404D01*
X138290566Y-69519643D01*
X138221964Y-69499500D01*
X138221961Y-69499500D01*
X138078039Y-69499500D01*
X138078035Y-69499500D01*
X138009434Y-69519643D01*
X137939564Y-69519643D01*
X137880786Y-69481868D01*
X137851762Y-69418312D01*
X137850500Y-69400666D01*
X137850500Y-56175832D01*
X137870185Y-56108793D01*
X137886814Y-56088156D01*
X138888152Y-55086818D01*
X138949475Y-55053334D01*
X138975833Y-55050500D01*
X146461323Y-55050500D01*
X146528362Y-55070185D01*
G37*
%TD.AperFunction*%
%TA.AperFunction,Conductor*%
G36*
X159491206Y-55120185D02*
G01*
X159511848Y-55136819D01*
X161463180Y-57088151D01*
X161496665Y-57149474D01*
X161499499Y-57175832D01*
X161499499Y-61375166D01*
X161479814Y-61442205D01*
X161427010Y-61487960D01*
X161357852Y-61497904D01*
X161294296Y-61468879D01*
X161287818Y-61462847D01*
X160056922Y-60231951D01*
X160051278Y-60225465D01*
X160043956Y-60215770D01*
X160008624Y-60183560D01*
X160006573Y-60181602D01*
X159992797Y-60167826D01*
X159990586Y-60166311D01*
X159983853Y-60160978D01*
X159960933Y-60140084D01*
X159954470Y-60137580D01*
X159929192Y-60124256D01*
X159923481Y-60120344D01*
X159923478Y-60120343D01*
X159923479Y-60120343D01*
X159893302Y-60113244D01*
X159885094Y-60110703D01*
X159856173Y-60099500D01*
X159849249Y-60099500D01*
X159820858Y-60096206D01*
X159814119Y-60094621D01*
X159783409Y-60098905D01*
X159774834Y-60099500D01*
X159149000Y-60099500D01*
X159081961Y-60079815D01*
X159036206Y-60027011D01*
X159025000Y-59975500D01*
X159025000Y-56975000D01*
X152364000Y-56975000D01*
X152296961Y-56955315D01*
X152251206Y-56902511D01*
X152240000Y-56851000D01*
X152240000Y-56749000D01*
X152259685Y-56681961D01*
X152312489Y-56636206D01*
X152364000Y-56625000D01*
X153439999Y-56625000D01*
X153439999Y-55318520D01*
X153428181Y-55243896D01*
X153437137Y-55174602D01*
X153482135Y-55121151D01*
X153548887Y-55100513D01*
X153550655Y-55100500D01*
X159424167Y-55100500D01*
X159491206Y-55120185D01*
G37*
%TD.AperFunction*%
%TD*%
D21*
%TO.C,GRAPHIC1*%
X135428900Y-49995200D02*
X135182400Y-50009200D01*
X135182400Y-50009200D02*
X134939500Y-50050500D01*
X134939500Y-50050500D02*
X134702300Y-50119200D01*
X134702300Y-50119200D02*
X134474400Y-50213800D01*
X134474400Y-50213800D02*
X134258400Y-50333200D01*
X134258400Y-50333200D02*
X134057400Y-50475800D01*
X134057400Y-50475800D02*
X133873400Y-50640100D01*
X133873400Y-50640100D02*
X133708600Y-50823600D01*
X133708600Y-50823600D02*
X133566000Y-51025100D01*
X133566000Y-51025100D02*
X133446600Y-51240600D01*
X133446600Y-51240600D02*
X133352500Y-51468500D01*
X133352500Y-51468500D02*
X133284300Y-51705700D01*
X133284300Y-51705700D02*
X133243000Y-51949100D01*
X133243000Y-51949100D02*
X133229000Y-52195100D01*
X133229000Y-52195100D02*
X133229000Y-102795600D01*
X133229000Y-102795600D02*
X133243000Y-103042100D01*
X133243000Y-103042100D02*
X133284300Y-103285000D01*
X133284300Y-103285000D02*
X133352500Y-103522200D01*
X133352500Y-103522200D02*
X133446600Y-103750100D01*
X133446600Y-103750100D02*
X133566000Y-103966100D01*
X133566000Y-103966100D02*
X133708600Y-104167100D01*
X133708600Y-104167100D02*
X133872900Y-104351100D01*
X133872900Y-104351100D02*
X134057400Y-104515900D01*
X134057400Y-104515900D02*
X134258400Y-104658500D01*
X134258400Y-104658500D02*
X134474400Y-104777900D01*
X134474400Y-104777900D02*
X134702300Y-104872000D01*
X134702300Y-104872000D02*
X134939500Y-104940200D01*
X134939500Y-104940200D02*
X135182400Y-104981500D01*
X135182400Y-104981500D02*
X135428900Y-104995500D01*
X135428900Y-104995500D02*
X141613451Y-104995500D01*
X141613451Y-104995500D02*
X141721451Y-105007900D01*
X141721451Y-105007900D02*
X141822151Y-105040400D01*
X141822151Y-105040400D02*
X141913651Y-105090600D01*
X141913651Y-105090600D02*
X141993251Y-105156200D01*
X141993251Y-105156200D02*
X142058851Y-105236300D01*
X142058851Y-105236300D02*
X142109051Y-105327200D01*
X142109051Y-105327200D02*
X142141551Y-105428000D01*
X142141551Y-105428000D02*
X142153951Y-105536000D01*
X142153951Y-105536000D02*
X142153951Y-116895500D01*
X142153951Y-116895500D02*
X142153951Y-117016400D01*
X142153951Y-117016400D02*
X142178151Y-117216100D01*
X142178151Y-117216100D02*
X142239451Y-117401500D01*
X142239451Y-117401500D02*
X142334051Y-117568700D01*
X142334051Y-117568700D02*
X142457751Y-117713800D01*
X142457751Y-117713800D02*
X142606651Y-117832900D01*
X142606651Y-117832900D02*
X142776651Y-117922200D01*
X142776651Y-117922200D02*
X142963851Y-117977800D01*
X142963851Y-117977800D02*
X143164251Y-117995700D01*
X143164251Y-117995700D02*
X156874751Y-117995700D01*
X156874751Y-117995700D02*
X157072051Y-117972100D01*
X157072051Y-117972100D02*
X157255451Y-117912100D01*
X157255451Y-117912100D02*
X157421351Y-117819600D01*
X157421351Y-117819600D02*
X157565751Y-117698400D01*
X157565751Y-117698400D02*
X157685051Y-117552400D01*
X157685051Y-117552400D02*
X157775351Y-117385300D01*
X157775351Y-117385300D02*
X157832951Y-117201100D01*
X157832951Y-117201100D02*
X157853951Y-117003500D01*
X157853951Y-117003500D02*
X157853951Y-116895500D01*
X157853951Y-116895500D02*
X157853951Y-105545800D01*
X157853951Y-105545800D02*
X157864351Y-105437800D01*
X157864351Y-105437800D02*
X157895851Y-105335000D01*
X157895851Y-105335000D02*
X157946551Y-105240400D01*
X157946551Y-105240400D02*
X158015251Y-105156700D01*
X158015251Y-105156700D02*
X158098951Y-105088000D01*
X158098951Y-105088000D02*
X158193551Y-105037300D01*
X158193551Y-105037300D02*
X158296351Y-105005800D01*
X158296351Y-105005800D02*
X158333051Y-104995500D01*
X158333051Y-104995500D02*
X159079100Y-104995500D01*
X159079100Y-104995500D02*
X159582500Y-104978900D01*
X159582500Y-104978900D02*
X160083700Y-104929300D01*
X160083700Y-104929300D02*
X160580900Y-104847200D01*
X160580900Y-104847200D02*
X161071800Y-104733000D01*
X161071800Y-104733000D02*
X161553900Y-104586700D01*
X161553900Y-104586700D02*
X162025700Y-104409500D01*
X162025700Y-104409500D02*
X162484600Y-104201200D01*
X162484600Y-104201200D02*
X162929000Y-103963500D01*
X162929000Y-103963500D02*
X163356900Y-103697900D01*
X163356900Y-103697900D02*
X163766200Y-103404400D01*
X163766200Y-103404400D02*
X164155800Y-103085000D01*
X164155800Y-103085000D02*
X164523800Y-102740300D01*
X164523800Y-102740300D02*
X164868500Y-102372400D01*
X164868500Y-102372400D02*
X165187800Y-101982700D01*
X165187800Y-101982700D02*
X165481300Y-101572900D01*
X165481300Y-101572900D02*
X165747500Y-101145600D01*
X165747500Y-101145600D02*
X165984700Y-100701200D01*
X165984700Y-100701200D02*
X166192900Y-100242300D01*
X166192900Y-100242300D02*
X166370200Y-99770500D01*
X166370200Y-99770500D02*
X166516400Y-99288300D01*
X166516400Y-99288300D02*
X166630600Y-98797400D01*
X166630600Y-98797400D02*
X166712800Y-98300300D01*
X166712800Y-98300300D02*
X166762400Y-97799000D01*
X166762400Y-97799000D02*
X166778900Y-97295200D01*
X166778900Y-97295200D02*
X166778900Y-52195100D01*
X166778900Y-52195100D02*
X166771700Y-52013700D01*
X166771700Y-52013700D02*
X166749000Y-51833300D01*
X166749000Y-51833300D02*
X166711800Y-51655100D01*
X166711800Y-51655100D02*
X166659600Y-51481400D01*
X166659600Y-51481400D02*
X166593400Y-51311900D01*
X166593400Y-51311900D02*
X166514400Y-51148100D01*
X166514400Y-51148100D02*
X166420900Y-50992100D01*
X166420900Y-50992100D02*
X166314900Y-50844300D01*
X166314900Y-50844300D02*
X166197600Y-50705300D01*
X166197600Y-50705300D02*
X166068900Y-50577100D01*
X166068900Y-50577100D02*
X165930400Y-50459300D01*
X165930400Y-50459300D02*
X165782700Y-50353300D01*
X165782700Y-50353300D02*
X165626100Y-50260300D01*
X165626100Y-50260300D02*
X165462300Y-50180700D01*
X165462300Y-50180700D02*
X165293300Y-50114600D01*
X165293300Y-50114600D02*
X165119100Y-50062400D01*
X165119100Y-50062400D02*
X164941400Y-50025700D01*
X164941400Y-50025700D02*
X164760500Y-50003000D01*
X164760500Y-50003000D02*
X164579100Y-49995200D01*
X164579100Y-49995200D02*
X135428900Y-49995200D01*
X135428900Y-49995200D02*
X135428900Y-49995200D01*
%TD*%
M02*
