G04 #@! TF.GenerationSoftware,KiCad,Pcbnew,7.99.0-1.20230515git1adcb86.fc37*
G04 #@! TF.CreationDate,2023-06-10T15:41:56+01:00*
G04 #@! TF.ProjectId,tr23-sao-r1,74723233-2d73-4616-9f2d-72312e6b6963,r1*
G04 #@! TF.SameCoordinates,Original*
G04 #@! TF.FileFunction,Paste,Bot*
G04 #@! TF.FilePolarity,Positive*
%FSLAX46Y46*%
G04 Gerber Fmt 4.6, Leading zero omitted, Abs format (unit mm)*
G04 Created by KiCad (PCBNEW 7.99.0-1.20230515git1adcb86.fc37) date 2023-06-10 15:41:56*
%MOMM*%
%LPD*%
G01*
G04 APERTURE LIST*
G04 Aperture macros list*
%AMRoundRect*
0 Rectangle with rounded corners*
0 $1 Rounding radius*
0 $2 $3 $4 $5 $6 $7 $8 $9 X,Y pos of 4 corners*
0 Add a 4 corners polygon primitive as box body*
4,1,4,$2,$3,$4,$5,$6,$7,$8,$9,$2,$3,0*
0 Add four circle primitives for the rounded corners*
1,1,$1+$1,$2,$3*
1,1,$1+$1,$4,$5*
1,1,$1+$1,$6,$7*
1,1,$1+$1,$8,$9*
0 Add four rect primitives between the rounded corners*
20,1,$1+$1,$2,$3,$4,$5,0*
20,1,$1+$1,$4,$5,$6,$7,0*
20,1,$1+$1,$6,$7,$8,$9,0*
20,1,$1+$1,$8,$9,$2,$3,0*%
G04 Aperture macros list end*
%ADD10RoundRect,0.090000X-0.090000X-0.210000X0.090000X-0.210000X0.090000X0.210000X-0.090000X0.210000X0*%
%ADD11RoundRect,0.062500X-0.287500X-0.062500X0.287500X-0.062500X0.287500X0.062500X-0.287500X0.062500X0*%
G04 #@! TA.AperFunction,Profile*
%ADD12C,0.100000*%
G04 #@! TD*
G04 APERTURE END LIST*
D10*
G04 #@! TO.C,U1*
X149775000Y-78900000D03*
X150225000Y-78900000D03*
X150225000Y-78150000D03*
X149775000Y-78150000D03*
D11*
X149000000Y-79275000D03*
X149000000Y-78775000D03*
X149000000Y-78275000D03*
X149000000Y-77775000D03*
X151000000Y-77775000D03*
X151000000Y-78275000D03*
X151000000Y-78775000D03*
X151000000Y-79275000D03*
G04 #@! TD*
D12*
G04 #@! TO.C,GRAPHIC1*
X135428900Y-49995200D02*
X135182400Y-50009200D01*
X135182400Y-50009200D02*
X134939500Y-50050500D01*
X134939500Y-50050500D02*
X134702300Y-50119200D01*
X134702300Y-50119200D02*
X134474400Y-50213800D01*
X134474400Y-50213800D02*
X134258400Y-50333200D01*
X134258400Y-50333200D02*
X134057400Y-50475800D01*
X134057400Y-50475800D02*
X133873400Y-50640100D01*
X133873400Y-50640100D02*
X133708600Y-50823600D01*
X133708600Y-50823600D02*
X133566000Y-51025100D01*
X133566000Y-51025100D02*
X133446600Y-51240600D01*
X133446600Y-51240600D02*
X133352500Y-51468500D01*
X133352500Y-51468500D02*
X133284300Y-51705700D01*
X133284300Y-51705700D02*
X133243000Y-51949100D01*
X133243000Y-51949100D02*
X133229000Y-52195100D01*
X133229000Y-52195100D02*
X133229000Y-102795600D01*
X133229000Y-102795600D02*
X133243000Y-103042100D01*
X133243000Y-103042100D02*
X133284300Y-103285000D01*
X133284300Y-103285000D02*
X133352500Y-103522200D01*
X133352500Y-103522200D02*
X133446600Y-103750100D01*
X133446600Y-103750100D02*
X133566000Y-103966100D01*
X133566000Y-103966100D02*
X133708600Y-104167100D01*
X133708600Y-104167100D02*
X133872900Y-104351100D01*
X133872900Y-104351100D02*
X134057400Y-104515900D01*
X134057400Y-104515900D02*
X134258400Y-104658500D01*
X134258400Y-104658500D02*
X134474400Y-104777900D01*
X134474400Y-104777900D02*
X134702300Y-104872000D01*
X134702300Y-104872000D02*
X134939500Y-104940200D01*
X134939500Y-104940200D02*
X135182400Y-104981500D01*
X135182400Y-104981500D02*
X135428900Y-104995500D01*
X135428900Y-104995500D02*
X141613451Y-104995500D01*
X141613451Y-104995500D02*
X141721451Y-105007900D01*
X141721451Y-105007900D02*
X141822151Y-105040400D01*
X141822151Y-105040400D02*
X141913651Y-105090600D01*
X141913651Y-105090600D02*
X141993251Y-105156200D01*
X141993251Y-105156200D02*
X142058851Y-105236300D01*
X142058851Y-105236300D02*
X142109051Y-105327200D01*
X142109051Y-105327200D02*
X142141551Y-105428000D01*
X142141551Y-105428000D02*
X142153951Y-105536000D01*
X142153951Y-105536000D02*
X142153951Y-116895500D01*
X142153951Y-116895500D02*
X142153951Y-117016400D01*
X142153951Y-117016400D02*
X142178151Y-117216100D01*
X142178151Y-117216100D02*
X142239451Y-117401500D01*
X142239451Y-117401500D02*
X142334051Y-117568700D01*
X142334051Y-117568700D02*
X142457751Y-117713800D01*
X142457751Y-117713800D02*
X142606651Y-117832900D01*
X142606651Y-117832900D02*
X142776651Y-117922200D01*
X142776651Y-117922200D02*
X142963851Y-117977800D01*
X142963851Y-117977800D02*
X143164251Y-117995700D01*
X143164251Y-117995700D02*
X156874751Y-117995700D01*
X156874751Y-117995700D02*
X157072051Y-117972100D01*
X157072051Y-117972100D02*
X157255451Y-117912100D01*
X157255451Y-117912100D02*
X157421351Y-117819600D01*
X157421351Y-117819600D02*
X157565751Y-117698400D01*
X157565751Y-117698400D02*
X157685051Y-117552400D01*
X157685051Y-117552400D02*
X157775351Y-117385300D01*
X157775351Y-117385300D02*
X157832951Y-117201100D01*
X157832951Y-117201100D02*
X157853951Y-117003500D01*
X157853951Y-117003500D02*
X157853951Y-116895500D01*
X157853951Y-116895500D02*
X157853951Y-105545800D01*
X157853951Y-105545800D02*
X157864351Y-105437800D01*
X157864351Y-105437800D02*
X157895851Y-105335000D01*
X157895851Y-105335000D02*
X157946551Y-105240400D01*
X157946551Y-105240400D02*
X158015251Y-105156700D01*
X158015251Y-105156700D02*
X158098951Y-105088000D01*
X158098951Y-105088000D02*
X158193551Y-105037300D01*
X158193551Y-105037300D02*
X158296351Y-105005800D01*
X158296351Y-105005800D02*
X158333051Y-104995500D01*
X158333051Y-104995500D02*
X159079100Y-104995500D01*
X159079100Y-104995500D02*
X159582500Y-104978900D01*
X159582500Y-104978900D02*
X160083700Y-104929300D01*
X160083700Y-104929300D02*
X160580900Y-104847200D01*
X160580900Y-104847200D02*
X161071800Y-104733000D01*
X161071800Y-104733000D02*
X161553900Y-104586700D01*
X161553900Y-104586700D02*
X162025700Y-104409500D01*
X162025700Y-104409500D02*
X162484600Y-104201200D01*
X162484600Y-104201200D02*
X162929000Y-103963500D01*
X162929000Y-103963500D02*
X163356900Y-103697900D01*
X163356900Y-103697900D02*
X163766200Y-103404400D01*
X163766200Y-103404400D02*
X164155800Y-103085000D01*
X164155800Y-103085000D02*
X164523800Y-102740300D01*
X164523800Y-102740300D02*
X164868500Y-102372400D01*
X164868500Y-102372400D02*
X165187800Y-101982700D01*
X165187800Y-101982700D02*
X165481300Y-101572900D01*
X165481300Y-101572900D02*
X165747500Y-101145600D01*
X165747500Y-101145600D02*
X165984700Y-100701200D01*
X165984700Y-100701200D02*
X166192900Y-100242300D01*
X166192900Y-100242300D02*
X166370200Y-99770500D01*
X166370200Y-99770500D02*
X166516400Y-99288300D01*
X166516400Y-99288300D02*
X166630600Y-98797400D01*
X166630600Y-98797400D02*
X166712800Y-98300300D01*
X166712800Y-98300300D02*
X166762400Y-97799000D01*
X166762400Y-97799000D02*
X166778900Y-97295200D01*
X166778900Y-97295200D02*
X166778900Y-52195100D01*
X166778900Y-52195100D02*
X166771700Y-52013700D01*
X166771700Y-52013700D02*
X166749000Y-51833300D01*
X166749000Y-51833300D02*
X166711800Y-51655100D01*
X166711800Y-51655100D02*
X166659600Y-51481400D01*
X166659600Y-51481400D02*
X166593400Y-51311900D01*
X166593400Y-51311900D02*
X166514400Y-51148100D01*
X166514400Y-51148100D02*
X166420900Y-50992100D01*
X166420900Y-50992100D02*
X166314900Y-50844300D01*
X166314900Y-50844300D02*
X166197600Y-50705300D01*
X166197600Y-50705300D02*
X166068900Y-50577100D01*
X166068900Y-50577100D02*
X165930400Y-50459300D01*
X165930400Y-50459300D02*
X165782700Y-50353300D01*
X165782700Y-50353300D02*
X165626100Y-50260300D01*
X165626100Y-50260300D02*
X165462300Y-50180700D01*
X165462300Y-50180700D02*
X165293300Y-50114600D01*
X165293300Y-50114600D02*
X165119100Y-50062400D01*
X165119100Y-50062400D02*
X164941400Y-50025700D01*
X164941400Y-50025700D02*
X164760500Y-50003000D01*
X164760500Y-50003000D02*
X164579100Y-49995200D01*
X164579100Y-49995200D02*
X135428900Y-49995200D01*
X135428900Y-49995200D02*
X135428900Y-49995200D01*
G04 #@! TD*
M02*
