G04 #@! TF.GenerationSoftware,KiCad,Pcbnew,7.99.0-1.20230515git1adcb86.fc37*
G04 #@! TF.CreationDate,2023-06-10T13:46:31+01:00*
G04 #@! TF.ProjectId,tr23-sao-r1,74723233-2d73-4616-9f2d-72312e6b6963,r1*
G04 #@! TF.SameCoordinates,Original*
G04 #@! TF.FileFunction,Soldermask,Bot*
G04 #@! TF.FilePolarity,Negative*
%FSLAX46Y46*%
G04 Gerber Fmt 4.6, Leading zero omitted, Abs format (unit mm)*
G04 Created by KiCad (PCBNEW 7.99.0-1.20230515git1adcb86.fc37) date 2023-06-10 13:46:31*
%MOMM*%
%LPD*%
G01*
G04 APERTURE LIST*
G04 Aperture macros list*
%AMRoundRect*
0 Rectangle with rounded corners*
0 $1 Rounding radius*
0 $2 $3 $4 $5 $6 $7 $8 $9 X,Y pos of 4 corners*
0 Add a 4 corners polygon primitive as box body*
4,1,4,$2,$3,$4,$5,$6,$7,$8,$9,$2,$3,0*
0 Add four circle primitives for the rounded corners*
1,1,$1+$1,$2,$3*
1,1,$1+$1,$4,$5*
1,1,$1+$1,$6,$7*
1,1,$1+$1,$8,$9*
0 Add four rect primitives between the rounded corners*
20,1,$1+$1,$2,$3,$4,$5,0*
20,1,$1+$1,$4,$5,$6,$7,0*
20,1,$1+$1,$6,$7,$8,$9,0*
20,1,$1+$1,$8,$9,$2,$3,0*%
G04 Aperture macros list end*
%ADD10C,0.100000*%
%ADD11C,0.150000*%
%ADD12C,0.300000*%
%ADD13C,0.400000*%
%ADD14C,0.010000*%
%ADD15C,2.000000*%
%ADD16R,1.000000X3.150000*%
%ADD17RoundRect,0.062500X-0.287500X-0.062500X0.287500X-0.062500X0.287500X0.062500X-0.287500X0.062500X0*%
%ADD18R,0.900000X1.500000*%
%ADD19C,1.400000*%
%ADD20O,1.800000X2.800000*%
%ADD21R,1.400000X0.800000*%
%ADD22RoundRect,0.250000X-0.250000X-0.475000X0.250000X-0.475000X0.250000X0.475000X-0.250000X0.475000X0*%
G04 APERTURE END LIST*
D10*
D11*
X177002200Y-166007200D02*
X285002200Y-166007200D01*
X285002200Y-198007200D01*
X177002200Y-198007200D01*
X177002200Y-166007200D01*
D10*
D11*
X10000000Y-10000000D02*
X287002200Y-10000000D01*
X287002200Y-200007200D01*
X10000000Y-200007200D01*
X10000000Y-10000000D01*
D10*
D11*
X12000000Y-12000000D02*
X285002200Y-12000000D01*
X285002200Y-198007200D01*
X12000000Y-198007200D01*
X12000000Y-12000000D01*
D10*
D11*
X60000000Y-12000000D02*
X60000000Y-10000000D01*
D10*
D11*
X110000000Y-12000000D02*
X110000000Y-10000000D01*
D10*
D11*
X160000000Y-12000000D02*
X160000000Y-10000000D01*
D10*
D11*
X210000000Y-12000000D02*
X210000000Y-10000000D01*
D10*
D11*
X260000000Y-12000000D02*
X260000000Y-10000000D01*
D10*
D11*
X36089160Y-11593604D02*
X35346303Y-11593604D01*
X35717731Y-11593604D02*
X35717731Y-10293604D01*
X35717731Y-10293604D02*
X35593922Y-10479319D01*
X35593922Y-10479319D02*
X35470112Y-10603128D01*
X35470112Y-10603128D02*
X35346303Y-10665033D01*
D10*
D11*
X85346303Y-10417414D02*
X85408207Y-10355509D01*
X85408207Y-10355509D02*
X85532017Y-10293604D01*
X85532017Y-10293604D02*
X85841541Y-10293604D01*
X85841541Y-10293604D02*
X85965350Y-10355509D01*
X85965350Y-10355509D02*
X86027255Y-10417414D01*
X86027255Y-10417414D02*
X86089160Y-10541223D01*
X86089160Y-10541223D02*
X86089160Y-10665033D01*
X86089160Y-10665033D02*
X86027255Y-10850747D01*
X86027255Y-10850747D02*
X85284398Y-11593604D01*
X85284398Y-11593604D02*
X86089160Y-11593604D01*
D10*
D11*
X135284398Y-10293604D02*
X136089160Y-10293604D01*
X136089160Y-10293604D02*
X135655826Y-10788842D01*
X135655826Y-10788842D02*
X135841541Y-10788842D01*
X135841541Y-10788842D02*
X135965350Y-10850747D01*
X135965350Y-10850747D02*
X136027255Y-10912652D01*
X136027255Y-10912652D02*
X136089160Y-11036461D01*
X136089160Y-11036461D02*
X136089160Y-11345985D01*
X136089160Y-11345985D02*
X136027255Y-11469795D01*
X136027255Y-11469795D02*
X135965350Y-11531700D01*
X135965350Y-11531700D02*
X135841541Y-11593604D01*
X135841541Y-11593604D02*
X135470112Y-11593604D01*
X135470112Y-11593604D02*
X135346303Y-11531700D01*
X135346303Y-11531700D02*
X135284398Y-11469795D01*
D10*
D11*
X185965350Y-10726938D02*
X185965350Y-11593604D01*
X185655826Y-10231700D02*
X185346303Y-11160271D01*
X185346303Y-11160271D02*
X186151064Y-11160271D01*
D10*
D11*
X236027255Y-10293604D02*
X235408207Y-10293604D01*
X235408207Y-10293604D02*
X235346303Y-10912652D01*
X235346303Y-10912652D02*
X235408207Y-10850747D01*
X235408207Y-10850747D02*
X235532017Y-10788842D01*
X235532017Y-10788842D02*
X235841541Y-10788842D01*
X235841541Y-10788842D02*
X235965350Y-10850747D01*
X235965350Y-10850747D02*
X236027255Y-10912652D01*
X236027255Y-10912652D02*
X236089160Y-11036461D01*
X236089160Y-11036461D02*
X236089160Y-11345985D01*
X236089160Y-11345985D02*
X236027255Y-11469795D01*
X236027255Y-11469795D02*
X235965350Y-11531700D01*
X235965350Y-11531700D02*
X235841541Y-11593604D01*
X235841541Y-11593604D02*
X235532017Y-11593604D01*
X235532017Y-11593604D02*
X235408207Y-11531700D01*
X235408207Y-11531700D02*
X235346303Y-11469795D01*
D10*
D11*
X285965350Y-10293604D02*
X285717731Y-10293604D01*
X285717731Y-10293604D02*
X285593922Y-10355509D01*
X285593922Y-10355509D02*
X285532017Y-10417414D01*
X285532017Y-10417414D02*
X285408207Y-10603128D01*
X285408207Y-10603128D02*
X285346303Y-10850747D01*
X285346303Y-10850747D02*
X285346303Y-11345985D01*
X285346303Y-11345985D02*
X285408207Y-11469795D01*
X285408207Y-11469795D02*
X285470112Y-11531700D01*
X285470112Y-11531700D02*
X285593922Y-11593604D01*
X285593922Y-11593604D02*
X285841541Y-11593604D01*
X285841541Y-11593604D02*
X285965350Y-11531700D01*
X285965350Y-11531700D02*
X286027255Y-11469795D01*
X286027255Y-11469795D02*
X286089160Y-11345985D01*
X286089160Y-11345985D02*
X286089160Y-11036461D01*
X286089160Y-11036461D02*
X286027255Y-10912652D01*
X286027255Y-10912652D02*
X285965350Y-10850747D01*
X285965350Y-10850747D02*
X285841541Y-10788842D01*
X285841541Y-10788842D02*
X285593922Y-10788842D01*
X285593922Y-10788842D02*
X285470112Y-10850747D01*
X285470112Y-10850747D02*
X285408207Y-10912652D01*
X285408207Y-10912652D02*
X285346303Y-11036461D01*
D10*
D11*
X60000000Y-198007200D02*
X60000000Y-200007200D01*
D10*
D11*
X110000000Y-198007200D02*
X110000000Y-200007200D01*
D10*
D11*
X160000000Y-198007200D02*
X160000000Y-200007200D01*
D10*
D11*
X210000000Y-198007200D02*
X210000000Y-200007200D01*
D10*
D11*
X260000000Y-198007200D02*
X260000000Y-200007200D01*
D10*
D11*
X36089160Y-199600804D02*
X35346303Y-199600804D01*
X35717731Y-199600804D02*
X35717731Y-198300804D01*
X35717731Y-198300804D02*
X35593922Y-198486519D01*
X35593922Y-198486519D02*
X35470112Y-198610328D01*
X35470112Y-198610328D02*
X35346303Y-198672233D01*
D10*
D11*
X85346303Y-198424614D02*
X85408207Y-198362709D01*
X85408207Y-198362709D02*
X85532017Y-198300804D01*
X85532017Y-198300804D02*
X85841541Y-198300804D01*
X85841541Y-198300804D02*
X85965350Y-198362709D01*
X85965350Y-198362709D02*
X86027255Y-198424614D01*
X86027255Y-198424614D02*
X86089160Y-198548423D01*
X86089160Y-198548423D02*
X86089160Y-198672233D01*
X86089160Y-198672233D02*
X86027255Y-198857947D01*
X86027255Y-198857947D02*
X85284398Y-199600804D01*
X85284398Y-199600804D02*
X86089160Y-199600804D01*
D10*
D11*
X135284398Y-198300804D02*
X136089160Y-198300804D01*
X136089160Y-198300804D02*
X135655826Y-198796042D01*
X135655826Y-198796042D02*
X135841541Y-198796042D01*
X135841541Y-198796042D02*
X135965350Y-198857947D01*
X135965350Y-198857947D02*
X136027255Y-198919852D01*
X136027255Y-198919852D02*
X136089160Y-199043661D01*
X136089160Y-199043661D02*
X136089160Y-199353185D01*
X136089160Y-199353185D02*
X136027255Y-199476995D01*
X136027255Y-199476995D02*
X135965350Y-199538900D01*
X135965350Y-199538900D02*
X135841541Y-199600804D01*
X135841541Y-199600804D02*
X135470112Y-199600804D01*
X135470112Y-199600804D02*
X135346303Y-199538900D01*
X135346303Y-199538900D02*
X135284398Y-199476995D01*
D10*
D11*
X185965350Y-198734138D02*
X185965350Y-199600804D01*
X185655826Y-198238900D02*
X185346303Y-199167471D01*
X185346303Y-199167471D02*
X186151064Y-199167471D01*
D10*
D11*
X236027255Y-198300804D02*
X235408207Y-198300804D01*
X235408207Y-198300804D02*
X235346303Y-198919852D01*
X235346303Y-198919852D02*
X235408207Y-198857947D01*
X235408207Y-198857947D02*
X235532017Y-198796042D01*
X235532017Y-198796042D02*
X235841541Y-198796042D01*
X235841541Y-198796042D02*
X235965350Y-198857947D01*
X235965350Y-198857947D02*
X236027255Y-198919852D01*
X236027255Y-198919852D02*
X236089160Y-199043661D01*
X236089160Y-199043661D02*
X236089160Y-199353185D01*
X236089160Y-199353185D02*
X236027255Y-199476995D01*
X236027255Y-199476995D02*
X235965350Y-199538900D01*
X235965350Y-199538900D02*
X235841541Y-199600804D01*
X235841541Y-199600804D02*
X235532017Y-199600804D01*
X235532017Y-199600804D02*
X235408207Y-199538900D01*
X235408207Y-199538900D02*
X235346303Y-199476995D01*
D10*
D11*
X285965350Y-198300804D02*
X285717731Y-198300804D01*
X285717731Y-198300804D02*
X285593922Y-198362709D01*
X285593922Y-198362709D02*
X285532017Y-198424614D01*
X285532017Y-198424614D02*
X285408207Y-198610328D01*
X285408207Y-198610328D02*
X285346303Y-198857947D01*
X285346303Y-198857947D02*
X285346303Y-199353185D01*
X285346303Y-199353185D02*
X285408207Y-199476995D01*
X285408207Y-199476995D02*
X285470112Y-199538900D01*
X285470112Y-199538900D02*
X285593922Y-199600804D01*
X285593922Y-199600804D02*
X285841541Y-199600804D01*
X285841541Y-199600804D02*
X285965350Y-199538900D01*
X285965350Y-199538900D02*
X286027255Y-199476995D01*
X286027255Y-199476995D02*
X286089160Y-199353185D01*
X286089160Y-199353185D02*
X286089160Y-199043661D01*
X286089160Y-199043661D02*
X286027255Y-198919852D01*
X286027255Y-198919852D02*
X285965350Y-198857947D01*
X285965350Y-198857947D02*
X285841541Y-198796042D01*
X285841541Y-198796042D02*
X285593922Y-198796042D01*
X285593922Y-198796042D02*
X285470112Y-198857947D01*
X285470112Y-198857947D02*
X285408207Y-198919852D01*
X285408207Y-198919852D02*
X285346303Y-199043661D01*
D10*
D11*
X10000000Y-60000000D02*
X12000000Y-60000000D01*
D10*
D11*
X10000000Y-110000000D02*
X12000000Y-110000000D01*
D10*
D11*
X10000000Y-160000000D02*
X12000000Y-160000000D01*
D10*
D11*
X10789160Y-35222176D02*
X11408207Y-35222176D01*
X10665350Y-35593604D02*
X11098683Y-34293604D01*
X11098683Y-34293604D02*
X11532017Y-35593604D01*
D10*
D11*
X11191541Y-84912652D02*
X11377255Y-84974557D01*
X11377255Y-84974557D02*
X11439160Y-85036461D01*
X11439160Y-85036461D02*
X11501064Y-85160271D01*
X11501064Y-85160271D02*
X11501064Y-85345985D01*
X11501064Y-85345985D02*
X11439160Y-85469795D01*
X11439160Y-85469795D02*
X11377255Y-85531700D01*
X11377255Y-85531700D02*
X11253445Y-85593604D01*
X11253445Y-85593604D02*
X10758207Y-85593604D01*
X10758207Y-85593604D02*
X10758207Y-84293604D01*
X10758207Y-84293604D02*
X11191541Y-84293604D01*
X11191541Y-84293604D02*
X11315350Y-84355509D01*
X11315350Y-84355509D02*
X11377255Y-84417414D01*
X11377255Y-84417414D02*
X11439160Y-84541223D01*
X11439160Y-84541223D02*
X11439160Y-84665033D01*
X11439160Y-84665033D02*
X11377255Y-84788842D01*
X11377255Y-84788842D02*
X11315350Y-84850747D01*
X11315350Y-84850747D02*
X11191541Y-84912652D01*
X11191541Y-84912652D02*
X10758207Y-84912652D01*
D10*
D11*
X11501064Y-135469795D02*
X11439160Y-135531700D01*
X11439160Y-135531700D02*
X11253445Y-135593604D01*
X11253445Y-135593604D02*
X11129636Y-135593604D01*
X11129636Y-135593604D02*
X10943922Y-135531700D01*
X10943922Y-135531700D02*
X10820112Y-135407890D01*
X10820112Y-135407890D02*
X10758207Y-135284080D01*
X10758207Y-135284080D02*
X10696303Y-135036461D01*
X10696303Y-135036461D02*
X10696303Y-134850747D01*
X10696303Y-134850747D02*
X10758207Y-134603128D01*
X10758207Y-134603128D02*
X10820112Y-134479319D01*
X10820112Y-134479319D02*
X10943922Y-134355509D01*
X10943922Y-134355509D02*
X11129636Y-134293604D01*
X11129636Y-134293604D02*
X11253445Y-134293604D01*
X11253445Y-134293604D02*
X11439160Y-134355509D01*
X11439160Y-134355509D02*
X11501064Y-134417414D01*
D10*
D11*
X10758207Y-185593604D02*
X10758207Y-184293604D01*
X10758207Y-184293604D02*
X11067731Y-184293604D01*
X11067731Y-184293604D02*
X11253445Y-184355509D01*
X11253445Y-184355509D02*
X11377255Y-184479319D01*
X11377255Y-184479319D02*
X11439160Y-184603128D01*
X11439160Y-184603128D02*
X11501064Y-184850747D01*
X11501064Y-184850747D02*
X11501064Y-185036461D01*
X11501064Y-185036461D02*
X11439160Y-185284080D01*
X11439160Y-185284080D02*
X11377255Y-185407890D01*
X11377255Y-185407890D02*
X11253445Y-185531700D01*
X11253445Y-185531700D02*
X11067731Y-185593604D01*
X11067731Y-185593604D02*
X10758207Y-185593604D01*
D10*
D11*
X287002200Y-60000000D02*
X285002200Y-60000000D01*
D10*
D11*
X287002200Y-110000000D02*
X285002200Y-110000000D01*
D10*
D11*
X287002200Y-160000000D02*
X285002200Y-160000000D01*
D10*
D11*
X285791360Y-35222176D02*
X286410407Y-35222176D01*
X285667550Y-35593604D02*
X286100883Y-34293604D01*
X286100883Y-34293604D02*
X286534217Y-35593604D01*
D10*
D11*
X286193741Y-84912652D02*
X286379455Y-84974557D01*
X286379455Y-84974557D02*
X286441360Y-85036461D01*
X286441360Y-85036461D02*
X286503264Y-85160271D01*
X286503264Y-85160271D02*
X286503264Y-85345985D01*
X286503264Y-85345985D02*
X286441360Y-85469795D01*
X286441360Y-85469795D02*
X286379455Y-85531700D01*
X286379455Y-85531700D02*
X286255645Y-85593604D01*
X286255645Y-85593604D02*
X285760407Y-85593604D01*
X285760407Y-85593604D02*
X285760407Y-84293604D01*
X285760407Y-84293604D02*
X286193741Y-84293604D01*
X286193741Y-84293604D02*
X286317550Y-84355509D01*
X286317550Y-84355509D02*
X286379455Y-84417414D01*
X286379455Y-84417414D02*
X286441360Y-84541223D01*
X286441360Y-84541223D02*
X286441360Y-84665033D01*
X286441360Y-84665033D02*
X286379455Y-84788842D01*
X286379455Y-84788842D02*
X286317550Y-84850747D01*
X286317550Y-84850747D02*
X286193741Y-84912652D01*
X286193741Y-84912652D02*
X285760407Y-84912652D01*
D10*
D11*
X286503264Y-135469795D02*
X286441360Y-135531700D01*
X286441360Y-135531700D02*
X286255645Y-135593604D01*
X286255645Y-135593604D02*
X286131836Y-135593604D01*
X286131836Y-135593604D02*
X285946122Y-135531700D01*
X285946122Y-135531700D02*
X285822312Y-135407890D01*
X285822312Y-135407890D02*
X285760407Y-135284080D01*
X285760407Y-135284080D02*
X285698503Y-135036461D01*
X285698503Y-135036461D02*
X285698503Y-134850747D01*
X285698503Y-134850747D02*
X285760407Y-134603128D01*
X285760407Y-134603128D02*
X285822312Y-134479319D01*
X285822312Y-134479319D02*
X285946122Y-134355509D01*
X285946122Y-134355509D02*
X286131836Y-134293604D01*
X286131836Y-134293604D02*
X286255645Y-134293604D01*
X286255645Y-134293604D02*
X286441360Y-134355509D01*
X286441360Y-134355509D02*
X286503264Y-134417414D01*
D10*
D11*
X285760407Y-185593604D02*
X285760407Y-184293604D01*
X285760407Y-184293604D02*
X286069931Y-184293604D01*
X286069931Y-184293604D02*
X286255645Y-184355509D01*
X286255645Y-184355509D02*
X286379455Y-184479319D01*
X286379455Y-184479319D02*
X286441360Y-184603128D01*
X286441360Y-184603128D02*
X286503264Y-184850747D01*
X286503264Y-184850747D02*
X286503264Y-185036461D01*
X286503264Y-185036461D02*
X286441360Y-185284080D01*
X286441360Y-185284080D02*
X286379455Y-185407890D01*
X286379455Y-185407890D02*
X286255645Y-185531700D01*
X286255645Y-185531700D02*
X286069931Y-185593604D01*
X286069931Y-185593604D02*
X285760407Y-185593604D01*
D10*
D11*
X200458026Y-193793328D02*
X200458026Y-192293328D01*
X200458026Y-192293328D02*
X200815169Y-192293328D01*
X200815169Y-192293328D02*
X201029455Y-192364757D01*
X201029455Y-192364757D02*
X201172312Y-192507614D01*
X201172312Y-192507614D02*
X201243741Y-192650471D01*
X201243741Y-192650471D02*
X201315169Y-192936185D01*
X201315169Y-192936185D02*
X201315169Y-193150471D01*
X201315169Y-193150471D02*
X201243741Y-193436185D01*
X201243741Y-193436185D02*
X201172312Y-193579042D01*
X201172312Y-193579042D02*
X201029455Y-193721900D01*
X201029455Y-193721900D02*
X200815169Y-193793328D01*
X200815169Y-193793328D02*
X200458026Y-193793328D01*
X202600884Y-193793328D02*
X202600884Y-193007614D01*
X202600884Y-193007614D02*
X202529455Y-192864757D01*
X202529455Y-192864757D02*
X202386598Y-192793328D01*
X202386598Y-192793328D02*
X202100884Y-192793328D01*
X202100884Y-192793328D02*
X201958026Y-192864757D01*
X202600884Y-193721900D02*
X202458026Y-193793328D01*
X202458026Y-193793328D02*
X202100884Y-193793328D01*
X202100884Y-193793328D02*
X201958026Y-193721900D01*
X201958026Y-193721900D02*
X201886598Y-193579042D01*
X201886598Y-193579042D02*
X201886598Y-193436185D01*
X201886598Y-193436185D02*
X201958026Y-193293328D01*
X201958026Y-193293328D02*
X202100884Y-193221900D01*
X202100884Y-193221900D02*
X202458026Y-193221900D01*
X202458026Y-193221900D02*
X202600884Y-193150471D01*
X203100884Y-192793328D02*
X203672312Y-192793328D01*
X203315169Y-192293328D02*
X203315169Y-193579042D01*
X203315169Y-193579042D02*
X203386598Y-193721900D01*
X203386598Y-193721900D02*
X203529455Y-193793328D01*
X203529455Y-193793328D02*
X203672312Y-193793328D01*
X204743741Y-193721900D02*
X204600884Y-193793328D01*
X204600884Y-193793328D02*
X204315170Y-193793328D01*
X204315170Y-193793328D02*
X204172312Y-193721900D01*
X204172312Y-193721900D02*
X204100884Y-193579042D01*
X204100884Y-193579042D02*
X204100884Y-193007614D01*
X204100884Y-193007614D02*
X204172312Y-192864757D01*
X204172312Y-192864757D02*
X204315170Y-192793328D01*
X204315170Y-192793328D02*
X204600884Y-192793328D01*
X204600884Y-192793328D02*
X204743741Y-192864757D01*
X204743741Y-192864757D02*
X204815170Y-193007614D01*
X204815170Y-193007614D02*
X204815170Y-193150471D01*
X204815170Y-193150471D02*
X204100884Y-193293328D01*
X205458026Y-193650471D02*
X205529455Y-193721900D01*
X205529455Y-193721900D02*
X205458026Y-193793328D01*
X205458026Y-193793328D02*
X205386598Y-193721900D01*
X205386598Y-193721900D02*
X205458026Y-193650471D01*
X205458026Y-193650471D02*
X205458026Y-193793328D01*
X205458026Y-192864757D02*
X205529455Y-192936185D01*
X205529455Y-192936185D02*
X205458026Y-193007614D01*
X205458026Y-193007614D02*
X205386598Y-192936185D01*
X205386598Y-192936185D02*
X205458026Y-192864757D01*
X205458026Y-192864757D02*
X205458026Y-193007614D01*
D10*
D11*
X177002200Y-194507200D02*
X285002200Y-194507200D01*
D10*
D11*
X178458026Y-196593328D02*
X178458026Y-195093328D01*
X179315169Y-196593328D02*
X178672312Y-195736185D01*
X179315169Y-195093328D02*
X178458026Y-195950471D01*
X179958026Y-196593328D02*
X179958026Y-195593328D01*
X179958026Y-195093328D02*
X179886598Y-195164757D01*
X179886598Y-195164757D02*
X179958026Y-195236185D01*
X179958026Y-195236185D02*
X180029455Y-195164757D01*
X180029455Y-195164757D02*
X179958026Y-195093328D01*
X179958026Y-195093328D02*
X179958026Y-195236185D01*
X181529455Y-196450471D02*
X181458027Y-196521900D01*
X181458027Y-196521900D02*
X181243741Y-196593328D01*
X181243741Y-196593328D02*
X181100884Y-196593328D01*
X181100884Y-196593328D02*
X180886598Y-196521900D01*
X180886598Y-196521900D02*
X180743741Y-196379042D01*
X180743741Y-196379042D02*
X180672312Y-196236185D01*
X180672312Y-196236185D02*
X180600884Y-195950471D01*
X180600884Y-195950471D02*
X180600884Y-195736185D01*
X180600884Y-195736185D02*
X180672312Y-195450471D01*
X180672312Y-195450471D02*
X180743741Y-195307614D01*
X180743741Y-195307614D02*
X180886598Y-195164757D01*
X180886598Y-195164757D02*
X181100884Y-195093328D01*
X181100884Y-195093328D02*
X181243741Y-195093328D01*
X181243741Y-195093328D02*
X181458027Y-195164757D01*
X181458027Y-195164757D02*
X181529455Y-195236185D01*
X182815170Y-196593328D02*
X182815170Y-195807614D01*
X182815170Y-195807614D02*
X182743741Y-195664757D01*
X182743741Y-195664757D02*
X182600884Y-195593328D01*
X182600884Y-195593328D02*
X182315170Y-195593328D01*
X182315170Y-195593328D02*
X182172312Y-195664757D01*
X182815170Y-196521900D02*
X182672312Y-196593328D01*
X182672312Y-196593328D02*
X182315170Y-196593328D01*
X182315170Y-196593328D02*
X182172312Y-196521900D01*
X182172312Y-196521900D02*
X182100884Y-196379042D01*
X182100884Y-196379042D02*
X182100884Y-196236185D01*
X182100884Y-196236185D02*
X182172312Y-196093328D01*
X182172312Y-196093328D02*
X182315170Y-196021900D01*
X182315170Y-196021900D02*
X182672312Y-196021900D01*
X182672312Y-196021900D02*
X182815170Y-195950471D01*
X184172313Y-196593328D02*
X184172313Y-195093328D01*
X184172313Y-196521900D02*
X184029455Y-196593328D01*
X184029455Y-196593328D02*
X183743741Y-196593328D01*
X183743741Y-196593328D02*
X183600884Y-196521900D01*
X183600884Y-196521900D02*
X183529455Y-196450471D01*
X183529455Y-196450471D02*
X183458027Y-196307614D01*
X183458027Y-196307614D02*
X183458027Y-195879042D01*
X183458027Y-195879042D02*
X183529455Y-195736185D01*
X183529455Y-195736185D02*
X183600884Y-195664757D01*
X183600884Y-195664757D02*
X183743741Y-195593328D01*
X183743741Y-195593328D02*
X184029455Y-195593328D01*
X184029455Y-195593328D02*
X184172313Y-195664757D01*
X186029455Y-195807614D02*
X186529455Y-195807614D01*
X186743741Y-196593328D02*
X186029455Y-196593328D01*
X186029455Y-196593328D02*
X186029455Y-195093328D01*
X186029455Y-195093328D02*
X186743741Y-195093328D01*
X187386598Y-196450471D02*
X187458027Y-196521900D01*
X187458027Y-196521900D02*
X187386598Y-196593328D01*
X187386598Y-196593328D02*
X187315170Y-196521900D01*
X187315170Y-196521900D02*
X187386598Y-196450471D01*
X187386598Y-196450471D02*
X187386598Y-196593328D01*
X188100884Y-196593328D02*
X188100884Y-195093328D01*
X188100884Y-195093328D02*
X188458027Y-195093328D01*
X188458027Y-195093328D02*
X188672313Y-195164757D01*
X188672313Y-195164757D02*
X188815170Y-195307614D01*
X188815170Y-195307614D02*
X188886599Y-195450471D01*
X188886599Y-195450471D02*
X188958027Y-195736185D01*
X188958027Y-195736185D02*
X188958027Y-195950471D01*
X188958027Y-195950471D02*
X188886599Y-196236185D01*
X188886599Y-196236185D02*
X188815170Y-196379042D01*
X188815170Y-196379042D02*
X188672313Y-196521900D01*
X188672313Y-196521900D02*
X188458027Y-196593328D01*
X188458027Y-196593328D02*
X188100884Y-196593328D01*
X189600884Y-196450471D02*
X189672313Y-196521900D01*
X189672313Y-196521900D02*
X189600884Y-196593328D01*
X189600884Y-196593328D02*
X189529456Y-196521900D01*
X189529456Y-196521900D02*
X189600884Y-196450471D01*
X189600884Y-196450471D02*
X189600884Y-196593328D01*
X190243742Y-196164757D02*
X190958028Y-196164757D01*
X190100885Y-196593328D02*
X190600885Y-195093328D01*
X190600885Y-195093328D02*
X191100885Y-196593328D01*
X191600884Y-196450471D02*
X191672313Y-196521900D01*
X191672313Y-196521900D02*
X191600884Y-196593328D01*
X191600884Y-196593328D02*
X191529456Y-196521900D01*
X191529456Y-196521900D02*
X191600884Y-196450471D01*
X191600884Y-196450471D02*
X191600884Y-196593328D01*
X194600884Y-196593328D02*
X194600884Y-195093328D01*
X194743742Y-196021900D02*
X195172313Y-196593328D01*
X195172313Y-195593328D02*
X194600884Y-196164757D01*
X195815170Y-196593328D02*
X195815170Y-195593328D01*
X195815170Y-195093328D02*
X195743742Y-195164757D01*
X195743742Y-195164757D02*
X195815170Y-195236185D01*
X195815170Y-195236185D02*
X195886599Y-195164757D01*
X195886599Y-195164757D02*
X195815170Y-195093328D01*
X195815170Y-195093328D02*
X195815170Y-195236185D01*
X197172314Y-196521900D02*
X197029456Y-196593328D01*
X197029456Y-196593328D02*
X196743742Y-196593328D01*
X196743742Y-196593328D02*
X196600885Y-196521900D01*
X196600885Y-196521900D02*
X196529456Y-196450471D01*
X196529456Y-196450471D02*
X196458028Y-196307614D01*
X196458028Y-196307614D02*
X196458028Y-195879042D01*
X196458028Y-195879042D02*
X196529456Y-195736185D01*
X196529456Y-195736185D02*
X196600885Y-195664757D01*
X196600885Y-195664757D02*
X196743742Y-195593328D01*
X196743742Y-195593328D02*
X197029456Y-195593328D01*
X197029456Y-195593328D02*
X197172314Y-195664757D01*
X198458028Y-196593328D02*
X198458028Y-195807614D01*
X198458028Y-195807614D02*
X198386599Y-195664757D01*
X198386599Y-195664757D02*
X198243742Y-195593328D01*
X198243742Y-195593328D02*
X197958028Y-195593328D01*
X197958028Y-195593328D02*
X197815170Y-195664757D01*
X198458028Y-196521900D02*
X198315170Y-196593328D01*
X198315170Y-196593328D02*
X197958028Y-196593328D01*
X197958028Y-196593328D02*
X197815170Y-196521900D01*
X197815170Y-196521900D02*
X197743742Y-196379042D01*
X197743742Y-196379042D02*
X197743742Y-196236185D01*
X197743742Y-196236185D02*
X197815170Y-196093328D01*
X197815170Y-196093328D02*
X197958028Y-196021900D01*
X197958028Y-196021900D02*
X198315170Y-196021900D01*
X198315170Y-196021900D02*
X198458028Y-195950471D01*
X199815171Y-196593328D02*
X199815171Y-195093328D01*
X199815171Y-196521900D02*
X199672313Y-196593328D01*
X199672313Y-196593328D02*
X199386599Y-196593328D01*
X199386599Y-196593328D02*
X199243742Y-196521900D01*
X199243742Y-196521900D02*
X199172313Y-196450471D01*
X199172313Y-196450471D02*
X199100885Y-196307614D01*
X199100885Y-196307614D02*
X199100885Y-195879042D01*
X199100885Y-195879042D02*
X199172313Y-195736185D01*
X199172313Y-195736185D02*
X199243742Y-195664757D01*
X199243742Y-195664757D02*
X199386599Y-195593328D01*
X199386599Y-195593328D02*
X199672313Y-195593328D01*
X199672313Y-195593328D02*
X199815171Y-195664757D01*
X201529456Y-195093328D02*
X202529456Y-195093328D01*
X202529456Y-195093328D02*
X201886599Y-196593328D01*
X203100884Y-196450471D02*
X203172313Y-196521900D01*
X203172313Y-196521900D02*
X203100884Y-196593328D01*
X203100884Y-196593328D02*
X203029456Y-196521900D01*
X203029456Y-196521900D02*
X203100884Y-196450471D01*
X203100884Y-196450471D02*
X203100884Y-196593328D01*
X203886599Y-196593328D02*
X204172313Y-196593328D01*
X204172313Y-196593328D02*
X204315170Y-196521900D01*
X204315170Y-196521900D02*
X204386599Y-196450471D01*
X204386599Y-196450471D02*
X204529456Y-196236185D01*
X204529456Y-196236185D02*
X204600885Y-195950471D01*
X204600885Y-195950471D02*
X204600885Y-195379042D01*
X204600885Y-195379042D02*
X204529456Y-195236185D01*
X204529456Y-195236185D02*
X204458028Y-195164757D01*
X204458028Y-195164757D02*
X204315170Y-195093328D01*
X204315170Y-195093328D02*
X204029456Y-195093328D01*
X204029456Y-195093328D02*
X203886599Y-195164757D01*
X203886599Y-195164757D02*
X203815170Y-195236185D01*
X203815170Y-195236185D02*
X203743742Y-195379042D01*
X203743742Y-195379042D02*
X203743742Y-195736185D01*
X203743742Y-195736185D02*
X203815170Y-195879042D01*
X203815170Y-195879042D02*
X203886599Y-195950471D01*
X203886599Y-195950471D02*
X204029456Y-196021900D01*
X204029456Y-196021900D02*
X204315170Y-196021900D01*
X204315170Y-196021900D02*
X204458028Y-195950471D01*
X204458028Y-195950471D02*
X204529456Y-195879042D01*
X204529456Y-195879042D02*
X204600885Y-195736185D01*
X205315170Y-196593328D02*
X205600884Y-196593328D01*
X205600884Y-196593328D02*
X205743741Y-196521900D01*
X205743741Y-196521900D02*
X205815170Y-196450471D01*
X205815170Y-196450471D02*
X205958027Y-196236185D01*
X205958027Y-196236185D02*
X206029456Y-195950471D01*
X206029456Y-195950471D02*
X206029456Y-195379042D01*
X206029456Y-195379042D02*
X205958027Y-195236185D01*
X205958027Y-195236185D02*
X205886599Y-195164757D01*
X205886599Y-195164757D02*
X205743741Y-195093328D01*
X205743741Y-195093328D02*
X205458027Y-195093328D01*
X205458027Y-195093328D02*
X205315170Y-195164757D01*
X205315170Y-195164757D02*
X205243741Y-195236185D01*
X205243741Y-195236185D02*
X205172313Y-195379042D01*
X205172313Y-195379042D02*
X205172313Y-195736185D01*
X205172313Y-195736185D02*
X205243741Y-195879042D01*
X205243741Y-195879042D02*
X205315170Y-195950471D01*
X205315170Y-195950471D02*
X205458027Y-196021900D01*
X205458027Y-196021900D02*
X205743741Y-196021900D01*
X205743741Y-196021900D02*
X205886599Y-195950471D01*
X205886599Y-195950471D02*
X205958027Y-195879042D01*
X205958027Y-195879042D02*
X206029456Y-195736185D01*
X206672312Y-196450471D02*
X206743741Y-196521900D01*
X206743741Y-196521900D02*
X206672312Y-196593328D01*
X206672312Y-196593328D02*
X206600884Y-196521900D01*
X206600884Y-196521900D02*
X206672312Y-196450471D01*
X206672312Y-196450471D02*
X206672312Y-196593328D01*
X207672313Y-195093328D02*
X207815170Y-195093328D01*
X207815170Y-195093328D02*
X207958027Y-195164757D01*
X207958027Y-195164757D02*
X208029456Y-195236185D01*
X208029456Y-195236185D02*
X208100884Y-195379042D01*
X208100884Y-195379042D02*
X208172313Y-195664757D01*
X208172313Y-195664757D02*
X208172313Y-196021900D01*
X208172313Y-196021900D02*
X208100884Y-196307614D01*
X208100884Y-196307614D02*
X208029456Y-196450471D01*
X208029456Y-196450471D02*
X207958027Y-196521900D01*
X207958027Y-196521900D02*
X207815170Y-196593328D01*
X207815170Y-196593328D02*
X207672313Y-196593328D01*
X207672313Y-196593328D02*
X207529456Y-196521900D01*
X207529456Y-196521900D02*
X207458027Y-196450471D01*
X207458027Y-196450471D02*
X207386598Y-196307614D01*
X207386598Y-196307614D02*
X207315170Y-196021900D01*
X207315170Y-196021900D02*
X207315170Y-195664757D01*
X207315170Y-195664757D02*
X207386598Y-195379042D01*
X207386598Y-195379042D02*
X207458027Y-195236185D01*
X207458027Y-195236185D02*
X207529456Y-195164757D01*
X207529456Y-195164757D02*
X207672313Y-195093328D01*
X208815169Y-196021900D02*
X209958027Y-196021900D01*
X211458027Y-196593328D02*
X210600884Y-196593328D01*
X211029455Y-196593328D02*
X211029455Y-195093328D01*
X211029455Y-195093328D02*
X210886598Y-195307614D01*
X210886598Y-195307614D02*
X210743741Y-195450471D01*
X210743741Y-195450471D02*
X210600884Y-195521900D01*
X212100883Y-196450471D02*
X212172312Y-196521900D01*
X212172312Y-196521900D02*
X212100883Y-196593328D01*
X212100883Y-196593328D02*
X212029455Y-196521900D01*
X212029455Y-196521900D02*
X212100883Y-196450471D01*
X212100883Y-196450471D02*
X212100883Y-196593328D01*
X212743741Y-195236185D02*
X212815169Y-195164757D01*
X212815169Y-195164757D02*
X212958027Y-195093328D01*
X212958027Y-195093328D02*
X213315169Y-195093328D01*
X213315169Y-195093328D02*
X213458027Y-195164757D01*
X213458027Y-195164757D02*
X213529455Y-195236185D01*
X213529455Y-195236185D02*
X213600884Y-195379042D01*
X213600884Y-195379042D02*
X213600884Y-195521900D01*
X213600884Y-195521900D02*
X213529455Y-195736185D01*
X213529455Y-195736185D02*
X212672312Y-196593328D01*
X212672312Y-196593328D02*
X213600884Y-196593328D01*
X214529455Y-195093328D02*
X214672312Y-195093328D01*
X214672312Y-195093328D02*
X214815169Y-195164757D01*
X214815169Y-195164757D02*
X214886598Y-195236185D01*
X214886598Y-195236185D02*
X214958026Y-195379042D01*
X214958026Y-195379042D02*
X215029455Y-195664757D01*
X215029455Y-195664757D02*
X215029455Y-196021900D01*
X215029455Y-196021900D02*
X214958026Y-196307614D01*
X214958026Y-196307614D02*
X214886598Y-196450471D01*
X214886598Y-196450471D02*
X214815169Y-196521900D01*
X214815169Y-196521900D02*
X214672312Y-196593328D01*
X214672312Y-196593328D02*
X214529455Y-196593328D01*
X214529455Y-196593328D02*
X214386598Y-196521900D01*
X214386598Y-196521900D02*
X214315169Y-196450471D01*
X214315169Y-196450471D02*
X214243740Y-196307614D01*
X214243740Y-196307614D02*
X214172312Y-196021900D01*
X214172312Y-196021900D02*
X214172312Y-195664757D01*
X214172312Y-195664757D02*
X214243740Y-195379042D01*
X214243740Y-195379042D02*
X214315169Y-195236185D01*
X214315169Y-195236185D02*
X214386598Y-195164757D01*
X214386598Y-195164757D02*
X214529455Y-195093328D01*
X215600883Y-195236185D02*
X215672311Y-195164757D01*
X215672311Y-195164757D02*
X215815169Y-195093328D01*
X215815169Y-195093328D02*
X216172311Y-195093328D01*
X216172311Y-195093328D02*
X216315169Y-195164757D01*
X216315169Y-195164757D02*
X216386597Y-195236185D01*
X216386597Y-195236185D02*
X216458026Y-195379042D01*
X216458026Y-195379042D02*
X216458026Y-195521900D01*
X216458026Y-195521900D02*
X216386597Y-195736185D01*
X216386597Y-195736185D02*
X215529454Y-196593328D01*
X215529454Y-196593328D02*
X216458026Y-196593328D01*
X216958025Y-195093328D02*
X217886597Y-195093328D01*
X217886597Y-195093328D02*
X217386597Y-195664757D01*
X217386597Y-195664757D02*
X217600882Y-195664757D01*
X217600882Y-195664757D02*
X217743740Y-195736185D01*
X217743740Y-195736185D02*
X217815168Y-195807614D01*
X217815168Y-195807614D02*
X217886597Y-195950471D01*
X217886597Y-195950471D02*
X217886597Y-196307614D01*
X217886597Y-196307614D02*
X217815168Y-196450471D01*
X217815168Y-196450471D02*
X217743740Y-196521900D01*
X217743740Y-196521900D02*
X217600882Y-196593328D01*
X217600882Y-196593328D02*
X217172311Y-196593328D01*
X217172311Y-196593328D02*
X217029454Y-196521900D01*
X217029454Y-196521900D02*
X216958025Y-196450471D01*
X218815168Y-195093328D02*
X218958025Y-195093328D01*
X218958025Y-195093328D02*
X219100882Y-195164757D01*
X219100882Y-195164757D02*
X219172311Y-195236185D01*
X219172311Y-195236185D02*
X219243739Y-195379042D01*
X219243739Y-195379042D02*
X219315168Y-195664757D01*
X219315168Y-195664757D02*
X219315168Y-196021900D01*
X219315168Y-196021900D02*
X219243739Y-196307614D01*
X219243739Y-196307614D02*
X219172311Y-196450471D01*
X219172311Y-196450471D02*
X219100882Y-196521900D01*
X219100882Y-196521900D02*
X218958025Y-196593328D01*
X218958025Y-196593328D02*
X218815168Y-196593328D01*
X218815168Y-196593328D02*
X218672311Y-196521900D01*
X218672311Y-196521900D02*
X218600882Y-196450471D01*
X218600882Y-196450471D02*
X218529453Y-196307614D01*
X218529453Y-196307614D02*
X218458025Y-196021900D01*
X218458025Y-196021900D02*
X218458025Y-195664757D01*
X218458025Y-195664757D02*
X218529453Y-195379042D01*
X218529453Y-195379042D02*
X218600882Y-195236185D01*
X218600882Y-195236185D02*
X218672311Y-195164757D01*
X218672311Y-195164757D02*
X218815168Y-195093328D01*
X220672310Y-195093328D02*
X219958024Y-195093328D01*
X219958024Y-195093328D02*
X219886596Y-195807614D01*
X219886596Y-195807614D02*
X219958024Y-195736185D01*
X219958024Y-195736185D02*
X220100882Y-195664757D01*
X220100882Y-195664757D02*
X220458024Y-195664757D01*
X220458024Y-195664757D02*
X220600882Y-195736185D01*
X220600882Y-195736185D02*
X220672310Y-195807614D01*
X220672310Y-195807614D02*
X220743739Y-195950471D01*
X220743739Y-195950471D02*
X220743739Y-196307614D01*
X220743739Y-196307614D02*
X220672310Y-196450471D01*
X220672310Y-196450471D02*
X220600882Y-196521900D01*
X220600882Y-196521900D02*
X220458024Y-196593328D01*
X220458024Y-196593328D02*
X220100882Y-196593328D01*
X220100882Y-196593328D02*
X219958024Y-196521900D01*
X219958024Y-196521900D02*
X219886596Y-196450471D01*
X222172310Y-196593328D02*
X221315167Y-196593328D01*
X221743738Y-196593328D02*
X221743738Y-195093328D01*
X221743738Y-195093328D02*
X221600881Y-195307614D01*
X221600881Y-195307614D02*
X221458024Y-195450471D01*
X221458024Y-195450471D02*
X221315167Y-195521900D01*
X223529452Y-195093328D02*
X222815166Y-195093328D01*
X222815166Y-195093328D02*
X222743738Y-195807614D01*
X222743738Y-195807614D02*
X222815166Y-195736185D01*
X222815166Y-195736185D02*
X222958024Y-195664757D01*
X222958024Y-195664757D02*
X223315166Y-195664757D01*
X223315166Y-195664757D02*
X223458024Y-195736185D01*
X223458024Y-195736185D02*
X223529452Y-195807614D01*
X223529452Y-195807614D02*
X223600881Y-195950471D01*
X223600881Y-195950471D02*
X223600881Y-196307614D01*
X223600881Y-196307614D02*
X223529452Y-196450471D01*
X223529452Y-196450471D02*
X223458024Y-196521900D01*
X223458024Y-196521900D02*
X223315166Y-196593328D01*
X223315166Y-196593328D02*
X222958024Y-196593328D01*
X222958024Y-196593328D02*
X222815166Y-196521900D01*
X222815166Y-196521900D02*
X222743738Y-196450471D01*
X224886595Y-195593328D02*
X224886595Y-196807614D01*
X224886595Y-196807614D02*
X224815166Y-196950471D01*
X224815166Y-196950471D02*
X224743737Y-197021900D01*
X224743737Y-197021900D02*
X224600880Y-197093328D01*
X224600880Y-197093328D02*
X224386595Y-197093328D01*
X224386595Y-197093328D02*
X224243737Y-197021900D01*
X224886595Y-196521900D02*
X224743737Y-196593328D01*
X224743737Y-196593328D02*
X224458023Y-196593328D01*
X224458023Y-196593328D02*
X224315166Y-196521900D01*
X224315166Y-196521900D02*
X224243737Y-196450471D01*
X224243737Y-196450471D02*
X224172309Y-196307614D01*
X224172309Y-196307614D02*
X224172309Y-195879042D01*
X224172309Y-195879042D02*
X224243737Y-195736185D01*
X224243737Y-195736185D02*
X224315166Y-195664757D01*
X224315166Y-195664757D02*
X224458023Y-195593328D01*
X224458023Y-195593328D02*
X224743737Y-195593328D01*
X224743737Y-195593328D02*
X224886595Y-195664757D01*
X225600880Y-196593328D02*
X225600880Y-195593328D01*
X225600880Y-195093328D02*
X225529452Y-195164757D01*
X225529452Y-195164757D02*
X225600880Y-195236185D01*
X225600880Y-195236185D02*
X225672309Y-195164757D01*
X225672309Y-195164757D02*
X225600880Y-195093328D01*
X225600880Y-195093328D02*
X225600880Y-195236185D01*
X226100881Y-195593328D02*
X226672309Y-195593328D01*
X226315166Y-195093328D02*
X226315166Y-196379042D01*
X226315166Y-196379042D02*
X226386595Y-196521900D01*
X226386595Y-196521900D02*
X226529452Y-196593328D01*
X226529452Y-196593328D02*
X226672309Y-196593328D01*
X227958024Y-196593328D02*
X227100881Y-196593328D01*
X227529452Y-196593328D02*
X227529452Y-195093328D01*
X227529452Y-195093328D02*
X227386595Y-195307614D01*
X227386595Y-195307614D02*
X227243738Y-195450471D01*
X227243738Y-195450471D02*
X227100881Y-195521900D01*
X229243738Y-196593328D02*
X229243738Y-195807614D01*
X229243738Y-195807614D02*
X229172309Y-195664757D01*
X229172309Y-195664757D02*
X229029452Y-195593328D01*
X229029452Y-195593328D02*
X228743738Y-195593328D01*
X228743738Y-195593328D02*
X228600880Y-195664757D01*
X229243738Y-196521900D02*
X229100880Y-196593328D01*
X229100880Y-196593328D02*
X228743738Y-196593328D01*
X228743738Y-196593328D02*
X228600880Y-196521900D01*
X228600880Y-196521900D02*
X228529452Y-196379042D01*
X228529452Y-196379042D02*
X228529452Y-196236185D01*
X228529452Y-196236185D02*
X228600880Y-196093328D01*
X228600880Y-196093328D02*
X228743738Y-196021900D01*
X228743738Y-196021900D02*
X229100880Y-196021900D01*
X229100880Y-196021900D02*
X229243738Y-195950471D01*
X230600881Y-196593328D02*
X230600881Y-195093328D01*
X230600881Y-196521900D02*
X230458023Y-196593328D01*
X230458023Y-196593328D02*
X230172309Y-196593328D01*
X230172309Y-196593328D02*
X230029452Y-196521900D01*
X230029452Y-196521900D02*
X229958023Y-196450471D01*
X229958023Y-196450471D02*
X229886595Y-196307614D01*
X229886595Y-196307614D02*
X229886595Y-195879042D01*
X229886595Y-195879042D02*
X229958023Y-195736185D01*
X229958023Y-195736185D02*
X230029452Y-195664757D01*
X230029452Y-195664757D02*
X230172309Y-195593328D01*
X230172309Y-195593328D02*
X230458023Y-195593328D01*
X230458023Y-195593328D02*
X230600881Y-195664757D01*
X231958024Y-196521900D02*
X231815166Y-196593328D01*
X231815166Y-196593328D02*
X231529452Y-196593328D01*
X231529452Y-196593328D02*
X231386595Y-196521900D01*
X231386595Y-196521900D02*
X231315166Y-196450471D01*
X231315166Y-196450471D02*
X231243738Y-196307614D01*
X231243738Y-196307614D02*
X231243738Y-195879042D01*
X231243738Y-195879042D02*
X231315166Y-195736185D01*
X231315166Y-195736185D02*
X231386595Y-195664757D01*
X231386595Y-195664757D02*
X231529452Y-195593328D01*
X231529452Y-195593328D02*
X231815166Y-195593328D01*
X231815166Y-195593328D02*
X231958024Y-195664757D01*
X232600880Y-196593328D02*
X232600880Y-195093328D01*
X232600880Y-195664757D02*
X232743738Y-195593328D01*
X232743738Y-195593328D02*
X233029452Y-195593328D01*
X233029452Y-195593328D02*
X233172309Y-195664757D01*
X233172309Y-195664757D02*
X233243738Y-195736185D01*
X233243738Y-195736185D02*
X233315166Y-195879042D01*
X233315166Y-195879042D02*
X233315166Y-196307614D01*
X233315166Y-196307614D02*
X233243738Y-196450471D01*
X233243738Y-196450471D02*
X233172309Y-196521900D01*
X233172309Y-196521900D02*
X233029452Y-196593328D01*
X233029452Y-196593328D02*
X232743738Y-196593328D01*
X232743738Y-196593328D02*
X232600880Y-196521900D01*
X234172309Y-195736185D02*
X234029452Y-195664757D01*
X234029452Y-195664757D02*
X233958023Y-195593328D01*
X233958023Y-195593328D02*
X233886595Y-195450471D01*
X233886595Y-195450471D02*
X233886595Y-195379042D01*
X233886595Y-195379042D02*
X233958023Y-195236185D01*
X233958023Y-195236185D02*
X234029452Y-195164757D01*
X234029452Y-195164757D02*
X234172309Y-195093328D01*
X234172309Y-195093328D02*
X234458023Y-195093328D01*
X234458023Y-195093328D02*
X234600881Y-195164757D01*
X234600881Y-195164757D02*
X234672309Y-195236185D01*
X234672309Y-195236185D02*
X234743738Y-195379042D01*
X234743738Y-195379042D02*
X234743738Y-195450471D01*
X234743738Y-195450471D02*
X234672309Y-195593328D01*
X234672309Y-195593328D02*
X234600881Y-195664757D01*
X234600881Y-195664757D02*
X234458023Y-195736185D01*
X234458023Y-195736185D02*
X234172309Y-195736185D01*
X234172309Y-195736185D02*
X234029452Y-195807614D01*
X234029452Y-195807614D02*
X233958023Y-195879042D01*
X233958023Y-195879042D02*
X233886595Y-196021900D01*
X233886595Y-196021900D02*
X233886595Y-196307614D01*
X233886595Y-196307614D02*
X233958023Y-196450471D01*
X233958023Y-196450471D02*
X234029452Y-196521900D01*
X234029452Y-196521900D02*
X234172309Y-196593328D01*
X234172309Y-196593328D02*
X234458023Y-196593328D01*
X234458023Y-196593328D02*
X234600881Y-196521900D01*
X234600881Y-196521900D02*
X234672309Y-196450471D01*
X234672309Y-196450471D02*
X234743738Y-196307614D01*
X234743738Y-196307614D02*
X234743738Y-196021900D01*
X234743738Y-196021900D02*
X234672309Y-195879042D01*
X234672309Y-195879042D02*
X234600881Y-195807614D01*
X234600881Y-195807614D02*
X234458023Y-195736185D01*
X236029452Y-195093328D02*
X235743737Y-195093328D01*
X235743737Y-195093328D02*
X235600880Y-195164757D01*
X235600880Y-195164757D02*
X235529452Y-195236185D01*
X235529452Y-195236185D02*
X235386594Y-195450471D01*
X235386594Y-195450471D02*
X235315166Y-195736185D01*
X235315166Y-195736185D02*
X235315166Y-196307614D01*
X235315166Y-196307614D02*
X235386594Y-196450471D01*
X235386594Y-196450471D02*
X235458023Y-196521900D01*
X235458023Y-196521900D02*
X235600880Y-196593328D01*
X235600880Y-196593328D02*
X235886594Y-196593328D01*
X235886594Y-196593328D02*
X236029452Y-196521900D01*
X236029452Y-196521900D02*
X236100880Y-196450471D01*
X236100880Y-196450471D02*
X236172309Y-196307614D01*
X236172309Y-196307614D02*
X236172309Y-195950471D01*
X236172309Y-195950471D02*
X236100880Y-195807614D01*
X236100880Y-195807614D02*
X236029452Y-195736185D01*
X236029452Y-195736185D02*
X235886594Y-195664757D01*
X235886594Y-195664757D02*
X235600880Y-195664757D01*
X235600880Y-195664757D02*
X235458023Y-195736185D01*
X235458023Y-195736185D02*
X235386594Y-195807614D01*
X235386594Y-195807614D02*
X235315166Y-195950471D01*
X236815165Y-196450471D02*
X236886594Y-196521900D01*
X236886594Y-196521900D02*
X236815165Y-196593328D01*
X236815165Y-196593328D02*
X236743737Y-196521900D01*
X236743737Y-196521900D02*
X236815165Y-196450471D01*
X236815165Y-196450471D02*
X236815165Y-196593328D01*
X237315166Y-195593328D02*
X237886594Y-195593328D01*
X237529451Y-196593328D02*
X237529451Y-195307614D01*
X237529451Y-195307614D02*
X237600880Y-195164757D01*
X237600880Y-195164757D02*
X237743737Y-195093328D01*
X237743737Y-195093328D02*
X237886594Y-195093328D01*
X239029452Y-196521900D02*
X238886594Y-196593328D01*
X238886594Y-196593328D02*
X238600880Y-196593328D01*
X238600880Y-196593328D02*
X238458023Y-196521900D01*
X238458023Y-196521900D02*
X238386594Y-196450471D01*
X238386594Y-196450471D02*
X238315166Y-196307614D01*
X238315166Y-196307614D02*
X238315166Y-195879042D01*
X238315166Y-195879042D02*
X238386594Y-195736185D01*
X238386594Y-195736185D02*
X238458023Y-195664757D01*
X238458023Y-195664757D02*
X238600880Y-195593328D01*
X238600880Y-195593328D02*
X238886594Y-195593328D01*
X238886594Y-195593328D02*
X239029452Y-195664757D01*
X239529451Y-195093328D02*
X240458023Y-195093328D01*
X240458023Y-195093328D02*
X239958023Y-195664757D01*
X239958023Y-195664757D02*
X240172308Y-195664757D01*
X240172308Y-195664757D02*
X240315166Y-195736185D01*
X240315166Y-195736185D02*
X240386594Y-195807614D01*
X240386594Y-195807614D02*
X240458023Y-195950471D01*
X240458023Y-195950471D02*
X240458023Y-196307614D01*
X240458023Y-196307614D02*
X240386594Y-196450471D01*
X240386594Y-196450471D02*
X240315166Y-196521900D01*
X240315166Y-196521900D02*
X240172308Y-196593328D01*
X240172308Y-196593328D02*
X239743737Y-196593328D01*
X239743737Y-196593328D02*
X239600880Y-196521900D01*
X239600880Y-196521900D02*
X239529451Y-196450471D01*
X240958022Y-195093328D02*
X241958022Y-195093328D01*
X241958022Y-195093328D02*
X241315165Y-196593328D01*
D10*
D11*
X177002200Y-191507200D02*
X285002200Y-191507200D01*
D10*
D12*
X264413853Y-193785528D02*
X263913853Y-193071242D01*
X263556710Y-193785528D02*
X263556710Y-192285528D01*
X263556710Y-192285528D02*
X264128139Y-192285528D01*
X264128139Y-192285528D02*
X264270996Y-192356957D01*
X264270996Y-192356957D02*
X264342425Y-192428385D01*
X264342425Y-192428385D02*
X264413853Y-192571242D01*
X264413853Y-192571242D02*
X264413853Y-192785528D01*
X264413853Y-192785528D02*
X264342425Y-192928385D01*
X264342425Y-192928385D02*
X264270996Y-192999814D01*
X264270996Y-192999814D02*
X264128139Y-193071242D01*
X264128139Y-193071242D02*
X263556710Y-193071242D01*
X265628139Y-193714100D02*
X265485282Y-193785528D01*
X265485282Y-193785528D02*
X265199568Y-193785528D01*
X265199568Y-193785528D02*
X265056710Y-193714100D01*
X265056710Y-193714100D02*
X264985282Y-193571242D01*
X264985282Y-193571242D02*
X264985282Y-192999814D01*
X264985282Y-192999814D02*
X265056710Y-192856957D01*
X265056710Y-192856957D02*
X265199568Y-192785528D01*
X265199568Y-192785528D02*
X265485282Y-192785528D01*
X265485282Y-192785528D02*
X265628139Y-192856957D01*
X265628139Y-192856957D02*
X265699568Y-192999814D01*
X265699568Y-192999814D02*
X265699568Y-193142671D01*
X265699568Y-193142671D02*
X264985282Y-193285528D01*
X266199567Y-192785528D02*
X266556710Y-193785528D01*
X266556710Y-193785528D02*
X266913853Y-192785528D01*
X267485281Y-193642671D02*
X267556710Y-193714100D01*
X267556710Y-193714100D02*
X267485281Y-193785528D01*
X267485281Y-193785528D02*
X267413853Y-193714100D01*
X267413853Y-193714100D02*
X267485281Y-193642671D01*
X267485281Y-193642671D02*
X267485281Y-193785528D01*
X267485281Y-192856957D02*
X267556710Y-192928385D01*
X267556710Y-192928385D02*
X267485281Y-192999814D01*
X267485281Y-192999814D02*
X267413853Y-192928385D01*
X267413853Y-192928385D02*
X267485281Y-192856957D01*
X267485281Y-192856957D02*
X267485281Y-192999814D01*
X269342424Y-193785528D02*
X269342424Y-192785528D01*
X269342424Y-193071242D02*
X269413853Y-192928385D01*
X269413853Y-192928385D02*
X269485282Y-192856957D01*
X269485282Y-192856957D02*
X269628139Y-192785528D01*
X269628139Y-192785528D02*
X269770996Y-192785528D01*
X271056710Y-193785528D02*
X270199567Y-193785528D01*
X270628138Y-193785528D02*
X270628138Y-192285528D01*
X270628138Y-192285528D02*
X270485281Y-192499814D01*
X270485281Y-192499814D02*
X270342424Y-192642671D01*
X270342424Y-192642671D02*
X270199567Y-192714100D01*
D10*
D11*
X178386598Y-193721900D02*
X178600884Y-193793328D01*
X178600884Y-193793328D02*
X178958026Y-193793328D01*
X178958026Y-193793328D02*
X179100884Y-193721900D01*
X179100884Y-193721900D02*
X179172312Y-193650471D01*
X179172312Y-193650471D02*
X179243741Y-193507614D01*
X179243741Y-193507614D02*
X179243741Y-193364757D01*
X179243741Y-193364757D02*
X179172312Y-193221900D01*
X179172312Y-193221900D02*
X179100884Y-193150471D01*
X179100884Y-193150471D02*
X178958026Y-193079042D01*
X178958026Y-193079042D02*
X178672312Y-193007614D01*
X178672312Y-193007614D02*
X178529455Y-192936185D01*
X178529455Y-192936185D02*
X178458026Y-192864757D01*
X178458026Y-192864757D02*
X178386598Y-192721900D01*
X178386598Y-192721900D02*
X178386598Y-192579042D01*
X178386598Y-192579042D02*
X178458026Y-192436185D01*
X178458026Y-192436185D02*
X178529455Y-192364757D01*
X178529455Y-192364757D02*
X178672312Y-192293328D01*
X178672312Y-192293328D02*
X179029455Y-192293328D01*
X179029455Y-192293328D02*
X179243741Y-192364757D01*
X179886597Y-193793328D02*
X179886597Y-192793328D01*
X179886597Y-192293328D02*
X179815169Y-192364757D01*
X179815169Y-192364757D02*
X179886597Y-192436185D01*
X179886597Y-192436185D02*
X179958026Y-192364757D01*
X179958026Y-192364757D02*
X179886597Y-192293328D01*
X179886597Y-192293328D02*
X179886597Y-192436185D01*
X180458026Y-192793328D02*
X181243741Y-192793328D01*
X181243741Y-192793328D02*
X180458026Y-193793328D01*
X180458026Y-193793328D02*
X181243741Y-193793328D01*
X182386598Y-193721900D02*
X182243741Y-193793328D01*
X182243741Y-193793328D02*
X181958027Y-193793328D01*
X181958027Y-193793328D02*
X181815169Y-193721900D01*
X181815169Y-193721900D02*
X181743741Y-193579042D01*
X181743741Y-193579042D02*
X181743741Y-193007614D01*
X181743741Y-193007614D02*
X181815169Y-192864757D01*
X181815169Y-192864757D02*
X181958027Y-192793328D01*
X181958027Y-192793328D02*
X182243741Y-192793328D01*
X182243741Y-192793328D02*
X182386598Y-192864757D01*
X182386598Y-192864757D02*
X182458027Y-193007614D01*
X182458027Y-193007614D02*
X182458027Y-193150471D01*
X182458027Y-193150471D02*
X181743741Y-193293328D01*
X183100883Y-193650471D02*
X183172312Y-193721900D01*
X183172312Y-193721900D02*
X183100883Y-193793328D01*
X183100883Y-193793328D02*
X183029455Y-193721900D01*
X183029455Y-193721900D02*
X183100883Y-193650471D01*
X183100883Y-193650471D02*
X183100883Y-193793328D01*
X183100883Y-192864757D02*
X183172312Y-192936185D01*
X183172312Y-192936185D02*
X183100883Y-193007614D01*
X183100883Y-193007614D02*
X183029455Y-192936185D01*
X183029455Y-192936185D02*
X183100883Y-192864757D01*
X183100883Y-192864757D02*
X183100883Y-193007614D01*
X184886598Y-193364757D02*
X185600884Y-193364757D01*
X184743741Y-193793328D02*
X185243741Y-192293328D01*
X185243741Y-192293328D02*
X185743741Y-193793328D01*
X186886598Y-192793328D02*
X186886598Y-193793328D01*
X186529455Y-192221900D02*
X186172312Y-193293328D01*
X186172312Y-193293328D02*
X187100883Y-193293328D01*
D10*
D11*
X263458026Y-196593328D02*
X263458026Y-195093328D01*
X264815170Y-196593328D02*
X264815170Y-195093328D01*
X264815170Y-196521900D02*
X264672312Y-196593328D01*
X264672312Y-196593328D02*
X264386598Y-196593328D01*
X264386598Y-196593328D02*
X264243741Y-196521900D01*
X264243741Y-196521900D02*
X264172312Y-196450471D01*
X264172312Y-196450471D02*
X264100884Y-196307614D01*
X264100884Y-196307614D02*
X264100884Y-195879042D01*
X264100884Y-195879042D02*
X264172312Y-195736185D01*
X264172312Y-195736185D02*
X264243741Y-195664757D01*
X264243741Y-195664757D02*
X264386598Y-195593328D01*
X264386598Y-195593328D02*
X264672312Y-195593328D01*
X264672312Y-195593328D02*
X264815170Y-195664757D01*
X265529455Y-196450471D02*
X265600884Y-196521900D01*
X265600884Y-196521900D02*
X265529455Y-196593328D01*
X265529455Y-196593328D02*
X265458027Y-196521900D01*
X265458027Y-196521900D02*
X265529455Y-196450471D01*
X265529455Y-196450471D02*
X265529455Y-196593328D01*
X265529455Y-195664757D02*
X265600884Y-195736185D01*
X265600884Y-195736185D02*
X265529455Y-195807614D01*
X265529455Y-195807614D02*
X265458027Y-195736185D01*
X265458027Y-195736185D02*
X265529455Y-195664757D01*
X265529455Y-195664757D02*
X265529455Y-195807614D01*
X268172313Y-196593328D02*
X267315170Y-196593328D01*
X267743741Y-196593328D02*
X267743741Y-195093328D01*
X267743741Y-195093328D02*
X267600884Y-195307614D01*
X267600884Y-195307614D02*
X267458027Y-195450471D01*
X267458027Y-195450471D02*
X267315170Y-195521900D01*
X269886598Y-195021900D02*
X268600884Y-196950471D01*
X271172313Y-196593328D02*
X270315170Y-196593328D01*
X270743741Y-196593328D02*
X270743741Y-195093328D01*
X270743741Y-195093328D02*
X270600884Y-195307614D01*
X270600884Y-195307614D02*
X270458027Y-195450471D01*
X270458027Y-195450471D02*
X270315170Y-195521900D01*
D10*
D11*
X177002200Y-187507200D02*
X285002200Y-187507200D01*
D10*
D13*
X178693928Y-188211638D02*
X179836785Y-188211638D01*
X179015357Y-190211638D02*
X179265357Y-188211638D01*
X180253452Y-190211638D02*
X180420119Y-188878304D01*
X180503452Y-188211638D02*
X180396309Y-188306876D01*
X180396309Y-188306876D02*
X180479643Y-188402114D01*
X180479643Y-188402114D02*
X180586786Y-188306876D01*
X180586786Y-188306876D02*
X180503452Y-188211638D01*
X180503452Y-188211638D02*
X180479643Y-188402114D01*
X181086786Y-188878304D02*
X181848690Y-188878304D01*
X181455833Y-188211638D02*
X181241548Y-189925923D01*
X181241548Y-189925923D02*
X181312976Y-190116400D01*
X181312976Y-190116400D02*
X181491548Y-190211638D01*
X181491548Y-190211638D02*
X181682024Y-190211638D01*
X182634405Y-190211638D02*
X182455833Y-190116400D01*
X182455833Y-190116400D02*
X182384405Y-189925923D01*
X182384405Y-189925923D02*
X182598690Y-188211638D01*
X184170119Y-190116400D02*
X183967738Y-190211638D01*
X183967738Y-190211638D02*
X183586785Y-190211638D01*
X183586785Y-190211638D02*
X183408214Y-190116400D01*
X183408214Y-190116400D02*
X183336785Y-189925923D01*
X183336785Y-189925923D02*
X183432024Y-189164019D01*
X183432024Y-189164019D02*
X183551071Y-188973542D01*
X183551071Y-188973542D02*
X183753452Y-188878304D01*
X183753452Y-188878304D02*
X184134404Y-188878304D01*
X184134404Y-188878304D02*
X184312976Y-188973542D01*
X184312976Y-188973542D02*
X184384404Y-189164019D01*
X184384404Y-189164019D02*
X184360595Y-189354495D01*
X184360595Y-189354495D02*
X183384404Y-189544971D01*
X185134405Y-190021161D02*
X185217738Y-190116400D01*
X185217738Y-190116400D02*
X185110595Y-190211638D01*
X185110595Y-190211638D02*
X185027262Y-190116400D01*
X185027262Y-190116400D02*
X185134405Y-190021161D01*
X185134405Y-190021161D02*
X185110595Y-190211638D01*
X185265357Y-188973542D02*
X185348690Y-189068780D01*
X185348690Y-189068780D02*
X185241548Y-189164019D01*
X185241548Y-189164019D02*
X185158214Y-189068780D01*
X185158214Y-189068780D02*
X185265357Y-188973542D01*
X185265357Y-188973542D02*
X185241548Y-189164019D01*
X187551072Y-188211638D02*
X188693929Y-188211638D01*
X187872501Y-190211638D02*
X188122501Y-188211638D01*
X189110596Y-190211638D02*
X189277263Y-188878304D01*
X189229644Y-189259257D02*
X189348691Y-189068780D01*
X189348691Y-189068780D02*
X189455834Y-188973542D01*
X189455834Y-188973542D02*
X189658215Y-188878304D01*
X189658215Y-188878304D02*
X189848691Y-188878304D01*
X190634406Y-190211638D02*
X190455834Y-190116400D01*
X190455834Y-190116400D02*
X190372501Y-190021161D01*
X190372501Y-190021161D02*
X190301072Y-189830685D01*
X190301072Y-189830685D02*
X190372501Y-189259257D01*
X190372501Y-189259257D02*
X190491548Y-189068780D01*
X190491548Y-189068780D02*
X190598691Y-188973542D01*
X190598691Y-188973542D02*
X190801072Y-188878304D01*
X190801072Y-188878304D02*
X191086786Y-188878304D01*
X191086786Y-188878304D02*
X191265358Y-188973542D01*
X191265358Y-188973542D02*
X191348691Y-189068780D01*
X191348691Y-189068780D02*
X191420120Y-189259257D01*
X191420120Y-189259257D02*
X191348691Y-189830685D01*
X191348691Y-189830685D02*
X191229644Y-190021161D01*
X191229644Y-190021161D02*
X191122501Y-190116400D01*
X191122501Y-190116400D02*
X190920120Y-190211638D01*
X190920120Y-190211638D02*
X190634406Y-190211638D01*
X192443930Y-190211638D02*
X192265358Y-190116400D01*
X192265358Y-190116400D02*
X192182025Y-190021161D01*
X192182025Y-190021161D02*
X192110596Y-189830685D01*
X192110596Y-189830685D02*
X192182025Y-189259257D01*
X192182025Y-189259257D02*
X192301072Y-189068780D01*
X192301072Y-189068780D02*
X192408215Y-188973542D01*
X192408215Y-188973542D02*
X192610596Y-188878304D01*
X192610596Y-188878304D02*
X192896310Y-188878304D01*
X192896310Y-188878304D02*
X193074882Y-188973542D01*
X193074882Y-188973542D02*
X193158215Y-189068780D01*
X193158215Y-189068780D02*
X193229644Y-189259257D01*
X193229644Y-189259257D02*
X193158215Y-189830685D01*
X193158215Y-189830685D02*
X193039168Y-190021161D01*
X193039168Y-190021161D02*
X192932025Y-190116400D01*
X192932025Y-190116400D02*
X192729644Y-190211638D01*
X192729644Y-190211638D02*
X192443930Y-190211638D01*
X194134406Y-188878304D02*
X193884406Y-190878304D01*
X194122501Y-188973542D02*
X194324882Y-188878304D01*
X194324882Y-188878304D02*
X194705834Y-188878304D01*
X194705834Y-188878304D02*
X194884406Y-188973542D01*
X194884406Y-188973542D02*
X194967739Y-189068780D01*
X194967739Y-189068780D02*
X195039168Y-189259257D01*
X195039168Y-189259257D02*
X194967739Y-189830685D01*
X194967739Y-189830685D02*
X194848692Y-190021161D01*
X194848692Y-190021161D02*
X194741549Y-190116400D01*
X194741549Y-190116400D02*
X194539168Y-190211638D01*
X194539168Y-190211638D02*
X194158215Y-190211638D01*
X194158215Y-190211638D02*
X193979644Y-190116400D01*
X196551073Y-190116400D02*
X196348692Y-190211638D01*
X196348692Y-190211638D02*
X195967739Y-190211638D01*
X195967739Y-190211638D02*
X195789168Y-190116400D01*
X195789168Y-190116400D02*
X195717739Y-189925923D01*
X195717739Y-189925923D02*
X195812978Y-189164019D01*
X195812978Y-189164019D02*
X195932025Y-188973542D01*
X195932025Y-188973542D02*
X196134406Y-188878304D01*
X196134406Y-188878304D02*
X196515358Y-188878304D01*
X196515358Y-188878304D02*
X196693930Y-188973542D01*
X196693930Y-188973542D02*
X196765358Y-189164019D01*
X196765358Y-189164019D02*
X196741549Y-189354495D01*
X196741549Y-189354495D02*
X195765358Y-189544971D01*
X197491549Y-190211638D02*
X197658216Y-188878304D01*
X197610597Y-189259257D02*
X197729644Y-189068780D01*
X197729644Y-189068780D02*
X197836787Y-188973542D01*
X197836787Y-188973542D02*
X198039168Y-188878304D01*
X198039168Y-188878304D02*
X198229644Y-188878304D01*
X198646311Y-190116400D02*
X198824882Y-190211638D01*
X198824882Y-190211638D02*
X199205835Y-190211638D01*
X199205835Y-190211638D02*
X199408216Y-190116400D01*
X199408216Y-190116400D02*
X199527263Y-189925923D01*
X199527263Y-189925923D02*
X199539168Y-189830685D01*
X199539168Y-189830685D02*
X199467739Y-189640209D01*
X199467739Y-189640209D02*
X199289168Y-189544971D01*
X199289168Y-189544971D02*
X199003454Y-189544971D01*
X199003454Y-189544971D02*
X198824882Y-189449733D01*
X198824882Y-189449733D02*
X198753454Y-189259257D01*
X198753454Y-189259257D02*
X198765359Y-189164019D01*
X198765359Y-189164019D02*
X198884406Y-188973542D01*
X198884406Y-188973542D02*
X199086787Y-188878304D01*
X199086787Y-188878304D02*
X199372501Y-188878304D01*
X199372501Y-188878304D02*
X199551073Y-188973542D01*
X202003455Y-188402114D02*
X202110597Y-188306876D01*
X202110597Y-188306876D02*
X202312978Y-188211638D01*
X202312978Y-188211638D02*
X202789169Y-188211638D01*
X202789169Y-188211638D02*
X202967740Y-188306876D01*
X202967740Y-188306876D02*
X203051074Y-188402114D01*
X203051074Y-188402114D02*
X203122502Y-188592590D01*
X203122502Y-188592590D02*
X203098693Y-188783066D01*
X203098693Y-188783066D02*
X202967740Y-189068780D01*
X202967740Y-189068780D02*
X201682026Y-190211638D01*
X201682026Y-190211638D02*
X202920121Y-190211638D01*
X203836788Y-188211638D02*
X205074883Y-188211638D01*
X205074883Y-188211638D02*
X204312979Y-188973542D01*
X204312979Y-188973542D02*
X204598693Y-188973542D01*
X204598693Y-188973542D02*
X204777264Y-189068780D01*
X204777264Y-189068780D02*
X204860598Y-189164019D01*
X204860598Y-189164019D02*
X204932026Y-189354495D01*
X204932026Y-189354495D02*
X204872502Y-189830685D01*
X204872502Y-189830685D02*
X204753455Y-190021161D01*
X204753455Y-190021161D02*
X204646312Y-190116400D01*
X204646312Y-190116400D02*
X204443931Y-190211638D01*
X204443931Y-190211638D02*
X203872502Y-190211638D01*
X203872502Y-190211638D02*
X203693931Y-190116400D01*
X203693931Y-190116400D02*
X203610598Y-190021161D01*
X207122503Y-190116400D02*
X207396312Y-190211638D01*
X207396312Y-190211638D02*
X207872503Y-190211638D01*
X207872503Y-190211638D02*
X208074884Y-190116400D01*
X208074884Y-190116400D02*
X208182027Y-190021161D01*
X208182027Y-190021161D02*
X208301074Y-189830685D01*
X208301074Y-189830685D02*
X208324884Y-189640209D01*
X208324884Y-189640209D02*
X208253455Y-189449733D01*
X208253455Y-189449733D02*
X208170122Y-189354495D01*
X208170122Y-189354495D02*
X207991551Y-189259257D01*
X207991551Y-189259257D02*
X207622503Y-189164019D01*
X207622503Y-189164019D02*
X207443931Y-189068780D01*
X207443931Y-189068780D02*
X207360598Y-188973542D01*
X207360598Y-188973542D02*
X207289170Y-188783066D01*
X207289170Y-188783066D02*
X207312979Y-188592590D01*
X207312979Y-188592590D02*
X207432027Y-188402114D01*
X207432027Y-188402114D02*
X207539170Y-188306876D01*
X207539170Y-188306876D02*
X207741551Y-188211638D01*
X207741551Y-188211638D02*
X208217741Y-188211638D01*
X208217741Y-188211638D02*
X208491551Y-188306876D01*
X209110598Y-190211638D02*
X209360598Y-188211638D01*
X209967741Y-190211638D02*
X210098693Y-189164019D01*
X210098693Y-189164019D02*
X210027265Y-188973542D01*
X210027265Y-188973542D02*
X209848693Y-188878304D01*
X209848693Y-188878304D02*
X209562979Y-188878304D01*
X209562979Y-188878304D02*
X209360598Y-188973542D01*
X209360598Y-188973542D02*
X209253455Y-189068780D01*
X210920122Y-190211638D02*
X211086789Y-188878304D01*
X211170122Y-188211638D02*
X211062979Y-188306876D01*
X211062979Y-188306876D02*
X211146313Y-188402114D01*
X211146313Y-188402114D02*
X211253456Y-188306876D01*
X211253456Y-188306876D02*
X211170122Y-188211638D01*
X211170122Y-188211638D02*
X211146313Y-188402114D01*
X211753456Y-188878304D02*
X212515360Y-188878304D01*
X212122503Y-188211638D02*
X211908218Y-189925923D01*
X211908218Y-189925923D02*
X211979646Y-190116400D01*
X211979646Y-190116400D02*
X212158218Y-190211638D01*
X212158218Y-190211638D02*
X212348694Y-190211638D01*
X212896313Y-188878304D02*
X213658217Y-188878304D01*
X213265360Y-188211638D02*
X213051075Y-189925923D01*
X213051075Y-189925923D02*
X213122503Y-190116400D01*
X213122503Y-190116400D02*
X213301075Y-190211638D01*
X213301075Y-190211638D02*
X213491551Y-190211638D01*
X214134408Y-188878304D02*
X214443932Y-190211638D01*
X215086789Y-188878304D02*
X214443932Y-190211638D01*
X214443932Y-190211638D02*
X214193932Y-190687828D01*
X214193932Y-190687828D02*
X214086789Y-190783066D01*
X214086789Y-190783066D02*
X213884408Y-190878304D01*
X217182028Y-189640209D02*
X218134409Y-189640209D01*
X216920123Y-190211638D02*
X217836790Y-188211638D01*
X217836790Y-188211638D02*
X218253456Y-190211638D01*
X219777266Y-190211638D02*
X220027266Y-188211638D01*
X219789171Y-190116400D02*
X219586790Y-190211638D01*
X219586790Y-190211638D02*
X219205838Y-190211638D01*
X219205838Y-190211638D02*
X219027266Y-190116400D01*
X219027266Y-190116400D02*
X218943933Y-190021161D01*
X218943933Y-190021161D02*
X218872504Y-189830685D01*
X218872504Y-189830685D02*
X218943933Y-189259257D01*
X218943933Y-189259257D02*
X219062980Y-189068780D01*
X219062980Y-189068780D02*
X219170123Y-188973542D01*
X219170123Y-188973542D02*
X219372504Y-188878304D01*
X219372504Y-188878304D02*
X219753457Y-188878304D01*
X219753457Y-188878304D02*
X219932028Y-188973542D01*
X221586790Y-190211638D02*
X221836790Y-188211638D01*
X221598695Y-190116400D02*
X221396314Y-190211638D01*
X221396314Y-190211638D02*
X221015362Y-190211638D01*
X221015362Y-190211638D02*
X220836790Y-190116400D01*
X220836790Y-190116400D02*
X220753457Y-190021161D01*
X220753457Y-190021161D02*
X220682028Y-189830685D01*
X220682028Y-189830685D02*
X220753457Y-189259257D01*
X220753457Y-189259257D02*
X220872504Y-189068780D01*
X220872504Y-189068780D02*
X220979647Y-188973542D01*
X220979647Y-188973542D02*
X221182028Y-188878304D01*
X221182028Y-188878304D02*
X221562981Y-188878304D01*
X221562981Y-188878304D02*
X221741552Y-188973542D01*
X222634409Y-189449733D02*
X224158219Y-189449733D01*
X225646314Y-188211638D02*
X226027266Y-188211638D01*
X226027266Y-188211638D02*
X226205837Y-188306876D01*
X226205837Y-188306876D02*
X226372504Y-188497352D01*
X226372504Y-188497352D02*
X226420123Y-188878304D01*
X226420123Y-188878304D02*
X226336790Y-189544971D01*
X226336790Y-189544971D02*
X226193933Y-189925923D01*
X226193933Y-189925923D02*
X225979647Y-190116400D01*
X225979647Y-190116400D02*
X225777266Y-190211638D01*
X225777266Y-190211638D02*
X225396314Y-190211638D01*
X225396314Y-190211638D02*
X225217742Y-190116400D01*
X225217742Y-190116400D02*
X225051076Y-189925923D01*
X225051076Y-189925923D02*
X225003456Y-189544971D01*
X225003456Y-189544971D02*
X225086790Y-188878304D01*
X225086790Y-188878304D02*
X225229647Y-188497352D01*
X225229647Y-188497352D02*
X225443933Y-188306876D01*
X225443933Y-188306876D02*
X225646314Y-188211638D01*
X227277266Y-188878304D02*
X227110599Y-190211638D01*
X227253456Y-189068780D02*
X227360599Y-188973542D01*
X227360599Y-188973542D02*
X227562980Y-188878304D01*
X227562980Y-188878304D02*
X227848694Y-188878304D01*
X227848694Y-188878304D02*
X228027266Y-188973542D01*
X228027266Y-188973542D02*
X228098694Y-189164019D01*
X228098694Y-189164019D02*
X227967742Y-190211638D01*
D10*
D11*
X178958026Y-185607614D02*
X178458026Y-185607614D01*
X178458026Y-186393328D02*
X178458026Y-184893328D01*
X178458026Y-184893328D02*
X179172312Y-184893328D01*
X179743740Y-186393328D02*
X179743740Y-185393328D01*
X179743740Y-184893328D02*
X179672312Y-184964757D01*
X179672312Y-184964757D02*
X179743740Y-185036185D01*
X179743740Y-185036185D02*
X179815169Y-184964757D01*
X179815169Y-184964757D02*
X179743740Y-184893328D01*
X179743740Y-184893328D02*
X179743740Y-185036185D01*
X180672312Y-186393328D02*
X180529455Y-186321900D01*
X180529455Y-186321900D02*
X180458026Y-186179042D01*
X180458026Y-186179042D02*
X180458026Y-184893328D01*
X181815169Y-186321900D02*
X181672312Y-186393328D01*
X181672312Y-186393328D02*
X181386598Y-186393328D01*
X181386598Y-186393328D02*
X181243740Y-186321900D01*
X181243740Y-186321900D02*
X181172312Y-186179042D01*
X181172312Y-186179042D02*
X181172312Y-185607614D01*
X181172312Y-185607614D02*
X181243740Y-185464757D01*
X181243740Y-185464757D02*
X181386598Y-185393328D01*
X181386598Y-185393328D02*
X181672312Y-185393328D01*
X181672312Y-185393328D02*
X181815169Y-185464757D01*
X181815169Y-185464757D02*
X181886598Y-185607614D01*
X181886598Y-185607614D02*
X181886598Y-185750471D01*
X181886598Y-185750471D02*
X181172312Y-185893328D01*
X182529454Y-186250471D02*
X182600883Y-186321900D01*
X182600883Y-186321900D02*
X182529454Y-186393328D01*
X182529454Y-186393328D02*
X182458026Y-186321900D01*
X182458026Y-186321900D02*
X182529454Y-186250471D01*
X182529454Y-186250471D02*
X182529454Y-186393328D01*
X182529454Y-185464757D02*
X182600883Y-185536185D01*
X182600883Y-185536185D02*
X182529454Y-185607614D01*
X182529454Y-185607614D02*
X182458026Y-185536185D01*
X182458026Y-185536185D02*
X182529454Y-185464757D01*
X182529454Y-185464757D02*
X182529454Y-185607614D01*
X184172312Y-185393328D02*
X184743740Y-185393328D01*
X184386597Y-184893328D02*
X184386597Y-186179042D01*
X184386597Y-186179042D02*
X184458026Y-186321900D01*
X184458026Y-186321900D02*
X184600883Y-186393328D01*
X184600883Y-186393328D02*
X184743740Y-186393328D01*
X185243740Y-186393328D02*
X185243740Y-185393328D01*
X185243740Y-185679042D02*
X185315169Y-185536185D01*
X185315169Y-185536185D02*
X185386598Y-185464757D01*
X185386598Y-185464757D02*
X185529455Y-185393328D01*
X185529455Y-185393328D02*
X185672312Y-185393328D01*
X186100883Y-185036185D02*
X186172311Y-184964757D01*
X186172311Y-184964757D02*
X186315169Y-184893328D01*
X186315169Y-184893328D02*
X186672311Y-184893328D01*
X186672311Y-184893328D02*
X186815169Y-184964757D01*
X186815169Y-184964757D02*
X186886597Y-185036185D01*
X186886597Y-185036185D02*
X186958026Y-185179042D01*
X186958026Y-185179042D02*
X186958026Y-185321900D01*
X186958026Y-185321900D02*
X186886597Y-185536185D01*
X186886597Y-185536185D02*
X186029454Y-186393328D01*
X186029454Y-186393328D02*
X186958026Y-186393328D01*
X187458025Y-184893328D02*
X188386597Y-184893328D01*
X188386597Y-184893328D02*
X187886597Y-185464757D01*
X187886597Y-185464757D02*
X188100882Y-185464757D01*
X188100882Y-185464757D02*
X188243740Y-185536185D01*
X188243740Y-185536185D02*
X188315168Y-185607614D01*
X188315168Y-185607614D02*
X188386597Y-185750471D01*
X188386597Y-185750471D02*
X188386597Y-186107614D01*
X188386597Y-186107614D02*
X188315168Y-186250471D01*
X188315168Y-186250471D02*
X188243740Y-186321900D01*
X188243740Y-186321900D02*
X188100882Y-186393328D01*
X188100882Y-186393328D02*
X187672311Y-186393328D01*
X187672311Y-186393328D02*
X187529454Y-186321900D01*
X187529454Y-186321900D02*
X187458025Y-186250471D01*
X189029453Y-185821900D02*
X190172311Y-185821900D01*
X190815168Y-186321900D02*
X190958025Y-186393328D01*
X190958025Y-186393328D02*
X191243739Y-186393328D01*
X191243739Y-186393328D02*
X191386596Y-186321900D01*
X191386596Y-186321900D02*
X191458025Y-186179042D01*
X191458025Y-186179042D02*
X191458025Y-186107614D01*
X191458025Y-186107614D02*
X191386596Y-185964757D01*
X191386596Y-185964757D02*
X191243739Y-185893328D01*
X191243739Y-185893328D02*
X191029454Y-185893328D01*
X191029454Y-185893328D02*
X190886596Y-185821900D01*
X190886596Y-185821900D02*
X190815168Y-185679042D01*
X190815168Y-185679042D02*
X190815168Y-185607614D01*
X190815168Y-185607614D02*
X190886596Y-185464757D01*
X190886596Y-185464757D02*
X191029454Y-185393328D01*
X191029454Y-185393328D02*
X191243739Y-185393328D01*
X191243739Y-185393328D02*
X191386596Y-185464757D01*
X192743740Y-186393328D02*
X192743740Y-185607614D01*
X192743740Y-185607614D02*
X192672311Y-185464757D01*
X192672311Y-185464757D02*
X192529454Y-185393328D01*
X192529454Y-185393328D02*
X192243740Y-185393328D01*
X192243740Y-185393328D02*
X192100882Y-185464757D01*
X192743740Y-186321900D02*
X192600882Y-186393328D01*
X192600882Y-186393328D02*
X192243740Y-186393328D01*
X192243740Y-186393328D02*
X192100882Y-186321900D01*
X192100882Y-186321900D02*
X192029454Y-186179042D01*
X192029454Y-186179042D02*
X192029454Y-186036185D01*
X192029454Y-186036185D02*
X192100882Y-185893328D01*
X192100882Y-185893328D02*
X192243740Y-185821900D01*
X192243740Y-185821900D02*
X192600882Y-185821900D01*
X192600882Y-185821900D02*
X192743740Y-185750471D01*
X193672311Y-186393328D02*
X193529454Y-186321900D01*
X193529454Y-186321900D02*
X193458025Y-186250471D01*
X193458025Y-186250471D02*
X193386597Y-186107614D01*
X193386597Y-186107614D02*
X193386597Y-185679042D01*
X193386597Y-185679042D02*
X193458025Y-185536185D01*
X193458025Y-185536185D02*
X193529454Y-185464757D01*
X193529454Y-185464757D02*
X193672311Y-185393328D01*
X193672311Y-185393328D02*
X193886597Y-185393328D01*
X193886597Y-185393328D02*
X194029454Y-185464757D01*
X194029454Y-185464757D02*
X194100883Y-185536185D01*
X194100883Y-185536185D02*
X194172311Y-185679042D01*
X194172311Y-185679042D02*
X194172311Y-186107614D01*
X194172311Y-186107614D02*
X194100883Y-186250471D01*
X194100883Y-186250471D02*
X194029454Y-186321900D01*
X194029454Y-186321900D02*
X193886597Y-186393328D01*
X193886597Y-186393328D02*
X193672311Y-186393328D01*
X194815168Y-185821900D02*
X195958026Y-185821900D01*
X196672311Y-186393328D02*
X196672311Y-185393328D01*
X196672311Y-185679042D02*
X196743740Y-185536185D01*
X196743740Y-185536185D02*
X196815169Y-185464757D01*
X196815169Y-185464757D02*
X196958026Y-185393328D01*
X196958026Y-185393328D02*
X197100883Y-185393328D01*
X198386597Y-186393328D02*
X197529454Y-186393328D01*
X197958025Y-186393328D02*
X197958025Y-184893328D01*
X197958025Y-184893328D02*
X197815168Y-185107614D01*
X197815168Y-185107614D02*
X197672311Y-185250471D01*
X197672311Y-185250471D02*
X197529454Y-185321900D01*
X199029453Y-186250471D02*
X199100882Y-186321900D01*
X199100882Y-186321900D02*
X199029453Y-186393328D01*
X199029453Y-186393328D02*
X198958025Y-186321900D01*
X198958025Y-186321900D02*
X199029453Y-186250471D01*
X199029453Y-186250471D02*
X199029453Y-186393328D01*
X199743739Y-186393328D02*
X199743739Y-184893328D01*
X199886597Y-185821900D02*
X200315168Y-186393328D01*
X200315168Y-185393328D02*
X199743739Y-185964757D01*
X200958025Y-186393328D02*
X200958025Y-185393328D01*
X200958025Y-184893328D02*
X200886597Y-184964757D01*
X200886597Y-184964757D02*
X200958025Y-185036185D01*
X200958025Y-185036185D02*
X201029454Y-184964757D01*
X201029454Y-184964757D02*
X200958025Y-184893328D01*
X200958025Y-184893328D02*
X200958025Y-185036185D01*
X202315169Y-186321900D02*
X202172311Y-186393328D01*
X202172311Y-186393328D02*
X201886597Y-186393328D01*
X201886597Y-186393328D02*
X201743740Y-186321900D01*
X201743740Y-186321900D02*
X201672311Y-186250471D01*
X201672311Y-186250471D02*
X201600883Y-186107614D01*
X201600883Y-186107614D02*
X201600883Y-185679042D01*
X201600883Y-185679042D02*
X201672311Y-185536185D01*
X201672311Y-185536185D02*
X201743740Y-185464757D01*
X201743740Y-185464757D02*
X201886597Y-185393328D01*
X201886597Y-185393328D02*
X202172311Y-185393328D01*
X202172311Y-185393328D02*
X202315169Y-185464757D01*
X203600883Y-186393328D02*
X203600883Y-185607614D01*
X203600883Y-185607614D02*
X203529454Y-185464757D01*
X203529454Y-185464757D02*
X203386597Y-185393328D01*
X203386597Y-185393328D02*
X203100883Y-185393328D01*
X203100883Y-185393328D02*
X202958025Y-185464757D01*
X203600883Y-186321900D02*
X203458025Y-186393328D01*
X203458025Y-186393328D02*
X203100883Y-186393328D01*
X203100883Y-186393328D02*
X202958025Y-186321900D01*
X202958025Y-186321900D02*
X202886597Y-186179042D01*
X202886597Y-186179042D02*
X202886597Y-186036185D01*
X202886597Y-186036185D02*
X202958025Y-185893328D01*
X202958025Y-185893328D02*
X203100883Y-185821900D01*
X203100883Y-185821900D02*
X203458025Y-185821900D01*
X203458025Y-185821900D02*
X203600883Y-185750471D01*
X204958026Y-186393328D02*
X204958026Y-184893328D01*
X204958026Y-186321900D02*
X204815168Y-186393328D01*
X204815168Y-186393328D02*
X204529454Y-186393328D01*
X204529454Y-186393328D02*
X204386597Y-186321900D01*
X204386597Y-186321900D02*
X204315168Y-186250471D01*
X204315168Y-186250471D02*
X204243740Y-186107614D01*
X204243740Y-186107614D02*
X204243740Y-185679042D01*
X204243740Y-185679042D02*
X204315168Y-185536185D01*
X204315168Y-185536185D02*
X204386597Y-185464757D01*
X204386597Y-185464757D02*
X204529454Y-185393328D01*
X204529454Y-185393328D02*
X204815168Y-185393328D01*
X204815168Y-185393328D02*
X204958026Y-185464757D01*
X205315169Y-186536185D02*
X206458026Y-186536185D01*
X206815168Y-185393328D02*
X206815168Y-186893328D01*
X206815168Y-185464757D02*
X206958026Y-185393328D01*
X206958026Y-185393328D02*
X207243740Y-185393328D01*
X207243740Y-185393328D02*
X207386597Y-185464757D01*
X207386597Y-185464757D02*
X207458026Y-185536185D01*
X207458026Y-185536185D02*
X207529454Y-185679042D01*
X207529454Y-185679042D02*
X207529454Y-186107614D01*
X207529454Y-186107614D02*
X207458026Y-186250471D01*
X207458026Y-186250471D02*
X207386597Y-186321900D01*
X207386597Y-186321900D02*
X207243740Y-186393328D01*
X207243740Y-186393328D02*
X206958026Y-186393328D01*
X206958026Y-186393328D02*
X206815168Y-186321900D01*
X208815169Y-186321900D02*
X208672311Y-186393328D01*
X208672311Y-186393328D02*
X208386597Y-186393328D01*
X208386597Y-186393328D02*
X208243740Y-186321900D01*
X208243740Y-186321900D02*
X208172311Y-186250471D01*
X208172311Y-186250471D02*
X208100883Y-186107614D01*
X208100883Y-186107614D02*
X208100883Y-185679042D01*
X208100883Y-185679042D02*
X208172311Y-185536185D01*
X208172311Y-185536185D02*
X208243740Y-185464757D01*
X208243740Y-185464757D02*
X208386597Y-185393328D01*
X208386597Y-185393328D02*
X208672311Y-185393328D01*
X208672311Y-185393328D02*
X208815169Y-185464757D01*
X209458025Y-186393328D02*
X209458025Y-184893328D01*
X209458025Y-185464757D02*
X209600883Y-185393328D01*
X209600883Y-185393328D02*
X209886597Y-185393328D01*
X209886597Y-185393328D02*
X210029454Y-185464757D01*
X210029454Y-185464757D02*
X210100883Y-185536185D01*
X210100883Y-185536185D02*
X210172311Y-185679042D01*
X210172311Y-185679042D02*
X210172311Y-186107614D01*
X210172311Y-186107614D02*
X210100883Y-186250471D01*
X210100883Y-186250471D02*
X210029454Y-186321900D01*
X210029454Y-186321900D02*
X209886597Y-186393328D01*
X209886597Y-186393328D02*
X209600883Y-186393328D01*
X209600883Y-186393328D02*
X209458025Y-186321900D01*
D10*
D11*
X177002200Y-181507200D02*
X285002200Y-181507200D01*
D10*
D11*
X178386598Y-183621900D02*
X178600884Y-183693328D01*
X178600884Y-183693328D02*
X178958026Y-183693328D01*
X178958026Y-183693328D02*
X179100884Y-183621900D01*
X179100884Y-183621900D02*
X179172312Y-183550471D01*
X179172312Y-183550471D02*
X179243741Y-183407614D01*
X179243741Y-183407614D02*
X179243741Y-183264757D01*
X179243741Y-183264757D02*
X179172312Y-183121900D01*
X179172312Y-183121900D02*
X179100884Y-183050471D01*
X179100884Y-183050471D02*
X178958026Y-182979042D01*
X178958026Y-182979042D02*
X178672312Y-182907614D01*
X178672312Y-182907614D02*
X178529455Y-182836185D01*
X178529455Y-182836185D02*
X178458026Y-182764757D01*
X178458026Y-182764757D02*
X178386598Y-182621900D01*
X178386598Y-182621900D02*
X178386598Y-182479042D01*
X178386598Y-182479042D02*
X178458026Y-182336185D01*
X178458026Y-182336185D02*
X178529455Y-182264757D01*
X178529455Y-182264757D02*
X178672312Y-182193328D01*
X178672312Y-182193328D02*
X179029455Y-182193328D01*
X179029455Y-182193328D02*
X179243741Y-182264757D01*
X179886597Y-183693328D02*
X179886597Y-182193328D01*
X180529455Y-183693328D02*
X180529455Y-182907614D01*
X180529455Y-182907614D02*
X180458026Y-182764757D01*
X180458026Y-182764757D02*
X180315169Y-182693328D01*
X180315169Y-182693328D02*
X180100883Y-182693328D01*
X180100883Y-182693328D02*
X179958026Y-182764757D01*
X179958026Y-182764757D02*
X179886597Y-182836185D01*
X181815169Y-183621900D02*
X181672312Y-183693328D01*
X181672312Y-183693328D02*
X181386598Y-183693328D01*
X181386598Y-183693328D02*
X181243740Y-183621900D01*
X181243740Y-183621900D02*
X181172312Y-183479042D01*
X181172312Y-183479042D02*
X181172312Y-182907614D01*
X181172312Y-182907614D02*
X181243740Y-182764757D01*
X181243740Y-182764757D02*
X181386598Y-182693328D01*
X181386598Y-182693328D02*
X181672312Y-182693328D01*
X181672312Y-182693328D02*
X181815169Y-182764757D01*
X181815169Y-182764757D02*
X181886598Y-182907614D01*
X181886598Y-182907614D02*
X181886598Y-183050471D01*
X181886598Y-183050471D02*
X181172312Y-183193328D01*
X183100883Y-183621900D02*
X182958026Y-183693328D01*
X182958026Y-183693328D02*
X182672312Y-183693328D01*
X182672312Y-183693328D02*
X182529454Y-183621900D01*
X182529454Y-183621900D02*
X182458026Y-183479042D01*
X182458026Y-183479042D02*
X182458026Y-182907614D01*
X182458026Y-182907614D02*
X182529454Y-182764757D01*
X182529454Y-182764757D02*
X182672312Y-182693328D01*
X182672312Y-182693328D02*
X182958026Y-182693328D01*
X182958026Y-182693328D02*
X183100883Y-182764757D01*
X183100883Y-182764757D02*
X183172312Y-182907614D01*
X183172312Y-182907614D02*
X183172312Y-183050471D01*
X183172312Y-183050471D02*
X182458026Y-183193328D01*
X183600883Y-182693328D02*
X184172311Y-182693328D01*
X183815168Y-182193328D02*
X183815168Y-183479042D01*
X183815168Y-183479042D02*
X183886597Y-183621900D01*
X183886597Y-183621900D02*
X184029454Y-183693328D01*
X184029454Y-183693328D02*
X184172311Y-183693328D01*
X184672311Y-183550471D02*
X184743740Y-183621900D01*
X184743740Y-183621900D02*
X184672311Y-183693328D01*
X184672311Y-183693328D02*
X184600883Y-183621900D01*
X184600883Y-183621900D02*
X184672311Y-183550471D01*
X184672311Y-183550471D02*
X184672311Y-183693328D01*
X184672311Y-182764757D02*
X184743740Y-182836185D01*
X184743740Y-182836185D02*
X184672311Y-182907614D01*
X184672311Y-182907614D02*
X184600883Y-182836185D01*
X184600883Y-182836185D02*
X184672311Y-182764757D01*
X184672311Y-182764757D02*
X184672311Y-182907614D01*
D10*
D12*
X178556710Y-180685528D02*
X178556710Y-179185528D01*
X178556710Y-179185528D02*
X179056710Y-180256957D01*
X179056710Y-180256957D02*
X179556710Y-179185528D01*
X179556710Y-179185528D02*
X179556710Y-180685528D01*
X180485282Y-180685528D02*
X180342425Y-180614100D01*
X180342425Y-180614100D02*
X180270996Y-180542671D01*
X180270996Y-180542671D02*
X180199568Y-180399814D01*
X180199568Y-180399814D02*
X180199568Y-179971242D01*
X180199568Y-179971242D02*
X180270996Y-179828385D01*
X180270996Y-179828385D02*
X180342425Y-179756957D01*
X180342425Y-179756957D02*
X180485282Y-179685528D01*
X180485282Y-179685528D02*
X180699568Y-179685528D01*
X180699568Y-179685528D02*
X180842425Y-179756957D01*
X180842425Y-179756957D02*
X180913854Y-179828385D01*
X180913854Y-179828385D02*
X180985282Y-179971242D01*
X180985282Y-179971242D02*
X180985282Y-180399814D01*
X180985282Y-180399814D02*
X180913854Y-180542671D01*
X180913854Y-180542671D02*
X180842425Y-180614100D01*
X180842425Y-180614100D02*
X180699568Y-180685528D01*
X180699568Y-180685528D02*
X180485282Y-180685528D01*
X181628139Y-179685528D02*
X181628139Y-180685528D01*
X181628139Y-179828385D02*
X181699568Y-179756957D01*
X181699568Y-179756957D02*
X181842425Y-179685528D01*
X181842425Y-179685528D02*
X182056711Y-179685528D01*
X182056711Y-179685528D02*
X182199568Y-179756957D01*
X182199568Y-179756957D02*
X182270997Y-179899814D01*
X182270997Y-179899814D02*
X182270997Y-180685528D01*
X183628140Y-180685528D02*
X183628140Y-179899814D01*
X183628140Y-179899814D02*
X183556711Y-179756957D01*
X183556711Y-179756957D02*
X183413854Y-179685528D01*
X183413854Y-179685528D02*
X183128140Y-179685528D01*
X183128140Y-179685528D02*
X182985282Y-179756957D01*
X183628140Y-180614100D02*
X183485282Y-180685528D01*
X183485282Y-180685528D02*
X183128140Y-180685528D01*
X183128140Y-180685528D02*
X182985282Y-180614100D01*
X182985282Y-180614100D02*
X182913854Y-180471242D01*
X182913854Y-180471242D02*
X182913854Y-180328385D01*
X182913854Y-180328385D02*
X182985282Y-180185528D01*
X182985282Y-180185528D02*
X183128140Y-180114100D01*
X183128140Y-180114100D02*
X183485282Y-180114100D01*
X183485282Y-180114100D02*
X183628140Y-180042671D01*
X184985283Y-180685528D02*
X184985283Y-179185528D01*
X184985283Y-180614100D02*
X184842425Y-180685528D01*
X184842425Y-180685528D02*
X184556711Y-180685528D01*
X184556711Y-180685528D02*
X184413854Y-180614100D01*
X184413854Y-180614100D02*
X184342425Y-180542671D01*
X184342425Y-180542671D02*
X184270997Y-180399814D01*
X184270997Y-180399814D02*
X184270997Y-179971242D01*
X184270997Y-179971242D02*
X184342425Y-179828385D01*
X184342425Y-179828385D02*
X184413854Y-179756957D01*
X184413854Y-179756957D02*
X184556711Y-179685528D01*
X184556711Y-179685528D02*
X184842425Y-179685528D01*
X184842425Y-179685528D02*
X184985283Y-179756957D01*
X187628140Y-179256957D02*
X187485283Y-179185528D01*
X187485283Y-179185528D02*
X187270997Y-179185528D01*
X187270997Y-179185528D02*
X187056711Y-179256957D01*
X187056711Y-179256957D02*
X186913854Y-179399814D01*
X186913854Y-179399814D02*
X186842425Y-179542671D01*
X186842425Y-179542671D02*
X186770997Y-179828385D01*
X186770997Y-179828385D02*
X186770997Y-180042671D01*
X186770997Y-180042671D02*
X186842425Y-180328385D01*
X186842425Y-180328385D02*
X186913854Y-180471242D01*
X186913854Y-180471242D02*
X187056711Y-180614100D01*
X187056711Y-180614100D02*
X187270997Y-180685528D01*
X187270997Y-180685528D02*
X187413854Y-180685528D01*
X187413854Y-180685528D02*
X187628140Y-180614100D01*
X187628140Y-180614100D02*
X187699568Y-180542671D01*
X187699568Y-180542671D02*
X187699568Y-180042671D01*
X187699568Y-180042671D02*
X187413854Y-180042671D01*
X188556711Y-180685528D02*
X188413854Y-180614100D01*
X188413854Y-180614100D02*
X188342425Y-180542671D01*
X188342425Y-180542671D02*
X188270997Y-180399814D01*
X188270997Y-180399814D02*
X188270997Y-179971242D01*
X188270997Y-179971242D02*
X188342425Y-179828385D01*
X188342425Y-179828385D02*
X188413854Y-179756957D01*
X188413854Y-179756957D02*
X188556711Y-179685528D01*
X188556711Y-179685528D02*
X188770997Y-179685528D01*
X188770997Y-179685528D02*
X188913854Y-179756957D01*
X188913854Y-179756957D02*
X188985283Y-179828385D01*
X188985283Y-179828385D02*
X189056711Y-179971242D01*
X189056711Y-179971242D02*
X189056711Y-180399814D01*
X189056711Y-180399814D02*
X188985283Y-180542671D01*
X188985283Y-180542671D02*
X188913854Y-180614100D01*
X188913854Y-180614100D02*
X188770997Y-180685528D01*
X188770997Y-180685528D02*
X188556711Y-180685528D01*
X189485283Y-179685528D02*
X190056711Y-179685528D01*
X189699568Y-179185528D02*
X189699568Y-180471242D01*
X189699568Y-180471242D02*
X189770997Y-180614100D01*
X189770997Y-180614100D02*
X189913854Y-180685528D01*
X189913854Y-180685528D02*
X190056711Y-180685528D01*
X190342426Y-179685528D02*
X190913854Y-179685528D01*
X190556711Y-179185528D02*
X190556711Y-180471242D01*
X190556711Y-180471242D02*
X190628140Y-180614100D01*
X190628140Y-180614100D02*
X190770997Y-180685528D01*
X190770997Y-180685528D02*
X190913854Y-180685528D01*
X191199569Y-179685528D02*
X191770997Y-179685528D01*
X191413854Y-180685528D02*
X191413854Y-179399814D01*
X191413854Y-179399814D02*
X191485283Y-179256957D01*
X191485283Y-179256957D02*
X191628140Y-179185528D01*
X191628140Y-179185528D02*
X191770997Y-179185528D01*
X192270997Y-180685528D02*
X192270997Y-179685528D01*
X192270997Y-179971242D02*
X192342426Y-179828385D01*
X192342426Y-179828385D02*
X192413855Y-179756957D01*
X192413855Y-179756957D02*
X192556712Y-179685528D01*
X192556712Y-179685528D02*
X192699569Y-179685528D01*
X193199568Y-180685528D02*
X193199568Y-179685528D01*
X193199568Y-179185528D02*
X193128140Y-179256957D01*
X193128140Y-179256957D02*
X193199568Y-179328385D01*
X193199568Y-179328385D02*
X193270997Y-179256957D01*
X193270997Y-179256957D02*
X193199568Y-179185528D01*
X193199568Y-179185528D02*
X193199568Y-179328385D01*
X194485283Y-180614100D02*
X194342426Y-180685528D01*
X194342426Y-180685528D02*
X194056712Y-180685528D01*
X194056712Y-180685528D02*
X193913854Y-180614100D01*
X193913854Y-180614100D02*
X193842426Y-180471242D01*
X193842426Y-180471242D02*
X193842426Y-179899814D01*
X193842426Y-179899814D02*
X193913854Y-179756957D01*
X193913854Y-179756957D02*
X194056712Y-179685528D01*
X194056712Y-179685528D02*
X194342426Y-179685528D01*
X194342426Y-179685528D02*
X194485283Y-179756957D01*
X194485283Y-179756957D02*
X194556712Y-179899814D01*
X194556712Y-179899814D02*
X194556712Y-180042671D01*
X194556712Y-180042671D02*
X193842426Y-180185528D01*
X195842426Y-180685528D02*
X195842426Y-179185528D01*
X195842426Y-180614100D02*
X195699568Y-180685528D01*
X195699568Y-180685528D02*
X195413854Y-180685528D01*
X195413854Y-180685528D02*
X195270997Y-180614100D01*
X195270997Y-180614100D02*
X195199568Y-180542671D01*
X195199568Y-180542671D02*
X195128140Y-180399814D01*
X195128140Y-180399814D02*
X195128140Y-179971242D01*
X195128140Y-179971242D02*
X195199568Y-179828385D01*
X195199568Y-179828385D02*
X195270997Y-179756957D01*
X195270997Y-179756957D02*
X195413854Y-179685528D01*
X195413854Y-179685528D02*
X195699568Y-179685528D01*
X195699568Y-179685528D02*
X195842426Y-179756957D01*
X197628140Y-179328385D02*
X197699568Y-179256957D01*
X197699568Y-179256957D02*
X197842426Y-179185528D01*
X197842426Y-179185528D02*
X198199568Y-179185528D01*
X198199568Y-179185528D02*
X198342426Y-179256957D01*
X198342426Y-179256957D02*
X198413854Y-179328385D01*
X198413854Y-179328385D02*
X198485283Y-179471242D01*
X198485283Y-179471242D02*
X198485283Y-179614100D01*
X198485283Y-179614100D02*
X198413854Y-179828385D01*
X198413854Y-179828385D02*
X197556711Y-180685528D01*
X197556711Y-180685528D02*
X198485283Y-180685528D01*
X199413854Y-179185528D02*
X199556711Y-179185528D01*
X199556711Y-179185528D02*
X199699568Y-179256957D01*
X199699568Y-179256957D02*
X199770997Y-179328385D01*
X199770997Y-179328385D02*
X199842425Y-179471242D01*
X199842425Y-179471242D02*
X199913854Y-179756957D01*
X199913854Y-179756957D02*
X199913854Y-180114100D01*
X199913854Y-180114100D02*
X199842425Y-180399814D01*
X199842425Y-180399814D02*
X199770997Y-180542671D01*
X199770997Y-180542671D02*
X199699568Y-180614100D01*
X199699568Y-180614100D02*
X199556711Y-180685528D01*
X199556711Y-180685528D02*
X199413854Y-180685528D01*
X199413854Y-180685528D02*
X199270997Y-180614100D01*
X199270997Y-180614100D02*
X199199568Y-180542671D01*
X199199568Y-180542671D02*
X199128139Y-180399814D01*
X199128139Y-180399814D02*
X199056711Y-180114100D01*
X199056711Y-180114100D02*
X199056711Y-179756957D01*
X199056711Y-179756957D02*
X199128139Y-179471242D01*
X199128139Y-179471242D02*
X199199568Y-179328385D01*
X199199568Y-179328385D02*
X199270997Y-179256957D01*
X199270997Y-179256957D02*
X199413854Y-179185528D01*
X200485282Y-179328385D02*
X200556710Y-179256957D01*
X200556710Y-179256957D02*
X200699568Y-179185528D01*
X200699568Y-179185528D02*
X201056710Y-179185528D01*
X201056710Y-179185528D02*
X201199568Y-179256957D01*
X201199568Y-179256957D02*
X201270996Y-179328385D01*
X201270996Y-179328385D02*
X201342425Y-179471242D01*
X201342425Y-179471242D02*
X201342425Y-179614100D01*
X201342425Y-179614100D02*
X201270996Y-179828385D01*
X201270996Y-179828385D02*
X200413853Y-180685528D01*
X200413853Y-180685528D02*
X201342425Y-180685528D01*
X201842424Y-179185528D02*
X202770996Y-179185528D01*
X202770996Y-179185528D02*
X202270996Y-179756957D01*
X202270996Y-179756957D02*
X202485281Y-179756957D01*
X202485281Y-179756957D02*
X202628139Y-179828385D01*
X202628139Y-179828385D02*
X202699567Y-179899814D01*
X202699567Y-179899814D02*
X202770996Y-180042671D01*
X202770996Y-180042671D02*
X202770996Y-180399814D01*
X202770996Y-180399814D02*
X202699567Y-180542671D01*
X202699567Y-180542671D02*
X202628139Y-180614100D01*
X202628139Y-180614100D02*
X202485281Y-180685528D01*
X202485281Y-180685528D02*
X202056710Y-180685528D01*
X202056710Y-180685528D02*
X201913853Y-180614100D01*
X201913853Y-180614100D02*
X201842424Y-180542671D01*
D10*
D11*
D10*
D11*
D10*
D11*
D10*
D11*
D10*
D11*
X197002200Y-191507200D02*
X197002200Y-194507200D01*
D10*
D11*
X261002200Y-191507200D02*
X261002200Y-198007200D01*
D14*
G04 #@! TO.C,GRAPHIC1*
X159028583Y-73478500D02*
X140867583Y-73478500D01*
X140867583Y-56968500D01*
X159028583Y-56968500D01*
X159028583Y-73478500D01*
G36*
X159028583Y-73478500D02*
G01*
X140867583Y-73478500D01*
X140867583Y-56968500D01*
X159028583Y-56968500D01*
X159028583Y-73478500D01*
G37*
G04 #@! TD*
D15*
G04 #@! TO.C,FID2*
X164300000Y-52500000D03*
G04 #@! TD*
G04 #@! TO.C,FID1*
X150000000Y-116000000D03*
G04 #@! TD*
D16*
G04 #@! TO.C,J1*
X147460000Y-51875000D03*
X147460000Y-56925000D03*
X150000000Y-51875000D03*
X150000000Y-56925000D03*
X152540000Y-51875000D03*
X152540000Y-56925000D03*
G04 #@! TD*
D17*
G04 #@! TO.C,U1*
X149000000Y-79275000D03*
X149000000Y-78775000D03*
X149000000Y-78275000D03*
X149000000Y-77775000D03*
X151000000Y-77775000D03*
X151000000Y-78275000D03*
X151000000Y-78775000D03*
X151000000Y-79275000D03*
D18*
X150000000Y-78525000D03*
G04 #@! TD*
D19*
G04 #@! TO.C,J2*
X152000000Y-105900000D03*
X150000000Y-105900000D03*
X148000000Y-105900000D03*
X148000000Y-107900000D03*
X150000000Y-107900000D03*
X152000000Y-107900000D03*
D20*
X156700000Y-113850000D03*
X156700000Y-108400000D03*
X143300000Y-113850000D03*
X143300000Y-108400000D03*
G04 #@! TD*
D21*
G04 #@! TO.C,D3*
X148100000Y-61800000D03*
X142900000Y-61800000D03*
X142900000Y-60400000D03*
X148100000Y-60400000D03*
G04 #@! TD*
G04 #@! TO.C,D1*
X157100000Y-61800000D03*
X151900000Y-61800000D03*
X151900000Y-60400000D03*
X157100000Y-60400000D03*
G04 #@! TD*
G04 #@! TO.C,D2*
X157100000Y-70050000D03*
X151900000Y-70050000D03*
X151900000Y-68650000D03*
X157100000Y-68650000D03*
G04 #@! TD*
G04 #@! TO.C,D4*
X148100000Y-70050000D03*
X142900000Y-70050000D03*
X142900000Y-68650000D03*
X148100000Y-68650000D03*
G04 #@! TD*
D22*
G04 #@! TO.C,C1*
X152525000Y-79855000D03*
X154425000Y-79855000D03*
G04 #@! TD*
M02*
