G04 #@! TF.GenerationSoftware,KiCad,Pcbnew,7.99.0-1.20230515git1adcb86.fc37*
G04 #@! TF.CreationDate,2023-06-10T12:58:00+01:00*
G04 #@! TF.ProjectId,tr23-sao-r1,74723233-2d73-4616-9f2d-72312e6b6963,r1*
G04 #@! TF.SameCoordinates,Original*
G04 #@! TF.FileFunction,Copper,L2,Bot*
G04 #@! TF.FilePolarity,Positive*
%FSLAX46Y46*%
G04 Gerber Fmt 4.6, Leading zero omitted, Abs format (unit mm)*
G04 Created by KiCad (PCBNEW 7.99.0-1.20230515git1adcb86.fc37) date 2023-06-10 12:58:00*
%MOMM*%
%LPD*%
G01*
G04 APERTURE LIST*
G04 Aperture macros list*
%AMRoundRect*
0 Rectangle with rounded corners*
0 $1 Rounding radius*
0 $2 $3 $4 $5 $6 $7 $8 $9 X,Y pos of 4 corners*
0 Add a 4 corners polygon primitive as box body*
4,1,4,$2,$3,$4,$5,$6,$7,$8,$9,$2,$3,0*
0 Add four circle primitives for the rounded corners*
1,1,$1+$1,$2,$3*
1,1,$1+$1,$4,$5*
1,1,$1+$1,$6,$7*
1,1,$1+$1,$8,$9*
0 Add four rect primitives between the rounded corners*
20,1,$1+$1,$2,$3,$4,$5,0*
20,1,$1+$1,$4,$5,$6,$7,0*
20,1,$1+$1,$6,$7,$8,$9,0*
20,1,$1+$1,$8,$9,$2,$3,0*%
G04 Aperture macros list end*
%ADD10C,0.100000*%
%ADD11C,0.150000*%
%ADD12C,0.300000*%
%ADD13C,0.400000*%
G04 #@! TA.AperFunction,SMDPad,CuDef*
%ADD14R,1.000000X3.150000*%
G04 #@! TD*
G04 #@! TA.AperFunction,SMDPad,CuDef*
%ADD15RoundRect,0.062500X-0.287500X-0.062500X0.287500X-0.062500X0.287500X0.062500X-0.287500X0.062500X0*%
G04 #@! TD*
G04 #@! TA.AperFunction,SMDPad,CuDef*
%ADD16R,0.900000X1.500000*%
G04 #@! TD*
G04 #@! TA.AperFunction,ComponentPad*
%ADD17C,1.400000*%
G04 #@! TD*
G04 #@! TA.AperFunction,ComponentPad*
%ADD18O,1.800000X2.800000*%
G04 #@! TD*
G04 #@! TA.AperFunction,SMDPad,CuDef*
%ADD19R,1.400000X0.800000*%
G04 #@! TD*
G04 #@! TA.AperFunction,SMDPad,CuDef*
%ADD20RoundRect,0.250000X-0.250000X-0.475000X0.250000X-0.475000X0.250000X0.475000X-0.250000X0.475000X0*%
G04 #@! TD*
G04 #@! TA.AperFunction,ViaPad*
%ADD21C,0.600000*%
G04 #@! TD*
G04 #@! TA.AperFunction,Conductor*
%ADD22C,0.200000*%
G04 #@! TD*
G04 #@! TA.AperFunction,Conductor*
%ADD23C,0.400000*%
G04 #@! TD*
G04 APERTURE END LIST*
D10*
D11*
X177002200Y-166007200D02*
X285002200Y-166007200D01*
X285002200Y-198007200D01*
X177002200Y-198007200D01*
X177002200Y-166007200D01*
D10*
D11*
X10000000Y-10000000D02*
X287002200Y-10000000D01*
X287002200Y-200007200D01*
X10000000Y-200007200D01*
X10000000Y-10000000D01*
D10*
D11*
X12000000Y-12000000D02*
X285002200Y-12000000D01*
X285002200Y-198007200D01*
X12000000Y-198007200D01*
X12000000Y-12000000D01*
D10*
D11*
X60000000Y-12000000D02*
X60000000Y-10000000D01*
D10*
D11*
X110000000Y-12000000D02*
X110000000Y-10000000D01*
D10*
D11*
X160000000Y-12000000D02*
X160000000Y-10000000D01*
D10*
D11*
X210000000Y-12000000D02*
X210000000Y-10000000D01*
D10*
D11*
X260000000Y-12000000D02*
X260000000Y-10000000D01*
D10*
D11*
X36089160Y-11593604D02*
X35346303Y-11593604D01*
X35717731Y-11593604D02*
X35717731Y-10293604D01*
X35717731Y-10293604D02*
X35593922Y-10479319D01*
X35593922Y-10479319D02*
X35470112Y-10603128D01*
X35470112Y-10603128D02*
X35346303Y-10665033D01*
D10*
D11*
X85346303Y-10417414D02*
X85408207Y-10355509D01*
X85408207Y-10355509D02*
X85532017Y-10293604D01*
X85532017Y-10293604D02*
X85841541Y-10293604D01*
X85841541Y-10293604D02*
X85965350Y-10355509D01*
X85965350Y-10355509D02*
X86027255Y-10417414D01*
X86027255Y-10417414D02*
X86089160Y-10541223D01*
X86089160Y-10541223D02*
X86089160Y-10665033D01*
X86089160Y-10665033D02*
X86027255Y-10850747D01*
X86027255Y-10850747D02*
X85284398Y-11593604D01*
X85284398Y-11593604D02*
X86089160Y-11593604D01*
D10*
D11*
X135284398Y-10293604D02*
X136089160Y-10293604D01*
X136089160Y-10293604D02*
X135655826Y-10788842D01*
X135655826Y-10788842D02*
X135841541Y-10788842D01*
X135841541Y-10788842D02*
X135965350Y-10850747D01*
X135965350Y-10850747D02*
X136027255Y-10912652D01*
X136027255Y-10912652D02*
X136089160Y-11036461D01*
X136089160Y-11036461D02*
X136089160Y-11345985D01*
X136089160Y-11345985D02*
X136027255Y-11469795D01*
X136027255Y-11469795D02*
X135965350Y-11531700D01*
X135965350Y-11531700D02*
X135841541Y-11593604D01*
X135841541Y-11593604D02*
X135470112Y-11593604D01*
X135470112Y-11593604D02*
X135346303Y-11531700D01*
X135346303Y-11531700D02*
X135284398Y-11469795D01*
D10*
D11*
X185965350Y-10726938D02*
X185965350Y-11593604D01*
X185655826Y-10231700D02*
X185346303Y-11160271D01*
X185346303Y-11160271D02*
X186151064Y-11160271D01*
D10*
D11*
X236027255Y-10293604D02*
X235408207Y-10293604D01*
X235408207Y-10293604D02*
X235346303Y-10912652D01*
X235346303Y-10912652D02*
X235408207Y-10850747D01*
X235408207Y-10850747D02*
X235532017Y-10788842D01*
X235532017Y-10788842D02*
X235841541Y-10788842D01*
X235841541Y-10788842D02*
X235965350Y-10850747D01*
X235965350Y-10850747D02*
X236027255Y-10912652D01*
X236027255Y-10912652D02*
X236089160Y-11036461D01*
X236089160Y-11036461D02*
X236089160Y-11345985D01*
X236089160Y-11345985D02*
X236027255Y-11469795D01*
X236027255Y-11469795D02*
X235965350Y-11531700D01*
X235965350Y-11531700D02*
X235841541Y-11593604D01*
X235841541Y-11593604D02*
X235532017Y-11593604D01*
X235532017Y-11593604D02*
X235408207Y-11531700D01*
X235408207Y-11531700D02*
X235346303Y-11469795D01*
D10*
D11*
X285965350Y-10293604D02*
X285717731Y-10293604D01*
X285717731Y-10293604D02*
X285593922Y-10355509D01*
X285593922Y-10355509D02*
X285532017Y-10417414D01*
X285532017Y-10417414D02*
X285408207Y-10603128D01*
X285408207Y-10603128D02*
X285346303Y-10850747D01*
X285346303Y-10850747D02*
X285346303Y-11345985D01*
X285346303Y-11345985D02*
X285408207Y-11469795D01*
X285408207Y-11469795D02*
X285470112Y-11531700D01*
X285470112Y-11531700D02*
X285593922Y-11593604D01*
X285593922Y-11593604D02*
X285841541Y-11593604D01*
X285841541Y-11593604D02*
X285965350Y-11531700D01*
X285965350Y-11531700D02*
X286027255Y-11469795D01*
X286027255Y-11469795D02*
X286089160Y-11345985D01*
X286089160Y-11345985D02*
X286089160Y-11036461D01*
X286089160Y-11036461D02*
X286027255Y-10912652D01*
X286027255Y-10912652D02*
X285965350Y-10850747D01*
X285965350Y-10850747D02*
X285841541Y-10788842D01*
X285841541Y-10788842D02*
X285593922Y-10788842D01*
X285593922Y-10788842D02*
X285470112Y-10850747D01*
X285470112Y-10850747D02*
X285408207Y-10912652D01*
X285408207Y-10912652D02*
X285346303Y-11036461D01*
D10*
D11*
X60000000Y-198007200D02*
X60000000Y-200007200D01*
D10*
D11*
X110000000Y-198007200D02*
X110000000Y-200007200D01*
D10*
D11*
X160000000Y-198007200D02*
X160000000Y-200007200D01*
D10*
D11*
X210000000Y-198007200D02*
X210000000Y-200007200D01*
D10*
D11*
X260000000Y-198007200D02*
X260000000Y-200007200D01*
D10*
D11*
X36089160Y-199600804D02*
X35346303Y-199600804D01*
X35717731Y-199600804D02*
X35717731Y-198300804D01*
X35717731Y-198300804D02*
X35593922Y-198486519D01*
X35593922Y-198486519D02*
X35470112Y-198610328D01*
X35470112Y-198610328D02*
X35346303Y-198672233D01*
D10*
D11*
X85346303Y-198424614D02*
X85408207Y-198362709D01*
X85408207Y-198362709D02*
X85532017Y-198300804D01*
X85532017Y-198300804D02*
X85841541Y-198300804D01*
X85841541Y-198300804D02*
X85965350Y-198362709D01*
X85965350Y-198362709D02*
X86027255Y-198424614D01*
X86027255Y-198424614D02*
X86089160Y-198548423D01*
X86089160Y-198548423D02*
X86089160Y-198672233D01*
X86089160Y-198672233D02*
X86027255Y-198857947D01*
X86027255Y-198857947D02*
X85284398Y-199600804D01*
X85284398Y-199600804D02*
X86089160Y-199600804D01*
D10*
D11*
X135284398Y-198300804D02*
X136089160Y-198300804D01*
X136089160Y-198300804D02*
X135655826Y-198796042D01*
X135655826Y-198796042D02*
X135841541Y-198796042D01*
X135841541Y-198796042D02*
X135965350Y-198857947D01*
X135965350Y-198857947D02*
X136027255Y-198919852D01*
X136027255Y-198919852D02*
X136089160Y-199043661D01*
X136089160Y-199043661D02*
X136089160Y-199353185D01*
X136089160Y-199353185D02*
X136027255Y-199476995D01*
X136027255Y-199476995D02*
X135965350Y-199538900D01*
X135965350Y-199538900D02*
X135841541Y-199600804D01*
X135841541Y-199600804D02*
X135470112Y-199600804D01*
X135470112Y-199600804D02*
X135346303Y-199538900D01*
X135346303Y-199538900D02*
X135284398Y-199476995D01*
D10*
D11*
X185965350Y-198734138D02*
X185965350Y-199600804D01*
X185655826Y-198238900D02*
X185346303Y-199167471D01*
X185346303Y-199167471D02*
X186151064Y-199167471D01*
D10*
D11*
X236027255Y-198300804D02*
X235408207Y-198300804D01*
X235408207Y-198300804D02*
X235346303Y-198919852D01*
X235346303Y-198919852D02*
X235408207Y-198857947D01*
X235408207Y-198857947D02*
X235532017Y-198796042D01*
X235532017Y-198796042D02*
X235841541Y-198796042D01*
X235841541Y-198796042D02*
X235965350Y-198857947D01*
X235965350Y-198857947D02*
X236027255Y-198919852D01*
X236027255Y-198919852D02*
X236089160Y-199043661D01*
X236089160Y-199043661D02*
X236089160Y-199353185D01*
X236089160Y-199353185D02*
X236027255Y-199476995D01*
X236027255Y-199476995D02*
X235965350Y-199538900D01*
X235965350Y-199538900D02*
X235841541Y-199600804D01*
X235841541Y-199600804D02*
X235532017Y-199600804D01*
X235532017Y-199600804D02*
X235408207Y-199538900D01*
X235408207Y-199538900D02*
X235346303Y-199476995D01*
D10*
D11*
X285965350Y-198300804D02*
X285717731Y-198300804D01*
X285717731Y-198300804D02*
X285593922Y-198362709D01*
X285593922Y-198362709D02*
X285532017Y-198424614D01*
X285532017Y-198424614D02*
X285408207Y-198610328D01*
X285408207Y-198610328D02*
X285346303Y-198857947D01*
X285346303Y-198857947D02*
X285346303Y-199353185D01*
X285346303Y-199353185D02*
X285408207Y-199476995D01*
X285408207Y-199476995D02*
X285470112Y-199538900D01*
X285470112Y-199538900D02*
X285593922Y-199600804D01*
X285593922Y-199600804D02*
X285841541Y-199600804D01*
X285841541Y-199600804D02*
X285965350Y-199538900D01*
X285965350Y-199538900D02*
X286027255Y-199476995D01*
X286027255Y-199476995D02*
X286089160Y-199353185D01*
X286089160Y-199353185D02*
X286089160Y-199043661D01*
X286089160Y-199043661D02*
X286027255Y-198919852D01*
X286027255Y-198919852D02*
X285965350Y-198857947D01*
X285965350Y-198857947D02*
X285841541Y-198796042D01*
X285841541Y-198796042D02*
X285593922Y-198796042D01*
X285593922Y-198796042D02*
X285470112Y-198857947D01*
X285470112Y-198857947D02*
X285408207Y-198919852D01*
X285408207Y-198919852D02*
X285346303Y-199043661D01*
D10*
D11*
X10000000Y-60000000D02*
X12000000Y-60000000D01*
D10*
D11*
X10000000Y-110000000D02*
X12000000Y-110000000D01*
D10*
D11*
X10000000Y-160000000D02*
X12000000Y-160000000D01*
D10*
D11*
X10789160Y-35222176D02*
X11408207Y-35222176D01*
X10665350Y-35593604D02*
X11098683Y-34293604D01*
X11098683Y-34293604D02*
X11532017Y-35593604D01*
D10*
D11*
X11191541Y-84912652D02*
X11377255Y-84974557D01*
X11377255Y-84974557D02*
X11439160Y-85036461D01*
X11439160Y-85036461D02*
X11501064Y-85160271D01*
X11501064Y-85160271D02*
X11501064Y-85345985D01*
X11501064Y-85345985D02*
X11439160Y-85469795D01*
X11439160Y-85469795D02*
X11377255Y-85531700D01*
X11377255Y-85531700D02*
X11253445Y-85593604D01*
X11253445Y-85593604D02*
X10758207Y-85593604D01*
X10758207Y-85593604D02*
X10758207Y-84293604D01*
X10758207Y-84293604D02*
X11191541Y-84293604D01*
X11191541Y-84293604D02*
X11315350Y-84355509D01*
X11315350Y-84355509D02*
X11377255Y-84417414D01*
X11377255Y-84417414D02*
X11439160Y-84541223D01*
X11439160Y-84541223D02*
X11439160Y-84665033D01*
X11439160Y-84665033D02*
X11377255Y-84788842D01*
X11377255Y-84788842D02*
X11315350Y-84850747D01*
X11315350Y-84850747D02*
X11191541Y-84912652D01*
X11191541Y-84912652D02*
X10758207Y-84912652D01*
D10*
D11*
X11501064Y-135469795D02*
X11439160Y-135531700D01*
X11439160Y-135531700D02*
X11253445Y-135593604D01*
X11253445Y-135593604D02*
X11129636Y-135593604D01*
X11129636Y-135593604D02*
X10943922Y-135531700D01*
X10943922Y-135531700D02*
X10820112Y-135407890D01*
X10820112Y-135407890D02*
X10758207Y-135284080D01*
X10758207Y-135284080D02*
X10696303Y-135036461D01*
X10696303Y-135036461D02*
X10696303Y-134850747D01*
X10696303Y-134850747D02*
X10758207Y-134603128D01*
X10758207Y-134603128D02*
X10820112Y-134479319D01*
X10820112Y-134479319D02*
X10943922Y-134355509D01*
X10943922Y-134355509D02*
X11129636Y-134293604D01*
X11129636Y-134293604D02*
X11253445Y-134293604D01*
X11253445Y-134293604D02*
X11439160Y-134355509D01*
X11439160Y-134355509D02*
X11501064Y-134417414D01*
D10*
D11*
X10758207Y-185593604D02*
X10758207Y-184293604D01*
X10758207Y-184293604D02*
X11067731Y-184293604D01*
X11067731Y-184293604D02*
X11253445Y-184355509D01*
X11253445Y-184355509D02*
X11377255Y-184479319D01*
X11377255Y-184479319D02*
X11439160Y-184603128D01*
X11439160Y-184603128D02*
X11501064Y-184850747D01*
X11501064Y-184850747D02*
X11501064Y-185036461D01*
X11501064Y-185036461D02*
X11439160Y-185284080D01*
X11439160Y-185284080D02*
X11377255Y-185407890D01*
X11377255Y-185407890D02*
X11253445Y-185531700D01*
X11253445Y-185531700D02*
X11067731Y-185593604D01*
X11067731Y-185593604D02*
X10758207Y-185593604D01*
D10*
D11*
X287002200Y-60000000D02*
X285002200Y-60000000D01*
D10*
D11*
X287002200Y-110000000D02*
X285002200Y-110000000D01*
D10*
D11*
X287002200Y-160000000D02*
X285002200Y-160000000D01*
D10*
D11*
X285791360Y-35222176D02*
X286410407Y-35222176D01*
X285667550Y-35593604D02*
X286100883Y-34293604D01*
X286100883Y-34293604D02*
X286534217Y-35593604D01*
D10*
D11*
X286193741Y-84912652D02*
X286379455Y-84974557D01*
X286379455Y-84974557D02*
X286441360Y-85036461D01*
X286441360Y-85036461D02*
X286503264Y-85160271D01*
X286503264Y-85160271D02*
X286503264Y-85345985D01*
X286503264Y-85345985D02*
X286441360Y-85469795D01*
X286441360Y-85469795D02*
X286379455Y-85531700D01*
X286379455Y-85531700D02*
X286255645Y-85593604D01*
X286255645Y-85593604D02*
X285760407Y-85593604D01*
X285760407Y-85593604D02*
X285760407Y-84293604D01*
X285760407Y-84293604D02*
X286193741Y-84293604D01*
X286193741Y-84293604D02*
X286317550Y-84355509D01*
X286317550Y-84355509D02*
X286379455Y-84417414D01*
X286379455Y-84417414D02*
X286441360Y-84541223D01*
X286441360Y-84541223D02*
X286441360Y-84665033D01*
X286441360Y-84665033D02*
X286379455Y-84788842D01*
X286379455Y-84788842D02*
X286317550Y-84850747D01*
X286317550Y-84850747D02*
X286193741Y-84912652D01*
X286193741Y-84912652D02*
X285760407Y-84912652D01*
D10*
D11*
X286503264Y-135469795D02*
X286441360Y-135531700D01*
X286441360Y-135531700D02*
X286255645Y-135593604D01*
X286255645Y-135593604D02*
X286131836Y-135593604D01*
X286131836Y-135593604D02*
X285946122Y-135531700D01*
X285946122Y-135531700D02*
X285822312Y-135407890D01*
X285822312Y-135407890D02*
X285760407Y-135284080D01*
X285760407Y-135284080D02*
X285698503Y-135036461D01*
X285698503Y-135036461D02*
X285698503Y-134850747D01*
X285698503Y-134850747D02*
X285760407Y-134603128D01*
X285760407Y-134603128D02*
X285822312Y-134479319D01*
X285822312Y-134479319D02*
X285946122Y-134355509D01*
X285946122Y-134355509D02*
X286131836Y-134293604D01*
X286131836Y-134293604D02*
X286255645Y-134293604D01*
X286255645Y-134293604D02*
X286441360Y-134355509D01*
X286441360Y-134355509D02*
X286503264Y-134417414D01*
D10*
D11*
X285760407Y-185593604D02*
X285760407Y-184293604D01*
X285760407Y-184293604D02*
X286069931Y-184293604D01*
X286069931Y-184293604D02*
X286255645Y-184355509D01*
X286255645Y-184355509D02*
X286379455Y-184479319D01*
X286379455Y-184479319D02*
X286441360Y-184603128D01*
X286441360Y-184603128D02*
X286503264Y-184850747D01*
X286503264Y-184850747D02*
X286503264Y-185036461D01*
X286503264Y-185036461D02*
X286441360Y-185284080D01*
X286441360Y-185284080D02*
X286379455Y-185407890D01*
X286379455Y-185407890D02*
X286255645Y-185531700D01*
X286255645Y-185531700D02*
X286069931Y-185593604D01*
X286069931Y-185593604D02*
X285760407Y-185593604D01*
D10*
D11*
X200458026Y-193793328D02*
X200458026Y-192293328D01*
X200458026Y-192293328D02*
X200815169Y-192293328D01*
X200815169Y-192293328D02*
X201029455Y-192364757D01*
X201029455Y-192364757D02*
X201172312Y-192507614D01*
X201172312Y-192507614D02*
X201243741Y-192650471D01*
X201243741Y-192650471D02*
X201315169Y-192936185D01*
X201315169Y-192936185D02*
X201315169Y-193150471D01*
X201315169Y-193150471D02*
X201243741Y-193436185D01*
X201243741Y-193436185D02*
X201172312Y-193579042D01*
X201172312Y-193579042D02*
X201029455Y-193721900D01*
X201029455Y-193721900D02*
X200815169Y-193793328D01*
X200815169Y-193793328D02*
X200458026Y-193793328D01*
X202600884Y-193793328D02*
X202600884Y-193007614D01*
X202600884Y-193007614D02*
X202529455Y-192864757D01*
X202529455Y-192864757D02*
X202386598Y-192793328D01*
X202386598Y-192793328D02*
X202100884Y-192793328D01*
X202100884Y-192793328D02*
X201958026Y-192864757D01*
X202600884Y-193721900D02*
X202458026Y-193793328D01*
X202458026Y-193793328D02*
X202100884Y-193793328D01*
X202100884Y-193793328D02*
X201958026Y-193721900D01*
X201958026Y-193721900D02*
X201886598Y-193579042D01*
X201886598Y-193579042D02*
X201886598Y-193436185D01*
X201886598Y-193436185D02*
X201958026Y-193293328D01*
X201958026Y-193293328D02*
X202100884Y-193221900D01*
X202100884Y-193221900D02*
X202458026Y-193221900D01*
X202458026Y-193221900D02*
X202600884Y-193150471D01*
X203100884Y-192793328D02*
X203672312Y-192793328D01*
X203315169Y-192293328D02*
X203315169Y-193579042D01*
X203315169Y-193579042D02*
X203386598Y-193721900D01*
X203386598Y-193721900D02*
X203529455Y-193793328D01*
X203529455Y-193793328D02*
X203672312Y-193793328D01*
X204743741Y-193721900D02*
X204600884Y-193793328D01*
X204600884Y-193793328D02*
X204315170Y-193793328D01*
X204315170Y-193793328D02*
X204172312Y-193721900D01*
X204172312Y-193721900D02*
X204100884Y-193579042D01*
X204100884Y-193579042D02*
X204100884Y-193007614D01*
X204100884Y-193007614D02*
X204172312Y-192864757D01*
X204172312Y-192864757D02*
X204315170Y-192793328D01*
X204315170Y-192793328D02*
X204600884Y-192793328D01*
X204600884Y-192793328D02*
X204743741Y-192864757D01*
X204743741Y-192864757D02*
X204815170Y-193007614D01*
X204815170Y-193007614D02*
X204815170Y-193150471D01*
X204815170Y-193150471D02*
X204100884Y-193293328D01*
X205458026Y-193650471D02*
X205529455Y-193721900D01*
X205529455Y-193721900D02*
X205458026Y-193793328D01*
X205458026Y-193793328D02*
X205386598Y-193721900D01*
X205386598Y-193721900D02*
X205458026Y-193650471D01*
X205458026Y-193650471D02*
X205458026Y-193793328D01*
X205458026Y-192864757D02*
X205529455Y-192936185D01*
X205529455Y-192936185D02*
X205458026Y-193007614D01*
X205458026Y-193007614D02*
X205386598Y-192936185D01*
X205386598Y-192936185D02*
X205458026Y-192864757D01*
X205458026Y-192864757D02*
X205458026Y-193007614D01*
D10*
D11*
X177002200Y-194507200D02*
X285002200Y-194507200D01*
D10*
D11*
X178458026Y-196593328D02*
X178458026Y-195093328D01*
X179315169Y-196593328D02*
X178672312Y-195736185D01*
X179315169Y-195093328D02*
X178458026Y-195950471D01*
X179958026Y-196593328D02*
X179958026Y-195593328D01*
X179958026Y-195093328D02*
X179886598Y-195164757D01*
X179886598Y-195164757D02*
X179958026Y-195236185D01*
X179958026Y-195236185D02*
X180029455Y-195164757D01*
X180029455Y-195164757D02*
X179958026Y-195093328D01*
X179958026Y-195093328D02*
X179958026Y-195236185D01*
X181529455Y-196450471D02*
X181458027Y-196521900D01*
X181458027Y-196521900D02*
X181243741Y-196593328D01*
X181243741Y-196593328D02*
X181100884Y-196593328D01*
X181100884Y-196593328D02*
X180886598Y-196521900D01*
X180886598Y-196521900D02*
X180743741Y-196379042D01*
X180743741Y-196379042D02*
X180672312Y-196236185D01*
X180672312Y-196236185D02*
X180600884Y-195950471D01*
X180600884Y-195950471D02*
X180600884Y-195736185D01*
X180600884Y-195736185D02*
X180672312Y-195450471D01*
X180672312Y-195450471D02*
X180743741Y-195307614D01*
X180743741Y-195307614D02*
X180886598Y-195164757D01*
X180886598Y-195164757D02*
X181100884Y-195093328D01*
X181100884Y-195093328D02*
X181243741Y-195093328D01*
X181243741Y-195093328D02*
X181458027Y-195164757D01*
X181458027Y-195164757D02*
X181529455Y-195236185D01*
X182815170Y-196593328D02*
X182815170Y-195807614D01*
X182815170Y-195807614D02*
X182743741Y-195664757D01*
X182743741Y-195664757D02*
X182600884Y-195593328D01*
X182600884Y-195593328D02*
X182315170Y-195593328D01*
X182315170Y-195593328D02*
X182172312Y-195664757D01*
X182815170Y-196521900D02*
X182672312Y-196593328D01*
X182672312Y-196593328D02*
X182315170Y-196593328D01*
X182315170Y-196593328D02*
X182172312Y-196521900D01*
X182172312Y-196521900D02*
X182100884Y-196379042D01*
X182100884Y-196379042D02*
X182100884Y-196236185D01*
X182100884Y-196236185D02*
X182172312Y-196093328D01*
X182172312Y-196093328D02*
X182315170Y-196021900D01*
X182315170Y-196021900D02*
X182672312Y-196021900D01*
X182672312Y-196021900D02*
X182815170Y-195950471D01*
X184172313Y-196593328D02*
X184172313Y-195093328D01*
X184172313Y-196521900D02*
X184029455Y-196593328D01*
X184029455Y-196593328D02*
X183743741Y-196593328D01*
X183743741Y-196593328D02*
X183600884Y-196521900D01*
X183600884Y-196521900D02*
X183529455Y-196450471D01*
X183529455Y-196450471D02*
X183458027Y-196307614D01*
X183458027Y-196307614D02*
X183458027Y-195879042D01*
X183458027Y-195879042D02*
X183529455Y-195736185D01*
X183529455Y-195736185D02*
X183600884Y-195664757D01*
X183600884Y-195664757D02*
X183743741Y-195593328D01*
X183743741Y-195593328D02*
X184029455Y-195593328D01*
X184029455Y-195593328D02*
X184172313Y-195664757D01*
X186029455Y-195807614D02*
X186529455Y-195807614D01*
X186743741Y-196593328D02*
X186029455Y-196593328D01*
X186029455Y-196593328D02*
X186029455Y-195093328D01*
X186029455Y-195093328D02*
X186743741Y-195093328D01*
X187386598Y-196450471D02*
X187458027Y-196521900D01*
X187458027Y-196521900D02*
X187386598Y-196593328D01*
X187386598Y-196593328D02*
X187315170Y-196521900D01*
X187315170Y-196521900D02*
X187386598Y-196450471D01*
X187386598Y-196450471D02*
X187386598Y-196593328D01*
X188100884Y-196593328D02*
X188100884Y-195093328D01*
X188100884Y-195093328D02*
X188458027Y-195093328D01*
X188458027Y-195093328D02*
X188672313Y-195164757D01*
X188672313Y-195164757D02*
X188815170Y-195307614D01*
X188815170Y-195307614D02*
X188886599Y-195450471D01*
X188886599Y-195450471D02*
X188958027Y-195736185D01*
X188958027Y-195736185D02*
X188958027Y-195950471D01*
X188958027Y-195950471D02*
X188886599Y-196236185D01*
X188886599Y-196236185D02*
X188815170Y-196379042D01*
X188815170Y-196379042D02*
X188672313Y-196521900D01*
X188672313Y-196521900D02*
X188458027Y-196593328D01*
X188458027Y-196593328D02*
X188100884Y-196593328D01*
X189600884Y-196450471D02*
X189672313Y-196521900D01*
X189672313Y-196521900D02*
X189600884Y-196593328D01*
X189600884Y-196593328D02*
X189529456Y-196521900D01*
X189529456Y-196521900D02*
X189600884Y-196450471D01*
X189600884Y-196450471D02*
X189600884Y-196593328D01*
X190243742Y-196164757D02*
X190958028Y-196164757D01*
X190100885Y-196593328D02*
X190600885Y-195093328D01*
X190600885Y-195093328D02*
X191100885Y-196593328D01*
X191600884Y-196450471D02*
X191672313Y-196521900D01*
X191672313Y-196521900D02*
X191600884Y-196593328D01*
X191600884Y-196593328D02*
X191529456Y-196521900D01*
X191529456Y-196521900D02*
X191600884Y-196450471D01*
X191600884Y-196450471D02*
X191600884Y-196593328D01*
X194600884Y-196593328D02*
X194600884Y-195093328D01*
X194743742Y-196021900D02*
X195172313Y-196593328D01*
X195172313Y-195593328D02*
X194600884Y-196164757D01*
X195815170Y-196593328D02*
X195815170Y-195593328D01*
X195815170Y-195093328D02*
X195743742Y-195164757D01*
X195743742Y-195164757D02*
X195815170Y-195236185D01*
X195815170Y-195236185D02*
X195886599Y-195164757D01*
X195886599Y-195164757D02*
X195815170Y-195093328D01*
X195815170Y-195093328D02*
X195815170Y-195236185D01*
X197172314Y-196521900D02*
X197029456Y-196593328D01*
X197029456Y-196593328D02*
X196743742Y-196593328D01*
X196743742Y-196593328D02*
X196600885Y-196521900D01*
X196600885Y-196521900D02*
X196529456Y-196450471D01*
X196529456Y-196450471D02*
X196458028Y-196307614D01*
X196458028Y-196307614D02*
X196458028Y-195879042D01*
X196458028Y-195879042D02*
X196529456Y-195736185D01*
X196529456Y-195736185D02*
X196600885Y-195664757D01*
X196600885Y-195664757D02*
X196743742Y-195593328D01*
X196743742Y-195593328D02*
X197029456Y-195593328D01*
X197029456Y-195593328D02*
X197172314Y-195664757D01*
X198458028Y-196593328D02*
X198458028Y-195807614D01*
X198458028Y-195807614D02*
X198386599Y-195664757D01*
X198386599Y-195664757D02*
X198243742Y-195593328D01*
X198243742Y-195593328D02*
X197958028Y-195593328D01*
X197958028Y-195593328D02*
X197815170Y-195664757D01*
X198458028Y-196521900D02*
X198315170Y-196593328D01*
X198315170Y-196593328D02*
X197958028Y-196593328D01*
X197958028Y-196593328D02*
X197815170Y-196521900D01*
X197815170Y-196521900D02*
X197743742Y-196379042D01*
X197743742Y-196379042D02*
X197743742Y-196236185D01*
X197743742Y-196236185D02*
X197815170Y-196093328D01*
X197815170Y-196093328D02*
X197958028Y-196021900D01*
X197958028Y-196021900D02*
X198315170Y-196021900D01*
X198315170Y-196021900D02*
X198458028Y-195950471D01*
X199815171Y-196593328D02*
X199815171Y-195093328D01*
X199815171Y-196521900D02*
X199672313Y-196593328D01*
X199672313Y-196593328D02*
X199386599Y-196593328D01*
X199386599Y-196593328D02*
X199243742Y-196521900D01*
X199243742Y-196521900D02*
X199172313Y-196450471D01*
X199172313Y-196450471D02*
X199100885Y-196307614D01*
X199100885Y-196307614D02*
X199100885Y-195879042D01*
X199100885Y-195879042D02*
X199172313Y-195736185D01*
X199172313Y-195736185D02*
X199243742Y-195664757D01*
X199243742Y-195664757D02*
X199386599Y-195593328D01*
X199386599Y-195593328D02*
X199672313Y-195593328D01*
X199672313Y-195593328D02*
X199815171Y-195664757D01*
X201529456Y-195093328D02*
X202529456Y-195093328D01*
X202529456Y-195093328D02*
X201886599Y-196593328D01*
X203100884Y-196450471D02*
X203172313Y-196521900D01*
X203172313Y-196521900D02*
X203100884Y-196593328D01*
X203100884Y-196593328D02*
X203029456Y-196521900D01*
X203029456Y-196521900D02*
X203100884Y-196450471D01*
X203100884Y-196450471D02*
X203100884Y-196593328D01*
X203886599Y-196593328D02*
X204172313Y-196593328D01*
X204172313Y-196593328D02*
X204315170Y-196521900D01*
X204315170Y-196521900D02*
X204386599Y-196450471D01*
X204386599Y-196450471D02*
X204529456Y-196236185D01*
X204529456Y-196236185D02*
X204600885Y-195950471D01*
X204600885Y-195950471D02*
X204600885Y-195379042D01*
X204600885Y-195379042D02*
X204529456Y-195236185D01*
X204529456Y-195236185D02*
X204458028Y-195164757D01*
X204458028Y-195164757D02*
X204315170Y-195093328D01*
X204315170Y-195093328D02*
X204029456Y-195093328D01*
X204029456Y-195093328D02*
X203886599Y-195164757D01*
X203886599Y-195164757D02*
X203815170Y-195236185D01*
X203815170Y-195236185D02*
X203743742Y-195379042D01*
X203743742Y-195379042D02*
X203743742Y-195736185D01*
X203743742Y-195736185D02*
X203815170Y-195879042D01*
X203815170Y-195879042D02*
X203886599Y-195950471D01*
X203886599Y-195950471D02*
X204029456Y-196021900D01*
X204029456Y-196021900D02*
X204315170Y-196021900D01*
X204315170Y-196021900D02*
X204458028Y-195950471D01*
X204458028Y-195950471D02*
X204529456Y-195879042D01*
X204529456Y-195879042D02*
X204600885Y-195736185D01*
X205315170Y-196593328D02*
X205600884Y-196593328D01*
X205600884Y-196593328D02*
X205743741Y-196521900D01*
X205743741Y-196521900D02*
X205815170Y-196450471D01*
X205815170Y-196450471D02*
X205958027Y-196236185D01*
X205958027Y-196236185D02*
X206029456Y-195950471D01*
X206029456Y-195950471D02*
X206029456Y-195379042D01*
X206029456Y-195379042D02*
X205958027Y-195236185D01*
X205958027Y-195236185D02*
X205886599Y-195164757D01*
X205886599Y-195164757D02*
X205743741Y-195093328D01*
X205743741Y-195093328D02*
X205458027Y-195093328D01*
X205458027Y-195093328D02*
X205315170Y-195164757D01*
X205315170Y-195164757D02*
X205243741Y-195236185D01*
X205243741Y-195236185D02*
X205172313Y-195379042D01*
X205172313Y-195379042D02*
X205172313Y-195736185D01*
X205172313Y-195736185D02*
X205243741Y-195879042D01*
X205243741Y-195879042D02*
X205315170Y-195950471D01*
X205315170Y-195950471D02*
X205458027Y-196021900D01*
X205458027Y-196021900D02*
X205743741Y-196021900D01*
X205743741Y-196021900D02*
X205886599Y-195950471D01*
X205886599Y-195950471D02*
X205958027Y-195879042D01*
X205958027Y-195879042D02*
X206029456Y-195736185D01*
X206672312Y-196450471D02*
X206743741Y-196521900D01*
X206743741Y-196521900D02*
X206672312Y-196593328D01*
X206672312Y-196593328D02*
X206600884Y-196521900D01*
X206600884Y-196521900D02*
X206672312Y-196450471D01*
X206672312Y-196450471D02*
X206672312Y-196593328D01*
X207672313Y-195093328D02*
X207815170Y-195093328D01*
X207815170Y-195093328D02*
X207958027Y-195164757D01*
X207958027Y-195164757D02*
X208029456Y-195236185D01*
X208029456Y-195236185D02*
X208100884Y-195379042D01*
X208100884Y-195379042D02*
X208172313Y-195664757D01*
X208172313Y-195664757D02*
X208172313Y-196021900D01*
X208172313Y-196021900D02*
X208100884Y-196307614D01*
X208100884Y-196307614D02*
X208029456Y-196450471D01*
X208029456Y-196450471D02*
X207958027Y-196521900D01*
X207958027Y-196521900D02*
X207815170Y-196593328D01*
X207815170Y-196593328D02*
X207672313Y-196593328D01*
X207672313Y-196593328D02*
X207529456Y-196521900D01*
X207529456Y-196521900D02*
X207458027Y-196450471D01*
X207458027Y-196450471D02*
X207386598Y-196307614D01*
X207386598Y-196307614D02*
X207315170Y-196021900D01*
X207315170Y-196021900D02*
X207315170Y-195664757D01*
X207315170Y-195664757D02*
X207386598Y-195379042D01*
X207386598Y-195379042D02*
X207458027Y-195236185D01*
X207458027Y-195236185D02*
X207529456Y-195164757D01*
X207529456Y-195164757D02*
X207672313Y-195093328D01*
X208815169Y-196021900D02*
X209958027Y-196021900D01*
X211458027Y-196593328D02*
X210600884Y-196593328D01*
X211029455Y-196593328D02*
X211029455Y-195093328D01*
X211029455Y-195093328D02*
X210886598Y-195307614D01*
X210886598Y-195307614D02*
X210743741Y-195450471D01*
X210743741Y-195450471D02*
X210600884Y-195521900D01*
X212100883Y-196450471D02*
X212172312Y-196521900D01*
X212172312Y-196521900D02*
X212100883Y-196593328D01*
X212100883Y-196593328D02*
X212029455Y-196521900D01*
X212029455Y-196521900D02*
X212100883Y-196450471D01*
X212100883Y-196450471D02*
X212100883Y-196593328D01*
X212743741Y-195236185D02*
X212815169Y-195164757D01*
X212815169Y-195164757D02*
X212958027Y-195093328D01*
X212958027Y-195093328D02*
X213315169Y-195093328D01*
X213315169Y-195093328D02*
X213458027Y-195164757D01*
X213458027Y-195164757D02*
X213529455Y-195236185D01*
X213529455Y-195236185D02*
X213600884Y-195379042D01*
X213600884Y-195379042D02*
X213600884Y-195521900D01*
X213600884Y-195521900D02*
X213529455Y-195736185D01*
X213529455Y-195736185D02*
X212672312Y-196593328D01*
X212672312Y-196593328D02*
X213600884Y-196593328D01*
X214529455Y-195093328D02*
X214672312Y-195093328D01*
X214672312Y-195093328D02*
X214815169Y-195164757D01*
X214815169Y-195164757D02*
X214886598Y-195236185D01*
X214886598Y-195236185D02*
X214958026Y-195379042D01*
X214958026Y-195379042D02*
X215029455Y-195664757D01*
X215029455Y-195664757D02*
X215029455Y-196021900D01*
X215029455Y-196021900D02*
X214958026Y-196307614D01*
X214958026Y-196307614D02*
X214886598Y-196450471D01*
X214886598Y-196450471D02*
X214815169Y-196521900D01*
X214815169Y-196521900D02*
X214672312Y-196593328D01*
X214672312Y-196593328D02*
X214529455Y-196593328D01*
X214529455Y-196593328D02*
X214386598Y-196521900D01*
X214386598Y-196521900D02*
X214315169Y-196450471D01*
X214315169Y-196450471D02*
X214243740Y-196307614D01*
X214243740Y-196307614D02*
X214172312Y-196021900D01*
X214172312Y-196021900D02*
X214172312Y-195664757D01*
X214172312Y-195664757D02*
X214243740Y-195379042D01*
X214243740Y-195379042D02*
X214315169Y-195236185D01*
X214315169Y-195236185D02*
X214386598Y-195164757D01*
X214386598Y-195164757D02*
X214529455Y-195093328D01*
X215600883Y-195236185D02*
X215672311Y-195164757D01*
X215672311Y-195164757D02*
X215815169Y-195093328D01*
X215815169Y-195093328D02*
X216172311Y-195093328D01*
X216172311Y-195093328D02*
X216315169Y-195164757D01*
X216315169Y-195164757D02*
X216386597Y-195236185D01*
X216386597Y-195236185D02*
X216458026Y-195379042D01*
X216458026Y-195379042D02*
X216458026Y-195521900D01*
X216458026Y-195521900D02*
X216386597Y-195736185D01*
X216386597Y-195736185D02*
X215529454Y-196593328D01*
X215529454Y-196593328D02*
X216458026Y-196593328D01*
X216958025Y-195093328D02*
X217886597Y-195093328D01*
X217886597Y-195093328D02*
X217386597Y-195664757D01*
X217386597Y-195664757D02*
X217600882Y-195664757D01*
X217600882Y-195664757D02*
X217743740Y-195736185D01*
X217743740Y-195736185D02*
X217815168Y-195807614D01*
X217815168Y-195807614D02*
X217886597Y-195950471D01*
X217886597Y-195950471D02*
X217886597Y-196307614D01*
X217886597Y-196307614D02*
X217815168Y-196450471D01*
X217815168Y-196450471D02*
X217743740Y-196521900D01*
X217743740Y-196521900D02*
X217600882Y-196593328D01*
X217600882Y-196593328D02*
X217172311Y-196593328D01*
X217172311Y-196593328D02*
X217029454Y-196521900D01*
X217029454Y-196521900D02*
X216958025Y-196450471D01*
X218815168Y-195093328D02*
X218958025Y-195093328D01*
X218958025Y-195093328D02*
X219100882Y-195164757D01*
X219100882Y-195164757D02*
X219172311Y-195236185D01*
X219172311Y-195236185D02*
X219243739Y-195379042D01*
X219243739Y-195379042D02*
X219315168Y-195664757D01*
X219315168Y-195664757D02*
X219315168Y-196021900D01*
X219315168Y-196021900D02*
X219243739Y-196307614D01*
X219243739Y-196307614D02*
X219172311Y-196450471D01*
X219172311Y-196450471D02*
X219100882Y-196521900D01*
X219100882Y-196521900D02*
X218958025Y-196593328D01*
X218958025Y-196593328D02*
X218815168Y-196593328D01*
X218815168Y-196593328D02*
X218672311Y-196521900D01*
X218672311Y-196521900D02*
X218600882Y-196450471D01*
X218600882Y-196450471D02*
X218529453Y-196307614D01*
X218529453Y-196307614D02*
X218458025Y-196021900D01*
X218458025Y-196021900D02*
X218458025Y-195664757D01*
X218458025Y-195664757D02*
X218529453Y-195379042D01*
X218529453Y-195379042D02*
X218600882Y-195236185D01*
X218600882Y-195236185D02*
X218672311Y-195164757D01*
X218672311Y-195164757D02*
X218815168Y-195093328D01*
X220672310Y-195093328D02*
X219958024Y-195093328D01*
X219958024Y-195093328D02*
X219886596Y-195807614D01*
X219886596Y-195807614D02*
X219958024Y-195736185D01*
X219958024Y-195736185D02*
X220100882Y-195664757D01*
X220100882Y-195664757D02*
X220458024Y-195664757D01*
X220458024Y-195664757D02*
X220600882Y-195736185D01*
X220600882Y-195736185D02*
X220672310Y-195807614D01*
X220672310Y-195807614D02*
X220743739Y-195950471D01*
X220743739Y-195950471D02*
X220743739Y-196307614D01*
X220743739Y-196307614D02*
X220672310Y-196450471D01*
X220672310Y-196450471D02*
X220600882Y-196521900D01*
X220600882Y-196521900D02*
X220458024Y-196593328D01*
X220458024Y-196593328D02*
X220100882Y-196593328D01*
X220100882Y-196593328D02*
X219958024Y-196521900D01*
X219958024Y-196521900D02*
X219886596Y-196450471D01*
X222172310Y-196593328D02*
X221315167Y-196593328D01*
X221743738Y-196593328D02*
X221743738Y-195093328D01*
X221743738Y-195093328D02*
X221600881Y-195307614D01*
X221600881Y-195307614D02*
X221458024Y-195450471D01*
X221458024Y-195450471D02*
X221315167Y-195521900D01*
X223529452Y-195093328D02*
X222815166Y-195093328D01*
X222815166Y-195093328D02*
X222743738Y-195807614D01*
X222743738Y-195807614D02*
X222815166Y-195736185D01*
X222815166Y-195736185D02*
X222958024Y-195664757D01*
X222958024Y-195664757D02*
X223315166Y-195664757D01*
X223315166Y-195664757D02*
X223458024Y-195736185D01*
X223458024Y-195736185D02*
X223529452Y-195807614D01*
X223529452Y-195807614D02*
X223600881Y-195950471D01*
X223600881Y-195950471D02*
X223600881Y-196307614D01*
X223600881Y-196307614D02*
X223529452Y-196450471D01*
X223529452Y-196450471D02*
X223458024Y-196521900D01*
X223458024Y-196521900D02*
X223315166Y-196593328D01*
X223315166Y-196593328D02*
X222958024Y-196593328D01*
X222958024Y-196593328D02*
X222815166Y-196521900D01*
X222815166Y-196521900D02*
X222743738Y-196450471D01*
X224886595Y-195593328D02*
X224886595Y-196807614D01*
X224886595Y-196807614D02*
X224815166Y-196950471D01*
X224815166Y-196950471D02*
X224743737Y-197021900D01*
X224743737Y-197021900D02*
X224600880Y-197093328D01*
X224600880Y-197093328D02*
X224386595Y-197093328D01*
X224386595Y-197093328D02*
X224243737Y-197021900D01*
X224886595Y-196521900D02*
X224743737Y-196593328D01*
X224743737Y-196593328D02*
X224458023Y-196593328D01*
X224458023Y-196593328D02*
X224315166Y-196521900D01*
X224315166Y-196521900D02*
X224243737Y-196450471D01*
X224243737Y-196450471D02*
X224172309Y-196307614D01*
X224172309Y-196307614D02*
X224172309Y-195879042D01*
X224172309Y-195879042D02*
X224243737Y-195736185D01*
X224243737Y-195736185D02*
X224315166Y-195664757D01*
X224315166Y-195664757D02*
X224458023Y-195593328D01*
X224458023Y-195593328D02*
X224743737Y-195593328D01*
X224743737Y-195593328D02*
X224886595Y-195664757D01*
X225600880Y-196593328D02*
X225600880Y-195593328D01*
X225600880Y-195093328D02*
X225529452Y-195164757D01*
X225529452Y-195164757D02*
X225600880Y-195236185D01*
X225600880Y-195236185D02*
X225672309Y-195164757D01*
X225672309Y-195164757D02*
X225600880Y-195093328D01*
X225600880Y-195093328D02*
X225600880Y-195236185D01*
X226100881Y-195593328D02*
X226672309Y-195593328D01*
X226315166Y-195093328D02*
X226315166Y-196379042D01*
X226315166Y-196379042D02*
X226386595Y-196521900D01*
X226386595Y-196521900D02*
X226529452Y-196593328D01*
X226529452Y-196593328D02*
X226672309Y-196593328D01*
X227958024Y-196593328D02*
X227100881Y-196593328D01*
X227529452Y-196593328D02*
X227529452Y-195093328D01*
X227529452Y-195093328D02*
X227386595Y-195307614D01*
X227386595Y-195307614D02*
X227243738Y-195450471D01*
X227243738Y-195450471D02*
X227100881Y-195521900D01*
X229243738Y-196593328D02*
X229243738Y-195807614D01*
X229243738Y-195807614D02*
X229172309Y-195664757D01*
X229172309Y-195664757D02*
X229029452Y-195593328D01*
X229029452Y-195593328D02*
X228743738Y-195593328D01*
X228743738Y-195593328D02*
X228600880Y-195664757D01*
X229243738Y-196521900D02*
X229100880Y-196593328D01*
X229100880Y-196593328D02*
X228743738Y-196593328D01*
X228743738Y-196593328D02*
X228600880Y-196521900D01*
X228600880Y-196521900D02*
X228529452Y-196379042D01*
X228529452Y-196379042D02*
X228529452Y-196236185D01*
X228529452Y-196236185D02*
X228600880Y-196093328D01*
X228600880Y-196093328D02*
X228743738Y-196021900D01*
X228743738Y-196021900D02*
X229100880Y-196021900D01*
X229100880Y-196021900D02*
X229243738Y-195950471D01*
X230600881Y-196593328D02*
X230600881Y-195093328D01*
X230600881Y-196521900D02*
X230458023Y-196593328D01*
X230458023Y-196593328D02*
X230172309Y-196593328D01*
X230172309Y-196593328D02*
X230029452Y-196521900D01*
X230029452Y-196521900D02*
X229958023Y-196450471D01*
X229958023Y-196450471D02*
X229886595Y-196307614D01*
X229886595Y-196307614D02*
X229886595Y-195879042D01*
X229886595Y-195879042D02*
X229958023Y-195736185D01*
X229958023Y-195736185D02*
X230029452Y-195664757D01*
X230029452Y-195664757D02*
X230172309Y-195593328D01*
X230172309Y-195593328D02*
X230458023Y-195593328D01*
X230458023Y-195593328D02*
X230600881Y-195664757D01*
X231958024Y-196521900D02*
X231815166Y-196593328D01*
X231815166Y-196593328D02*
X231529452Y-196593328D01*
X231529452Y-196593328D02*
X231386595Y-196521900D01*
X231386595Y-196521900D02*
X231315166Y-196450471D01*
X231315166Y-196450471D02*
X231243738Y-196307614D01*
X231243738Y-196307614D02*
X231243738Y-195879042D01*
X231243738Y-195879042D02*
X231315166Y-195736185D01*
X231315166Y-195736185D02*
X231386595Y-195664757D01*
X231386595Y-195664757D02*
X231529452Y-195593328D01*
X231529452Y-195593328D02*
X231815166Y-195593328D01*
X231815166Y-195593328D02*
X231958024Y-195664757D01*
X232600880Y-196593328D02*
X232600880Y-195093328D01*
X232600880Y-195664757D02*
X232743738Y-195593328D01*
X232743738Y-195593328D02*
X233029452Y-195593328D01*
X233029452Y-195593328D02*
X233172309Y-195664757D01*
X233172309Y-195664757D02*
X233243738Y-195736185D01*
X233243738Y-195736185D02*
X233315166Y-195879042D01*
X233315166Y-195879042D02*
X233315166Y-196307614D01*
X233315166Y-196307614D02*
X233243738Y-196450471D01*
X233243738Y-196450471D02*
X233172309Y-196521900D01*
X233172309Y-196521900D02*
X233029452Y-196593328D01*
X233029452Y-196593328D02*
X232743738Y-196593328D01*
X232743738Y-196593328D02*
X232600880Y-196521900D01*
X234172309Y-195736185D02*
X234029452Y-195664757D01*
X234029452Y-195664757D02*
X233958023Y-195593328D01*
X233958023Y-195593328D02*
X233886595Y-195450471D01*
X233886595Y-195450471D02*
X233886595Y-195379042D01*
X233886595Y-195379042D02*
X233958023Y-195236185D01*
X233958023Y-195236185D02*
X234029452Y-195164757D01*
X234029452Y-195164757D02*
X234172309Y-195093328D01*
X234172309Y-195093328D02*
X234458023Y-195093328D01*
X234458023Y-195093328D02*
X234600881Y-195164757D01*
X234600881Y-195164757D02*
X234672309Y-195236185D01*
X234672309Y-195236185D02*
X234743738Y-195379042D01*
X234743738Y-195379042D02*
X234743738Y-195450471D01*
X234743738Y-195450471D02*
X234672309Y-195593328D01*
X234672309Y-195593328D02*
X234600881Y-195664757D01*
X234600881Y-195664757D02*
X234458023Y-195736185D01*
X234458023Y-195736185D02*
X234172309Y-195736185D01*
X234172309Y-195736185D02*
X234029452Y-195807614D01*
X234029452Y-195807614D02*
X233958023Y-195879042D01*
X233958023Y-195879042D02*
X233886595Y-196021900D01*
X233886595Y-196021900D02*
X233886595Y-196307614D01*
X233886595Y-196307614D02*
X233958023Y-196450471D01*
X233958023Y-196450471D02*
X234029452Y-196521900D01*
X234029452Y-196521900D02*
X234172309Y-196593328D01*
X234172309Y-196593328D02*
X234458023Y-196593328D01*
X234458023Y-196593328D02*
X234600881Y-196521900D01*
X234600881Y-196521900D02*
X234672309Y-196450471D01*
X234672309Y-196450471D02*
X234743738Y-196307614D01*
X234743738Y-196307614D02*
X234743738Y-196021900D01*
X234743738Y-196021900D02*
X234672309Y-195879042D01*
X234672309Y-195879042D02*
X234600881Y-195807614D01*
X234600881Y-195807614D02*
X234458023Y-195736185D01*
X236029452Y-195093328D02*
X235743737Y-195093328D01*
X235743737Y-195093328D02*
X235600880Y-195164757D01*
X235600880Y-195164757D02*
X235529452Y-195236185D01*
X235529452Y-195236185D02*
X235386594Y-195450471D01*
X235386594Y-195450471D02*
X235315166Y-195736185D01*
X235315166Y-195736185D02*
X235315166Y-196307614D01*
X235315166Y-196307614D02*
X235386594Y-196450471D01*
X235386594Y-196450471D02*
X235458023Y-196521900D01*
X235458023Y-196521900D02*
X235600880Y-196593328D01*
X235600880Y-196593328D02*
X235886594Y-196593328D01*
X235886594Y-196593328D02*
X236029452Y-196521900D01*
X236029452Y-196521900D02*
X236100880Y-196450471D01*
X236100880Y-196450471D02*
X236172309Y-196307614D01*
X236172309Y-196307614D02*
X236172309Y-195950471D01*
X236172309Y-195950471D02*
X236100880Y-195807614D01*
X236100880Y-195807614D02*
X236029452Y-195736185D01*
X236029452Y-195736185D02*
X235886594Y-195664757D01*
X235886594Y-195664757D02*
X235600880Y-195664757D01*
X235600880Y-195664757D02*
X235458023Y-195736185D01*
X235458023Y-195736185D02*
X235386594Y-195807614D01*
X235386594Y-195807614D02*
X235315166Y-195950471D01*
X236815165Y-196450471D02*
X236886594Y-196521900D01*
X236886594Y-196521900D02*
X236815165Y-196593328D01*
X236815165Y-196593328D02*
X236743737Y-196521900D01*
X236743737Y-196521900D02*
X236815165Y-196450471D01*
X236815165Y-196450471D02*
X236815165Y-196593328D01*
X237315166Y-195593328D02*
X237886594Y-195593328D01*
X237529451Y-196593328D02*
X237529451Y-195307614D01*
X237529451Y-195307614D02*
X237600880Y-195164757D01*
X237600880Y-195164757D02*
X237743737Y-195093328D01*
X237743737Y-195093328D02*
X237886594Y-195093328D01*
X239029452Y-196521900D02*
X238886594Y-196593328D01*
X238886594Y-196593328D02*
X238600880Y-196593328D01*
X238600880Y-196593328D02*
X238458023Y-196521900D01*
X238458023Y-196521900D02*
X238386594Y-196450471D01*
X238386594Y-196450471D02*
X238315166Y-196307614D01*
X238315166Y-196307614D02*
X238315166Y-195879042D01*
X238315166Y-195879042D02*
X238386594Y-195736185D01*
X238386594Y-195736185D02*
X238458023Y-195664757D01*
X238458023Y-195664757D02*
X238600880Y-195593328D01*
X238600880Y-195593328D02*
X238886594Y-195593328D01*
X238886594Y-195593328D02*
X239029452Y-195664757D01*
X239529451Y-195093328D02*
X240458023Y-195093328D01*
X240458023Y-195093328D02*
X239958023Y-195664757D01*
X239958023Y-195664757D02*
X240172308Y-195664757D01*
X240172308Y-195664757D02*
X240315166Y-195736185D01*
X240315166Y-195736185D02*
X240386594Y-195807614D01*
X240386594Y-195807614D02*
X240458023Y-195950471D01*
X240458023Y-195950471D02*
X240458023Y-196307614D01*
X240458023Y-196307614D02*
X240386594Y-196450471D01*
X240386594Y-196450471D02*
X240315166Y-196521900D01*
X240315166Y-196521900D02*
X240172308Y-196593328D01*
X240172308Y-196593328D02*
X239743737Y-196593328D01*
X239743737Y-196593328D02*
X239600880Y-196521900D01*
X239600880Y-196521900D02*
X239529451Y-196450471D01*
X240958022Y-195093328D02*
X241958022Y-195093328D01*
X241958022Y-195093328D02*
X241315165Y-196593328D01*
D10*
D11*
X177002200Y-191507200D02*
X285002200Y-191507200D01*
D10*
D12*
X264413853Y-193785528D02*
X263913853Y-193071242D01*
X263556710Y-193785528D02*
X263556710Y-192285528D01*
X263556710Y-192285528D02*
X264128139Y-192285528D01*
X264128139Y-192285528D02*
X264270996Y-192356957D01*
X264270996Y-192356957D02*
X264342425Y-192428385D01*
X264342425Y-192428385D02*
X264413853Y-192571242D01*
X264413853Y-192571242D02*
X264413853Y-192785528D01*
X264413853Y-192785528D02*
X264342425Y-192928385D01*
X264342425Y-192928385D02*
X264270996Y-192999814D01*
X264270996Y-192999814D02*
X264128139Y-193071242D01*
X264128139Y-193071242D02*
X263556710Y-193071242D01*
X265628139Y-193714100D02*
X265485282Y-193785528D01*
X265485282Y-193785528D02*
X265199568Y-193785528D01*
X265199568Y-193785528D02*
X265056710Y-193714100D01*
X265056710Y-193714100D02*
X264985282Y-193571242D01*
X264985282Y-193571242D02*
X264985282Y-192999814D01*
X264985282Y-192999814D02*
X265056710Y-192856957D01*
X265056710Y-192856957D02*
X265199568Y-192785528D01*
X265199568Y-192785528D02*
X265485282Y-192785528D01*
X265485282Y-192785528D02*
X265628139Y-192856957D01*
X265628139Y-192856957D02*
X265699568Y-192999814D01*
X265699568Y-192999814D02*
X265699568Y-193142671D01*
X265699568Y-193142671D02*
X264985282Y-193285528D01*
X266199567Y-192785528D02*
X266556710Y-193785528D01*
X266556710Y-193785528D02*
X266913853Y-192785528D01*
X267485281Y-193642671D02*
X267556710Y-193714100D01*
X267556710Y-193714100D02*
X267485281Y-193785528D01*
X267485281Y-193785528D02*
X267413853Y-193714100D01*
X267413853Y-193714100D02*
X267485281Y-193642671D01*
X267485281Y-193642671D02*
X267485281Y-193785528D01*
X267485281Y-192856957D02*
X267556710Y-192928385D01*
X267556710Y-192928385D02*
X267485281Y-192999814D01*
X267485281Y-192999814D02*
X267413853Y-192928385D01*
X267413853Y-192928385D02*
X267485281Y-192856957D01*
X267485281Y-192856957D02*
X267485281Y-192999814D01*
X269342424Y-193785528D02*
X269342424Y-192785528D01*
X269342424Y-193071242D02*
X269413853Y-192928385D01*
X269413853Y-192928385D02*
X269485282Y-192856957D01*
X269485282Y-192856957D02*
X269628139Y-192785528D01*
X269628139Y-192785528D02*
X269770996Y-192785528D01*
X271056710Y-193785528D02*
X270199567Y-193785528D01*
X270628138Y-193785528D02*
X270628138Y-192285528D01*
X270628138Y-192285528D02*
X270485281Y-192499814D01*
X270485281Y-192499814D02*
X270342424Y-192642671D01*
X270342424Y-192642671D02*
X270199567Y-192714100D01*
D10*
D11*
X178386598Y-193721900D02*
X178600884Y-193793328D01*
X178600884Y-193793328D02*
X178958026Y-193793328D01*
X178958026Y-193793328D02*
X179100884Y-193721900D01*
X179100884Y-193721900D02*
X179172312Y-193650471D01*
X179172312Y-193650471D02*
X179243741Y-193507614D01*
X179243741Y-193507614D02*
X179243741Y-193364757D01*
X179243741Y-193364757D02*
X179172312Y-193221900D01*
X179172312Y-193221900D02*
X179100884Y-193150471D01*
X179100884Y-193150471D02*
X178958026Y-193079042D01*
X178958026Y-193079042D02*
X178672312Y-193007614D01*
X178672312Y-193007614D02*
X178529455Y-192936185D01*
X178529455Y-192936185D02*
X178458026Y-192864757D01*
X178458026Y-192864757D02*
X178386598Y-192721900D01*
X178386598Y-192721900D02*
X178386598Y-192579042D01*
X178386598Y-192579042D02*
X178458026Y-192436185D01*
X178458026Y-192436185D02*
X178529455Y-192364757D01*
X178529455Y-192364757D02*
X178672312Y-192293328D01*
X178672312Y-192293328D02*
X179029455Y-192293328D01*
X179029455Y-192293328D02*
X179243741Y-192364757D01*
X179886597Y-193793328D02*
X179886597Y-192793328D01*
X179886597Y-192293328D02*
X179815169Y-192364757D01*
X179815169Y-192364757D02*
X179886597Y-192436185D01*
X179886597Y-192436185D02*
X179958026Y-192364757D01*
X179958026Y-192364757D02*
X179886597Y-192293328D01*
X179886597Y-192293328D02*
X179886597Y-192436185D01*
X180458026Y-192793328D02*
X181243741Y-192793328D01*
X181243741Y-192793328D02*
X180458026Y-193793328D01*
X180458026Y-193793328D02*
X181243741Y-193793328D01*
X182386598Y-193721900D02*
X182243741Y-193793328D01*
X182243741Y-193793328D02*
X181958027Y-193793328D01*
X181958027Y-193793328D02*
X181815169Y-193721900D01*
X181815169Y-193721900D02*
X181743741Y-193579042D01*
X181743741Y-193579042D02*
X181743741Y-193007614D01*
X181743741Y-193007614D02*
X181815169Y-192864757D01*
X181815169Y-192864757D02*
X181958027Y-192793328D01*
X181958027Y-192793328D02*
X182243741Y-192793328D01*
X182243741Y-192793328D02*
X182386598Y-192864757D01*
X182386598Y-192864757D02*
X182458027Y-193007614D01*
X182458027Y-193007614D02*
X182458027Y-193150471D01*
X182458027Y-193150471D02*
X181743741Y-193293328D01*
X183100883Y-193650471D02*
X183172312Y-193721900D01*
X183172312Y-193721900D02*
X183100883Y-193793328D01*
X183100883Y-193793328D02*
X183029455Y-193721900D01*
X183029455Y-193721900D02*
X183100883Y-193650471D01*
X183100883Y-193650471D02*
X183100883Y-193793328D01*
X183100883Y-192864757D02*
X183172312Y-192936185D01*
X183172312Y-192936185D02*
X183100883Y-193007614D01*
X183100883Y-193007614D02*
X183029455Y-192936185D01*
X183029455Y-192936185D02*
X183100883Y-192864757D01*
X183100883Y-192864757D02*
X183100883Y-193007614D01*
X184886598Y-193364757D02*
X185600884Y-193364757D01*
X184743741Y-193793328D02*
X185243741Y-192293328D01*
X185243741Y-192293328D02*
X185743741Y-193793328D01*
X186886598Y-192793328D02*
X186886598Y-193793328D01*
X186529455Y-192221900D02*
X186172312Y-193293328D01*
X186172312Y-193293328D02*
X187100883Y-193293328D01*
D10*
D11*
X263458026Y-196593328D02*
X263458026Y-195093328D01*
X264815170Y-196593328D02*
X264815170Y-195093328D01*
X264815170Y-196521900D02*
X264672312Y-196593328D01*
X264672312Y-196593328D02*
X264386598Y-196593328D01*
X264386598Y-196593328D02*
X264243741Y-196521900D01*
X264243741Y-196521900D02*
X264172312Y-196450471D01*
X264172312Y-196450471D02*
X264100884Y-196307614D01*
X264100884Y-196307614D02*
X264100884Y-195879042D01*
X264100884Y-195879042D02*
X264172312Y-195736185D01*
X264172312Y-195736185D02*
X264243741Y-195664757D01*
X264243741Y-195664757D02*
X264386598Y-195593328D01*
X264386598Y-195593328D02*
X264672312Y-195593328D01*
X264672312Y-195593328D02*
X264815170Y-195664757D01*
X265529455Y-196450471D02*
X265600884Y-196521900D01*
X265600884Y-196521900D02*
X265529455Y-196593328D01*
X265529455Y-196593328D02*
X265458027Y-196521900D01*
X265458027Y-196521900D02*
X265529455Y-196450471D01*
X265529455Y-196450471D02*
X265529455Y-196593328D01*
X265529455Y-195664757D02*
X265600884Y-195736185D01*
X265600884Y-195736185D02*
X265529455Y-195807614D01*
X265529455Y-195807614D02*
X265458027Y-195736185D01*
X265458027Y-195736185D02*
X265529455Y-195664757D01*
X265529455Y-195664757D02*
X265529455Y-195807614D01*
X268172313Y-196593328D02*
X267315170Y-196593328D01*
X267743741Y-196593328D02*
X267743741Y-195093328D01*
X267743741Y-195093328D02*
X267600884Y-195307614D01*
X267600884Y-195307614D02*
X267458027Y-195450471D01*
X267458027Y-195450471D02*
X267315170Y-195521900D01*
X269886598Y-195021900D02*
X268600884Y-196950471D01*
X271172313Y-196593328D02*
X270315170Y-196593328D01*
X270743741Y-196593328D02*
X270743741Y-195093328D01*
X270743741Y-195093328D02*
X270600884Y-195307614D01*
X270600884Y-195307614D02*
X270458027Y-195450471D01*
X270458027Y-195450471D02*
X270315170Y-195521900D01*
D10*
D11*
X177002200Y-187507200D02*
X285002200Y-187507200D01*
D10*
D13*
X178693928Y-188211638D02*
X179836785Y-188211638D01*
X179015357Y-190211638D02*
X179265357Y-188211638D01*
X180253452Y-190211638D02*
X180420119Y-188878304D01*
X180503452Y-188211638D02*
X180396309Y-188306876D01*
X180396309Y-188306876D02*
X180479643Y-188402114D01*
X180479643Y-188402114D02*
X180586786Y-188306876D01*
X180586786Y-188306876D02*
X180503452Y-188211638D01*
X180503452Y-188211638D02*
X180479643Y-188402114D01*
X181086786Y-188878304D02*
X181848690Y-188878304D01*
X181455833Y-188211638D02*
X181241548Y-189925923D01*
X181241548Y-189925923D02*
X181312976Y-190116400D01*
X181312976Y-190116400D02*
X181491548Y-190211638D01*
X181491548Y-190211638D02*
X181682024Y-190211638D01*
X182634405Y-190211638D02*
X182455833Y-190116400D01*
X182455833Y-190116400D02*
X182384405Y-189925923D01*
X182384405Y-189925923D02*
X182598690Y-188211638D01*
X184170119Y-190116400D02*
X183967738Y-190211638D01*
X183967738Y-190211638D02*
X183586785Y-190211638D01*
X183586785Y-190211638D02*
X183408214Y-190116400D01*
X183408214Y-190116400D02*
X183336785Y-189925923D01*
X183336785Y-189925923D02*
X183432024Y-189164019D01*
X183432024Y-189164019D02*
X183551071Y-188973542D01*
X183551071Y-188973542D02*
X183753452Y-188878304D01*
X183753452Y-188878304D02*
X184134404Y-188878304D01*
X184134404Y-188878304D02*
X184312976Y-188973542D01*
X184312976Y-188973542D02*
X184384404Y-189164019D01*
X184384404Y-189164019D02*
X184360595Y-189354495D01*
X184360595Y-189354495D02*
X183384404Y-189544971D01*
X185134405Y-190021161D02*
X185217738Y-190116400D01*
X185217738Y-190116400D02*
X185110595Y-190211638D01*
X185110595Y-190211638D02*
X185027262Y-190116400D01*
X185027262Y-190116400D02*
X185134405Y-190021161D01*
X185134405Y-190021161D02*
X185110595Y-190211638D01*
X185265357Y-188973542D02*
X185348690Y-189068780D01*
X185348690Y-189068780D02*
X185241548Y-189164019D01*
X185241548Y-189164019D02*
X185158214Y-189068780D01*
X185158214Y-189068780D02*
X185265357Y-188973542D01*
X185265357Y-188973542D02*
X185241548Y-189164019D01*
X187551072Y-188211638D02*
X188693929Y-188211638D01*
X187872501Y-190211638D02*
X188122501Y-188211638D01*
X189110596Y-190211638D02*
X189277263Y-188878304D01*
X189229644Y-189259257D02*
X189348691Y-189068780D01*
X189348691Y-189068780D02*
X189455834Y-188973542D01*
X189455834Y-188973542D02*
X189658215Y-188878304D01*
X189658215Y-188878304D02*
X189848691Y-188878304D01*
X190634406Y-190211638D02*
X190455834Y-190116400D01*
X190455834Y-190116400D02*
X190372501Y-190021161D01*
X190372501Y-190021161D02*
X190301072Y-189830685D01*
X190301072Y-189830685D02*
X190372501Y-189259257D01*
X190372501Y-189259257D02*
X190491548Y-189068780D01*
X190491548Y-189068780D02*
X190598691Y-188973542D01*
X190598691Y-188973542D02*
X190801072Y-188878304D01*
X190801072Y-188878304D02*
X191086786Y-188878304D01*
X191086786Y-188878304D02*
X191265358Y-188973542D01*
X191265358Y-188973542D02*
X191348691Y-189068780D01*
X191348691Y-189068780D02*
X191420120Y-189259257D01*
X191420120Y-189259257D02*
X191348691Y-189830685D01*
X191348691Y-189830685D02*
X191229644Y-190021161D01*
X191229644Y-190021161D02*
X191122501Y-190116400D01*
X191122501Y-190116400D02*
X190920120Y-190211638D01*
X190920120Y-190211638D02*
X190634406Y-190211638D01*
X192443930Y-190211638D02*
X192265358Y-190116400D01*
X192265358Y-190116400D02*
X192182025Y-190021161D01*
X192182025Y-190021161D02*
X192110596Y-189830685D01*
X192110596Y-189830685D02*
X192182025Y-189259257D01*
X192182025Y-189259257D02*
X192301072Y-189068780D01*
X192301072Y-189068780D02*
X192408215Y-188973542D01*
X192408215Y-188973542D02*
X192610596Y-188878304D01*
X192610596Y-188878304D02*
X192896310Y-188878304D01*
X192896310Y-188878304D02*
X193074882Y-188973542D01*
X193074882Y-188973542D02*
X193158215Y-189068780D01*
X193158215Y-189068780D02*
X193229644Y-189259257D01*
X193229644Y-189259257D02*
X193158215Y-189830685D01*
X193158215Y-189830685D02*
X193039168Y-190021161D01*
X193039168Y-190021161D02*
X192932025Y-190116400D01*
X192932025Y-190116400D02*
X192729644Y-190211638D01*
X192729644Y-190211638D02*
X192443930Y-190211638D01*
X194134406Y-188878304D02*
X193884406Y-190878304D01*
X194122501Y-188973542D02*
X194324882Y-188878304D01*
X194324882Y-188878304D02*
X194705834Y-188878304D01*
X194705834Y-188878304D02*
X194884406Y-188973542D01*
X194884406Y-188973542D02*
X194967739Y-189068780D01*
X194967739Y-189068780D02*
X195039168Y-189259257D01*
X195039168Y-189259257D02*
X194967739Y-189830685D01*
X194967739Y-189830685D02*
X194848692Y-190021161D01*
X194848692Y-190021161D02*
X194741549Y-190116400D01*
X194741549Y-190116400D02*
X194539168Y-190211638D01*
X194539168Y-190211638D02*
X194158215Y-190211638D01*
X194158215Y-190211638D02*
X193979644Y-190116400D01*
X196551073Y-190116400D02*
X196348692Y-190211638D01*
X196348692Y-190211638D02*
X195967739Y-190211638D01*
X195967739Y-190211638D02*
X195789168Y-190116400D01*
X195789168Y-190116400D02*
X195717739Y-189925923D01*
X195717739Y-189925923D02*
X195812978Y-189164019D01*
X195812978Y-189164019D02*
X195932025Y-188973542D01*
X195932025Y-188973542D02*
X196134406Y-188878304D01*
X196134406Y-188878304D02*
X196515358Y-188878304D01*
X196515358Y-188878304D02*
X196693930Y-188973542D01*
X196693930Y-188973542D02*
X196765358Y-189164019D01*
X196765358Y-189164019D02*
X196741549Y-189354495D01*
X196741549Y-189354495D02*
X195765358Y-189544971D01*
X197491549Y-190211638D02*
X197658216Y-188878304D01*
X197610597Y-189259257D02*
X197729644Y-189068780D01*
X197729644Y-189068780D02*
X197836787Y-188973542D01*
X197836787Y-188973542D02*
X198039168Y-188878304D01*
X198039168Y-188878304D02*
X198229644Y-188878304D01*
X198646311Y-190116400D02*
X198824882Y-190211638D01*
X198824882Y-190211638D02*
X199205835Y-190211638D01*
X199205835Y-190211638D02*
X199408216Y-190116400D01*
X199408216Y-190116400D02*
X199527263Y-189925923D01*
X199527263Y-189925923D02*
X199539168Y-189830685D01*
X199539168Y-189830685D02*
X199467739Y-189640209D01*
X199467739Y-189640209D02*
X199289168Y-189544971D01*
X199289168Y-189544971D02*
X199003454Y-189544971D01*
X199003454Y-189544971D02*
X198824882Y-189449733D01*
X198824882Y-189449733D02*
X198753454Y-189259257D01*
X198753454Y-189259257D02*
X198765359Y-189164019D01*
X198765359Y-189164019D02*
X198884406Y-188973542D01*
X198884406Y-188973542D02*
X199086787Y-188878304D01*
X199086787Y-188878304D02*
X199372501Y-188878304D01*
X199372501Y-188878304D02*
X199551073Y-188973542D01*
X202003455Y-188402114D02*
X202110597Y-188306876D01*
X202110597Y-188306876D02*
X202312978Y-188211638D01*
X202312978Y-188211638D02*
X202789169Y-188211638D01*
X202789169Y-188211638D02*
X202967740Y-188306876D01*
X202967740Y-188306876D02*
X203051074Y-188402114D01*
X203051074Y-188402114D02*
X203122502Y-188592590D01*
X203122502Y-188592590D02*
X203098693Y-188783066D01*
X203098693Y-188783066D02*
X202967740Y-189068780D01*
X202967740Y-189068780D02*
X201682026Y-190211638D01*
X201682026Y-190211638D02*
X202920121Y-190211638D01*
X203836788Y-188211638D02*
X205074883Y-188211638D01*
X205074883Y-188211638D02*
X204312979Y-188973542D01*
X204312979Y-188973542D02*
X204598693Y-188973542D01*
X204598693Y-188973542D02*
X204777264Y-189068780D01*
X204777264Y-189068780D02*
X204860598Y-189164019D01*
X204860598Y-189164019D02*
X204932026Y-189354495D01*
X204932026Y-189354495D02*
X204872502Y-189830685D01*
X204872502Y-189830685D02*
X204753455Y-190021161D01*
X204753455Y-190021161D02*
X204646312Y-190116400D01*
X204646312Y-190116400D02*
X204443931Y-190211638D01*
X204443931Y-190211638D02*
X203872502Y-190211638D01*
X203872502Y-190211638D02*
X203693931Y-190116400D01*
X203693931Y-190116400D02*
X203610598Y-190021161D01*
X207122503Y-190116400D02*
X207396312Y-190211638D01*
X207396312Y-190211638D02*
X207872503Y-190211638D01*
X207872503Y-190211638D02*
X208074884Y-190116400D01*
X208074884Y-190116400D02*
X208182027Y-190021161D01*
X208182027Y-190021161D02*
X208301074Y-189830685D01*
X208301074Y-189830685D02*
X208324884Y-189640209D01*
X208324884Y-189640209D02*
X208253455Y-189449733D01*
X208253455Y-189449733D02*
X208170122Y-189354495D01*
X208170122Y-189354495D02*
X207991551Y-189259257D01*
X207991551Y-189259257D02*
X207622503Y-189164019D01*
X207622503Y-189164019D02*
X207443931Y-189068780D01*
X207443931Y-189068780D02*
X207360598Y-188973542D01*
X207360598Y-188973542D02*
X207289170Y-188783066D01*
X207289170Y-188783066D02*
X207312979Y-188592590D01*
X207312979Y-188592590D02*
X207432027Y-188402114D01*
X207432027Y-188402114D02*
X207539170Y-188306876D01*
X207539170Y-188306876D02*
X207741551Y-188211638D01*
X207741551Y-188211638D02*
X208217741Y-188211638D01*
X208217741Y-188211638D02*
X208491551Y-188306876D01*
X209110598Y-190211638D02*
X209360598Y-188211638D01*
X209967741Y-190211638D02*
X210098693Y-189164019D01*
X210098693Y-189164019D02*
X210027265Y-188973542D01*
X210027265Y-188973542D02*
X209848693Y-188878304D01*
X209848693Y-188878304D02*
X209562979Y-188878304D01*
X209562979Y-188878304D02*
X209360598Y-188973542D01*
X209360598Y-188973542D02*
X209253455Y-189068780D01*
X210920122Y-190211638D02*
X211086789Y-188878304D01*
X211170122Y-188211638D02*
X211062979Y-188306876D01*
X211062979Y-188306876D02*
X211146313Y-188402114D01*
X211146313Y-188402114D02*
X211253456Y-188306876D01*
X211253456Y-188306876D02*
X211170122Y-188211638D01*
X211170122Y-188211638D02*
X211146313Y-188402114D01*
X211753456Y-188878304D02*
X212515360Y-188878304D01*
X212122503Y-188211638D02*
X211908218Y-189925923D01*
X211908218Y-189925923D02*
X211979646Y-190116400D01*
X211979646Y-190116400D02*
X212158218Y-190211638D01*
X212158218Y-190211638D02*
X212348694Y-190211638D01*
X212896313Y-188878304D02*
X213658217Y-188878304D01*
X213265360Y-188211638D02*
X213051075Y-189925923D01*
X213051075Y-189925923D02*
X213122503Y-190116400D01*
X213122503Y-190116400D02*
X213301075Y-190211638D01*
X213301075Y-190211638D02*
X213491551Y-190211638D01*
X214134408Y-188878304D02*
X214443932Y-190211638D01*
X215086789Y-188878304D02*
X214443932Y-190211638D01*
X214443932Y-190211638D02*
X214193932Y-190687828D01*
X214193932Y-190687828D02*
X214086789Y-190783066D01*
X214086789Y-190783066D02*
X213884408Y-190878304D01*
X217182028Y-189640209D02*
X218134409Y-189640209D01*
X216920123Y-190211638D02*
X217836790Y-188211638D01*
X217836790Y-188211638D02*
X218253456Y-190211638D01*
X219777266Y-190211638D02*
X220027266Y-188211638D01*
X219789171Y-190116400D02*
X219586790Y-190211638D01*
X219586790Y-190211638D02*
X219205838Y-190211638D01*
X219205838Y-190211638D02*
X219027266Y-190116400D01*
X219027266Y-190116400D02*
X218943933Y-190021161D01*
X218943933Y-190021161D02*
X218872504Y-189830685D01*
X218872504Y-189830685D02*
X218943933Y-189259257D01*
X218943933Y-189259257D02*
X219062980Y-189068780D01*
X219062980Y-189068780D02*
X219170123Y-188973542D01*
X219170123Y-188973542D02*
X219372504Y-188878304D01*
X219372504Y-188878304D02*
X219753457Y-188878304D01*
X219753457Y-188878304D02*
X219932028Y-188973542D01*
X221586790Y-190211638D02*
X221836790Y-188211638D01*
X221598695Y-190116400D02*
X221396314Y-190211638D01*
X221396314Y-190211638D02*
X221015362Y-190211638D01*
X221015362Y-190211638D02*
X220836790Y-190116400D01*
X220836790Y-190116400D02*
X220753457Y-190021161D01*
X220753457Y-190021161D02*
X220682028Y-189830685D01*
X220682028Y-189830685D02*
X220753457Y-189259257D01*
X220753457Y-189259257D02*
X220872504Y-189068780D01*
X220872504Y-189068780D02*
X220979647Y-188973542D01*
X220979647Y-188973542D02*
X221182028Y-188878304D01*
X221182028Y-188878304D02*
X221562981Y-188878304D01*
X221562981Y-188878304D02*
X221741552Y-188973542D01*
X222634409Y-189449733D02*
X224158219Y-189449733D01*
X225646314Y-188211638D02*
X226027266Y-188211638D01*
X226027266Y-188211638D02*
X226205837Y-188306876D01*
X226205837Y-188306876D02*
X226372504Y-188497352D01*
X226372504Y-188497352D02*
X226420123Y-188878304D01*
X226420123Y-188878304D02*
X226336790Y-189544971D01*
X226336790Y-189544971D02*
X226193933Y-189925923D01*
X226193933Y-189925923D02*
X225979647Y-190116400D01*
X225979647Y-190116400D02*
X225777266Y-190211638D01*
X225777266Y-190211638D02*
X225396314Y-190211638D01*
X225396314Y-190211638D02*
X225217742Y-190116400D01*
X225217742Y-190116400D02*
X225051076Y-189925923D01*
X225051076Y-189925923D02*
X225003456Y-189544971D01*
X225003456Y-189544971D02*
X225086790Y-188878304D01*
X225086790Y-188878304D02*
X225229647Y-188497352D01*
X225229647Y-188497352D02*
X225443933Y-188306876D01*
X225443933Y-188306876D02*
X225646314Y-188211638D01*
X227277266Y-188878304D02*
X227110599Y-190211638D01*
X227253456Y-189068780D02*
X227360599Y-188973542D01*
X227360599Y-188973542D02*
X227562980Y-188878304D01*
X227562980Y-188878304D02*
X227848694Y-188878304D01*
X227848694Y-188878304D02*
X228027266Y-188973542D01*
X228027266Y-188973542D02*
X228098694Y-189164019D01*
X228098694Y-189164019D02*
X227967742Y-190211638D01*
D10*
D11*
X178958026Y-185607614D02*
X178458026Y-185607614D01*
X178458026Y-186393328D02*
X178458026Y-184893328D01*
X178458026Y-184893328D02*
X179172312Y-184893328D01*
X179743740Y-186393328D02*
X179743740Y-185393328D01*
X179743740Y-184893328D02*
X179672312Y-184964757D01*
X179672312Y-184964757D02*
X179743740Y-185036185D01*
X179743740Y-185036185D02*
X179815169Y-184964757D01*
X179815169Y-184964757D02*
X179743740Y-184893328D01*
X179743740Y-184893328D02*
X179743740Y-185036185D01*
X180672312Y-186393328D02*
X180529455Y-186321900D01*
X180529455Y-186321900D02*
X180458026Y-186179042D01*
X180458026Y-186179042D02*
X180458026Y-184893328D01*
X181815169Y-186321900D02*
X181672312Y-186393328D01*
X181672312Y-186393328D02*
X181386598Y-186393328D01*
X181386598Y-186393328D02*
X181243740Y-186321900D01*
X181243740Y-186321900D02*
X181172312Y-186179042D01*
X181172312Y-186179042D02*
X181172312Y-185607614D01*
X181172312Y-185607614D02*
X181243740Y-185464757D01*
X181243740Y-185464757D02*
X181386598Y-185393328D01*
X181386598Y-185393328D02*
X181672312Y-185393328D01*
X181672312Y-185393328D02*
X181815169Y-185464757D01*
X181815169Y-185464757D02*
X181886598Y-185607614D01*
X181886598Y-185607614D02*
X181886598Y-185750471D01*
X181886598Y-185750471D02*
X181172312Y-185893328D01*
X182529454Y-186250471D02*
X182600883Y-186321900D01*
X182600883Y-186321900D02*
X182529454Y-186393328D01*
X182529454Y-186393328D02*
X182458026Y-186321900D01*
X182458026Y-186321900D02*
X182529454Y-186250471D01*
X182529454Y-186250471D02*
X182529454Y-186393328D01*
X182529454Y-185464757D02*
X182600883Y-185536185D01*
X182600883Y-185536185D02*
X182529454Y-185607614D01*
X182529454Y-185607614D02*
X182458026Y-185536185D01*
X182458026Y-185536185D02*
X182529454Y-185464757D01*
X182529454Y-185464757D02*
X182529454Y-185607614D01*
X184172312Y-185393328D02*
X184743740Y-185393328D01*
X184386597Y-184893328D02*
X184386597Y-186179042D01*
X184386597Y-186179042D02*
X184458026Y-186321900D01*
X184458026Y-186321900D02*
X184600883Y-186393328D01*
X184600883Y-186393328D02*
X184743740Y-186393328D01*
X185243740Y-186393328D02*
X185243740Y-185393328D01*
X185243740Y-185679042D02*
X185315169Y-185536185D01*
X185315169Y-185536185D02*
X185386598Y-185464757D01*
X185386598Y-185464757D02*
X185529455Y-185393328D01*
X185529455Y-185393328D02*
X185672312Y-185393328D01*
X186100883Y-185036185D02*
X186172311Y-184964757D01*
X186172311Y-184964757D02*
X186315169Y-184893328D01*
X186315169Y-184893328D02*
X186672311Y-184893328D01*
X186672311Y-184893328D02*
X186815169Y-184964757D01*
X186815169Y-184964757D02*
X186886597Y-185036185D01*
X186886597Y-185036185D02*
X186958026Y-185179042D01*
X186958026Y-185179042D02*
X186958026Y-185321900D01*
X186958026Y-185321900D02*
X186886597Y-185536185D01*
X186886597Y-185536185D02*
X186029454Y-186393328D01*
X186029454Y-186393328D02*
X186958026Y-186393328D01*
X187458025Y-184893328D02*
X188386597Y-184893328D01*
X188386597Y-184893328D02*
X187886597Y-185464757D01*
X187886597Y-185464757D02*
X188100882Y-185464757D01*
X188100882Y-185464757D02*
X188243740Y-185536185D01*
X188243740Y-185536185D02*
X188315168Y-185607614D01*
X188315168Y-185607614D02*
X188386597Y-185750471D01*
X188386597Y-185750471D02*
X188386597Y-186107614D01*
X188386597Y-186107614D02*
X188315168Y-186250471D01*
X188315168Y-186250471D02*
X188243740Y-186321900D01*
X188243740Y-186321900D02*
X188100882Y-186393328D01*
X188100882Y-186393328D02*
X187672311Y-186393328D01*
X187672311Y-186393328D02*
X187529454Y-186321900D01*
X187529454Y-186321900D02*
X187458025Y-186250471D01*
X189029453Y-185821900D02*
X190172311Y-185821900D01*
X190815168Y-186321900D02*
X190958025Y-186393328D01*
X190958025Y-186393328D02*
X191243739Y-186393328D01*
X191243739Y-186393328D02*
X191386596Y-186321900D01*
X191386596Y-186321900D02*
X191458025Y-186179042D01*
X191458025Y-186179042D02*
X191458025Y-186107614D01*
X191458025Y-186107614D02*
X191386596Y-185964757D01*
X191386596Y-185964757D02*
X191243739Y-185893328D01*
X191243739Y-185893328D02*
X191029454Y-185893328D01*
X191029454Y-185893328D02*
X190886596Y-185821900D01*
X190886596Y-185821900D02*
X190815168Y-185679042D01*
X190815168Y-185679042D02*
X190815168Y-185607614D01*
X190815168Y-185607614D02*
X190886596Y-185464757D01*
X190886596Y-185464757D02*
X191029454Y-185393328D01*
X191029454Y-185393328D02*
X191243739Y-185393328D01*
X191243739Y-185393328D02*
X191386596Y-185464757D01*
X192743740Y-186393328D02*
X192743740Y-185607614D01*
X192743740Y-185607614D02*
X192672311Y-185464757D01*
X192672311Y-185464757D02*
X192529454Y-185393328D01*
X192529454Y-185393328D02*
X192243740Y-185393328D01*
X192243740Y-185393328D02*
X192100882Y-185464757D01*
X192743740Y-186321900D02*
X192600882Y-186393328D01*
X192600882Y-186393328D02*
X192243740Y-186393328D01*
X192243740Y-186393328D02*
X192100882Y-186321900D01*
X192100882Y-186321900D02*
X192029454Y-186179042D01*
X192029454Y-186179042D02*
X192029454Y-186036185D01*
X192029454Y-186036185D02*
X192100882Y-185893328D01*
X192100882Y-185893328D02*
X192243740Y-185821900D01*
X192243740Y-185821900D02*
X192600882Y-185821900D01*
X192600882Y-185821900D02*
X192743740Y-185750471D01*
X193672311Y-186393328D02*
X193529454Y-186321900D01*
X193529454Y-186321900D02*
X193458025Y-186250471D01*
X193458025Y-186250471D02*
X193386597Y-186107614D01*
X193386597Y-186107614D02*
X193386597Y-185679042D01*
X193386597Y-185679042D02*
X193458025Y-185536185D01*
X193458025Y-185536185D02*
X193529454Y-185464757D01*
X193529454Y-185464757D02*
X193672311Y-185393328D01*
X193672311Y-185393328D02*
X193886597Y-185393328D01*
X193886597Y-185393328D02*
X194029454Y-185464757D01*
X194029454Y-185464757D02*
X194100883Y-185536185D01*
X194100883Y-185536185D02*
X194172311Y-185679042D01*
X194172311Y-185679042D02*
X194172311Y-186107614D01*
X194172311Y-186107614D02*
X194100883Y-186250471D01*
X194100883Y-186250471D02*
X194029454Y-186321900D01*
X194029454Y-186321900D02*
X193886597Y-186393328D01*
X193886597Y-186393328D02*
X193672311Y-186393328D01*
X194815168Y-185821900D02*
X195958026Y-185821900D01*
X196672311Y-186393328D02*
X196672311Y-185393328D01*
X196672311Y-185679042D02*
X196743740Y-185536185D01*
X196743740Y-185536185D02*
X196815169Y-185464757D01*
X196815169Y-185464757D02*
X196958026Y-185393328D01*
X196958026Y-185393328D02*
X197100883Y-185393328D01*
X198386597Y-186393328D02*
X197529454Y-186393328D01*
X197958025Y-186393328D02*
X197958025Y-184893328D01*
X197958025Y-184893328D02*
X197815168Y-185107614D01*
X197815168Y-185107614D02*
X197672311Y-185250471D01*
X197672311Y-185250471D02*
X197529454Y-185321900D01*
X199029453Y-186250471D02*
X199100882Y-186321900D01*
X199100882Y-186321900D02*
X199029453Y-186393328D01*
X199029453Y-186393328D02*
X198958025Y-186321900D01*
X198958025Y-186321900D02*
X199029453Y-186250471D01*
X199029453Y-186250471D02*
X199029453Y-186393328D01*
X199743739Y-186393328D02*
X199743739Y-184893328D01*
X199886597Y-185821900D02*
X200315168Y-186393328D01*
X200315168Y-185393328D02*
X199743739Y-185964757D01*
X200958025Y-186393328D02*
X200958025Y-185393328D01*
X200958025Y-184893328D02*
X200886597Y-184964757D01*
X200886597Y-184964757D02*
X200958025Y-185036185D01*
X200958025Y-185036185D02*
X201029454Y-184964757D01*
X201029454Y-184964757D02*
X200958025Y-184893328D01*
X200958025Y-184893328D02*
X200958025Y-185036185D01*
X202315169Y-186321900D02*
X202172311Y-186393328D01*
X202172311Y-186393328D02*
X201886597Y-186393328D01*
X201886597Y-186393328D02*
X201743740Y-186321900D01*
X201743740Y-186321900D02*
X201672311Y-186250471D01*
X201672311Y-186250471D02*
X201600883Y-186107614D01*
X201600883Y-186107614D02*
X201600883Y-185679042D01*
X201600883Y-185679042D02*
X201672311Y-185536185D01*
X201672311Y-185536185D02*
X201743740Y-185464757D01*
X201743740Y-185464757D02*
X201886597Y-185393328D01*
X201886597Y-185393328D02*
X202172311Y-185393328D01*
X202172311Y-185393328D02*
X202315169Y-185464757D01*
X203600883Y-186393328D02*
X203600883Y-185607614D01*
X203600883Y-185607614D02*
X203529454Y-185464757D01*
X203529454Y-185464757D02*
X203386597Y-185393328D01*
X203386597Y-185393328D02*
X203100883Y-185393328D01*
X203100883Y-185393328D02*
X202958025Y-185464757D01*
X203600883Y-186321900D02*
X203458025Y-186393328D01*
X203458025Y-186393328D02*
X203100883Y-186393328D01*
X203100883Y-186393328D02*
X202958025Y-186321900D01*
X202958025Y-186321900D02*
X202886597Y-186179042D01*
X202886597Y-186179042D02*
X202886597Y-186036185D01*
X202886597Y-186036185D02*
X202958025Y-185893328D01*
X202958025Y-185893328D02*
X203100883Y-185821900D01*
X203100883Y-185821900D02*
X203458025Y-185821900D01*
X203458025Y-185821900D02*
X203600883Y-185750471D01*
X204958026Y-186393328D02*
X204958026Y-184893328D01*
X204958026Y-186321900D02*
X204815168Y-186393328D01*
X204815168Y-186393328D02*
X204529454Y-186393328D01*
X204529454Y-186393328D02*
X204386597Y-186321900D01*
X204386597Y-186321900D02*
X204315168Y-186250471D01*
X204315168Y-186250471D02*
X204243740Y-186107614D01*
X204243740Y-186107614D02*
X204243740Y-185679042D01*
X204243740Y-185679042D02*
X204315168Y-185536185D01*
X204315168Y-185536185D02*
X204386597Y-185464757D01*
X204386597Y-185464757D02*
X204529454Y-185393328D01*
X204529454Y-185393328D02*
X204815168Y-185393328D01*
X204815168Y-185393328D02*
X204958026Y-185464757D01*
X205315169Y-186536185D02*
X206458026Y-186536185D01*
X206815168Y-185393328D02*
X206815168Y-186893328D01*
X206815168Y-185464757D02*
X206958026Y-185393328D01*
X206958026Y-185393328D02*
X207243740Y-185393328D01*
X207243740Y-185393328D02*
X207386597Y-185464757D01*
X207386597Y-185464757D02*
X207458026Y-185536185D01*
X207458026Y-185536185D02*
X207529454Y-185679042D01*
X207529454Y-185679042D02*
X207529454Y-186107614D01*
X207529454Y-186107614D02*
X207458026Y-186250471D01*
X207458026Y-186250471D02*
X207386597Y-186321900D01*
X207386597Y-186321900D02*
X207243740Y-186393328D01*
X207243740Y-186393328D02*
X206958026Y-186393328D01*
X206958026Y-186393328D02*
X206815168Y-186321900D01*
X208815169Y-186321900D02*
X208672311Y-186393328D01*
X208672311Y-186393328D02*
X208386597Y-186393328D01*
X208386597Y-186393328D02*
X208243740Y-186321900D01*
X208243740Y-186321900D02*
X208172311Y-186250471D01*
X208172311Y-186250471D02*
X208100883Y-186107614D01*
X208100883Y-186107614D02*
X208100883Y-185679042D01*
X208100883Y-185679042D02*
X208172311Y-185536185D01*
X208172311Y-185536185D02*
X208243740Y-185464757D01*
X208243740Y-185464757D02*
X208386597Y-185393328D01*
X208386597Y-185393328D02*
X208672311Y-185393328D01*
X208672311Y-185393328D02*
X208815169Y-185464757D01*
X209458025Y-186393328D02*
X209458025Y-184893328D01*
X209458025Y-185464757D02*
X209600883Y-185393328D01*
X209600883Y-185393328D02*
X209886597Y-185393328D01*
X209886597Y-185393328D02*
X210029454Y-185464757D01*
X210029454Y-185464757D02*
X210100883Y-185536185D01*
X210100883Y-185536185D02*
X210172311Y-185679042D01*
X210172311Y-185679042D02*
X210172311Y-186107614D01*
X210172311Y-186107614D02*
X210100883Y-186250471D01*
X210100883Y-186250471D02*
X210029454Y-186321900D01*
X210029454Y-186321900D02*
X209886597Y-186393328D01*
X209886597Y-186393328D02*
X209600883Y-186393328D01*
X209600883Y-186393328D02*
X209458025Y-186321900D01*
D10*
D11*
X177002200Y-181507200D02*
X285002200Y-181507200D01*
D10*
D11*
X178386598Y-183621900D02*
X178600884Y-183693328D01*
X178600884Y-183693328D02*
X178958026Y-183693328D01*
X178958026Y-183693328D02*
X179100884Y-183621900D01*
X179100884Y-183621900D02*
X179172312Y-183550471D01*
X179172312Y-183550471D02*
X179243741Y-183407614D01*
X179243741Y-183407614D02*
X179243741Y-183264757D01*
X179243741Y-183264757D02*
X179172312Y-183121900D01*
X179172312Y-183121900D02*
X179100884Y-183050471D01*
X179100884Y-183050471D02*
X178958026Y-182979042D01*
X178958026Y-182979042D02*
X178672312Y-182907614D01*
X178672312Y-182907614D02*
X178529455Y-182836185D01*
X178529455Y-182836185D02*
X178458026Y-182764757D01*
X178458026Y-182764757D02*
X178386598Y-182621900D01*
X178386598Y-182621900D02*
X178386598Y-182479042D01*
X178386598Y-182479042D02*
X178458026Y-182336185D01*
X178458026Y-182336185D02*
X178529455Y-182264757D01*
X178529455Y-182264757D02*
X178672312Y-182193328D01*
X178672312Y-182193328D02*
X179029455Y-182193328D01*
X179029455Y-182193328D02*
X179243741Y-182264757D01*
X179886597Y-183693328D02*
X179886597Y-182193328D01*
X180529455Y-183693328D02*
X180529455Y-182907614D01*
X180529455Y-182907614D02*
X180458026Y-182764757D01*
X180458026Y-182764757D02*
X180315169Y-182693328D01*
X180315169Y-182693328D02*
X180100883Y-182693328D01*
X180100883Y-182693328D02*
X179958026Y-182764757D01*
X179958026Y-182764757D02*
X179886597Y-182836185D01*
X181815169Y-183621900D02*
X181672312Y-183693328D01*
X181672312Y-183693328D02*
X181386598Y-183693328D01*
X181386598Y-183693328D02*
X181243740Y-183621900D01*
X181243740Y-183621900D02*
X181172312Y-183479042D01*
X181172312Y-183479042D02*
X181172312Y-182907614D01*
X181172312Y-182907614D02*
X181243740Y-182764757D01*
X181243740Y-182764757D02*
X181386598Y-182693328D01*
X181386598Y-182693328D02*
X181672312Y-182693328D01*
X181672312Y-182693328D02*
X181815169Y-182764757D01*
X181815169Y-182764757D02*
X181886598Y-182907614D01*
X181886598Y-182907614D02*
X181886598Y-183050471D01*
X181886598Y-183050471D02*
X181172312Y-183193328D01*
X183100883Y-183621900D02*
X182958026Y-183693328D01*
X182958026Y-183693328D02*
X182672312Y-183693328D01*
X182672312Y-183693328D02*
X182529454Y-183621900D01*
X182529454Y-183621900D02*
X182458026Y-183479042D01*
X182458026Y-183479042D02*
X182458026Y-182907614D01*
X182458026Y-182907614D02*
X182529454Y-182764757D01*
X182529454Y-182764757D02*
X182672312Y-182693328D01*
X182672312Y-182693328D02*
X182958026Y-182693328D01*
X182958026Y-182693328D02*
X183100883Y-182764757D01*
X183100883Y-182764757D02*
X183172312Y-182907614D01*
X183172312Y-182907614D02*
X183172312Y-183050471D01*
X183172312Y-183050471D02*
X182458026Y-183193328D01*
X183600883Y-182693328D02*
X184172311Y-182693328D01*
X183815168Y-182193328D02*
X183815168Y-183479042D01*
X183815168Y-183479042D02*
X183886597Y-183621900D01*
X183886597Y-183621900D02*
X184029454Y-183693328D01*
X184029454Y-183693328D02*
X184172311Y-183693328D01*
X184672311Y-183550471D02*
X184743740Y-183621900D01*
X184743740Y-183621900D02*
X184672311Y-183693328D01*
X184672311Y-183693328D02*
X184600883Y-183621900D01*
X184600883Y-183621900D02*
X184672311Y-183550471D01*
X184672311Y-183550471D02*
X184672311Y-183693328D01*
X184672311Y-182764757D02*
X184743740Y-182836185D01*
X184743740Y-182836185D02*
X184672311Y-182907614D01*
X184672311Y-182907614D02*
X184600883Y-182836185D01*
X184600883Y-182836185D02*
X184672311Y-182764757D01*
X184672311Y-182764757D02*
X184672311Y-182907614D01*
D10*
D12*
X178556710Y-180685528D02*
X178556710Y-179185528D01*
X178556710Y-179185528D02*
X179056710Y-180256957D01*
X179056710Y-180256957D02*
X179556710Y-179185528D01*
X179556710Y-179185528D02*
X179556710Y-180685528D01*
X180485282Y-180685528D02*
X180342425Y-180614100D01*
X180342425Y-180614100D02*
X180270996Y-180542671D01*
X180270996Y-180542671D02*
X180199568Y-180399814D01*
X180199568Y-180399814D02*
X180199568Y-179971242D01*
X180199568Y-179971242D02*
X180270996Y-179828385D01*
X180270996Y-179828385D02*
X180342425Y-179756957D01*
X180342425Y-179756957D02*
X180485282Y-179685528D01*
X180485282Y-179685528D02*
X180699568Y-179685528D01*
X180699568Y-179685528D02*
X180842425Y-179756957D01*
X180842425Y-179756957D02*
X180913854Y-179828385D01*
X180913854Y-179828385D02*
X180985282Y-179971242D01*
X180985282Y-179971242D02*
X180985282Y-180399814D01*
X180985282Y-180399814D02*
X180913854Y-180542671D01*
X180913854Y-180542671D02*
X180842425Y-180614100D01*
X180842425Y-180614100D02*
X180699568Y-180685528D01*
X180699568Y-180685528D02*
X180485282Y-180685528D01*
X181628139Y-179685528D02*
X181628139Y-180685528D01*
X181628139Y-179828385D02*
X181699568Y-179756957D01*
X181699568Y-179756957D02*
X181842425Y-179685528D01*
X181842425Y-179685528D02*
X182056711Y-179685528D01*
X182056711Y-179685528D02*
X182199568Y-179756957D01*
X182199568Y-179756957D02*
X182270997Y-179899814D01*
X182270997Y-179899814D02*
X182270997Y-180685528D01*
X183628140Y-180685528D02*
X183628140Y-179899814D01*
X183628140Y-179899814D02*
X183556711Y-179756957D01*
X183556711Y-179756957D02*
X183413854Y-179685528D01*
X183413854Y-179685528D02*
X183128140Y-179685528D01*
X183128140Y-179685528D02*
X182985282Y-179756957D01*
X183628140Y-180614100D02*
X183485282Y-180685528D01*
X183485282Y-180685528D02*
X183128140Y-180685528D01*
X183128140Y-180685528D02*
X182985282Y-180614100D01*
X182985282Y-180614100D02*
X182913854Y-180471242D01*
X182913854Y-180471242D02*
X182913854Y-180328385D01*
X182913854Y-180328385D02*
X182985282Y-180185528D01*
X182985282Y-180185528D02*
X183128140Y-180114100D01*
X183128140Y-180114100D02*
X183485282Y-180114100D01*
X183485282Y-180114100D02*
X183628140Y-180042671D01*
X184985283Y-180685528D02*
X184985283Y-179185528D01*
X184985283Y-180614100D02*
X184842425Y-180685528D01*
X184842425Y-180685528D02*
X184556711Y-180685528D01*
X184556711Y-180685528D02*
X184413854Y-180614100D01*
X184413854Y-180614100D02*
X184342425Y-180542671D01*
X184342425Y-180542671D02*
X184270997Y-180399814D01*
X184270997Y-180399814D02*
X184270997Y-179971242D01*
X184270997Y-179971242D02*
X184342425Y-179828385D01*
X184342425Y-179828385D02*
X184413854Y-179756957D01*
X184413854Y-179756957D02*
X184556711Y-179685528D01*
X184556711Y-179685528D02*
X184842425Y-179685528D01*
X184842425Y-179685528D02*
X184985283Y-179756957D01*
X187628140Y-179256957D02*
X187485283Y-179185528D01*
X187485283Y-179185528D02*
X187270997Y-179185528D01*
X187270997Y-179185528D02*
X187056711Y-179256957D01*
X187056711Y-179256957D02*
X186913854Y-179399814D01*
X186913854Y-179399814D02*
X186842425Y-179542671D01*
X186842425Y-179542671D02*
X186770997Y-179828385D01*
X186770997Y-179828385D02*
X186770997Y-180042671D01*
X186770997Y-180042671D02*
X186842425Y-180328385D01*
X186842425Y-180328385D02*
X186913854Y-180471242D01*
X186913854Y-180471242D02*
X187056711Y-180614100D01*
X187056711Y-180614100D02*
X187270997Y-180685528D01*
X187270997Y-180685528D02*
X187413854Y-180685528D01*
X187413854Y-180685528D02*
X187628140Y-180614100D01*
X187628140Y-180614100D02*
X187699568Y-180542671D01*
X187699568Y-180542671D02*
X187699568Y-180042671D01*
X187699568Y-180042671D02*
X187413854Y-180042671D01*
X188556711Y-180685528D02*
X188413854Y-180614100D01*
X188413854Y-180614100D02*
X188342425Y-180542671D01*
X188342425Y-180542671D02*
X188270997Y-180399814D01*
X188270997Y-180399814D02*
X188270997Y-179971242D01*
X188270997Y-179971242D02*
X188342425Y-179828385D01*
X188342425Y-179828385D02*
X188413854Y-179756957D01*
X188413854Y-179756957D02*
X188556711Y-179685528D01*
X188556711Y-179685528D02*
X188770997Y-179685528D01*
X188770997Y-179685528D02*
X188913854Y-179756957D01*
X188913854Y-179756957D02*
X188985283Y-179828385D01*
X188985283Y-179828385D02*
X189056711Y-179971242D01*
X189056711Y-179971242D02*
X189056711Y-180399814D01*
X189056711Y-180399814D02*
X188985283Y-180542671D01*
X188985283Y-180542671D02*
X188913854Y-180614100D01*
X188913854Y-180614100D02*
X188770997Y-180685528D01*
X188770997Y-180685528D02*
X188556711Y-180685528D01*
X189485283Y-179685528D02*
X190056711Y-179685528D01*
X189699568Y-179185528D02*
X189699568Y-180471242D01*
X189699568Y-180471242D02*
X189770997Y-180614100D01*
X189770997Y-180614100D02*
X189913854Y-180685528D01*
X189913854Y-180685528D02*
X190056711Y-180685528D01*
X190342426Y-179685528D02*
X190913854Y-179685528D01*
X190556711Y-179185528D02*
X190556711Y-180471242D01*
X190556711Y-180471242D02*
X190628140Y-180614100D01*
X190628140Y-180614100D02*
X190770997Y-180685528D01*
X190770997Y-180685528D02*
X190913854Y-180685528D01*
X191199569Y-179685528D02*
X191770997Y-179685528D01*
X191413854Y-180685528D02*
X191413854Y-179399814D01*
X191413854Y-179399814D02*
X191485283Y-179256957D01*
X191485283Y-179256957D02*
X191628140Y-179185528D01*
X191628140Y-179185528D02*
X191770997Y-179185528D01*
X192270997Y-180685528D02*
X192270997Y-179685528D01*
X192270997Y-179971242D02*
X192342426Y-179828385D01*
X192342426Y-179828385D02*
X192413855Y-179756957D01*
X192413855Y-179756957D02*
X192556712Y-179685528D01*
X192556712Y-179685528D02*
X192699569Y-179685528D01*
X193199568Y-180685528D02*
X193199568Y-179685528D01*
X193199568Y-179185528D02*
X193128140Y-179256957D01*
X193128140Y-179256957D02*
X193199568Y-179328385D01*
X193199568Y-179328385D02*
X193270997Y-179256957D01*
X193270997Y-179256957D02*
X193199568Y-179185528D01*
X193199568Y-179185528D02*
X193199568Y-179328385D01*
X194485283Y-180614100D02*
X194342426Y-180685528D01*
X194342426Y-180685528D02*
X194056712Y-180685528D01*
X194056712Y-180685528D02*
X193913854Y-180614100D01*
X193913854Y-180614100D02*
X193842426Y-180471242D01*
X193842426Y-180471242D02*
X193842426Y-179899814D01*
X193842426Y-179899814D02*
X193913854Y-179756957D01*
X193913854Y-179756957D02*
X194056712Y-179685528D01*
X194056712Y-179685528D02*
X194342426Y-179685528D01*
X194342426Y-179685528D02*
X194485283Y-179756957D01*
X194485283Y-179756957D02*
X194556712Y-179899814D01*
X194556712Y-179899814D02*
X194556712Y-180042671D01*
X194556712Y-180042671D02*
X193842426Y-180185528D01*
X195842426Y-180685528D02*
X195842426Y-179185528D01*
X195842426Y-180614100D02*
X195699568Y-180685528D01*
X195699568Y-180685528D02*
X195413854Y-180685528D01*
X195413854Y-180685528D02*
X195270997Y-180614100D01*
X195270997Y-180614100D02*
X195199568Y-180542671D01*
X195199568Y-180542671D02*
X195128140Y-180399814D01*
X195128140Y-180399814D02*
X195128140Y-179971242D01*
X195128140Y-179971242D02*
X195199568Y-179828385D01*
X195199568Y-179828385D02*
X195270997Y-179756957D01*
X195270997Y-179756957D02*
X195413854Y-179685528D01*
X195413854Y-179685528D02*
X195699568Y-179685528D01*
X195699568Y-179685528D02*
X195842426Y-179756957D01*
X197628140Y-179328385D02*
X197699568Y-179256957D01*
X197699568Y-179256957D02*
X197842426Y-179185528D01*
X197842426Y-179185528D02*
X198199568Y-179185528D01*
X198199568Y-179185528D02*
X198342426Y-179256957D01*
X198342426Y-179256957D02*
X198413854Y-179328385D01*
X198413854Y-179328385D02*
X198485283Y-179471242D01*
X198485283Y-179471242D02*
X198485283Y-179614100D01*
X198485283Y-179614100D02*
X198413854Y-179828385D01*
X198413854Y-179828385D02*
X197556711Y-180685528D01*
X197556711Y-180685528D02*
X198485283Y-180685528D01*
X199413854Y-179185528D02*
X199556711Y-179185528D01*
X199556711Y-179185528D02*
X199699568Y-179256957D01*
X199699568Y-179256957D02*
X199770997Y-179328385D01*
X199770997Y-179328385D02*
X199842425Y-179471242D01*
X199842425Y-179471242D02*
X199913854Y-179756957D01*
X199913854Y-179756957D02*
X199913854Y-180114100D01*
X199913854Y-180114100D02*
X199842425Y-180399814D01*
X199842425Y-180399814D02*
X199770997Y-180542671D01*
X199770997Y-180542671D02*
X199699568Y-180614100D01*
X199699568Y-180614100D02*
X199556711Y-180685528D01*
X199556711Y-180685528D02*
X199413854Y-180685528D01*
X199413854Y-180685528D02*
X199270997Y-180614100D01*
X199270997Y-180614100D02*
X199199568Y-180542671D01*
X199199568Y-180542671D02*
X199128139Y-180399814D01*
X199128139Y-180399814D02*
X199056711Y-180114100D01*
X199056711Y-180114100D02*
X199056711Y-179756957D01*
X199056711Y-179756957D02*
X199128139Y-179471242D01*
X199128139Y-179471242D02*
X199199568Y-179328385D01*
X199199568Y-179328385D02*
X199270997Y-179256957D01*
X199270997Y-179256957D02*
X199413854Y-179185528D01*
X200485282Y-179328385D02*
X200556710Y-179256957D01*
X200556710Y-179256957D02*
X200699568Y-179185528D01*
X200699568Y-179185528D02*
X201056710Y-179185528D01*
X201056710Y-179185528D02*
X201199568Y-179256957D01*
X201199568Y-179256957D02*
X201270996Y-179328385D01*
X201270996Y-179328385D02*
X201342425Y-179471242D01*
X201342425Y-179471242D02*
X201342425Y-179614100D01*
X201342425Y-179614100D02*
X201270996Y-179828385D01*
X201270996Y-179828385D02*
X200413853Y-180685528D01*
X200413853Y-180685528D02*
X201342425Y-180685528D01*
X201842424Y-179185528D02*
X202770996Y-179185528D01*
X202770996Y-179185528D02*
X202270996Y-179756957D01*
X202270996Y-179756957D02*
X202485281Y-179756957D01*
X202485281Y-179756957D02*
X202628139Y-179828385D01*
X202628139Y-179828385D02*
X202699567Y-179899814D01*
X202699567Y-179899814D02*
X202770996Y-180042671D01*
X202770996Y-180042671D02*
X202770996Y-180399814D01*
X202770996Y-180399814D02*
X202699567Y-180542671D01*
X202699567Y-180542671D02*
X202628139Y-180614100D01*
X202628139Y-180614100D02*
X202485281Y-180685528D01*
X202485281Y-180685528D02*
X202056710Y-180685528D01*
X202056710Y-180685528D02*
X201913853Y-180614100D01*
X201913853Y-180614100D02*
X201842424Y-180542671D01*
D10*
D11*
D10*
D11*
D10*
D11*
D10*
D11*
D10*
D11*
X197002200Y-191507200D02*
X197002200Y-194507200D01*
D10*
D11*
X261002200Y-191507200D02*
X261002200Y-198007200D01*
D14*
G04 #@! TO.P,J1,1,Pin_1*
G04 #@! TO.N,+3V3*
X147460000Y-51875000D03*
G04 #@! TO.P,J1,2,Pin_2*
G04 #@! TO.N,GND*
X147460000Y-56925000D03*
G04 #@! TO.P,J1,3,Pin_3*
G04 #@! TO.N,/SDA*
X150000000Y-51875000D03*
G04 #@! TO.P,J1,4,Pin_4*
G04 #@! TO.N,/SCL*
X150000000Y-56925000D03*
G04 #@! TO.P,J1,5,Pin_5*
G04 #@! TO.N,unconnected-(J1-Pin_5-Pad5)*
X152540000Y-51875000D03*
G04 #@! TO.P,J1,6,Pin_6*
G04 #@! TO.N,GND*
X152540000Y-56925000D03*
G04 #@! TD*
D15*
G04 #@! TO.P,U1,1,SCL*
G04 #@! TO.N,/SCL*
X149000000Y-79275000D03*
G04 #@! TO.P,U1,2,SDA*
G04 #@! TO.N,/SDA*
X149000000Y-78775000D03*
G04 #@! TO.P,U1,3,LED4*
G04 #@! TO.N,/LED4*
X149000000Y-78275000D03*
G04 #@! TO.P,U1,4,LED3*
G04 #@! TO.N,/LED3*
X149000000Y-77775000D03*
G04 #@! TO.P,U1,5,LED2*
G04 #@! TO.N,/LED2*
X151000000Y-77775000D03*
G04 #@! TO.P,U1,6,LED1*
G04 #@! TO.N,/LED1*
X151000000Y-78275000D03*
G04 #@! TO.P,U1,7,GND*
G04 #@! TO.N,GND*
X151000000Y-78775000D03*
G04 #@! TO.P,U1,8,VIN*
G04 #@! TO.N,+3V3*
X151000000Y-79275000D03*
D16*
G04 #@! TO.P,U1,9,EP*
G04 #@! TO.N,GND*
X150000000Y-78525000D03*
G04 #@! TD*
D17*
G04 #@! TO.P,J2,1,Pin_1*
G04 #@! TO.N,/SDA*
X152000000Y-105900000D03*
G04 #@! TO.P,J2,2,Pin_2*
G04 #@! TO.N,unconnected-(J2-Pin_2-Pad2)*
X150000000Y-105900000D03*
G04 #@! TO.P,J2,3,Pin_3*
G04 #@! TO.N,+3V3*
X148000000Y-105900000D03*
G04 #@! TO.P,J2,4,Pin_4*
G04 #@! TO.N,/SCL*
X148000000Y-107900000D03*
G04 #@! TO.P,J2,5,Pin_5*
G04 #@! TO.N,unconnected-(J2-Pin_5-Pad5)*
X150000000Y-107900000D03*
G04 #@! TO.P,J2,6,Pin_6*
G04 #@! TO.N,GND*
X152000000Y-107900000D03*
D18*
G04 #@! TO.P,J2,SH,Shield*
X156700000Y-113850000D03*
X156700000Y-108400000D03*
X143300000Y-113850000D03*
X143300000Y-108400000D03*
G04 #@! TD*
D19*
G04 #@! TO.P,D3,1,RK*
G04 #@! TO.N,/LED1*
X148100000Y-61800000D03*
G04 #@! TO.P,D3,2,A*
G04 #@! TO.N,/LED3*
X142900000Y-61800000D03*
G04 #@! TO.P,D3,3,BK*
G04 #@! TO.N,/LED2*
X142900000Y-60400000D03*
G04 #@! TO.P,D3,4,GK*
G04 #@! TO.N,/LED4*
X148100000Y-60400000D03*
G04 #@! TD*
G04 #@! TO.P,D1,1,RK*
G04 #@! TO.N,/LED3*
X157100000Y-61800000D03*
G04 #@! TO.P,D1,2,A*
G04 #@! TO.N,/LED1*
X151900000Y-61800000D03*
G04 #@! TO.P,D1,3,BK*
G04 #@! TO.N,/LED4*
X151900000Y-60400000D03*
G04 #@! TO.P,D1,4,GK*
G04 #@! TO.N,/LED2*
X157100000Y-60400000D03*
G04 #@! TD*
G04 #@! TO.P,D2,1,RK*
G04 #@! TO.N,/LED4*
X157100000Y-70050000D03*
G04 #@! TO.P,D2,2,A*
G04 #@! TO.N,/LED2*
X151900000Y-70050000D03*
G04 #@! TO.P,D2,3,BK*
G04 #@! TO.N,/LED1*
X151900000Y-68650000D03*
G04 #@! TO.P,D2,4,GK*
G04 #@! TO.N,/LED3*
X157100000Y-68650000D03*
G04 #@! TD*
G04 #@! TO.P,D4,1,RK*
G04 #@! TO.N,/LED2*
X148100000Y-70050000D03*
G04 #@! TO.P,D4,2,A*
G04 #@! TO.N,/LED4*
X142900000Y-70050000D03*
G04 #@! TO.P,D4,3,BK*
G04 #@! TO.N,/LED3*
X142900000Y-68650000D03*
G04 #@! TO.P,D4,4,GK*
G04 #@! TO.N,/LED1*
X148100000Y-68650000D03*
G04 #@! TD*
D20*
G04 #@! TO.P,C1,1*
G04 #@! TO.N,+3V3*
X152525000Y-79855000D03*
G04 #@! TO.P,C1,2*
G04 #@! TO.N,GND*
X154425000Y-79855000D03*
G04 #@! TD*
D21*
G04 #@! TO.N,GND*
X150000000Y-77000000D03*
X145900000Y-56500000D03*
X150000000Y-80050000D03*
X145900000Y-55750000D03*
X154400000Y-78100000D03*
X154250000Y-56550000D03*
X154250000Y-55750000D03*
X153250000Y-78500000D03*
G04 #@! TO.N,/SDA*
X135450000Y-78550000D03*
X136950000Y-78550000D03*
X138150000Y-78550000D03*
G04 #@! TO.N,/SCL*
X137550000Y-80350000D03*
X137550000Y-81800000D03*
G04 #@! TO.N,/LED3*
X151500000Y-75600000D03*
X140100000Y-68650000D03*
X151500000Y-74400000D03*
X138750000Y-68650000D03*
G04 #@! TO.N,/LED1*
X159550000Y-65100000D03*
X162400000Y-65100000D03*
G04 #@! TO.N,/LED4*
X149300000Y-74100000D03*
X138150000Y-70000000D03*
X160100000Y-70100000D03*
X150650000Y-74100000D03*
X140050000Y-70000000D03*
X161800000Y-70100000D03*
G04 #@! TD*
D22*
G04 #@! TO.N,+3V3*
X151000000Y-79275000D02*
X152525000Y-79275000D01*
D23*
X148000000Y-105900000D02*
X148000000Y-104700000D01*
X147460000Y-51875000D02*
X139525000Y-51875000D01*
X139525000Y-51875000D02*
X136150000Y-55250000D01*
X137150000Y-81100000D02*
X138350000Y-81100000D01*
D22*
X152525000Y-79275000D02*
X152525000Y-79855000D01*
D23*
X148000000Y-104700000D02*
X138350000Y-95050000D01*
X136150000Y-55250000D02*
X136150000Y-80100000D01*
X138350000Y-81100000D02*
X151280000Y-81100000D01*
X138350000Y-95050000D02*
X138350000Y-81100000D01*
X136150000Y-80100000D02*
X137150000Y-81100000D01*
X151280000Y-81100000D02*
X152525000Y-79855000D01*
D22*
G04 #@! TO.N,GND*
X150250000Y-78775000D02*
X150000000Y-78525000D01*
X151000000Y-78775000D02*
X150250000Y-78775000D01*
G04 #@! TO.N,/SDA*
X136850000Y-82250000D02*
X136850000Y-95350000D01*
X153950000Y-106450000D02*
X153400000Y-105900000D01*
X153300000Y-109200000D02*
X153950000Y-108550000D01*
X136950000Y-78550000D02*
X136950000Y-55800000D01*
X147350000Y-109200000D02*
X153300000Y-109200000D01*
X138375000Y-78775000D02*
X149000000Y-78775000D01*
X153400000Y-105900000D02*
X152000000Y-105900000D01*
X149650000Y-54100000D02*
X150000000Y-53750000D01*
X150000000Y-53750000D02*
X150000000Y-51875000D01*
X144750000Y-106600000D02*
X147350000Y-109200000D01*
X135450000Y-80850000D02*
X136850000Y-82250000D01*
X153950000Y-108550000D02*
X153950000Y-106450000D01*
X138150000Y-78550000D02*
X138375000Y-78775000D01*
X138650000Y-54100000D02*
X149650000Y-54100000D01*
X135450000Y-78550000D02*
X135450000Y-80850000D01*
X144750000Y-103250000D02*
X144750000Y-106600000D01*
X136950000Y-55800000D02*
X138650000Y-54100000D01*
X136850000Y-95350000D02*
X144750000Y-103250000D01*
G04 #@! TO.N,/SCL*
X137550000Y-81800000D02*
X137550000Y-95300000D01*
X137550000Y-79250000D02*
X137550000Y-80350000D01*
X137550000Y-56000000D02*
X137550000Y-79250000D01*
X138800000Y-54750000D02*
X137550000Y-56000000D01*
X145250000Y-103000000D02*
X145250000Y-105150000D01*
X150000000Y-55100000D02*
X149650000Y-54750000D01*
X137550000Y-79250000D02*
X137575000Y-79275000D01*
X137575000Y-79275000D02*
X149000000Y-79275000D01*
X145250000Y-105150000D02*
X148000000Y-107900000D01*
X137550000Y-95300000D02*
X145250000Y-103000000D01*
X150000000Y-56925000D02*
X150000000Y-55100000D01*
X149650000Y-54750000D02*
X138800000Y-54750000D01*
G04 #@! TO.N,/LED3*
X138750000Y-68650000D02*
X138750000Y-75100000D01*
X148050000Y-77775000D02*
X149000000Y-77775000D01*
X138750000Y-75100000D02*
X141425000Y-77775000D01*
X160700000Y-73100000D02*
X159307843Y-74492157D01*
X160700000Y-68300000D02*
X160350000Y-68650000D01*
X140100000Y-62200000D02*
X140100000Y-68650000D01*
X159307843Y-74492157D02*
X151592157Y-74492157D01*
X148050000Y-76100000D02*
X148050000Y-77775000D01*
X151592157Y-74492157D02*
X151500000Y-74400000D01*
X159300000Y-61800000D02*
X160700000Y-63200000D01*
X160700000Y-69000000D02*
X160700000Y-73100000D01*
X140500000Y-61800000D02*
X140100000Y-62200000D01*
X160350000Y-68650000D02*
X160700000Y-69000000D01*
X140100000Y-68650000D02*
X142900000Y-68650000D01*
X160700000Y-63200000D02*
X160700000Y-68300000D01*
X148550000Y-75600000D02*
X148050000Y-76100000D01*
X142900000Y-61800000D02*
X140500000Y-61800000D01*
X141425000Y-77775000D02*
X148050000Y-77775000D01*
X151500000Y-75600000D02*
X148550000Y-75600000D01*
X160350000Y-68650000D02*
X157100000Y-68650000D01*
X157100000Y-61800000D02*
X159300000Y-61800000D01*
G04 #@! TO.N,/LED1*
X150000000Y-65100000D02*
X150000000Y-65300000D01*
X162400000Y-65100000D02*
X162400000Y-74050000D01*
X151900000Y-68650000D02*
X150000000Y-68650000D01*
X150000000Y-65100000D02*
X159550000Y-65100000D01*
X159200000Y-77250000D02*
X153200000Y-77250000D01*
X150000000Y-61800000D02*
X150000000Y-65100000D01*
X162400000Y-74050000D02*
X159200000Y-77250000D01*
X150000000Y-68650000D02*
X148100000Y-68650000D01*
X151900000Y-61800000D02*
X150000000Y-61800000D01*
X152175000Y-78275000D02*
X151000000Y-78275000D01*
X150000000Y-65300000D02*
X150000000Y-68650000D01*
X150000000Y-61800000D02*
X148100000Y-61800000D01*
X153200000Y-77250000D02*
X152175000Y-78275000D01*
G04 #@! TO.N,/LED4*
X138150000Y-70000000D02*
X138150000Y-75200000D01*
X140100000Y-70050000D02*
X142900000Y-70050000D01*
X151600000Y-55200000D02*
X152000000Y-54800000D01*
X140050000Y-70000000D02*
X140100000Y-70050000D01*
X151900000Y-60400000D02*
X151600000Y-60100000D01*
X150950000Y-73800000D02*
X150650000Y-74100000D01*
X159350000Y-73800000D02*
X150950000Y-73800000D01*
X138150000Y-75200000D02*
X141225000Y-78275000D01*
X151900000Y-60400000D02*
X148100000Y-60400000D01*
X141225000Y-78275000D02*
X149000000Y-78275000D01*
X160100000Y-70100000D02*
X157150000Y-70100000D01*
X161800000Y-57000000D02*
X159600000Y-54800000D01*
X159600000Y-54800000D02*
X152000000Y-54800000D01*
X161800000Y-70100000D02*
X161800000Y-57000000D01*
X160100000Y-73050000D02*
X159350000Y-73800000D01*
X151600000Y-60100000D02*
X151600000Y-55200000D01*
X141065686Y-74100000D02*
X140050000Y-73084314D01*
X160100000Y-70100000D02*
X160100000Y-73050000D01*
X140050000Y-73084314D02*
X140050000Y-70000000D01*
X157150000Y-70100000D02*
X157100000Y-70050000D01*
X149300000Y-74100000D02*
X141065686Y-74100000D01*
G04 #@! TO.N,/LED2*
X151000000Y-77775000D02*
X152025000Y-77775000D01*
X152025000Y-77775000D02*
X152400000Y-77400000D01*
X139450000Y-73050000D02*
X141400000Y-75000000D01*
X157100000Y-60400000D02*
X159800000Y-60400000D01*
X140400000Y-60400000D02*
X139450000Y-61350000D01*
X139450000Y-61350000D02*
X139450000Y-73050000D01*
X150000000Y-70050000D02*
X148100000Y-70050000D01*
X159800000Y-60400000D02*
X161150000Y-61750000D01*
X150000000Y-70050000D02*
X150000000Y-75000000D01*
X142900000Y-60400000D02*
X140400000Y-60400000D01*
X159400000Y-75000000D02*
X152400000Y-75000000D01*
X161150000Y-73250000D02*
X159400000Y-75000000D01*
X151900000Y-70050000D02*
X150000000Y-70050000D01*
X141400000Y-75000000D02*
X150000000Y-75000000D01*
X161150000Y-61750000D02*
X161150000Y-73250000D01*
X152400000Y-75000000D02*
X150000000Y-75000000D01*
X152400000Y-77400000D02*
X152400000Y-75000000D01*
G04 #@! TD*
G04 #@! TA.AperFunction,Conductor*
G04 #@! TO.N,GND*
G36*
X146702539Y-50215385D02*
G01*
X146748294Y-50268189D01*
X146759500Y-50319700D01*
X146759500Y-51350500D01*
X146739815Y-51417539D01*
X146687011Y-51463294D01*
X146635500Y-51474500D01*
X139588433Y-51474500D01*
X139461567Y-51474500D01*
X139461564Y-51474500D01*
X139461562Y-51474501D01*
X139440490Y-51481347D01*
X139421582Y-51485886D01*
X139399698Y-51489353D01*
X139399694Y-51489354D01*
X139379951Y-51499413D01*
X139361987Y-51506854D01*
X139340911Y-51513703D01*
X139322985Y-51526727D01*
X139306400Y-51536890D01*
X139286659Y-51546948D01*
X139275376Y-51558231D01*
X139264094Y-51569513D01*
X139264093Y-51569513D01*
X135844513Y-54989093D01*
X135844513Y-54989094D01*
X135833231Y-55000376D01*
X135821948Y-55011659D01*
X135821948Y-55011660D01*
X135811891Y-55031397D01*
X135801731Y-55047977D01*
X135788706Y-55065905D01*
X135788703Y-55065910D01*
X135781854Y-55086988D01*
X135774413Y-55104952D01*
X135764354Y-55124695D01*
X135760887Y-55146582D01*
X135756347Y-55165491D01*
X135749500Y-55186567D01*
X135749500Y-77950666D01*
X135729815Y-78017705D01*
X135677011Y-78063460D01*
X135607853Y-78073404D01*
X135590566Y-78069643D01*
X135521964Y-78049500D01*
X135521961Y-78049500D01*
X135378039Y-78049500D01*
X135378036Y-78049500D01*
X135239949Y-78090045D01*
X135118873Y-78167856D01*
X135024623Y-78276626D01*
X135024622Y-78276628D01*
X134964834Y-78407543D01*
X134944353Y-78549999D01*
X134964834Y-78692456D01*
X135004229Y-78778717D01*
X135024623Y-78823373D01*
X135118872Y-78932143D01*
X135118875Y-78932144D01*
X135119213Y-78932535D01*
X135148238Y-78996091D01*
X135149500Y-79013738D01*
X135149500Y-80787158D01*
X135148905Y-80795732D01*
X135147227Y-80807763D01*
X135149434Y-80855509D01*
X135149500Y-80858372D01*
X135149500Y-80877845D01*
X135149993Y-80880482D01*
X135150982Y-80889015D01*
X135152415Y-80919991D01*
X135152416Y-80919997D01*
X135155214Y-80926334D01*
X135163664Y-80953620D01*
X135164937Y-80960429D01*
X135164937Y-80960430D01*
X135181260Y-80986793D01*
X135185263Y-80994386D01*
X135197794Y-81022765D01*
X135197795Y-81022766D01*
X135197796Y-81022768D01*
X135202689Y-81027661D01*
X135220435Y-81050065D01*
X135224077Y-81055948D01*
X135224080Y-81055951D01*
X135248826Y-81074639D01*
X135255311Y-81080281D01*
X136513182Y-82338153D01*
X136546666Y-82399474D01*
X136549500Y-82425832D01*
X136549500Y-95287158D01*
X136548905Y-95295732D01*
X136547227Y-95307763D01*
X136549434Y-95355509D01*
X136549500Y-95358372D01*
X136549500Y-95377845D01*
X136549993Y-95380482D01*
X136550982Y-95389015D01*
X136552415Y-95419991D01*
X136552416Y-95419997D01*
X136555214Y-95426334D01*
X136563664Y-95453620D01*
X136564937Y-95460429D01*
X136564937Y-95460430D01*
X136581260Y-95486793D01*
X136585263Y-95494386D01*
X136597794Y-95522765D01*
X136597795Y-95522766D01*
X136597796Y-95522768D01*
X136602689Y-95527661D01*
X136620435Y-95550065D01*
X136624077Y-95555948D01*
X136624080Y-95555951D01*
X136648826Y-95574639D01*
X136655311Y-95580282D01*
X144413181Y-103338152D01*
X144446666Y-103399475D01*
X144449500Y-103425833D01*
X144449500Y-106537158D01*
X144448905Y-106545732D01*
X144447227Y-106557763D01*
X144449434Y-106605509D01*
X144449500Y-106608372D01*
X144449500Y-106627845D01*
X144449993Y-106630482D01*
X144450982Y-106639015D01*
X144452415Y-106669991D01*
X144452416Y-106669997D01*
X144455214Y-106676334D01*
X144463664Y-106703620D01*
X144464937Y-106710429D01*
X144464937Y-106710430D01*
X144464939Y-106710433D01*
X144478150Y-106731771D01*
X144481260Y-106736793D01*
X144485263Y-106744386D01*
X144497794Y-106772765D01*
X144497795Y-106772766D01*
X144497796Y-106772768D01*
X144502689Y-106777661D01*
X144520435Y-106800065D01*
X144524077Y-106805948D01*
X144524080Y-106805951D01*
X144548826Y-106824639D01*
X144555311Y-106830282D01*
X147093078Y-109368049D01*
X147098721Y-109374533D01*
X147106041Y-109384226D01*
X147106042Y-109384228D01*
X147120861Y-109397737D01*
X147141375Y-109416439D01*
X147143423Y-109418394D01*
X147157203Y-109432174D01*
X147159413Y-109433688D01*
X147166143Y-109439018D01*
X147175245Y-109447316D01*
X147189064Y-109459914D01*
X147189065Y-109459914D01*
X147189067Y-109459916D01*
X147195530Y-109462419D01*
X147220807Y-109475743D01*
X147226519Y-109479656D01*
X147256702Y-109486754D01*
X147264903Y-109489294D01*
X147293827Y-109500500D01*
X147300751Y-109500500D01*
X147329141Y-109503793D01*
X147335881Y-109505379D01*
X147366590Y-109501095D01*
X147375166Y-109500500D01*
X153237159Y-109500500D01*
X153245733Y-109501095D01*
X153257761Y-109502772D01*
X153257761Y-109502771D01*
X153257765Y-109502773D01*
X153300920Y-109500778D01*
X153305510Y-109500566D01*
X153308373Y-109500500D01*
X153327843Y-109500500D01*
X153327844Y-109500500D01*
X153330468Y-109500009D01*
X153339021Y-109499016D01*
X153340245Y-109498959D01*
X153369992Y-109497585D01*
X153376322Y-109494789D01*
X153403629Y-109486332D01*
X153410433Y-109485061D01*
X153436797Y-109468736D01*
X153444392Y-109464733D01*
X153472765Y-109452206D01*
X153477661Y-109447309D01*
X153500069Y-109429561D01*
X153505952Y-109425919D01*
X153524649Y-109401158D01*
X153530266Y-109394703D01*
X154118059Y-108806910D01*
X154124532Y-108801279D01*
X154134224Y-108793959D01*
X154134228Y-108793958D01*
X154166459Y-108758600D01*
X154168367Y-108756602D01*
X154182174Y-108742797D01*
X154183684Y-108740592D01*
X154189023Y-108733851D01*
X154192067Y-108730512D01*
X154209916Y-108710933D01*
X154212417Y-108704476D01*
X154225750Y-108679184D01*
X154229657Y-108673481D01*
X154236757Y-108643294D01*
X154239296Y-108635092D01*
X154250500Y-108606173D01*
X154250500Y-108599248D01*
X154253794Y-108570856D01*
X154255379Y-108564119D01*
X154251095Y-108533408D01*
X154250500Y-108524833D01*
X154250500Y-106512838D01*
X154251095Y-106504262D01*
X154252771Y-106492239D01*
X154252773Y-106492235D01*
X154250566Y-106444490D01*
X154250500Y-106441627D01*
X154250500Y-106422159D01*
X154250499Y-106422153D01*
X154250009Y-106419533D01*
X154249016Y-106410980D01*
X154247585Y-106380008D01*
X154244786Y-106373670D01*
X154236333Y-106346373D01*
X154235061Y-106339567D01*
X154218740Y-106313207D01*
X154214734Y-106305608D01*
X154202206Y-106277234D01*
X154197309Y-106272337D01*
X154179561Y-106249931D01*
X154175918Y-106244047D01*
X154151176Y-106225362D01*
X154144698Y-106219726D01*
X153656915Y-105731944D01*
X153651278Y-105725465D01*
X153643956Y-105715770D01*
X153608624Y-105683560D01*
X153606573Y-105681602D01*
X153592797Y-105667826D01*
X153590586Y-105666311D01*
X153583853Y-105660978D01*
X153560933Y-105640084D01*
X153554470Y-105637580D01*
X153529192Y-105624256D01*
X153523481Y-105620344D01*
X153523478Y-105620343D01*
X153523479Y-105620343D01*
X153493302Y-105613244D01*
X153485094Y-105610703D01*
X153456173Y-105599500D01*
X153449249Y-105599500D01*
X153420858Y-105596206D01*
X153414119Y-105594621D01*
X153383409Y-105598905D01*
X153374834Y-105599500D01*
X152937885Y-105599500D01*
X152870846Y-105579815D01*
X152832838Y-105535952D01*
X152830429Y-105537344D01*
X152732534Y-105367785D01*
X152605870Y-105227111D01*
X152452734Y-105115851D01*
X152452729Y-105115848D01*
X152279807Y-105038857D01*
X152279802Y-105038855D01*
X152134000Y-105007865D01*
X152094646Y-104999500D01*
X151905354Y-104999500D01*
X151872897Y-105006398D01*
X151720197Y-105038855D01*
X151720192Y-105038857D01*
X151547270Y-105115848D01*
X151547265Y-105115851D01*
X151394129Y-105227111D01*
X151267466Y-105367785D01*
X151172821Y-105531715D01*
X151172818Y-105531722D01*
X151117931Y-105700648D01*
X151078493Y-105758324D01*
X151014135Y-105785522D01*
X150945288Y-105773607D01*
X150893813Y-105726363D01*
X150882069Y-105700648D01*
X150827181Y-105531722D01*
X150827180Y-105531721D01*
X150827179Y-105531716D01*
X150732533Y-105367784D01*
X150605871Y-105227112D01*
X150603449Y-105225352D01*
X150452734Y-105115851D01*
X150452729Y-105115848D01*
X150279807Y-105038857D01*
X150279802Y-105038855D01*
X150134001Y-105007865D01*
X150094646Y-104999500D01*
X149905354Y-104999500D01*
X149872897Y-105006398D01*
X149720197Y-105038855D01*
X149720192Y-105038857D01*
X149547270Y-105115848D01*
X149547265Y-105115851D01*
X149394129Y-105227111D01*
X149267466Y-105367785D01*
X149172821Y-105531715D01*
X149172818Y-105531722D01*
X149117931Y-105700648D01*
X149078493Y-105758324D01*
X149014135Y-105785522D01*
X148945288Y-105773607D01*
X148893813Y-105726363D01*
X148882069Y-105700648D01*
X148827181Y-105531722D01*
X148827180Y-105531721D01*
X148827179Y-105531716D01*
X148732533Y-105367784D01*
X148605871Y-105227112D01*
X148603449Y-105225352D01*
X148451615Y-105115038D01*
X148408949Y-105059708D01*
X148400500Y-105014720D01*
X148400500Y-104636568D01*
X148400500Y-104636567D01*
X148393652Y-104615491D01*
X148389111Y-104596578D01*
X148385646Y-104574696D01*
X148375588Y-104554958D01*
X148368140Y-104536976D01*
X148361296Y-104515910D01*
X148348271Y-104497982D01*
X148338106Y-104481394D01*
X148328050Y-104461658D01*
X148307398Y-104441006D01*
X148307380Y-104440986D01*
X138786819Y-94920425D01*
X138753334Y-94859102D01*
X138750500Y-94832744D01*
X138750500Y-81624500D01*
X138770185Y-81557461D01*
X138822989Y-81511706D01*
X138874500Y-81500500D01*
X151343431Y-81500500D01*
X151343433Y-81500500D01*
X151364501Y-81493654D01*
X151383417Y-81489112D01*
X151405304Y-81485646D01*
X151425044Y-81475586D01*
X151443011Y-81468144D01*
X151464090Y-81461296D01*
X151482026Y-81448263D01*
X151498588Y-81438114D01*
X151518342Y-81428050D01*
X151533834Y-81412557D01*
X151533841Y-81412552D01*
X152129599Y-80816793D01*
X152190922Y-80783308D01*
X152217835Y-80781050D01*
X152217835Y-80780500D01*
X152829270Y-80780500D01*
X152859699Y-80777646D01*
X152859701Y-80777646D01*
X152923790Y-80755219D01*
X152987882Y-80732793D01*
X153097150Y-80652150D01*
X153177793Y-80542882D01*
X153202406Y-80472543D01*
X153222646Y-80414701D01*
X153222646Y-80414699D01*
X153225500Y-80384269D01*
X153225500Y-80155000D01*
X153525000Y-80155000D01*
X153525000Y-80395649D01*
X153527899Y-80432489D01*
X153527900Y-80432495D01*
X153573716Y-80590193D01*
X153573717Y-80590196D01*
X153657314Y-80731552D01*
X153657321Y-80731561D01*
X153773438Y-80847678D01*
X153773447Y-80847685D01*
X153914803Y-80931282D01*
X153914806Y-80931283D01*
X154072504Y-80977099D01*
X154072510Y-80977100D01*
X154109350Y-80979999D01*
X154109366Y-80980000D01*
X154125000Y-80980000D01*
X154125000Y-80155000D01*
X154725000Y-80155000D01*
X154725000Y-80980000D01*
X154740634Y-80980000D01*
X154740649Y-80979999D01*
X154777489Y-80977100D01*
X154777495Y-80977099D01*
X154935193Y-80931283D01*
X154935196Y-80931282D01*
X155076552Y-80847685D01*
X155076561Y-80847678D01*
X155192678Y-80731561D01*
X155192685Y-80731552D01*
X155276282Y-80590196D01*
X155276283Y-80590193D01*
X155322099Y-80432495D01*
X155322100Y-80432489D01*
X155324999Y-80395649D01*
X155325000Y-80395634D01*
X155325000Y-80155000D01*
X154725000Y-80155000D01*
X154125000Y-80155000D01*
X153525000Y-80155000D01*
X153225500Y-80155000D01*
X153225500Y-79555000D01*
X153525000Y-79555000D01*
X154125000Y-79555000D01*
X154125000Y-78730000D01*
X154725000Y-78730000D01*
X154725000Y-79555000D01*
X155325000Y-79555000D01*
X155325000Y-79314365D01*
X155324999Y-79314350D01*
X155322100Y-79277510D01*
X155322099Y-79277504D01*
X155276283Y-79119806D01*
X155276282Y-79119803D01*
X155192685Y-78978447D01*
X155192678Y-78978438D01*
X155076561Y-78862321D01*
X155076552Y-78862314D01*
X154935196Y-78778717D01*
X154935193Y-78778716D01*
X154777495Y-78732900D01*
X154777489Y-78732899D01*
X154740649Y-78730000D01*
X154725000Y-78730000D01*
X154125000Y-78730000D01*
X154109350Y-78730000D01*
X154072510Y-78732899D01*
X154072504Y-78732900D01*
X153914806Y-78778716D01*
X153914803Y-78778717D01*
X153773447Y-78862314D01*
X153773438Y-78862321D01*
X153657321Y-78978438D01*
X153657314Y-78978447D01*
X153573717Y-79119803D01*
X153573716Y-79119806D01*
X153527900Y-79277504D01*
X153527899Y-79277510D01*
X153525000Y-79314350D01*
X153525000Y-79555000D01*
X153225500Y-79555000D01*
X153225500Y-79325730D01*
X153222646Y-79295300D01*
X153222646Y-79295298D01*
X153177793Y-79167119D01*
X153177792Y-79167117D01*
X153139543Y-79115291D01*
X153097150Y-79057850D01*
X152987882Y-78977207D01*
X152987880Y-78977206D01*
X152859700Y-78932353D01*
X152829270Y-78929500D01*
X152829266Y-78929500D01*
X152220734Y-78929500D01*
X152220730Y-78929500D01*
X152190303Y-78932353D01*
X152145573Y-78948004D01*
X152089737Y-78967542D01*
X152048785Y-78974500D01*
X151871997Y-78974500D01*
X151804958Y-78954815D01*
X151780315Y-78933989D01*
X151749364Y-78900000D01*
X150999000Y-78900000D01*
X150931961Y-78880315D01*
X150886206Y-78827511D01*
X150875000Y-78776000D01*
X150875000Y-78774000D01*
X150894685Y-78706961D01*
X150947489Y-78661206D01*
X150999000Y-78650000D01*
X151749362Y-78650000D01*
X151780315Y-78616010D01*
X151840007Y-78579697D01*
X151871996Y-78575500D01*
X152112159Y-78575500D01*
X152120733Y-78576095D01*
X152132761Y-78577772D01*
X152132761Y-78577771D01*
X152132765Y-78577773D01*
X152175920Y-78575778D01*
X152180510Y-78575566D01*
X152183373Y-78575500D01*
X152202843Y-78575500D01*
X152202844Y-78575500D01*
X152205468Y-78575009D01*
X152214021Y-78574016D01*
X152215245Y-78573959D01*
X152244992Y-78572585D01*
X152251322Y-78569789D01*
X152278629Y-78561332D01*
X152285433Y-78560061D01*
X152311797Y-78543736D01*
X152319392Y-78539733D01*
X152347765Y-78527206D01*
X152352661Y-78522309D01*
X152375069Y-78504561D01*
X152380952Y-78500919D01*
X152399649Y-78476158D01*
X152405266Y-78469703D01*
X153288151Y-77586819D01*
X153349475Y-77553334D01*
X153375833Y-77550500D01*
X159137159Y-77550500D01*
X159145733Y-77551095D01*
X159157761Y-77552772D01*
X159157761Y-77552771D01*
X159157765Y-77552773D01*
X159200920Y-77550778D01*
X159205510Y-77550566D01*
X159208373Y-77550500D01*
X159227843Y-77550500D01*
X159227844Y-77550500D01*
X159230468Y-77550009D01*
X159239021Y-77549016D01*
X159240245Y-77548959D01*
X159269992Y-77547585D01*
X159276322Y-77544789D01*
X159303629Y-77536332D01*
X159310433Y-77535061D01*
X159336797Y-77518736D01*
X159344392Y-77514733D01*
X159372765Y-77502206D01*
X159377661Y-77497309D01*
X159400069Y-77479561D01*
X159405952Y-77475919D01*
X159424649Y-77451158D01*
X159430266Y-77444703D01*
X162568059Y-74306910D01*
X162574532Y-74301279D01*
X162584224Y-74293959D01*
X162584228Y-74293958D01*
X162616459Y-74258600D01*
X162618367Y-74256602D01*
X162632174Y-74242797D01*
X162633684Y-74240592D01*
X162639023Y-74233851D01*
X162641763Y-74230844D01*
X162659916Y-74210933D01*
X162662416Y-74204478D01*
X162675749Y-74179182D01*
X162679656Y-74173481D01*
X162686757Y-74143285D01*
X162689292Y-74135101D01*
X162700500Y-74106173D01*
X162700500Y-74099248D01*
X162703795Y-74070855D01*
X162705378Y-74064123D01*
X162705379Y-74064119D01*
X162701095Y-74033408D01*
X162700500Y-74024833D01*
X162700500Y-65563738D01*
X162720185Y-65496699D01*
X162730787Y-65482535D01*
X162731124Y-65482144D01*
X162731128Y-65482143D01*
X162825377Y-65373373D01*
X162885165Y-65242457D01*
X162905647Y-65100000D01*
X162885165Y-64957543D01*
X162825377Y-64826627D01*
X162731128Y-64717857D01*
X162610053Y-64640047D01*
X162610051Y-64640046D01*
X162610049Y-64640045D01*
X162610050Y-64640045D01*
X162471963Y-64599500D01*
X162471961Y-64599500D01*
X162328039Y-64599500D01*
X162328035Y-64599500D01*
X162259434Y-64619643D01*
X162189564Y-64619643D01*
X162130786Y-64581868D01*
X162101762Y-64518312D01*
X162100500Y-64500666D01*
X162100500Y-57062839D01*
X162101095Y-57054263D01*
X162102771Y-57042240D01*
X162102773Y-57042236D01*
X162100566Y-56994491D01*
X162100500Y-56991628D01*
X162100500Y-56972159D01*
X162100499Y-56972153D01*
X162100009Y-56969533D01*
X162099016Y-56960980D01*
X162098754Y-56955315D01*
X162097585Y-56930009D01*
X162094788Y-56923676D01*
X162086332Y-56896370D01*
X162085061Y-56889567D01*
X162068738Y-56863205D01*
X162064731Y-56855602D01*
X162052207Y-56827237D01*
X162052206Y-56827236D01*
X162052206Y-56827235D01*
X162047308Y-56822338D01*
X162029563Y-56799934D01*
X162025918Y-56794047D01*
X162001172Y-56775360D01*
X161994694Y-56769723D01*
X159856922Y-54631950D01*
X159851278Y-54625465D01*
X159843956Y-54615770D01*
X159808624Y-54583560D01*
X159806573Y-54581602D01*
X159792797Y-54567826D01*
X159790586Y-54566311D01*
X159783853Y-54560978D01*
X159760933Y-54540084D01*
X159754470Y-54537580D01*
X159729192Y-54524256D01*
X159723481Y-54520344D01*
X159723478Y-54520343D01*
X159723479Y-54520343D01*
X159693302Y-54513244D01*
X159685094Y-54510703D01*
X159656173Y-54499500D01*
X159649249Y-54499500D01*
X159620858Y-54496206D01*
X159614119Y-54494621D01*
X159583409Y-54498905D01*
X159574834Y-54499500D01*
X152062841Y-54499500D01*
X152054267Y-54498905D01*
X152042238Y-54497227D01*
X152042235Y-54497227D01*
X152017219Y-54498383D01*
X151994490Y-54499434D01*
X151991627Y-54499500D01*
X151972156Y-54499500D01*
X151972151Y-54499500D01*
X151972149Y-54499501D01*
X151969515Y-54499993D01*
X151960985Y-54500982D01*
X151930006Y-54502415D01*
X151930004Y-54502415D01*
X151923658Y-54505217D01*
X151896385Y-54513663D01*
X151889570Y-54514937D01*
X151889566Y-54514939D01*
X151863204Y-54531261D01*
X151855603Y-54535267D01*
X151827234Y-54547793D01*
X151822329Y-54552698D01*
X151799939Y-54570433D01*
X151794049Y-54574080D01*
X151794044Y-54574084D01*
X151775358Y-54598827D01*
X151769717Y-54605310D01*
X151431947Y-54943079D01*
X151425465Y-54948720D01*
X151415771Y-54956041D01*
X151383559Y-54991374D01*
X151381585Y-54993442D01*
X151367827Y-55007200D01*
X151367822Y-55007206D01*
X151366306Y-55009420D01*
X151360976Y-55016148D01*
X151340083Y-55039066D01*
X151340083Y-55039067D01*
X151337578Y-55045533D01*
X151324259Y-55070802D01*
X151320345Y-55076515D01*
X151320343Y-55076521D01*
X151313244Y-55106699D01*
X151310702Y-55114907D01*
X151299500Y-55143826D01*
X151299500Y-55150751D01*
X151296206Y-55179141D01*
X151294621Y-55185877D01*
X151294621Y-55185881D01*
X151297350Y-55205447D01*
X151298905Y-55216590D01*
X151299500Y-55225166D01*
X151299500Y-56851000D01*
X151279815Y-56918039D01*
X151227011Y-56963794D01*
X151175500Y-56975000D01*
X150824500Y-56975000D01*
X150757461Y-56955315D01*
X150711706Y-56902511D01*
X150700500Y-56851000D01*
X150700500Y-55330249D01*
X150700499Y-55330247D01*
X150688868Y-55271770D01*
X150688867Y-55271769D01*
X150644552Y-55205447D01*
X150578230Y-55161132D01*
X150578229Y-55161131D01*
X150519752Y-55149500D01*
X150519748Y-55149500D01*
X150421509Y-55149500D01*
X150354470Y-55129815D01*
X150308715Y-55077011D01*
X150297641Y-55031228D01*
X150297585Y-55030009D01*
X150294788Y-55023676D01*
X150286332Y-54996370D01*
X150285061Y-54989567D01*
X150268738Y-54963205D01*
X150264731Y-54955602D01*
X150252207Y-54927237D01*
X150252206Y-54927236D01*
X150252206Y-54927235D01*
X150247308Y-54922338D01*
X150229563Y-54899934D01*
X150225918Y-54894047D01*
X150201172Y-54875360D01*
X150194694Y-54869723D01*
X149906922Y-54581951D01*
X149901278Y-54575465D01*
X149893956Y-54565770D01*
X149858624Y-54533560D01*
X149856573Y-54531602D01*
X149845314Y-54520343D01*
X149840000Y-54515028D01*
X149806517Y-54453704D01*
X149811504Y-54384013D01*
X149848413Y-54334710D01*
X149847458Y-54333662D01*
X149852938Y-54328665D01*
X149853377Y-54328080D01*
X149854186Y-54327527D01*
X149855945Y-54325922D01*
X149855952Y-54325919D01*
X149874649Y-54301158D01*
X149880266Y-54294703D01*
X150168059Y-54006910D01*
X150174532Y-54001279D01*
X150184224Y-53993959D01*
X150184228Y-53993958D01*
X150216459Y-53958600D01*
X150218367Y-53956602D01*
X150232174Y-53942797D01*
X150233684Y-53940592D01*
X150239023Y-53933851D01*
X150240489Y-53932242D01*
X150259916Y-53910933D01*
X150262416Y-53904478D01*
X150275750Y-53879183D01*
X150279656Y-53873481D01*
X150279655Y-53873481D01*
X150279657Y-53873480D01*
X150286757Y-53843291D01*
X150289291Y-53835106D01*
X150300500Y-53806173D01*
X150300500Y-53799248D01*
X150303795Y-53770855D01*
X150308011Y-53752932D01*
X150310426Y-53753500D01*
X150327917Y-53702722D01*
X150382775Y-53659451D01*
X150429031Y-53650500D01*
X150519750Y-53650500D01*
X150519751Y-53650499D01*
X150534568Y-53647552D01*
X150578229Y-53638868D01*
X150578229Y-53638867D01*
X150578231Y-53638867D01*
X150644552Y-53594552D01*
X150688867Y-53528231D01*
X150688867Y-53528229D01*
X150688868Y-53528229D01*
X150700499Y-53469752D01*
X150700500Y-53469750D01*
X150700500Y-50319700D01*
X150720185Y-50252661D01*
X150772989Y-50206906D01*
X150824500Y-50195700D01*
X151715500Y-50195700D01*
X151782539Y-50215385D01*
X151828294Y-50268189D01*
X151839500Y-50319700D01*
X151839500Y-53469752D01*
X151851131Y-53528229D01*
X151851132Y-53528230D01*
X151895447Y-53594552D01*
X151961769Y-53638867D01*
X151961770Y-53638868D01*
X152020247Y-53650499D01*
X152020250Y-53650500D01*
X152020252Y-53650500D01*
X153059750Y-53650500D01*
X153059751Y-53650499D01*
X153074568Y-53647552D01*
X153118229Y-53638868D01*
X153118229Y-53638867D01*
X153118231Y-53638867D01*
X153184552Y-53594552D01*
X153228867Y-53528231D01*
X153228867Y-53528229D01*
X153228868Y-53528229D01*
X153240499Y-53469752D01*
X153240500Y-53469750D01*
X153240500Y-50319700D01*
X153260185Y-50252661D01*
X153312989Y-50206906D01*
X153364500Y-50195700D01*
X164573458Y-50195700D01*
X164576122Y-50195757D01*
X164682572Y-50200333D01*
X164741151Y-50202852D01*
X164746204Y-50203277D01*
X164906184Y-50223353D01*
X164910971Y-50224146D01*
X165067316Y-50256435D01*
X165072539Y-50257755D01*
X165107358Y-50268189D01*
X165225477Y-50303585D01*
X165230265Y-50305236D01*
X165379547Y-50363624D01*
X165384063Y-50365601D01*
X165528598Y-50435838D01*
X165533153Y-50438292D01*
X165670545Y-50519884D01*
X165675033Y-50522821D01*
X165804719Y-50615893D01*
X165808729Y-50619028D01*
X165908412Y-50703813D01*
X165931127Y-50723133D01*
X165934714Y-50726435D01*
X166048058Y-50839339D01*
X166051688Y-50843281D01*
X166154996Y-50965702D01*
X166157996Y-50969556D01*
X166251685Y-51100190D01*
X166254479Y-51104443D01*
X166289689Y-51163189D01*
X166336305Y-51240966D01*
X166338971Y-51245909D01*
X166408415Y-51389895D01*
X166410323Y-51394275D01*
X166468993Y-51544498D01*
X166470619Y-51549211D01*
X166516529Y-51701980D01*
X166517842Y-51707148D01*
X166532674Y-51778194D01*
X166550564Y-51863895D01*
X166551388Y-51868826D01*
X166571367Y-52027598D01*
X166571803Y-52032882D01*
X166578351Y-52197828D01*
X166578400Y-52200288D01*
X166578400Y-97290891D01*
X166578367Y-97292921D01*
X166562289Y-97783811D01*
X166562022Y-97787867D01*
X166558038Y-97828141D01*
X166514118Y-98272025D01*
X166513589Y-98276036D01*
X166434170Y-98756310D01*
X166433388Y-98760244D01*
X166323072Y-99234452D01*
X166322017Y-99238394D01*
X166180799Y-99704161D01*
X166179503Y-99707982D01*
X166008287Y-100163593D01*
X166006710Y-100167400D01*
X165805604Y-100610663D01*
X165803839Y-100614242D01*
X165574747Y-101043453D01*
X165572673Y-101047044D01*
X165315590Y-101459708D01*
X165313371Y-101463026D01*
X165029754Y-101859028D01*
X165027305Y-101862222D01*
X164718938Y-102238579D01*
X164716223Y-102241677D01*
X164383336Y-102596967D01*
X164380476Y-102599827D01*
X164025056Y-102932743D01*
X164021978Y-102935441D01*
X163645651Y-103243960D01*
X163642473Y-103246398D01*
X163247164Y-103529866D01*
X163243730Y-103532159D01*
X162830448Y-103788687D01*
X162826992Y-103790681D01*
X162397556Y-104020376D01*
X162393939Y-104022162D01*
X161950835Y-104223293D01*
X161947007Y-104224878D01*
X161491345Y-104396017D01*
X161487549Y-104397305D01*
X161021883Y-104538618D01*
X161017926Y-104539678D01*
X160543774Y-104649982D01*
X160539826Y-104650766D01*
X160059456Y-104730087D01*
X160055460Y-104730614D01*
X159571344Y-104778523D01*
X159567281Y-104778791D01*
X159076793Y-104794966D01*
X159074749Y-104795000D01*
X158391135Y-104795000D01*
X158369524Y-104793102D01*
X158368897Y-104792991D01*
X158368895Y-104792991D01*
X158353852Y-104793732D01*
X158329631Y-104794925D01*
X158326581Y-104795000D01*
X158310461Y-104795000D01*
X158310459Y-104795000D01*
X158305505Y-104795558D01*
X158300623Y-104796353D01*
X158285092Y-104800712D01*
X158282140Y-104801462D01*
X158243818Y-104810209D01*
X158243237Y-104810490D01*
X158222955Y-104818152D01*
X158220424Y-104818862D01*
X158217928Y-104819876D01*
X158212779Y-104821705D01*
X158187101Y-104829574D01*
X158138538Y-104844454D01*
X158136773Y-104844966D01*
X158118747Y-104849909D01*
X158115969Y-104851018D01*
X158113208Y-104852216D01*
X158096984Y-104861543D01*
X158095374Y-104862436D01*
X158007609Y-104909473D01*
X158006010Y-104910301D01*
X157989202Y-104918690D01*
X157986747Y-104920280D01*
X157984327Y-104921951D01*
X157970169Y-104934279D01*
X157968793Y-104935442D01*
X157890918Y-104999360D01*
X157889556Y-105000447D01*
X157874594Y-105012039D01*
X157872574Y-105014002D01*
X157870587Y-105016046D01*
X157859030Y-105030964D01*
X157857944Y-105032327D01*
X157794004Y-105110228D01*
X157792842Y-105111603D01*
X157780501Y-105125777D01*
X157778838Y-105128185D01*
X157777241Y-105130648D01*
X157768858Y-105147446D01*
X157768042Y-105149022D01*
X157751092Y-105180650D01*
X157720977Y-105236841D01*
X157720084Y-105238451D01*
X157710762Y-105254668D01*
X157709593Y-105257358D01*
X157708459Y-105260199D01*
X157703518Y-105278218D01*
X157703005Y-105279985D01*
X157673532Y-105376171D01*
X157673100Y-105377527D01*
X157666938Y-105396100D01*
X157666460Y-105398358D01*
X157666031Y-105400649D01*
X157664603Y-105420183D01*
X157664482Y-105421603D01*
X157655991Y-105509778D01*
X157654723Y-105517627D01*
X157653451Y-105523200D01*
X157653451Y-105533188D01*
X157653165Y-105539136D01*
X157652209Y-105549063D01*
X157652209Y-105549065D01*
X157652940Y-105554726D01*
X157653451Y-105562675D01*
X157653451Y-106742404D01*
X157633766Y-106809443D01*
X157580962Y-106855198D01*
X157511804Y-106865142D01*
X157458328Y-106843979D01*
X157352487Y-106769868D01*
X157352483Y-106769866D01*
X157146326Y-106673734D01*
X157146320Y-106673731D01*
X157000000Y-106634525D01*
X157000000Y-107634314D01*
X156938045Y-107572359D01*
X156825148Y-107514835D01*
X156700000Y-107495014D01*
X156574852Y-107514835D01*
X156461955Y-107572359D01*
X156400000Y-107634314D01*
X156400000Y-106634525D01*
X156399999Y-106634525D01*
X156253679Y-106673731D01*
X156253673Y-106673734D01*
X156047517Y-106769865D01*
X155861179Y-106900342D01*
X155700342Y-107061179D01*
X155569865Y-107247517D01*
X155473734Y-107453673D01*
X155473730Y-107453682D01*
X155414860Y-107673389D01*
X155414858Y-107673400D01*
X155400000Y-107843233D01*
X155400000Y-108100000D01*
X156300000Y-108100000D01*
X156300000Y-108700000D01*
X155400000Y-108700000D01*
X155400000Y-108956766D01*
X155414858Y-109126599D01*
X155414860Y-109126610D01*
X155473730Y-109346317D01*
X155473734Y-109346326D01*
X155569865Y-109552482D01*
X155700342Y-109738820D01*
X155861179Y-109899657D01*
X156047517Y-110030134D01*
X156253673Y-110126265D01*
X156253682Y-110126269D01*
X156400000Y-110165473D01*
X156400000Y-109165686D01*
X156461955Y-109227641D01*
X156574852Y-109285165D01*
X156700000Y-109304986D01*
X156825148Y-109285165D01*
X156938045Y-109227641D01*
X157000000Y-109165686D01*
X157000000Y-110165472D01*
X157146317Y-110126269D01*
X157146326Y-110126265D01*
X157352482Y-110030134D01*
X157458327Y-109956020D01*
X157524533Y-109933693D01*
X157592300Y-109950703D01*
X157640114Y-110001651D01*
X157653451Y-110057595D01*
X157653451Y-112192404D01*
X157633766Y-112259443D01*
X157580962Y-112305198D01*
X157511804Y-112315142D01*
X157458328Y-112293979D01*
X157352487Y-112219868D01*
X157352483Y-112219866D01*
X157146326Y-112123734D01*
X157146320Y-112123731D01*
X157000000Y-112084525D01*
X157000000Y-113084314D01*
X156938045Y-113022359D01*
X156825148Y-112964835D01*
X156700000Y-112945014D01*
X156574852Y-112964835D01*
X156461955Y-113022359D01*
X156400000Y-113084313D01*
X156400000Y-112084525D01*
X156399999Y-112084525D01*
X156253679Y-112123731D01*
X156253673Y-112123734D01*
X156047517Y-112219865D01*
X155861179Y-112350342D01*
X155700342Y-112511179D01*
X155569865Y-112697517D01*
X155473734Y-112903673D01*
X155473730Y-112903682D01*
X155414860Y-113123389D01*
X155414858Y-113123400D01*
X155400000Y-113293233D01*
X155400000Y-113550000D01*
X156300000Y-113550000D01*
X156300000Y-114150000D01*
X155400000Y-114150000D01*
X155400000Y-114406766D01*
X155414858Y-114576599D01*
X155414860Y-114576610D01*
X155473730Y-114796317D01*
X155473734Y-114796326D01*
X155569865Y-115002482D01*
X155700342Y-115188820D01*
X155861179Y-115349657D01*
X156047517Y-115480134D01*
X156253673Y-115576265D01*
X156253682Y-115576269D01*
X156400000Y-115615473D01*
X156400000Y-114615686D01*
X156461955Y-114677641D01*
X156574852Y-114735165D01*
X156700000Y-114754986D01*
X156825148Y-114735165D01*
X156938045Y-114677641D01*
X157000000Y-114615686D01*
X157000000Y-115615472D01*
X157146317Y-115576269D01*
X157146326Y-115576265D01*
X157352482Y-115480134D01*
X157458327Y-115406020D01*
X157524533Y-115383693D01*
X157592300Y-115400703D01*
X157640114Y-115451651D01*
X157653451Y-115507595D01*
X157653451Y-116989582D01*
X157653104Y-116996139D01*
X157636965Y-117147994D01*
X157632008Y-117171897D01*
X157593332Y-117295579D01*
X157584073Y-117317523D01*
X157523330Y-117429928D01*
X157510260Y-117449437D01*
X157429789Y-117547917D01*
X157413487Y-117564435D01*
X157316089Y-117646183D01*
X157296757Y-117659507D01*
X157185162Y-117721729D01*
X157163332Y-117731279D01*
X157040207Y-117771560D01*
X157016379Y-117776829D01*
X156966959Y-117782740D01*
X156866467Y-117794761D01*
X156859105Y-117795200D01*
X143175948Y-117795200D01*
X143170434Y-117794954D01*
X143014057Y-117780986D01*
X142989786Y-117776346D01*
X142921808Y-117756156D01*
X142864155Y-117739032D01*
X142841797Y-117729940D01*
X142727409Y-117669853D01*
X142707623Y-117656915D01*
X142607154Y-117576553D01*
X142590251Y-117560171D01*
X142506801Y-117462283D01*
X142493242Y-117442900D01*
X142429631Y-117330473D01*
X142419822Y-117308336D01*
X142397892Y-117242009D01*
X142378667Y-117183863D01*
X142373303Y-117159871D01*
X142354901Y-117008019D01*
X142354451Y-117000555D01*
X142354451Y-115513128D01*
X142374136Y-115446089D01*
X142426940Y-115400334D01*
X142496098Y-115390390D01*
X142549575Y-115411554D01*
X142647510Y-115480129D01*
X142647516Y-115480133D01*
X142853673Y-115576265D01*
X142853682Y-115576269D01*
X143000000Y-115615473D01*
X143000000Y-114615686D01*
X143061955Y-114677641D01*
X143174852Y-114735165D01*
X143300000Y-114754986D01*
X143425148Y-114735165D01*
X143538045Y-114677641D01*
X143600000Y-114615685D01*
X143600000Y-115615472D01*
X143746317Y-115576269D01*
X143746326Y-115576265D01*
X143952482Y-115480134D01*
X144138820Y-115349657D01*
X144299657Y-115188820D01*
X144430134Y-115002482D01*
X144526265Y-114796326D01*
X144526269Y-114796317D01*
X144585139Y-114576610D01*
X144585141Y-114576599D01*
X144599999Y-114406766D01*
X144600000Y-114406764D01*
X144600000Y-114150000D01*
X143700000Y-114150000D01*
X143700000Y-113550000D01*
X144600000Y-113550000D01*
X144600000Y-113293235D01*
X144599999Y-113293233D01*
X144585141Y-113123400D01*
X144585139Y-113123389D01*
X144526269Y-112903682D01*
X144526265Y-112903673D01*
X144430134Y-112697517D01*
X144299657Y-112511179D01*
X144138820Y-112350342D01*
X143952482Y-112219865D01*
X143746326Y-112123734D01*
X143746320Y-112123731D01*
X143600000Y-112084525D01*
X143600000Y-113084314D01*
X143538045Y-113022359D01*
X143425148Y-112964835D01*
X143300000Y-112945014D01*
X143174852Y-112964835D01*
X143061955Y-113022359D01*
X143000000Y-113084314D01*
X143000000Y-112084525D01*
X142999999Y-112084525D01*
X142853679Y-112123731D01*
X142853673Y-112123734D01*
X142647516Y-112219866D01*
X142647512Y-112219868D01*
X142549574Y-112288446D01*
X142483368Y-112310773D01*
X142415601Y-112293763D01*
X142367788Y-112242815D01*
X142354451Y-112186871D01*
X142354451Y-110063128D01*
X142374136Y-109996089D01*
X142426940Y-109950334D01*
X142496098Y-109940390D01*
X142549575Y-109961554D01*
X142647510Y-110030129D01*
X142647516Y-110030133D01*
X142853673Y-110126265D01*
X142853682Y-110126269D01*
X143000000Y-110165473D01*
X143000000Y-109165686D01*
X143061955Y-109227641D01*
X143174852Y-109285165D01*
X143300000Y-109304986D01*
X143425148Y-109285165D01*
X143538045Y-109227641D01*
X143600000Y-109165685D01*
X143600000Y-110165472D01*
X143746317Y-110126269D01*
X143746326Y-110126265D01*
X143952482Y-110030134D01*
X144138820Y-109899657D01*
X144299657Y-109738820D01*
X144430134Y-109552482D01*
X144526265Y-109346326D01*
X144526269Y-109346317D01*
X144585139Y-109126610D01*
X144585141Y-109126599D01*
X144599999Y-108956766D01*
X144600000Y-108956764D01*
X144600000Y-108700000D01*
X143700000Y-108700000D01*
X143700000Y-108100000D01*
X144600000Y-108100000D01*
X144600000Y-107843235D01*
X144599999Y-107843233D01*
X144585141Y-107673400D01*
X144585139Y-107673389D01*
X144526269Y-107453682D01*
X144526265Y-107453673D01*
X144430134Y-107247517D01*
X144299657Y-107061179D01*
X144138820Y-106900342D01*
X143952482Y-106769865D01*
X143746326Y-106673734D01*
X143746320Y-106673731D01*
X143600000Y-106634525D01*
X143600000Y-107634314D01*
X143538045Y-107572359D01*
X143425148Y-107514835D01*
X143300000Y-107495014D01*
X143174852Y-107514835D01*
X143061955Y-107572359D01*
X143000000Y-107634313D01*
X143000000Y-106634525D01*
X142999999Y-106634525D01*
X142853679Y-106673731D01*
X142853673Y-106673734D01*
X142647516Y-106769866D01*
X142647512Y-106769868D01*
X142549574Y-106838446D01*
X142483368Y-106860773D01*
X142415601Y-106843763D01*
X142367788Y-106792815D01*
X142354451Y-106736871D01*
X142354451Y-105550459D01*
X142354827Y-105543642D01*
X142355523Y-105537344D01*
X142355719Y-105535573D01*
X142354856Y-105528052D01*
X142354451Y-105520976D01*
X142354451Y-105513415D01*
X142354451Y-105513410D01*
X142352640Y-105505480D01*
X142351492Y-105498761D01*
X142342633Y-105421603D01*
X142341136Y-105408566D01*
X142340980Y-105407022D01*
X142339310Y-105387974D01*
X142338784Y-105385375D01*
X142338167Y-105382698D01*
X142338166Y-105382687D01*
X142331824Y-105364687D01*
X142331312Y-105363170D01*
X142301150Y-105269625D01*
X142300601Y-105267825D01*
X142295486Y-105250047D01*
X142295484Y-105250043D01*
X142294283Y-105247139D01*
X142292946Y-105244178D01*
X142292945Y-105244173D01*
X142283523Y-105228324D01*
X142282553Y-105226630D01*
X142268721Y-105201584D01*
X142237062Y-105144257D01*
X142235851Y-105141948D01*
X142228282Y-105126739D01*
X142228279Y-105126735D01*
X142225941Y-105123119D01*
X142223444Y-105119596D01*
X142216305Y-105111603D01*
X142212120Y-105106917D01*
X142210410Y-105104917D01*
X142150788Y-105032116D01*
X142149666Y-105030705D01*
X142138195Y-105015836D01*
X142136143Y-105013718D01*
X142134059Y-105011688D01*
X142134057Y-105011686D01*
X142134056Y-105011685D01*
X142119237Y-105000179D01*
X142117830Y-104999054D01*
X142044901Y-104938951D01*
X142043163Y-104937464D01*
X142029896Y-104925682D01*
X142026856Y-104923539D01*
X142023728Y-104921503D01*
X142007847Y-104913538D01*
X142005822Y-104912475D01*
X141922595Y-104866814D01*
X141920724Y-104865744D01*
X141910069Y-104859407D01*
X141905231Y-104856530D01*
X141905229Y-104856529D01*
X141905227Y-104856528D01*
X141902005Y-104855072D01*
X141898795Y-104853754D01*
X141881448Y-104848814D01*
X141879388Y-104848188D01*
X141786363Y-104818166D01*
X141784805Y-104817640D01*
X141766759Y-104811283D01*
X141764208Y-104810694D01*
X141761538Y-104810153D01*
X141742518Y-104808478D01*
X141740887Y-104808312D01*
X141650688Y-104797957D01*
X141643965Y-104796807D01*
X141636043Y-104795000D01*
X141636041Y-104795000D01*
X141628476Y-104795000D01*
X141621399Y-104794595D01*
X141613884Y-104793732D01*
X141613874Y-104793732D01*
X141605797Y-104794625D01*
X141598984Y-104795000D01*
X135436333Y-104795000D01*
X135432824Y-104794900D01*
X135269576Y-104785627D01*
X135208436Y-104782155D01*
X135201554Y-104781377D01*
X134987556Y-104744992D01*
X134980810Y-104743454D01*
X134771789Y-104683354D01*
X134765255Y-104681074D01*
X134564698Y-104598264D01*
X134558361Y-104595217D01*
X134368289Y-104490150D01*
X134362404Y-104486452D01*
X134185413Y-104360886D01*
X134179987Y-104356561D01*
X134017525Y-104211444D01*
X134012581Y-104206499D01*
X133885061Y-104063690D01*
X133867941Y-104044517D01*
X133863621Y-104039097D01*
X133738046Y-103862093D01*
X133734348Y-103856209D01*
X133629282Y-103666140D01*
X133626234Y-103659802D01*
X133596738Y-103588366D01*
X133543418Y-103459233D01*
X133541145Y-103452718D01*
X133481043Y-103243684D01*
X133479507Y-103236945D01*
X133443121Y-103022945D01*
X133442344Y-103016078D01*
X133429599Y-102791674D01*
X133429500Y-102788167D01*
X133429500Y-77497316D01*
X133429500Y-52202540D01*
X133429599Y-52199069D01*
X133442346Y-51975073D01*
X133443117Y-51968247D01*
X133471623Y-51800247D01*
X133479517Y-51753728D01*
X133481058Y-51746963D01*
X133541144Y-51537981D01*
X133543422Y-51531458D01*
X133626189Y-51331004D01*
X133629258Y-51324633D01*
X133734395Y-51134875D01*
X133737995Y-51129146D01*
X133863473Y-50951841D01*
X133867946Y-50946241D01*
X133884582Y-50927717D01*
X134012908Y-50784828D01*
X134017722Y-50780028D01*
X134179990Y-50635134D01*
X134185395Y-50630825D01*
X134287022Y-50558727D01*
X134362409Y-50505244D01*
X134368288Y-50501549D01*
X134558587Y-50396357D01*
X134564795Y-50393364D01*
X134765643Y-50309992D01*
X134772136Y-50307712D01*
X134980963Y-50247230D01*
X134987792Y-50245666D01*
X135201556Y-50209320D01*
X135208421Y-50208544D01*
X135432824Y-50195799D01*
X135436332Y-50195700D01*
X135451490Y-50195700D01*
X146635500Y-50195700D01*
X146702539Y-50215385D01*
G37*
G04 #@! TD.AperFunction*
G04 #@! TA.AperFunction,Conductor*
G36*
X151054711Y-106026392D02*
G01*
X151106187Y-106073636D01*
X151117931Y-106099351D01*
X151172818Y-106268277D01*
X151172820Y-106268281D01*
X151172821Y-106268284D01*
X151267467Y-106432216D01*
X151369678Y-106545732D01*
X151394129Y-106572888D01*
X151552527Y-106687971D01*
X151550856Y-106690270D01*
X151590492Y-106731771D01*
X151603772Y-106800367D01*
X151577858Y-106865253D01*
X151525121Y-106904307D01*
X151507590Y-106911098D01*
X151507586Y-106911100D01*
X151462982Y-106938717D01*
X151462982Y-106938718D01*
X152000000Y-107475736D01*
X152000001Y-107475736D01*
X152537017Y-106938718D01*
X152492412Y-106911101D01*
X152492406Y-106911098D01*
X152474879Y-106904308D01*
X152419478Y-106861734D01*
X152395889Y-106795967D01*
X152411601Y-106727887D01*
X152449020Y-106690101D01*
X152447473Y-106687971D01*
X152557031Y-106608372D01*
X152605871Y-106572888D01*
X152732533Y-106432216D01*
X152766334Y-106373671D01*
X152830429Y-106262656D01*
X152833074Y-106264183D01*
X152869603Y-106220994D01*
X152936402Y-106200509D01*
X152937885Y-106200500D01*
X153224167Y-106200500D01*
X153291206Y-106220185D01*
X153311848Y-106236819D01*
X153613181Y-106538152D01*
X153646666Y-106599475D01*
X153649500Y-106625833D01*
X153649500Y-108374167D01*
X153629815Y-108441206D01*
X153613181Y-108461848D01*
X153211848Y-108863181D01*
X153150525Y-108896666D01*
X153124167Y-108899500D01*
X152626599Y-108899500D01*
X152559560Y-108879815D01*
X152538918Y-108863181D01*
X152000001Y-108324264D01*
X152000000Y-108324264D01*
X151461081Y-108863181D01*
X151399758Y-108896666D01*
X151373400Y-108899500D01*
X150537961Y-108899500D01*
X150470922Y-108879815D01*
X150425167Y-108827011D01*
X150415223Y-108757853D01*
X150444248Y-108694297D01*
X150465076Y-108675182D01*
X150569589Y-108599248D01*
X150605871Y-108572888D01*
X150732533Y-108432216D01*
X150780113Y-108349803D01*
X150830677Y-108301589D01*
X150899284Y-108288365D01*
X150964149Y-108314332D01*
X150998499Y-108356532D01*
X151038623Y-108437112D01*
X151575736Y-107900000D01*
X151595014Y-107900000D01*
X151614835Y-108025148D01*
X151672359Y-108138045D01*
X151761955Y-108227641D01*
X151874852Y-108285165D01*
X151968519Y-108300000D01*
X152031481Y-108300000D01*
X152125148Y-108285165D01*
X152238045Y-108227641D01*
X152327641Y-108138045D01*
X152385165Y-108025148D01*
X152404986Y-107900000D01*
X152424264Y-107900000D01*
X152961376Y-108437112D01*
X153030109Y-108299078D01*
X153030115Y-108299063D01*
X153085902Y-108102991D01*
X153085903Y-108102989D01*
X153104713Y-107900000D01*
X153104713Y-107899999D01*
X153085903Y-107697010D01*
X153085902Y-107697007D01*
X153030116Y-107500936D01*
X153030113Y-107500930D01*
X152961375Y-107362886D01*
X152424264Y-107899999D01*
X152424264Y-107900000D01*
X152404986Y-107900000D01*
X152385165Y-107774852D01*
X152327641Y-107661955D01*
X152238045Y-107572359D01*
X152125148Y-107514835D01*
X152031481Y-107500000D01*
X151968519Y-107500000D01*
X151874852Y-107514835D01*
X151761955Y-107572359D01*
X151672359Y-107661955D01*
X151614835Y-107774852D01*
X151595014Y-107900000D01*
X151575736Y-107900000D01*
X151575736Y-107899999D01*
X151038623Y-107362886D01*
X151038621Y-107362886D01*
X150998499Y-107443465D01*
X150950997Y-107494702D01*
X150883334Y-107512124D01*
X150816993Y-107490199D01*
X150780113Y-107450195D01*
X150732533Y-107367784D01*
X150605871Y-107227112D01*
X150605870Y-107227111D01*
X150452734Y-107115851D01*
X150452729Y-107115848D01*
X150279807Y-107038857D01*
X150279800Y-107038855D01*
X150197161Y-107021290D01*
X150135679Y-106988098D01*
X150101902Y-106926935D01*
X150106554Y-106857221D01*
X150148158Y-106801088D01*
X150197161Y-106778710D01*
X150203201Y-106777426D01*
X150279803Y-106761144D01*
X150452730Y-106684151D01*
X150605871Y-106572888D01*
X150732533Y-106432216D01*
X150827179Y-106268284D01*
X150882068Y-106099351D01*
X150921506Y-106041675D01*
X150985865Y-106014477D01*
X151054711Y-106026392D01*
G37*
G04 #@! TD.AperFunction*
G04 #@! TA.AperFunction,Conductor*
G36*
X152069213Y-75923678D02*
G01*
X152098238Y-75987233D01*
X152099500Y-76004881D01*
X152099500Y-77224167D01*
X152079815Y-77291206D01*
X152063181Y-77311848D01*
X151936848Y-77438181D01*
X151875525Y-77471666D01*
X151849167Y-77474500D01*
X151438297Y-77474500D01*
X151390842Y-77465060D01*
X151390114Y-77464758D01*
X151313404Y-77449500D01*
X150722016Y-77449500D01*
X150665721Y-77435985D01*
X150575144Y-77389833D01*
X150481486Y-77375000D01*
X150300000Y-77375000D01*
X150300000Y-79674999D01*
X150481479Y-79674999D01*
X150575149Y-79660164D01*
X150665724Y-79614014D01*
X150722015Y-79600499D01*
X151313400Y-79600499D01*
X151390117Y-79585240D01*
X151390119Y-79585238D01*
X151390849Y-79584937D01*
X151438297Y-79575500D01*
X151700500Y-79575500D01*
X151767539Y-79595185D01*
X151813294Y-79647989D01*
X151824500Y-79699500D01*
X151824500Y-79937745D01*
X151804815Y-80004784D01*
X151788181Y-80025426D01*
X151150426Y-80663181D01*
X151089103Y-80696666D01*
X151062745Y-80699500D01*
X138391275Y-80699500D01*
X138371879Y-80697973D01*
X138350000Y-80694508D01*
X138328120Y-80697973D01*
X138308725Y-80699500D01*
X138133559Y-80699500D01*
X138066520Y-80679815D01*
X138020765Y-80627011D01*
X138010821Y-80557853D01*
X138020765Y-80523988D01*
X138035165Y-80492457D01*
X138055647Y-80350000D01*
X138035165Y-80207543D01*
X137975377Y-80076627D01*
X137975375Y-80076625D01*
X137975374Y-80076622D01*
X137880787Y-79967462D01*
X137851762Y-79903906D01*
X137850500Y-79886260D01*
X137850500Y-79699500D01*
X137870185Y-79632461D01*
X137922989Y-79586706D01*
X137974500Y-79575500D01*
X148561703Y-79575500D01*
X148609158Y-79584940D01*
X148609885Y-79585241D01*
X148659879Y-79595185D01*
X148686599Y-79600500D01*
X149277982Y-79600499D01*
X149334277Y-79614014D01*
X149424855Y-79660166D01*
X149518514Y-79674999D01*
X149699999Y-79674999D01*
X149700000Y-79674998D01*
X149700000Y-77375000D01*
X149518520Y-77375000D01*
X149424849Y-77389835D01*
X149334277Y-77435985D01*
X149277982Y-77449500D01*
X148686602Y-77449500D01*
X148629321Y-77460893D01*
X148609883Y-77464760D01*
X148609882Y-77464760D01*
X148609879Y-77464761D01*
X148609151Y-77465063D01*
X148561703Y-77474500D01*
X148474500Y-77474500D01*
X148407461Y-77454815D01*
X148361706Y-77402011D01*
X148350500Y-77350500D01*
X148350500Y-76275832D01*
X148370185Y-76208793D01*
X148386814Y-76188156D01*
X148638151Y-75936819D01*
X148699475Y-75903334D01*
X148725833Y-75900500D01*
X151041499Y-75900500D01*
X151108538Y-75920185D01*
X151135211Y-75943296D01*
X151168872Y-75982143D01*
X151289947Y-76059953D01*
X151289950Y-76059954D01*
X151289949Y-76059954D01*
X151428036Y-76100499D01*
X151428038Y-76100500D01*
X151428039Y-76100500D01*
X151571962Y-76100500D01*
X151571962Y-76100499D01*
X151710053Y-76059953D01*
X151831128Y-75982143D01*
X151881786Y-75923679D01*
X151940565Y-75885904D01*
X152010434Y-75885904D01*
X152069213Y-75923678D01*
G37*
G04 #@! TD.AperFunction*
G04 #@! TA.AperFunction,Conductor*
G36*
X146528362Y-55070185D02*
G01*
X146574117Y-55122989D01*
X146584061Y-55192147D01*
X146576746Y-55215215D01*
X146577850Y-55215574D01*
X146574833Y-55224855D01*
X146560000Y-55318513D01*
X146560000Y-56625000D01*
X148359999Y-56625000D01*
X148359999Y-55318520D01*
X148345164Y-55224850D01*
X148342148Y-55215566D01*
X148345151Y-55214590D01*
X148335296Y-55162135D01*
X148361567Y-55097393D01*
X148418670Y-55057131D01*
X148458678Y-55050500D01*
X149226993Y-55050500D01*
X149294032Y-55070185D01*
X149339787Y-55122989D01*
X149349731Y-55192147D01*
X149330094Y-55243392D01*
X149311132Y-55271768D01*
X149311131Y-55271770D01*
X149299500Y-55330247D01*
X149299500Y-56851000D01*
X149279815Y-56918039D01*
X149227011Y-56963794D01*
X149175500Y-56975000D01*
X140837500Y-56975000D01*
X140837500Y-59975500D01*
X140817815Y-60042539D01*
X140765011Y-60088294D01*
X140713500Y-60099500D01*
X140462842Y-60099500D01*
X140454268Y-60098905D01*
X140442239Y-60097227D01*
X140442236Y-60097227D01*
X140417220Y-60098383D01*
X140394491Y-60099434D01*
X140391628Y-60099500D01*
X140372156Y-60099500D01*
X140372151Y-60099500D01*
X140372149Y-60099501D01*
X140369515Y-60099993D01*
X140360985Y-60100982D01*
X140330008Y-60102415D01*
X140330006Y-60102415D01*
X140323665Y-60105215D01*
X140296379Y-60113664D01*
X140289572Y-60114936D01*
X140289566Y-60114939D01*
X140263202Y-60131261D01*
X140255603Y-60135266D01*
X140227237Y-60147792D01*
X140222336Y-60152693D01*
X140199942Y-60170431D01*
X140194048Y-60174080D01*
X140175359Y-60198827D01*
X140169718Y-60205310D01*
X139281948Y-61093080D01*
X139275464Y-61098722D01*
X139265768Y-61106044D01*
X139233559Y-61141374D01*
X139231585Y-61143442D01*
X139217827Y-61157200D01*
X139217822Y-61157206D01*
X139216306Y-61159420D01*
X139210976Y-61166148D01*
X139190083Y-61189066D01*
X139190083Y-61189067D01*
X139187578Y-61195533D01*
X139174259Y-61220802D01*
X139170345Y-61226515D01*
X139170343Y-61226521D01*
X139163244Y-61256699D01*
X139160702Y-61264907D01*
X139149500Y-61293826D01*
X139149500Y-61300751D01*
X139146206Y-61329141D01*
X139144621Y-61335877D01*
X139144621Y-61335881D01*
X139148905Y-61366590D01*
X139149500Y-61375166D01*
X139149500Y-68084708D01*
X139129815Y-68151747D01*
X139077011Y-68197502D01*
X139007853Y-68207446D01*
X138968548Y-68192786D01*
X138968118Y-68193730D01*
X138960050Y-68190045D01*
X138821963Y-68149500D01*
X138821961Y-68149500D01*
X138678039Y-68149500D01*
X138678036Y-68149500D01*
X138539949Y-68190045D01*
X138418873Y-68267856D01*
X138324623Y-68376626D01*
X138324622Y-68376628D01*
X138264834Y-68507543D01*
X138244353Y-68650000D01*
X138264834Y-68792456D01*
X138324622Y-68923371D01*
X138324623Y-68923373D01*
X138418872Y-69032143D01*
X138418875Y-69032144D01*
X138419213Y-69032535D01*
X138448238Y-69096091D01*
X138449500Y-69113738D01*
X138449500Y-69400666D01*
X138429815Y-69467705D01*
X138377011Y-69513460D01*
X138307853Y-69523404D01*
X138290566Y-69519643D01*
X138221964Y-69499500D01*
X138221961Y-69499500D01*
X138078039Y-69499500D01*
X138078035Y-69499500D01*
X138009434Y-69519643D01*
X137939564Y-69519643D01*
X137880786Y-69481868D01*
X137851762Y-69418312D01*
X137850500Y-69400666D01*
X137850500Y-56175832D01*
X137870185Y-56108793D01*
X137886814Y-56088156D01*
X138888152Y-55086818D01*
X138949475Y-55053334D01*
X138975833Y-55050500D01*
X146461323Y-55050500D01*
X146528362Y-55070185D01*
G37*
G04 #@! TD.AperFunction*
G04 #@! TA.AperFunction,Conductor*
G36*
X159491206Y-55120185D02*
G01*
X159511848Y-55136819D01*
X161463180Y-57088151D01*
X161496665Y-57149474D01*
X161499499Y-57175832D01*
X161499499Y-61375166D01*
X161479814Y-61442205D01*
X161427010Y-61487960D01*
X161357852Y-61497904D01*
X161294296Y-61468879D01*
X161287818Y-61462847D01*
X160056922Y-60231951D01*
X160051278Y-60225465D01*
X160043956Y-60215770D01*
X160008624Y-60183560D01*
X160006573Y-60181602D01*
X159992797Y-60167826D01*
X159990586Y-60166311D01*
X159983853Y-60160978D01*
X159960933Y-60140084D01*
X159954470Y-60137580D01*
X159929192Y-60124256D01*
X159923481Y-60120344D01*
X159923478Y-60120343D01*
X159923479Y-60120343D01*
X159893302Y-60113244D01*
X159885094Y-60110703D01*
X159856173Y-60099500D01*
X159849249Y-60099500D01*
X159820858Y-60096206D01*
X159814119Y-60094621D01*
X159783409Y-60098905D01*
X159774834Y-60099500D01*
X159149000Y-60099500D01*
X159081961Y-60079815D01*
X159036206Y-60027011D01*
X159025000Y-59975500D01*
X159025000Y-56975000D01*
X152364000Y-56975000D01*
X152296961Y-56955315D01*
X152251206Y-56902511D01*
X152240000Y-56851000D01*
X152240000Y-56749000D01*
X152259685Y-56681961D01*
X152312489Y-56636206D01*
X152364000Y-56625000D01*
X153439999Y-56625000D01*
X153439999Y-55318520D01*
X153428181Y-55243896D01*
X153437137Y-55174602D01*
X153482135Y-55121151D01*
X153548887Y-55100513D01*
X153550655Y-55100500D01*
X159424167Y-55100500D01*
X159491206Y-55120185D01*
G37*
G04 #@! TD.AperFunction*
G04 #@! TD*
M02*
