G04 #@! TF.GenerationSoftware,KiCad,Pcbnew,7.99.0-1.20230515git1adcb86.fc37*
G04 #@! TF.CreationDate,2023-06-10T15:41:56+01:00*
G04 #@! TF.ProjectId,tr23-sao-r1,74723233-2d73-4616-9f2d-72312e6b6963,r1*
G04 #@! TF.SameCoordinates,Original*
G04 #@! TF.FileFunction,Soldermask,Top*
G04 #@! TF.FilePolarity,Negative*
%FSLAX46Y46*%
G04 Gerber Fmt 4.6, Leading zero omitted, Abs format (unit mm)*
G04 Created by KiCad (PCBNEW 7.99.0-1.20230515git1adcb86.fc37) date 2023-06-10 15:41:56*
%MOMM*%
%LPD*%
G01*
G04 APERTURE LIST*
%ADD10C,0.010000*%
%ADD11C,1.400000*%
%ADD12O,1.800000X2.800000*%
G04 #@! TA.AperFunction,Profile*
%ADD13C,0.100000*%
G04 #@! TD*
G04 APERTURE END LIST*
D10*
G04 #@! TO.C,GRAPHIC1*
X149816968Y-50322616D02*
X150295725Y-50322630D01*
X150773838Y-50322655D01*
X151250834Y-50322689D01*
X151726239Y-50322734D01*
X152199579Y-50322788D01*
X152670379Y-50322853D01*
X153138165Y-50322927D01*
X153602463Y-50323011D01*
X154062799Y-50323106D01*
X154518699Y-50323210D01*
X154969689Y-50323325D01*
X155415295Y-50323449D01*
X155855042Y-50323584D01*
X156288456Y-50323728D01*
X156715064Y-50323882D01*
X157134390Y-50324047D01*
X157545962Y-50324221D01*
X157949305Y-50324405D01*
X158343944Y-50324600D01*
X158729406Y-50324804D01*
X159105217Y-50325018D01*
X159470902Y-50325242D01*
X159825987Y-50325476D01*
X160169998Y-50325720D01*
X160502461Y-50325974D01*
X160822903Y-50326237D01*
X161130848Y-50326511D01*
X161425822Y-50326795D01*
X161707352Y-50327088D01*
X161974964Y-50327392D01*
X162228182Y-50327705D01*
X162466534Y-50328028D01*
X162689545Y-50328361D01*
X162896740Y-50328704D01*
X163087647Y-50329057D01*
X163261790Y-50329420D01*
X163418695Y-50329793D01*
X163557889Y-50330175D01*
X163678897Y-50330567D01*
X163781246Y-50330970D01*
X163864460Y-50331382D01*
X163928066Y-50331804D01*
X163971590Y-50332235D01*
X163994557Y-50332677D01*
X163995141Y-50332699D01*
X164287278Y-50350056D01*
X164562944Y-50378939D01*
X164823596Y-50419622D01*
X165070690Y-50472379D01*
X165305684Y-50537483D01*
X165530034Y-50615207D01*
X165558500Y-50626255D01*
X165678266Y-50676854D01*
X165800160Y-50734817D01*
X165917356Y-50796661D01*
X166023031Y-50858904D01*
X166055916Y-50880063D01*
X166104505Y-50913420D01*
X166154477Y-50949905D01*
X166202830Y-50987072D01*
X166246563Y-51022475D01*
X166282672Y-51053666D01*
X166308157Y-51078199D01*
X166320015Y-51093628D01*
X166320500Y-51095690D01*
X166309958Y-51096102D01*
X166278498Y-51096507D01*
X166226370Y-51096906D01*
X166153822Y-51097297D01*
X166061104Y-51097681D01*
X165948464Y-51098057D01*
X165816151Y-51098426D01*
X165664415Y-51098787D01*
X165493504Y-51099140D01*
X165303668Y-51099485D01*
X165095155Y-51099822D01*
X164868215Y-51100150D01*
X164623096Y-51100470D01*
X164360047Y-51100781D01*
X164079318Y-51101084D01*
X163781158Y-51101377D01*
X163465815Y-51101661D01*
X163133538Y-51101936D01*
X162784577Y-51102201D01*
X162419181Y-51102457D01*
X162037598Y-51102703D01*
X161640078Y-51102939D01*
X161226869Y-51103165D01*
X160798221Y-51103380D01*
X160354383Y-51103586D01*
X159895603Y-51103780D01*
X159422131Y-51103964D01*
X158934215Y-51104137D01*
X158432105Y-51104299D01*
X157916050Y-51104450D01*
X157386298Y-51104590D01*
X156843099Y-51104718D01*
X156286702Y-51104834D01*
X155717355Y-51104939D01*
X155135308Y-51105032D01*
X154540810Y-51105112D01*
X153934110Y-51105181D01*
X153315456Y-51105236D01*
X152685098Y-51105280D01*
X152043285Y-51105310D01*
X151390265Y-51105328D01*
X150823073Y-51105333D01*
X150129075Y-51105334D01*
X149455926Y-51105338D01*
X148803309Y-51105345D01*
X148170907Y-51105355D01*
X147558403Y-51105369D01*
X146965478Y-51105387D01*
X146391817Y-51105409D01*
X145837101Y-51105436D01*
X145301014Y-51105468D01*
X144783237Y-51105506D01*
X144283454Y-51105550D01*
X143801348Y-51105599D01*
X143336601Y-51105655D01*
X142888895Y-51105718D01*
X142457914Y-51105788D01*
X142043340Y-51105865D01*
X141644857Y-51105951D01*
X141262145Y-51106045D01*
X140894890Y-51106147D01*
X140542772Y-51106258D01*
X140205475Y-51106378D01*
X139882681Y-51106508D01*
X139574074Y-51106648D01*
X139279335Y-51106798D01*
X138998148Y-51106959D01*
X138730195Y-51107131D01*
X138475160Y-51107314D01*
X138232723Y-51107509D01*
X138002570Y-51107716D01*
X137784381Y-51107936D01*
X137577840Y-51108168D01*
X137382630Y-51108413D01*
X137198433Y-51108672D01*
X137024931Y-51108944D01*
X136861808Y-51109231D01*
X136708747Y-51109532D01*
X136565430Y-51109848D01*
X136431539Y-51110179D01*
X136306758Y-51110526D01*
X136190769Y-51110888D01*
X136083254Y-51111267D01*
X135983897Y-51111662D01*
X135892381Y-51112074D01*
X135808387Y-51112504D01*
X135731599Y-51112951D01*
X135661699Y-51113416D01*
X135598371Y-51113899D01*
X135541296Y-51114401D01*
X135490158Y-51114922D01*
X135444638Y-51115462D01*
X135404421Y-51116022D01*
X135369188Y-51116602D01*
X135338622Y-51117203D01*
X135312407Y-51117824D01*
X135290224Y-51118466D01*
X135271756Y-51119130D01*
X135256687Y-51119815D01*
X135244698Y-51120523D01*
X135235473Y-51121253D01*
X135228694Y-51122006D01*
X135225885Y-51122431D01*
X135078290Y-51158024D01*
X134940269Y-51212154D01*
X134812954Y-51284007D01*
X134697478Y-51372770D01*
X134594973Y-51477628D01*
X134506573Y-51597767D01*
X134464719Y-51669419D01*
X134422082Y-51759953D01*
X134385694Y-51861893D01*
X134360570Y-51952000D01*
X134359973Y-51955358D01*
X134359389Y-51960798D01*
X134358818Y-51968562D01*
X134358260Y-51978894D01*
X134357715Y-51992037D01*
X134357183Y-52008234D01*
X134356663Y-52027727D01*
X134356155Y-52050761D01*
X134355658Y-52077577D01*
X134355174Y-52108421D01*
X134354701Y-52143533D01*
X134354239Y-52183158D01*
X134353788Y-52227539D01*
X134353348Y-52276918D01*
X134352918Y-52331540D01*
X134352499Y-52391646D01*
X134352091Y-52457480D01*
X134351692Y-52529286D01*
X134351303Y-52607306D01*
X134350923Y-52691784D01*
X134350553Y-52782962D01*
X134350192Y-52881084D01*
X134349840Y-52986392D01*
X134349497Y-53099131D01*
X134349162Y-53219543D01*
X134348835Y-53347870D01*
X134348517Y-53484358D01*
X134348206Y-53629247D01*
X134347903Y-53782782D01*
X134347608Y-53945206D01*
X134347320Y-54116761D01*
X134347039Y-54297692D01*
X134346765Y-54488240D01*
X134346497Y-54688649D01*
X134346236Y-54899163D01*
X134345981Y-55120024D01*
X134345732Y-55351475D01*
X134345488Y-55593760D01*
X134345251Y-55847122D01*
X134345019Y-56111804D01*
X134344791Y-56388048D01*
X134344569Y-56676098D01*
X134344352Y-56976198D01*
X134344139Y-57288590D01*
X134343930Y-57613517D01*
X134343726Y-57951223D01*
X134343525Y-58301950D01*
X134343328Y-58665943D01*
X134343135Y-59043443D01*
X134342945Y-59434693D01*
X134342758Y-59839939D01*
X134342573Y-60259421D01*
X134342392Y-60693383D01*
X134342213Y-61142069D01*
X134342036Y-61605722D01*
X134341861Y-62084584D01*
X134341688Y-62578899D01*
X134341516Y-63088910D01*
X134341346Y-63614860D01*
X134341177Y-64156992D01*
X134341009Y-64715550D01*
X134340841Y-65290775D01*
X134340675Y-65882913D01*
X134340508Y-66492205D01*
X134340342Y-67118894D01*
X134340176Y-67763224D01*
X134340009Y-68425439D01*
X134339842Y-69105780D01*
X134339674Y-69804492D01*
X134339505Y-70521817D01*
X134339335Y-71257998D01*
X134339164Y-72013279D01*
X134338991Y-72787903D01*
X134338816Y-73582112D01*
X134338639Y-74396150D01*
X134338461Y-75230260D01*
X134338279Y-76084686D01*
X134338095Y-76959669D01*
X134337909Y-77855454D01*
X134337814Y-78313619D01*
X134332375Y-104606446D01*
X134205310Y-104475619D01*
X134156825Y-104424438D01*
X134107733Y-104370421D01*
X134062518Y-104318646D01*
X134025661Y-104274194D01*
X134011995Y-104256602D01*
X133909882Y-104106899D01*
X133821487Y-103947351D01*
X133746159Y-103776269D01*
X133683246Y-103591960D01*
X133632097Y-103392735D01*
X133592062Y-103176903D01*
X133589408Y-103159458D01*
X133588744Y-103154534D01*
X133588096Y-103148559D01*
X133587463Y-103141283D01*
X133586846Y-103132456D01*
X133586243Y-103121830D01*
X133585656Y-103109155D01*
X133585083Y-103094181D01*
X133584524Y-103076660D01*
X133583980Y-103056341D01*
X133583450Y-103032977D01*
X133582934Y-103006316D01*
X133582431Y-102976110D01*
X133581943Y-102942110D01*
X133581467Y-102904066D01*
X133581005Y-102861729D01*
X133580555Y-102814849D01*
X133580119Y-102763178D01*
X133579695Y-102706465D01*
X133579284Y-102644462D01*
X133578884Y-102576919D01*
X133578497Y-102503587D01*
X133578122Y-102424216D01*
X133577758Y-102338557D01*
X133577406Y-102246361D01*
X133577066Y-102147379D01*
X133576736Y-102041360D01*
X133576418Y-101928056D01*
X133576110Y-101807217D01*
X133575813Y-101678595D01*
X133575526Y-101541939D01*
X133575249Y-101397000D01*
X133574983Y-101243529D01*
X133574726Y-101081277D01*
X133574479Y-100909994D01*
X133574242Y-100729431D01*
X133574014Y-100539339D01*
X133573795Y-100339468D01*
X133573584Y-100129568D01*
X133573383Y-99909392D01*
X133573190Y-99678688D01*
X133573006Y-99437208D01*
X133572829Y-99184703D01*
X133572661Y-98920923D01*
X133572501Y-98645618D01*
X133572348Y-98358540D01*
X133572203Y-98059440D01*
X133572064Y-97748066D01*
X133571933Y-97424172D01*
X133571809Y-97087506D01*
X133571692Y-96737820D01*
X133571581Y-96374864D01*
X133571477Y-95998390D01*
X133571378Y-95608147D01*
X133571286Y-95203886D01*
X133571199Y-94785359D01*
X133571118Y-94352315D01*
X133571043Y-93904505D01*
X133570972Y-93441680D01*
X133570907Y-92963591D01*
X133570847Y-92469988D01*
X133570791Y-91960622D01*
X133570740Y-91435243D01*
X133570693Y-90893603D01*
X133570650Y-90335451D01*
X133570611Y-89760539D01*
X133570576Y-89168617D01*
X133570545Y-88559436D01*
X133570516Y-87932747D01*
X133570491Y-87288299D01*
X133570469Y-86625844D01*
X133570450Y-85945133D01*
X133570434Y-85245916D01*
X133570420Y-84527943D01*
X133570408Y-83790966D01*
X133570399Y-83034735D01*
X133570391Y-82259000D01*
X133570385Y-81463513D01*
X133570381Y-80648024D01*
X133570377Y-79812284D01*
X133570376Y-78956043D01*
X133570375Y-78079051D01*
X133570375Y-51925541D01*
X133594786Y-51814416D01*
X133647882Y-51619386D01*
X133718690Y-51434681D01*
X133806231Y-51261153D01*
X133909526Y-51099655D01*
X134027598Y-50951041D01*
X134159468Y-50816162D01*
X134304158Y-50695870D01*
X134460689Y-50591020D01*
X134628083Y-50502463D01*
X134805362Y-50431052D01*
X134991548Y-50377639D01*
X135185662Y-50343077D01*
X135295246Y-50332427D01*
X135312223Y-50331985D01*
X135349892Y-50331553D01*
X135407779Y-50331132D01*
X135485411Y-50330721D01*
X135582313Y-50330320D01*
X135698011Y-50329930D01*
X135832032Y-50329549D01*
X135983899Y-50329179D01*
X136153141Y-50328819D01*
X136339282Y-50328469D01*
X136541848Y-50328130D01*
X136760366Y-50327800D01*
X136994361Y-50327481D01*
X137243359Y-50327172D01*
X137506885Y-50326873D01*
X137784467Y-50326584D01*
X138075629Y-50326306D01*
X138379898Y-50326037D01*
X138696799Y-50325779D01*
X139025859Y-50325531D01*
X139366602Y-50325293D01*
X139718556Y-50325066D01*
X140081245Y-50324848D01*
X140454197Y-50324640D01*
X140836936Y-50324443D01*
X141228988Y-50324256D01*
X141629880Y-50324079D01*
X142039137Y-50323912D01*
X142456285Y-50323755D01*
X142880851Y-50323608D01*
X143312359Y-50323471D01*
X143750336Y-50323345D01*
X144194308Y-50323228D01*
X144643800Y-50323122D01*
X145098338Y-50323026D01*
X145557449Y-50322939D01*
X146020658Y-50322863D01*
X146487491Y-50322797D01*
X146957474Y-50322741D01*
X147430133Y-50322695D01*
X147904993Y-50322659D01*
X148381581Y-50322633D01*
X148859422Y-50322618D01*
X149338042Y-50322612D01*
X149816968Y-50322616D01*
G36*
X149816968Y-50322616D02*
G01*
X150295725Y-50322630D01*
X150773838Y-50322655D01*
X151250834Y-50322689D01*
X151726239Y-50322734D01*
X152199579Y-50322788D01*
X152670379Y-50322853D01*
X153138165Y-50322927D01*
X153602463Y-50323011D01*
X154062799Y-50323106D01*
X154518699Y-50323210D01*
X154969689Y-50323325D01*
X155415295Y-50323449D01*
X155855042Y-50323584D01*
X156288456Y-50323728D01*
X156715064Y-50323882D01*
X157134390Y-50324047D01*
X157545962Y-50324221D01*
X157949305Y-50324405D01*
X158343944Y-50324600D01*
X158729406Y-50324804D01*
X159105217Y-50325018D01*
X159470902Y-50325242D01*
X159825987Y-50325476D01*
X160169998Y-50325720D01*
X160502461Y-50325974D01*
X160822903Y-50326237D01*
X161130848Y-50326511D01*
X161425822Y-50326795D01*
X161707352Y-50327088D01*
X161974964Y-50327392D01*
X162228182Y-50327705D01*
X162466534Y-50328028D01*
X162689545Y-50328361D01*
X162896740Y-50328704D01*
X163087647Y-50329057D01*
X163261790Y-50329420D01*
X163418695Y-50329793D01*
X163557889Y-50330175D01*
X163678897Y-50330567D01*
X163781246Y-50330970D01*
X163864460Y-50331382D01*
X163928066Y-50331804D01*
X163971590Y-50332235D01*
X163994557Y-50332677D01*
X163995141Y-50332699D01*
X164287278Y-50350056D01*
X164562944Y-50378939D01*
X164823596Y-50419622D01*
X165070690Y-50472379D01*
X165305684Y-50537483D01*
X165530034Y-50615207D01*
X165558500Y-50626255D01*
X165678266Y-50676854D01*
X165800160Y-50734817D01*
X165917356Y-50796661D01*
X166023031Y-50858904D01*
X166055916Y-50880063D01*
X166104505Y-50913420D01*
X166154477Y-50949905D01*
X166202830Y-50987072D01*
X166246563Y-51022475D01*
X166282672Y-51053666D01*
X166308157Y-51078199D01*
X166320015Y-51093628D01*
X166320500Y-51095690D01*
X166309958Y-51096102D01*
X166278498Y-51096507D01*
X166226370Y-51096906D01*
X166153822Y-51097297D01*
X166061104Y-51097681D01*
X165948464Y-51098057D01*
X165816151Y-51098426D01*
X165664415Y-51098787D01*
X165493504Y-51099140D01*
X165303668Y-51099485D01*
X165095155Y-51099822D01*
X164868215Y-51100150D01*
X164623096Y-51100470D01*
X164360047Y-51100781D01*
X164079318Y-51101084D01*
X163781158Y-51101377D01*
X163465815Y-51101661D01*
X163133538Y-51101936D01*
X162784577Y-51102201D01*
X162419181Y-51102457D01*
X162037598Y-51102703D01*
X161640078Y-51102939D01*
X161226869Y-51103165D01*
X160798221Y-51103380D01*
X160354383Y-51103586D01*
X159895603Y-51103780D01*
X159422131Y-51103964D01*
X158934215Y-51104137D01*
X158432105Y-51104299D01*
X157916050Y-51104450D01*
X157386298Y-51104590D01*
X156843099Y-51104718D01*
X156286702Y-51104834D01*
X155717355Y-51104939D01*
X155135308Y-51105032D01*
X154540810Y-51105112D01*
X153934110Y-51105181D01*
X153315456Y-51105236D01*
X152685098Y-51105280D01*
X152043285Y-51105310D01*
X151390265Y-51105328D01*
X150823073Y-51105333D01*
X150129075Y-51105334D01*
X149455926Y-51105338D01*
X148803309Y-51105345D01*
X148170907Y-51105355D01*
X147558403Y-51105369D01*
X146965478Y-51105387D01*
X146391817Y-51105409D01*
X145837101Y-51105436D01*
X145301014Y-51105468D01*
X144783237Y-51105506D01*
X144283454Y-51105550D01*
X143801348Y-51105599D01*
X143336601Y-51105655D01*
X142888895Y-51105718D01*
X142457914Y-51105788D01*
X142043340Y-51105865D01*
X141644857Y-51105951D01*
X141262145Y-51106045D01*
X140894890Y-51106147D01*
X140542772Y-51106258D01*
X140205475Y-51106378D01*
X139882681Y-51106508D01*
X139574074Y-51106648D01*
X139279335Y-51106798D01*
X138998148Y-51106959D01*
X138730195Y-51107131D01*
X138475160Y-51107314D01*
X138232723Y-51107509D01*
X138002570Y-51107716D01*
X137784381Y-51107936D01*
X137577840Y-51108168D01*
X137382630Y-51108413D01*
X137198433Y-51108672D01*
X137024931Y-51108944D01*
X136861808Y-51109231D01*
X136708747Y-51109532D01*
X136565430Y-51109848D01*
X136431539Y-51110179D01*
X136306758Y-51110526D01*
X136190769Y-51110888D01*
X136083254Y-51111267D01*
X135983897Y-51111662D01*
X135892381Y-51112074D01*
X135808387Y-51112504D01*
X135731599Y-51112951D01*
X135661699Y-51113416D01*
X135598371Y-51113899D01*
X135541296Y-51114401D01*
X135490158Y-51114922D01*
X135444638Y-51115462D01*
X135404421Y-51116022D01*
X135369188Y-51116602D01*
X135338622Y-51117203D01*
X135312407Y-51117824D01*
X135290224Y-51118466D01*
X135271756Y-51119130D01*
X135256687Y-51119815D01*
X135244698Y-51120523D01*
X135235473Y-51121253D01*
X135228694Y-51122006D01*
X135225885Y-51122431D01*
X135078290Y-51158024D01*
X134940269Y-51212154D01*
X134812954Y-51284007D01*
X134697478Y-51372770D01*
X134594973Y-51477628D01*
X134506573Y-51597767D01*
X134464719Y-51669419D01*
X134422082Y-51759953D01*
X134385694Y-51861893D01*
X134360570Y-51952000D01*
X134359973Y-51955358D01*
X134359389Y-51960798D01*
X134358818Y-51968562D01*
X134358260Y-51978894D01*
X134357715Y-51992037D01*
X134357183Y-52008234D01*
X134356663Y-52027727D01*
X134356155Y-52050761D01*
X134355658Y-52077577D01*
X134355174Y-52108421D01*
X134354701Y-52143533D01*
X134354239Y-52183158D01*
X134353788Y-52227539D01*
X134353348Y-52276918D01*
X134352918Y-52331540D01*
X134352499Y-52391646D01*
X134352091Y-52457480D01*
X134351692Y-52529286D01*
X134351303Y-52607306D01*
X134350923Y-52691784D01*
X134350553Y-52782962D01*
X134350192Y-52881084D01*
X134349840Y-52986392D01*
X134349497Y-53099131D01*
X134349162Y-53219543D01*
X134348835Y-53347870D01*
X134348517Y-53484358D01*
X134348206Y-53629247D01*
X134347903Y-53782782D01*
X134347608Y-53945206D01*
X134347320Y-54116761D01*
X134347039Y-54297692D01*
X134346765Y-54488240D01*
X134346497Y-54688649D01*
X134346236Y-54899163D01*
X134345981Y-55120024D01*
X134345732Y-55351475D01*
X134345488Y-55593760D01*
X134345251Y-55847122D01*
X134345019Y-56111804D01*
X134344791Y-56388048D01*
X134344569Y-56676098D01*
X134344352Y-56976198D01*
X134344139Y-57288590D01*
X134343930Y-57613517D01*
X134343726Y-57951223D01*
X134343525Y-58301950D01*
X134343328Y-58665943D01*
X134343135Y-59043443D01*
X134342945Y-59434693D01*
X134342758Y-59839939D01*
X134342573Y-60259421D01*
X134342392Y-60693383D01*
X134342213Y-61142069D01*
X134342036Y-61605722D01*
X134341861Y-62084584D01*
X134341688Y-62578899D01*
X134341516Y-63088910D01*
X134341346Y-63614860D01*
X134341177Y-64156992D01*
X134341009Y-64715550D01*
X134340841Y-65290775D01*
X134340675Y-65882913D01*
X134340508Y-66492205D01*
X134340342Y-67118894D01*
X134340176Y-67763224D01*
X134340009Y-68425439D01*
X134339842Y-69105780D01*
X134339674Y-69804492D01*
X134339505Y-70521817D01*
X134339335Y-71257998D01*
X134339164Y-72013279D01*
X134338991Y-72787903D01*
X134338816Y-73582112D01*
X134338639Y-74396150D01*
X134338461Y-75230260D01*
X134338279Y-76084686D01*
X134338095Y-76959669D01*
X134337909Y-77855454D01*
X134337814Y-78313619D01*
X134332375Y-104606446D01*
X134205310Y-104475619D01*
X134156825Y-104424438D01*
X134107733Y-104370421D01*
X134062518Y-104318646D01*
X134025661Y-104274194D01*
X134011995Y-104256602D01*
X133909882Y-104106899D01*
X133821487Y-103947351D01*
X133746159Y-103776269D01*
X133683246Y-103591960D01*
X133632097Y-103392735D01*
X133592062Y-103176903D01*
X133589408Y-103159458D01*
X133588744Y-103154534D01*
X133588096Y-103148559D01*
X133587463Y-103141283D01*
X133586846Y-103132456D01*
X133586243Y-103121830D01*
X133585656Y-103109155D01*
X133585083Y-103094181D01*
X133584524Y-103076660D01*
X133583980Y-103056341D01*
X133583450Y-103032977D01*
X133582934Y-103006316D01*
X133582431Y-102976110D01*
X133581943Y-102942110D01*
X133581467Y-102904066D01*
X133581005Y-102861729D01*
X133580555Y-102814849D01*
X133580119Y-102763178D01*
X133579695Y-102706465D01*
X133579284Y-102644462D01*
X133578884Y-102576919D01*
X133578497Y-102503587D01*
X133578122Y-102424216D01*
X133577758Y-102338557D01*
X133577406Y-102246361D01*
X133577066Y-102147379D01*
X133576736Y-102041360D01*
X133576418Y-101928056D01*
X133576110Y-101807217D01*
X133575813Y-101678595D01*
X133575526Y-101541939D01*
X133575249Y-101397000D01*
X133574983Y-101243529D01*
X133574726Y-101081277D01*
X133574479Y-100909994D01*
X133574242Y-100729431D01*
X133574014Y-100539339D01*
X133573795Y-100339468D01*
X133573584Y-100129568D01*
X133573383Y-99909392D01*
X133573190Y-99678688D01*
X133573006Y-99437208D01*
X133572829Y-99184703D01*
X133572661Y-98920923D01*
X133572501Y-98645618D01*
X133572348Y-98358540D01*
X133572203Y-98059440D01*
X133572064Y-97748066D01*
X133571933Y-97424172D01*
X133571809Y-97087506D01*
X133571692Y-96737820D01*
X133571581Y-96374864D01*
X133571477Y-95998390D01*
X133571378Y-95608147D01*
X133571286Y-95203886D01*
X133571199Y-94785359D01*
X133571118Y-94352315D01*
X133571043Y-93904505D01*
X133570972Y-93441680D01*
X133570907Y-92963591D01*
X133570847Y-92469988D01*
X133570791Y-91960622D01*
X133570740Y-91435243D01*
X133570693Y-90893603D01*
X133570650Y-90335451D01*
X133570611Y-89760539D01*
X133570576Y-89168617D01*
X133570545Y-88559436D01*
X133570516Y-87932747D01*
X133570491Y-87288299D01*
X133570469Y-86625844D01*
X133570450Y-85945133D01*
X133570434Y-85245916D01*
X133570420Y-84527943D01*
X133570408Y-83790966D01*
X133570399Y-83034735D01*
X133570391Y-82259000D01*
X133570385Y-81463513D01*
X133570381Y-80648024D01*
X133570377Y-79812284D01*
X133570376Y-78956043D01*
X133570375Y-78079051D01*
X133570375Y-51925541D01*
X133594786Y-51814416D01*
X133647882Y-51619386D01*
X133718690Y-51434681D01*
X133806231Y-51261153D01*
X133909526Y-51099655D01*
X134027598Y-50951041D01*
X134159468Y-50816162D01*
X134304158Y-50695870D01*
X134460689Y-50591020D01*
X134628083Y-50502463D01*
X134805362Y-50431052D01*
X134991548Y-50377639D01*
X135185662Y-50343077D01*
X135295246Y-50332427D01*
X135312223Y-50331985D01*
X135349892Y-50331553D01*
X135407779Y-50331132D01*
X135485411Y-50330721D01*
X135582313Y-50330320D01*
X135698011Y-50329930D01*
X135832032Y-50329549D01*
X135983899Y-50329179D01*
X136153141Y-50328819D01*
X136339282Y-50328469D01*
X136541848Y-50328130D01*
X136760366Y-50327800D01*
X136994361Y-50327481D01*
X137243359Y-50327172D01*
X137506885Y-50326873D01*
X137784467Y-50326584D01*
X138075629Y-50326306D01*
X138379898Y-50326037D01*
X138696799Y-50325779D01*
X139025859Y-50325531D01*
X139366602Y-50325293D01*
X139718556Y-50325066D01*
X140081245Y-50324848D01*
X140454197Y-50324640D01*
X140836936Y-50324443D01*
X141228988Y-50324256D01*
X141629880Y-50324079D01*
X142039137Y-50323912D01*
X142456285Y-50323755D01*
X142880851Y-50323608D01*
X143312359Y-50323471D01*
X143750336Y-50323345D01*
X144194308Y-50323228D01*
X144643800Y-50323122D01*
X145098338Y-50323026D01*
X145557449Y-50322939D01*
X146020658Y-50322863D01*
X146487491Y-50322797D01*
X146957474Y-50322741D01*
X147430133Y-50322695D01*
X147904993Y-50322659D01*
X148381581Y-50322633D01*
X148859422Y-50322618D01*
X149338042Y-50322612D01*
X149816968Y-50322616D01*
G37*
X146762567Y-93630766D02*
X146820708Y-93643346D01*
X146859803Y-93656407D01*
X146902993Y-93672912D01*
X146945752Y-93690852D01*
X146983556Y-93708215D01*
X147011879Y-93722990D01*
X147026196Y-93733169D01*
X147027083Y-93735036D01*
X147017455Y-93739770D01*
X146992291Y-93744820D01*
X146959359Y-93748846D01*
X146885461Y-93759757D01*
X146800299Y-93778952D01*
X146711185Y-93804564D01*
X146630208Y-93832876D01*
X146611553Y-93840814D01*
X146574757Y-93857198D01*
X146520868Y-93881544D01*
X146450936Y-93913370D01*
X146366011Y-93952192D01*
X146267141Y-93997528D01*
X146155376Y-94048893D01*
X146031766Y-94105805D01*
X145897360Y-94167781D01*
X145753206Y-94234337D01*
X145600355Y-94304990D01*
X145439856Y-94379257D01*
X145272759Y-94456654D01*
X145100111Y-94536699D01*
X144922964Y-94618909D01*
X144899833Y-94629649D01*
X144686425Y-94728736D01*
X144491356Y-94819317D01*
X144313776Y-94901823D01*
X144152837Y-94976691D01*
X144007692Y-95044352D01*
X143877493Y-95105240D01*
X143761391Y-95159790D01*
X143658539Y-95208434D01*
X143568088Y-95251607D01*
X143489190Y-95289742D01*
X143420998Y-95323272D01*
X143362662Y-95352632D01*
X143313336Y-95378254D01*
X143272171Y-95400572D01*
X143238319Y-95420021D01*
X143210932Y-95437033D01*
X143189161Y-95452042D01*
X143172160Y-95465482D01*
X143159079Y-95477786D01*
X143149071Y-95489388D01*
X143141288Y-95500722D01*
X143134881Y-95512221D01*
X143129002Y-95524318D01*
X143122804Y-95537448D01*
X143122311Y-95538471D01*
X143096402Y-95614912D01*
X143086521Y-95700986D01*
X143092127Y-95793150D01*
X143112683Y-95887860D01*
X143147649Y-95981574D01*
X143196488Y-96070746D01*
X143205182Y-96083811D01*
X143224532Y-96114545D01*
X143235706Y-96137232D01*
X143236730Y-96147719D01*
X143235685Y-96147991D01*
X143219789Y-96143695D01*
X143191305Y-96132479D01*
X143158875Y-96117917D01*
X143074639Y-96066778D01*
X143003893Y-96000641D01*
X142947926Y-95921801D01*
X142908023Y-95832554D01*
X142885473Y-95735197D01*
X142881562Y-95632026D01*
X142882056Y-95624125D01*
X142897672Y-95518257D01*
X142929442Y-95425092D01*
X142978279Y-95342648D01*
X143045094Y-95268942D01*
X143045547Y-95268526D01*
X143054154Y-95260945D01*
X143064042Y-95253082D01*
X143076086Y-95244513D01*
X143091165Y-95234816D01*
X143110154Y-95223567D01*
X143133931Y-95210343D01*
X143163373Y-95194721D01*
X143199356Y-95176278D01*
X143242759Y-95154591D01*
X143294457Y-95129235D01*
X143355328Y-95099789D01*
X143426248Y-95065828D01*
X143508095Y-95026931D01*
X143601745Y-94982672D01*
X143708076Y-94932630D01*
X143827964Y-94876381D01*
X143962287Y-94813502D01*
X144111921Y-94743570D01*
X144277743Y-94666161D01*
X144460631Y-94580852D01*
X144661460Y-94487221D01*
X144752594Y-94444741D01*
X144929859Y-94362152D01*
X145102596Y-94281738D01*
X145269770Y-94203978D01*
X145430343Y-94129353D01*
X145583282Y-94058341D01*
X145727549Y-93991422D01*
X145862110Y-93929074D01*
X145985928Y-93871777D01*
X146097969Y-93820011D01*
X146197195Y-93774253D01*
X146282572Y-93734985D01*
X146353064Y-93702684D01*
X146407634Y-93677831D01*
X146445248Y-93660904D01*
X146464870Y-93652382D01*
X146466166Y-93651870D01*
X146529749Y-93634732D01*
X146605441Y-93625379D01*
X146685595Y-93623996D01*
X146762567Y-93630766D01*
G36*
X146762567Y-93630766D02*
G01*
X146820708Y-93643346D01*
X146859803Y-93656407D01*
X146902993Y-93672912D01*
X146945752Y-93690852D01*
X146983556Y-93708215D01*
X147011879Y-93722990D01*
X147026196Y-93733169D01*
X147027083Y-93735036D01*
X147017455Y-93739770D01*
X146992291Y-93744820D01*
X146959359Y-93748846D01*
X146885461Y-93759757D01*
X146800299Y-93778952D01*
X146711185Y-93804564D01*
X146630208Y-93832876D01*
X146611553Y-93840814D01*
X146574757Y-93857198D01*
X146520868Y-93881544D01*
X146450936Y-93913370D01*
X146366011Y-93952192D01*
X146267141Y-93997528D01*
X146155376Y-94048893D01*
X146031766Y-94105805D01*
X145897360Y-94167781D01*
X145753206Y-94234337D01*
X145600355Y-94304990D01*
X145439856Y-94379257D01*
X145272759Y-94456654D01*
X145100111Y-94536699D01*
X144922964Y-94618909D01*
X144899833Y-94629649D01*
X144686425Y-94728736D01*
X144491356Y-94819317D01*
X144313776Y-94901823D01*
X144152837Y-94976691D01*
X144007692Y-95044352D01*
X143877493Y-95105240D01*
X143761391Y-95159790D01*
X143658539Y-95208434D01*
X143568088Y-95251607D01*
X143489190Y-95289742D01*
X143420998Y-95323272D01*
X143362662Y-95352632D01*
X143313336Y-95378254D01*
X143272171Y-95400572D01*
X143238319Y-95420021D01*
X143210932Y-95437033D01*
X143189161Y-95452042D01*
X143172160Y-95465482D01*
X143159079Y-95477786D01*
X143149071Y-95489388D01*
X143141288Y-95500722D01*
X143134881Y-95512221D01*
X143129002Y-95524318D01*
X143122804Y-95537448D01*
X143122311Y-95538471D01*
X143096402Y-95614912D01*
X143086521Y-95700986D01*
X143092127Y-95793150D01*
X143112683Y-95887860D01*
X143147649Y-95981574D01*
X143196488Y-96070746D01*
X143205182Y-96083811D01*
X143224532Y-96114545D01*
X143235706Y-96137232D01*
X143236730Y-96147719D01*
X143235685Y-96147991D01*
X143219789Y-96143695D01*
X143191305Y-96132479D01*
X143158875Y-96117917D01*
X143074639Y-96066778D01*
X143003893Y-96000641D01*
X142947926Y-95921801D01*
X142908023Y-95832554D01*
X142885473Y-95735197D01*
X142881562Y-95632026D01*
X142882056Y-95624125D01*
X142897672Y-95518257D01*
X142929442Y-95425092D01*
X142978279Y-95342648D01*
X143045094Y-95268942D01*
X143045547Y-95268526D01*
X143054154Y-95260945D01*
X143064042Y-95253082D01*
X143076086Y-95244513D01*
X143091165Y-95234816D01*
X143110154Y-95223567D01*
X143133931Y-95210343D01*
X143163373Y-95194721D01*
X143199356Y-95176278D01*
X143242759Y-95154591D01*
X143294457Y-95129235D01*
X143355328Y-95099789D01*
X143426248Y-95065828D01*
X143508095Y-95026931D01*
X143601745Y-94982672D01*
X143708076Y-94932630D01*
X143827964Y-94876381D01*
X143962287Y-94813502D01*
X144111921Y-94743570D01*
X144277743Y-94666161D01*
X144460631Y-94580852D01*
X144661460Y-94487221D01*
X144752594Y-94444741D01*
X144929859Y-94362152D01*
X145102596Y-94281738D01*
X145269770Y-94203978D01*
X145430343Y-94129353D01*
X145583282Y-94058341D01*
X145727549Y-93991422D01*
X145862110Y-93929074D01*
X145985928Y-93871777D01*
X146097969Y-93820011D01*
X146197195Y-93774253D01*
X146282572Y-93734985D01*
X146353064Y-93702684D01*
X146407634Y-93677831D01*
X146445248Y-93660904D01*
X146464870Y-93652382D01*
X146466166Y-93651870D01*
X146529749Y-93634732D01*
X146605441Y-93625379D01*
X146685595Y-93623996D01*
X146762567Y-93630766D01*
G37*
X154704081Y-93624642D02*
X154794013Y-93639721D01*
X154816223Y-93645798D01*
X154856915Y-93659385D01*
X154900744Y-93676232D01*
X154943206Y-93694312D01*
X154979797Y-93711598D01*
X155006014Y-93726061D01*
X155017353Y-93735674D01*
X155017500Y-93736416D01*
X155008208Y-93742538D01*
X154985437Y-93745525D01*
X154981389Y-93745583D01*
X154933297Y-93749418D01*
X154870744Y-93760173D01*
X154798850Y-93776721D01*
X154722733Y-93797938D01*
X154676697Y-93812597D01*
X154652797Y-93821848D01*
X154611444Y-93839338D01*
X154553836Y-93864511D01*
X154481167Y-93896811D01*
X154394635Y-93935681D01*
X154295436Y-93980565D01*
X154184766Y-94030905D01*
X154063821Y-94086147D01*
X153933798Y-94145733D01*
X153795894Y-94209107D01*
X153651303Y-94275712D01*
X153501224Y-94344992D01*
X153346852Y-94416391D01*
X153189383Y-94489351D01*
X153030014Y-94563317D01*
X152869941Y-94637733D01*
X152710360Y-94712041D01*
X152552469Y-94785685D01*
X152397462Y-94858109D01*
X152246537Y-94928756D01*
X152100889Y-94997070D01*
X151961716Y-95062494D01*
X151830213Y-95124472D01*
X151707577Y-95182448D01*
X151595003Y-95235865D01*
X151493690Y-95284166D01*
X151404832Y-95326795D01*
X151329626Y-95363196D01*
X151269268Y-95392812D01*
X151224955Y-95415087D01*
X151197883Y-95429464D01*
X151189988Y-95434399D01*
X151138956Y-95489408D01*
X151102640Y-95556981D01*
X151080992Y-95634514D01*
X151073963Y-95719405D01*
X151081504Y-95809051D01*
X151103566Y-95900849D01*
X151140100Y-95992197D01*
X151191058Y-96080493D01*
X151202450Y-96096826D01*
X151219810Y-96123722D01*
X151227963Y-96142205D01*
X151226003Y-96147991D01*
X151210307Y-96143697D01*
X151181774Y-96132439D01*
X151146537Y-96116639D01*
X151146022Y-96116396D01*
X151067044Y-96068078D01*
X150997056Y-96003801D01*
X150939397Y-95927690D01*
X150897408Y-95843873D01*
X150880319Y-95788166D01*
X150871966Y-95730184D01*
X150869583Y-95661550D01*
X150873017Y-95591872D01*
X150882115Y-95530760D01*
X150884592Y-95520442D01*
X150912957Y-95439490D01*
X150953388Y-95363092D01*
X151002803Y-95295556D01*
X151058120Y-95241190D01*
X151107821Y-95208377D01*
X151121748Y-95201693D01*
X151153848Y-95186540D01*
X151203110Y-95163393D01*
X151268520Y-95132724D01*
X151349067Y-95095007D01*
X151443738Y-95050714D01*
X151551521Y-95000318D01*
X151671404Y-94944294D01*
X151802375Y-94883112D01*
X151943420Y-94817248D01*
X152093529Y-94747173D01*
X152251689Y-94673360D01*
X152416887Y-94596284D01*
X152588111Y-94516416D01*
X152764349Y-94434230D01*
X152799506Y-94417837D01*
X153020832Y-94314693D01*
X153223712Y-94220256D01*
X153408845Y-94134206D01*
X153576931Y-94056225D01*
X153728670Y-93985994D01*
X153864762Y-93923196D01*
X153985906Y-93867510D01*
X154092802Y-93818620D01*
X154186150Y-93776206D01*
X154266650Y-93739949D01*
X154335002Y-93709531D01*
X154391905Y-93684634D01*
X154438059Y-93664938D01*
X154474164Y-93650126D01*
X154500919Y-93639879D01*
X154519025Y-93633877D01*
X154524589Y-93632466D01*
X154611021Y-93622075D01*
X154704081Y-93624642D01*
G36*
X154704081Y-93624642D02*
G01*
X154794013Y-93639721D01*
X154816223Y-93645798D01*
X154856915Y-93659385D01*
X154900744Y-93676232D01*
X154943206Y-93694312D01*
X154979797Y-93711598D01*
X155006014Y-93726061D01*
X155017353Y-93735674D01*
X155017500Y-93736416D01*
X155008208Y-93742538D01*
X154985437Y-93745525D01*
X154981389Y-93745583D01*
X154933297Y-93749418D01*
X154870744Y-93760173D01*
X154798850Y-93776721D01*
X154722733Y-93797938D01*
X154676697Y-93812597D01*
X154652797Y-93821848D01*
X154611444Y-93839338D01*
X154553836Y-93864511D01*
X154481167Y-93896811D01*
X154394635Y-93935681D01*
X154295436Y-93980565D01*
X154184766Y-94030905D01*
X154063821Y-94086147D01*
X153933798Y-94145733D01*
X153795894Y-94209107D01*
X153651303Y-94275712D01*
X153501224Y-94344992D01*
X153346852Y-94416391D01*
X153189383Y-94489351D01*
X153030014Y-94563317D01*
X152869941Y-94637733D01*
X152710360Y-94712041D01*
X152552469Y-94785685D01*
X152397462Y-94858109D01*
X152246537Y-94928756D01*
X152100889Y-94997070D01*
X151961716Y-95062494D01*
X151830213Y-95124472D01*
X151707577Y-95182448D01*
X151595003Y-95235865D01*
X151493690Y-95284166D01*
X151404832Y-95326795D01*
X151329626Y-95363196D01*
X151269268Y-95392812D01*
X151224955Y-95415087D01*
X151197883Y-95429464D01*
X151189988Y-95434399D01*
X151138956Y-95489408D01*
X151102640Y-95556981D01*
X151080992Y-95634514D01*
X151073963Y-95719405D01*
X151081504Y-95809051D01*
X151103566Y-95900849D01*
X151140100Y-95992197D01*
X151191058Y-96080493D01*
X151202450Y-96096826D01*
X151219810Y-96123722D01*
X151227963Y-96142205D01*
X151226003Y-96147991D01*
X151210307Y-96143697D01*
X151181774Y-96132439D01*
X151146537Y-96116639D01*
X151146022Y-96116396D01*
X151067044Y-96068078D01*
X150997056Y-96003801D01*
X150939397Y-95927690D01*
X150897408Y-95843873D01*
X150880319Y-95788166D01*
X150871966Y-95730184D01*
X150869583Y-95661550D01*
X150873017Y-95591872D01*
X150882115Y-95530760D01*
X150884592Y-95520442D01*
X150912957Y-95439490D01*
X150953388Y-95363092D01*
X151002803Y-95295556D01*
X151058120Y-95241190D01*
X151107821Y-95208377D01*
X151121748Y-95201693D01*
X151153848Y-95186540D01*
X151203110Y-95163393D01*
X151268520Y-95132724D01*
X151349067Y-95095007D01*
X151443738Y-95050714D01*
X151551521Y-95000318D01*
X151671404Y-94944294D01*
X151802375Y-94883112D01*
X151943420Y-94817248D01*
X152093529Y-94747173D01*
X152251689Y-94673360D01*
X152416887Y-94596284D01*
X152588111Y-94516416D01*
X152764349Y-94434230D01*
X152799506Y-94417837D01*
X153020832Y-94314693D01*
X153223712Y-94220256D01*
X153408845Y-94134206D01*
X153576931Y-94056225D01*
X153728670Y-93985994D01*
X153864762Y-93923196D01*
X153985906Y-93867510D01*
X154092802Y-93818620D01*
X154186150Y-93776206D01*
X154266650Y-93739949D01*
X154335002Y-93709531D01*
X154391905Y-93684634D01*
X154438059Y-93664938D01*
X154474164Y-93650126D01*
X154500919Y-93639879D01*
X154519025Y-93633877D01*
X154524589Y-93632466D01*
X154611021Y-93622075D01*
X154704081Y-93624642D01*
G37*
X139156462Y-87363621D02*
X139157442Y-87393891D01*
X139158430Y-87442791D01*
X139159415Y-87509051D01*
X139160388Y-87591404D01*
X139161336Y-87688580D01*
X139162251Y-87799311D01*
X139163121Y-87922329D01*
X139163936Y-88056365D01*
X139164686Y-88200151D01*
X139165360Y-88352417D01*
X139165947Y-88511895D01*
X139166427Y-88673520D01*
X139166941Y-88871894D01*
X139167418Y-89050249D01*
X139167901Y-89209733D01*
X139168437Y-89351493D01*
X139169070Y-89476678D01*
X139169846Y-89586434D01*
X139170809Y-89681909D01*
X139172004Y-89764251D01*
X139173477Y-89834608D01*
X139175272Y-89894127D01*
X139177435Y-89943956D01*
X139180010Y-89985243D01*
X139183042Y-90019134D01*
X139186577Y-90046779D01*
X139190659Y-90069324D01*
X139195333Y-90087917D01*
X139200645Y-90103705D01*
X139206640Y-90117837D01*
X139213362Y-90131460D01*
X139220856Y-90145722D01*
X139224435Y-90152541D01*
X139257450Y-90200616D01*
X139303833Y-90247665D01*
X139343292Y-90277942D01*
X139369459Y-90295416D01*
X139322125Y-90294470D01*
X139280225Y-90290711D01*
X139236102Y-90282595D01*
X139227166Y-90280297D01*
X139129432Y-90242490D01*
X139041315Y-90187148D01*
X138965096Y-90116590D01*
X138903053Y-90033136D01*
X138857464Y-89939105D01*
X138841205Y-89887518D01*
X138838529Y-89875094D01*
X138836158Y-89858754D01*
X138834074Y-89837254D01*
X138832259Y-89809349D01*
X138830696Y-89773793D01*
X138829367Y-89729342D01*
X138828254Y-89674751D01*
X138827339Y-89608776D01*
X138826605Y-89530170D01*
X138826034Y-89437691D01*
X138825608Y-89330092D01*
X138825309Y-89206128D01*
X138825120Y-89064556D01*
X138825023Y-88904130D01*
X138825000Y-88750544D01*
X138825000Y-87675785D01*
X138986519Y-87514517D01*
X139034334Y-87467108D01*
X139077221Y-87425212D01*
X139112906Y-87391001D01*
X139139111Y-87366648D01*
X139153561Y-87354326D01*
X139155501Y-87353250D01*
X139156462Y-87363621D01*
G36*
X139156462Y-87363621D02*
G01*
X139157442Y-87393891D01*
X139158430Y-87442791D01*
X139159415Y-87509051D01*
X139160388Y-87591404D01*
X139161336Y-87688580D01*
X139162251Y-87799311D01*
X139163121Y-87922329D01*
X139163936Y-88056365D01*
X139164686Y-88200151D01*
X139165360Y-88352417D01*
X139165947Y-88511895D01*
X139166427Y-88673520D01*
X139166941Y-88871894D01*
X139167418Y-89050249D01*
X139167901Y-89209733D01*
X139168437Y-89351493D01*
X139169070Y-89476678D01*
X139169846Y-89586434D01*
X139170809Y-89681909D01*
X139172004Y-89764251D01*
X139173477Y-89834608D01*
X139175272Y-89894127D01*
X139177435Y-89943956D01*
X139180010Y-89985243D01*
X139183042Y-90019134D01*
X139186577Y-90046779D01*
X139190659Y-90069324D01*
X139195333Y-90087917D01*
X139200645Y-90103705D01*
X139206640Y-90117837D01*
X139213362Y-90131460D01*
X139220856Y-90145722D01*
X139224435Y-90152541D01*
X139257450Y-90200616D01*
X139303833Y-90247665D01*
X139343292Y-90277942D01*
X139369459Y-90295416D01*
X139322125Y-90294470D01*
X139280225Y-90290711D01*
X139236102Y-90282595D01*
X139227166Y-90280297D01*
X139129432Y-90242490D01*
X139041315Y-90187148D01*
X138965096Y-90116590D01*
X138903053Y-90033136D01*
X138857464Y-89939105D01*
X138841205Y-89887518D01*
X138838529Y-89875094D01*
X138836158Y-89858754D01*
X138834074Y-89837254D01*
X138832259Y-89809349D01*
X138830696Y-89773793D01*
X138829367Y-89729342D01*
X138828254Y-89674751D01*
X138827339Y-89608776D01*
X138826605Y-89530170D01*
X138826034Y-89437691D01*
X138825608Y-89330092D01*
X138825309Y-89206128D01*
X138825120Y-89064556D01*
X138825023Y-88904130D01*
X138825000Y-88750544D01*
X138825000Y-87675785D01*
X138986519Y-87514517D01*
X139034334Y-87467108D01*
X139077221Y-87425212D01*
X139112906Y-87391001D01*
X139139111Y-87366648D01*
X139153561Y-87354326D01*
X139155501Y-87353250D01*
X139156462Y-87363621D01*
G37*
X157091272Y-85155689D02*
X157273805Y-85187435D01*
X157451547Y-85238419D01*
X157623140Y-85308314D01*
X157787223Y-85396794D01*
X157942440Y-85503531D01*
X158087429Y-85628198D01*
X158113921Y-85654097D01*
X158161983Y-85703576D01*
X158208649Y-85754366D01*
X158251617Y-85803679D01*
X158288590Y-85848724D01*
X158317266Y-85886713D01*
X158335346Y-85914855D01*
X158340666Y-85929108D01*
X158333043Y-85926777D01*
X158312914Y-85913981D01*
X158284389Y-85893369D01*
X158279812Y-85889897D01*
X158154206Y-85800733D01*
X158027822Y-85723588D01*
X158021149Y-85719881D01*
X157912131Y-85666411D01*
X157788309Y-85617316D01*
X157655908Y-85574544D01*
X157521150Y-85540043D01*
X157390259Y-85515758D01*
X157352646Y-85510752D01*
X157285615Y-85505360D01*
X157204827Y-85502976D01*
X157116309Y-85503413D01*
X157026084Y-85506486D01*
X156940179Y-85512007D01*
X156864620Y-85519790D01*
X156816666Y-85527326D01*
X156621037Y-85575689D01*
X156434029Y-85642955D01*
X156256701Y-85728451D01*
X156090113Y-85831500D01*
X155935324Y-85951430D01*
X155793394Y-86087566D01*
X155665382Y-86239233D01*
X155636005Y-86279041D01*
X155593699Y-86343268D01*
X155548033Y-86421628D01*
X155502065Y-86508083D01*
X155458853Y-86596593D01*
X155421452Y-86681122D01*
X155392922Y-86755632D01*
X155389497Y-86765875D01*
X155342418Y-86938395D01*
X155311348Y-87116289D01*
X155296677Y-87295100D01*
X155298800Y-87470374D01*
X155314615Y-87616533D01*
X155319330Y-87651981D01*
X155321201Y-87678306D01*
X155319991Y-87689286D01*
X155313408Y-87683228D01*
X155301308Y-87662260D01*
X155286980Y-87632378D01*
X155216025Y-87448736D01*
X155165465Y-87262016D01*
X155135428Y-87073365D01*
X155126038Y-86883931D01*
X155137422Y-86694860D01*
X155165522Y-86526010D01*
X155209902Y-86363913D01*
X155271530Y-86201660D01*
X155347681Y-86045442D01*
X155435629Y-85901450D01*
X155449049Y-85882166D01*
X155503305Y-85812008D01*
X155570294Y-85735522D01*
X155645132Y-85657596D01*
X155722934Y-85583118D01*
X155798816Y-85516978D01*
X155864166Y-85466680D01*
X155939602Y-85417572D01*
X156027321Y-85367275D01*
X156120952Y-85318986D01*
X156214125Y-85275904D01*
X156300469Y-85241225D01*
X156340416Y-85227618D01*
X156528521Y-85179145D01*
X156717271Y-85151217D01*
X156905307Y-85143507D01*
X157091272Y-85155689D01*
G36*
X157091272Y-85155689D02*
G01*
X157273805Y-85187435D01*
X157451547Y-85238419D01*
X157623140Y-85308314D01*
X157787223Y-85396794D01*
X157942440Y-85503531D01*
X158087429Y-85628198D01*
X158113921Y-85654097D01*
X158161983Y-85703576D01*
X158208649Y-85754366D01*
X158251617Y-85803679D01*
X158288590Y-85848724D01*
X158317266Y-85886713D01*
X158335346Y-85914855D01*
X158340666Y-85929108D01*
X158333043Y-85926777D01*
X158312914Y-85913981D01*
X158284389Y-85893369D01*
X158279812Y-85889897D01*
X158154206Y-85800733D01*
X158027822Y-85723588D01*
X158021149Y-85719881D01*
X157912131Y-85666411D01*
X157788309Y-85617316D01*
X157655908Y-85574544D01*
X157521150Y-85540043D01*
X157390259Y-85515758D01*
X157352646Y-85510752D01*
X157285615Y-85505360D01*
X157204827Y-85502976D01*
X157116309Y-85503413D01*
X157026084Y-85506486D01*
X156940179Y-85512007D01*
X156864620Y-85519790D01*
X156816666Y-85527326D01*
X156621037Y-85575689D01*
X156434029Y-85642955D01*
X156256701Y-85728451D01*
X156090113Y-85831500D01*
X155935324Y-85951430D01*
X155793394Y-86087566D01*
X155665382Y-86239233D01*
X155636005Y-86279041D01*
X155593699Y-86343268D01*
X155548033Y-86421628D01*
X155502065Y-86508083D01*
X155458853Y-86596593D01*
X155421452Y-86681122D01*
X155392922Y-86755632D01*
X155389497Y-86765875D01*
X155342418Y-86938395D01*
X155311348Y-87116289D01*
X155296677Y-87295100D01*
X155298800Y-87470374D01*
X155314615Y-87616533D01*
X155319330Y-87651981D01*
X155321201Y-87678306D01*
X155319991Y-87689286D01*
X155313408Y-87683228D01*
X155301308Y-87662260D01*
X155286980Y-87632378D01*
X155216025Y-87448736D01*
X155165465Y-87262016D01*
X155135428Y-87073365D01*
X155126038Y-86883931D01*
X155137422Y-86694860D01*
X155165522Y-86526010D01*
X155209902Y-86363913D01*
X155271530Y-86201660D01*
X155347681Y-86045442D01*
X155435629Y-85901450D01*
X155449049Y-85882166D01*
X155503305Y-85812008D01*
X155570294Y-85735522D01*
X155645132Y-85657596D01*
X155722934Y-85583118D01*
X155798816Y-85516978D01*
X155864166Y-85466680D01*
X155939602Y-85417572D01*
X156027321Y-85367275D01*
X156120952Y-85318986D01*
X156214125Y-85275904D01*
X156300469Y-85241225D01*
X156340416Y-85227618D01*
X156528521Y-85179145D01*
X156717271Y-85151217D01*
X156905307Y-85143507D01*
X157091272Y-85155689D01*
G37*
X138858806Y-84989928D02*
X138907174Y-85038571D01*
X138950057Y-85082360D01*
X138985317Y-85119056D01*
X139010815Y-85146420D01*
X139024411Y-85162215D01*
X139026083Y-85165021D01*
X139015719Y-85166067D01*
X138985503Y-85167074D01*
X138936752Y-85168032D01*
X138870780Y-85168933D01*
X138788904Y-85169769D01*
X138692437Y-85170531D01*
X138582696Y-85171211D01*
X138460996Y-85171799D01*
X138328652Y-85172287D01*
X138186981Y-85172666D01*
X138037296Y-85172928D01*
X137880914Y-85173065D01*
X137798076Y-85173083D01*
X137606020Y-85173117D01*
X137434053Y-85173230D01*
X137281098Y-85173432D01*
X137146079Y-85173737D01*
X137027919Y-85174157D01*
X136925541Y-85174704D01*
X136837867Y-85175391D01*
X136763821Y-85176230D01*
X136702326Y-85177234D01*
X136652305Y-85178414D01*
X136612681Y-85179785D01*
X136582377Y-85181357D01*
X136560315Y-85183144D01*
X136545420Y-85185157D01*
X136536613Y-85187410D01*
X136536014Y-85187654D01*
X136494162Y-85214127D01*
X136457262Y-85252400D01*
X136433839Y-85292834D01*
X136431781Y-85307673D01*
X136429938Y-85340906D01*
X136428308Y-85392821D01*
X136426888Y-85463706D01*
X136425676Y-85553847D01*
X136424667Y-85663531D01*
X136423861Y-85793047D01*
X136423253Y-85942680D01*
X136422841Y-86112719D01*
X136422623Y-86303449D01*
X136422583Y-86438480D01*
X136422509Y-86590200D01*
X136422295Y-86735821D01*
X136421950Y-86873965D01*
X136421483Y-87003254D01*
X136420906Y-87122309D01*
X136420226Y-87229752D01*
X136419456Y-87324204D01*
X136418603Y-87404288D01*
X136417678Y-87468624D01*
X136416691Y-87515835D01*
X136415652Y-87544541D01*
X136414645Y-87553423D01*
X136399365Y-87549899D01*
X136380250Y-87544415D01*
X136306067Y-87512029D01*
X136235660Y-87463411D01*
X136175088Y-87403370D01*
X136139471Y-87353250D01*
X136130226Y-87337511D01*
X136122068Y-87322748D01*
X136114929Y-87307603D01*
X136108741Y-87290718D01*
X136103436Y-87270733D01*
X136098945Y-87246291D01*
X136095202Y-87216031D01*
X136092138Y-87178597D01*
X136089685Y-87132628D01*
X136087776Y-87076767D01*
X136086341Y-87009655D01*
X136085315Y-86929934D01*
X136084627Y-86836244D01*
X136084212Y-86727227D01*
X136084000Y-86601525D01*
X136083924Y-86457778D01*
X136083916Y-86294629D01*
X136083916Y-86241999D01*
X136083901Y-86073530D01*
X136083910Y-85924837D01*
X136084023Y-85794528D01*
X136084322Y-85681213D01*
X136084888Y-85583502D01*
X136085802Y-85500002D01*
X136087145Y-85429324D01*
X136088998Y-85370076D01*
X136091442Y-85320867D01*
X136094558Y-85280308D01*
X136098428Y-85247005D01*
X136103131Y-85219570D01*
X136108750Y-85196610D01*
X136115365Y-85176736D01*
X136123058Y-85158556D01*
X136131909Y-85140678D01*
X136141999Y-85121714D01*
X136150076Y-85106606D01*
X136180893Y-85059905D01*
X136224066Y-85009359D01*
X136273699Y-84960821D01*
X136323895Y-84920146D01*
X136361566Y-84896650D01*
X136397729Y-84879603D01*
X136441163Y-84861026D01*
X136464407Y-84851834D01*
X136474209Y-84848228D01*
X136484362Y-84845029D01*
X136496139Y-84842208D01*
X136510814Y-84839736D01*
X136529661Y-84837585D01*
X136553953Y-84835726D01*
X136584964Y-84834131D01*
X136623967Y-84832771D01*
X136672237Y-84831618D01*
X136731046Y-84830643D01*
X136801669Y-84829817D01*
X136885379Y-84829113D01*
X136983450Y-84828500D01*
X137097155Y-84827952D01*
X137227768Y-84827439D01*
X137376564Y-84826932D01*
X137544814Y-84826404D01*
X137607327Y-84826213D01*
X138691530Y-84822897D01*
X138858806Y-84989928D01*
G36*
X138858806Y-84989928D02*
G01*
X138907174Y-85038571D01*
X138950057Y-85082360D01*
X138985317Y-85119056D01*
X139010815Y-85146420D01*
X139024411Y-85162215D01*
X139026083Y-85165021D01*
X139015719Y-85166067D01*
X138985503Y-85167074D01*
X138936752Y-85168032D01*
X138870780Y-85168933D01*
X138788904Y-85169769D01*
X138692437Y-85170531D01*
X138582696Y-85171211D01*
X138460996Y-85171799D01*
X138328652Y-85172287D01*
X138186981Y-85172666D01*
X138037296Y-85172928D01*
X137880914Y-85173065D01*
X137798076Y-85173083D01*
X137606020Y-85173117D01*
X137434053Y-85173230D01*
X137281098Y-85173432D01*
X137146079Y-85173737D01*
X137027919Y-85174157D01*
X136925541Y-85174704D01*
X136837867Y-85175391D01*
X136763821Y-85176230D01*
X136702326Y-85177234D01*
X136652305Y-85178414D01*
X136612681Y-85179785D01*
X136582377Y-85181357D01*
X136560315Y-85183144D01*
X136545420Y-85185157D01*
X136536613Y-85187410D01*
X136536014Y-85187654D01*
X136494162Y-85214127D01*
X136457262Y-85252400D01*
X136433839Y-85292834D01*
X136431781Y-85307673D01*
X136429938Y-85340906D01*
X136428308Y-85392821D01*
X136426888Y-85463706D01*
X136425676Y-85553847D01*
X136424667Y-85663531D01*
X136423861Y-85793047D01*
X136423253Y-85942680D01*
X136422841Y-86112719D01*
X136422623Y-86303449D01*
X136422583Y-86438480D01*
X136422509Y-86590200D01*
X136422295Y-86735821D01*
X136421950Y-86873965D01*
X136421483Y-87003254D01*
X136420906Y-87122309D01*
X136420226Y-87229752D01*
X136419456Y-87324204D01*
X136418603Y-87404288D01*
X136417678Y-87468624D01*
X136416691Y-87515835D01*
X136415652Y-87544541D01*
X136414645Y-87553423D01*
X136399365Y-87549899D01*
X136380250Y-87544415D01*
X136306067Y-87512029D01*
X136235660Y-87463411D01*
X136175088Y-87403370D01*
X136139471Y-87353250D01*
X136130226Y-87337511D01*
X136122068Y-87322748D01*
X136114929Y-87307603D01*
X136108741Y-87290718D01*
X136103436Y-87270733D01*
X136098945Y-87246291D01*
X136095202Y-87216031D01*
X136092138Y-87178597D01*
X136089685Y-87132628D01*
X136087776Y-87076767D01*
X136086341Y-87009655D01*
X136085315Y-86929934D01*
X136084627Y-86836244D01*
X136084212Y-86727227D01*
X136084000Y-86601525D01*
X136083924Y-86457778D01*
X136083916Y-86294629D01*
X136083916Y-86241999D01*
X136083901Y-86073530D01*
X136083910Y-85924837D01*
X136084023Y-85794528D01*
X136084322Y-85681213D01*
X136084888Y-85583502D01*
X136085802Y-85500002D01*
X136087145Y-85429324D01*
X136088998Y-85370076D01*
X136091442Y-85320867D01*
X136094558Y-85280308D01*
X136098428Y-85247005D01*
X136103131Y-85219570D01*
X136108750Y-85196610D01*
X136115365Y-85176736D01*
X136123058Y-85158556D01*
X136131909Y-85140678D01*
X136141999Y-85121714D01*
X136150076Y-85106606D01*
X136180893Y-85059905D01*
X136224066Y-85009359D01*
X136273699Y-84960821D01*
X136323895Y-84920146D01*
X136361566Y-84896650D01*
X136397729Y-84879603D01*
X136441163Y-84861026D01*
X136464407Y-84851834D01*
X136474209Y-84848228D01*
X136484362Y-84845029D01*
X136496139Y-84842208D01*
X136510814Y-84839736D01*
X136529661Y-84837585D01*
X136553953Y-84835726D01*
X136584964Y-84834131D01*
X136623967Y-84832771D01*
X136672237Y-84831618D01*
X136731046Y-84830643D01*
X136801669Y-84829817D01*
X136885379Y-84829113D01*
X136983450Y-84828500D01*
X137097155Y-84827952D01*
X137227768Y-84827439D01*
X137376564Y-84826932D01*
X137544814Y-84826404D01*
X137607327Y-84826213D01*
X138691530Y-84822897D01*
X138858806Y-84989928D01*
G37*
X143846791Y-84829345D02*
X143917170Y-84853145D01*
X144015578Y-84897220D01*
X144102705Y-84958335D01*
X144176371Y-85034650D01*
X144231150Y-85118141D01*
X144252081Y-85164187D01*
X144270649Y-85217205D01*
X144285070Y-85270631D01*
X144293558Y-85317899D01*
X144294501Y-85351105D01*
X144291811Y-85364990D01*
X144286480Y-85366121D01*
X144275611Y-85352595D01*
X144260050Y-85328461D01*
X144221166Y-85279480D01*
X144171148Y-85240863D01*
X144105735Y-85209548D01*
X144083134Y-85201346D01*
X144016125Y-85178375D01*
X142679979Y-85175492D01*
X142513670Y-85175071D01*
X142353325Y-85174540D01*
X142200207Y-85173912D01*
X142055575Y-85173197D01*
X141920691Y-85172404D01*
X141796816Y-85171545D01*
X141685211Y-85170629D01*
X141587137Y-85169668D01*
X141503854Y-85168671D01*
X141436625Y-85167648D01*
X141386710Y-85166612D01*
X141355369Y-85165570D01*
X141343865Y-85164535D01*
X141343833Y-85164478D01*
X141351026Y-85154985D01*
X141371176Y-85132893D01*
X141402139Y-85100433D01*
X141441772Y-85059840D01*
X141487929Y-85013345D01*
X141511694Y-84989666D01*
X141679555Y-84822985D01*
X143846791Y-84829345D01*
G36*
X143846791Y-84829345D02*
G01*
X143917170Y-84853145D01*
X144015578Y-84897220D01*
X144102705Y-84958335D01*
X144176371Y-85034650D01*
X144231150Y-85118141D01*
X144252081Y-85164187D01*
X144270649Y-85217205D01*
X144285070Y-85270631D01*
X144293558Y-85317899D01*
X144294501Y-85351105D01*
X144291811Y-85364990D01*
X144286480Y-85366121D01*
X144275611Y-85352595D01*
X144260050Y-85328461D01*
X144221166Y-85279480D01*
X144171148Y-85240863D01*
X144105735Y-85209548D01*
X144083134Y-85201346D01*
X144016125Y-85178375D01*
X142679979Y-85175492D01*
X142513670Y-85175071D01*
X142353325Y-85174540D01*
X142200207Y-85173912D01*
X142055575Y-85173197D01*
X141920691Y-85172404D01*
X141796816Y-85171545D01*
X141685211Y-85170629D01*
X141587137Y-85169668D01*
X141503854Y-85168671D01*
X141436625Y-85167648D01*
X141386710Y-85166612D01*
X141355369Y-85165570D01*
X141343865Y-85164535D01*
X141343833Y-85164478D01*
X141351026Y-85154985D01*
X141371176Y-85132893D01*
X141402139Y-85100433D01*
X141441772Y-85059840D01*
X141487929Y-85013345D01*
X141511694Y-84989666D01*
X141679555Y-84822985D01*
X143846791Y-84829345D01*
G37*
X162446087Y-82583104D02*
X162544927Y-82588538D01*
X162637105Y-82597443D01*
X162716022Y-82609558D01*
X162727458Y-82611879D01*
X162917673Y-82662411D01*
X163097535Y-82731105D01*
X163266480Y-82817668D01*
X163423947Y-82921807D01*
X163569373Y-83043227D01*
X163587827Y-83060710D01*
X163627341Y-83100178D01*
X163669195Y-83144499D01*
X163711080Y-83190925D01*
X163750688Y-83236706D01*
X163785711Y-83279094D01*
X163813839Y-83315339D01*
X163832765Y-83342692D01*
X163840180Y-83358406D01*
X163839671Y-83360606D01*
X163829556Y-83357072D01*
X163807421Y-83343169D01*
X163777767Y-83321764D01*
X163773209Y-83318285D01*
X163619660Y-83212679D01*
X163453886Y-83121721D01*
X163279925Y-83047262D01*
X163101815Y-82991151D01*
X163016103Y-82971294D01*
X162822742Y-82942499D01*
X162628306Y-82934406D01*
X162434534Y-82946737D01*
X162243167Y-82979214D01*
X162055946Y-83031561D01*
X161874610Y-83103499D01*
X161733913Y-83175558D01*
X161570024Y-83280454D01*
X161419645Y-83400763D01*
X161283567Y-83535058D01*
X161162582Y-83681913D01*
X161057481Y-83839901D01*
X160969055Y-84007594D01*
X160898095Y-84183566D01*
X160845393Y-84366390D01*
X160811741Y-84554638D01*
X160797928Y-84746884D01*
X160799373Y-84860875D01*
X160802692Y-84919547D01*
X160807211Y-84976901D01*
X160812329Y-85026268D01*
X160817324Y-85060348D01*
X160822911Y-85094033D01*
X160825305Y-85118397D01*
X160824428Y-85127016D01*
X160818034Y-85120584D01*
X160805540Y-85099202D01*
X160789469Y-85067253D01*
X160786918Y-85061847D01*
X160722584Y-84901251D01*
X160674225Y-84730290D01*
X160642711Y-84553430D01*
X160628914Y-84375136D01*
X160629991Y-84257625D01*
X160648863Y-84066608D01*
X160687157Y-83882263D01*
X160743883Y-83705656D01*
X160818053Y-83537855D01*
X160908678Y-83379927D01*
X161014768Y-83232939D01*
X161135334Y-83097958D01*
X161269386Y-82976052D01*
X161415936Y-82868287D01*
X161573995Y-82775730D01*
X161742573Y-82699450D01*
X161920680Y-82640513D01*
X162107329Y-82599986D01*
X162175603Y-82590210D01*
X162254825Y-82583680D01*
X162347186Y-82581398D01*
X162446087Y-82583104D01*
G36*
X162446087Y-82583104D02*
G01*
X162544927Y-82588538D01*
X162637105Y-82597443D01*
X162716022Y-82609558D01*
X162727458Y-82611879D01*
X162917673Y-82662411D01*
X163097535Y-82731105D01*
X163266480Y-82817668D01*
X163423947Y-82921807D01*
X163569373Y-83043227D01*
X163587827Y-83060710D01*
X163627341Y-83100178D01*
X163669195Y-83144499D01*
X163711080Y-83190925D01*
X163750688Y-83236706D01*
X163785711Y-83279094D01*
X163813839Y-83315339D01*
X163832765Y-83342692D01*
X163840180Y-83358406D01*
X163839671Y-83360606D01*
X163829556Y-83357072D01*
X163807421Y-83343169D01*
X163777767Y-83321764D01*
X163773209Y-83318285D01*
X163619660Y-83212679D01*
X163453886Y-83121721D01*
X163279925Y-83047262D01*
X163101815Y-82991151D01*
X163016103Y-82971294D01*
X162822742Y-82942499D01*
X162628306Y-82934406D01*
X162434534Y-82946737D01*
X162243167Y-82979214D01*
X162055946Y-83031561D01*
X161874610Y-83103499D01*
X161733913Y-83175558D01*
X161570024Y-83280454D01*
X161419645Y-83400763D01*
X161283567Y-83535058D01*
X161162582Y-83681913D01*
X161057481Y-83839901D01*
X160969055Y-84007594D01*
X160898095Y-84183566D01*
X160845393Y-84366390D01*
X160811741Y-84554638D01*
X160797928Y-84746884D01*
X160799373Y-84860875D01*
X160802692Y-84919547D01*
X160807211Y-84976901D01*
X160812329Y-85026268D01*
X160817324Y-85060348D01*
X160822911Y-85094033D01*
X160825305Y-85118397D01*
X160824428Y-85127016D01*
X160818034Y-85120584D01*
X160805540Y-85099202D01*
X160789469Y-85067253D01*
X160786918Y-85061847D01*
X160722584Y-84901251D01*
X160674225Y-84730290D01*
X160642711Y-84553430D01*
X160628914Y-84375136D01*
X160629991Y-84257625D01*
X160648863Y-84066608D01*
X160687157Y-83882263D01*
X160743883Y-83705656D01*
X160818053Y-83537855D01*
X160908678Y-83379927D01*
X161014768Y-83232939D01*
X161135334Y-83097958D01*
X161269386Y-82976052D01*
X161415936Y-82868287D01*
X161573995Y-82775730D01*
X161742573Y-82699450D01*
X161920680Y-82640513D01*
X162107329Y-82599986D01*
X162175603Y-82590210D01*
X162254825Y-82583680D01*
X162347186Y-82581398D01*
X162446087Y-82583104D01*
G37*
X140695195Y-82084377D02*
X140826302Y-82084911D01*
X140936838Y-82085816D01*
X141026682Y-82087089D01*
X141095713Y-82088730D01*
X141143809Y-82090738D01*
X141168875Y-82092827D01*
X141263780Y-82114185D01*
X141348537Y-82150849D01*
X141419856Y-82201308D01*
X141433872Y-82214565D01*
X141461805Y-82247432D01*
X141490011Y-82288750D01*
X141515288Y-82332787D01*
X141534437Y-82373808D01*
X141544258Y-82406081D01*
X141544908Y-82413479D01*
X141544072Y-82416434D01*
X141540773Y-82419058D01*
X141533828Y-82421371D01*
X141522054Y-82423391D01*
X141504266Y-82425139D01*
X141479283Y-82426633D01*
X141445920Y-82427895D01*
X141402995Y-82428943D01*
X141349323Y-82429797D01*
X141283723Y-82430477D01*
X141205010Y-82431002D01*
X141112001Y-82431391D01*
X141003513Y-82431665D01*
X140878363Y-82431844D01*
X140735368Y-82431946D01*
X140573344Y-82431991D01*
X140427953Y-82432000D01*
X140249737Y-82432011D01*
X140091456Y-82432059D01*
X139951880Y-82432165D01*
X139829777Y-82432350D01*
X139723917Y-82432636D01*
X139633069Y-82433045D01*
X139556000Y-82433596D01*
X139491481Y-82434313D01*
X139438281Y-82435215D01*
X139395167Y-82436325D01*
X139360910Y-82437664D01*
X139334277Y-82439252D01*
X139314039Y-82441113D01*
X139298964Y-82443265D01*
X139287821Y-82445733D01*
X139279378Y-82448535D01*
X139272406Y-82451694D01*
X139271724Y-82452040D01*
X139227737Y-82480297D01*
X139197516Y-82515938D01*
X139179945Y-82551109D01*
X139177430Y-82558987D01*
X139175183Y-82570676D01*
X139173190Y-82587318D01*
X139171436Y-82610055D01*
X139169906Y-82640030D01*
X139168586Y-82678384D01*
X139167460Y-82726260D01*
X139166515Y-82784800D01*
X139165735Y-82855145D01*
X139165106Y-82938438D01*
X139164612Y-83035821D01*
X139164240Y-83148435D01*
X139163974Y-83277424D01*
X139163800Y-83423930D01*
X139163702Y-83589093D01*
X139163667Y-83774057D01*
X139163666Y-83812785D01*
X139163598Y-83971757D01*
X139163399Y-84124707D01*
X139163077Y-84270318D01*
X139162642Y-84407270D01*
X139162102Y-84534245D01*
X139161466Y-84649926D01*
X139160742Y-84752993D01*
X139159940Y-84842129D01*
X139159068Y-84916016D01*
X139158134Y-84973335D01*
X139157148Y-85012768D01*
X139156118Y-85032997D01*
X139155601Y-85035500D01*
X139146072Y-85028331D01*
X139123955Y-85008278D01*
X139091530Y-84977517D01*
X139051082Y-84938226D01*
X139004893Y-84892580D01*
X138986267Y-84873980D01*
X138825000Y-84712460D01*
X138825000Y-83637953D01*
X138824993Y-83458967D01*
X138825014Y-83299846D01*
X138825124Y-83159293D01*
X138825386Y-83036005D01*
X138825860Y-82928683D01*
X138826609Y-82836027D01*
X138827694Y-82756737D01*
X138829176Y-82689512D01*
X138831118Y-82633053D01*
X138833582Y-82586059D01*
X138836628Y-82547229D01*
X138840318Y-82515265D01*
X138844715Y-82488865D01*
X138849880Y-82466730D01*
X138855874Y-82447559D01*
X138862759Y-82430052D01*
X138870597Y-82412909D01*
X138879450Y-82394830D01*
X138884451Y-82384676D01*
X138934127Y-82305613D01*
X139000568Y-82233877D01*
X139079733Y-82172910D01*
X139167580Y-82126155D01*
X139204413Y-82112146D01*
X139274791Y-82088430D01*
X140179666Y-82085000D01*
X140371756Y-82084420D01*
X140543640Y-82084212D01*
X140695195Y-82084377D01*
G36*
X140695195Y-82084377D02*
G01*
X140826302Y-82084911D01*
X140936838Y-82085816D01*
X141026682Y-82087089D01*
X141095713Y-82088730D01*
X141143809Y-82090738D01*
X141168875Y-82092827D01*
X141263780Y-82114185D01*
X141348537Y-82150849D01*
X141419856Y-82201308D01*
X141433872Y-82214565D01*
X141461805Y-82247432D01*
X141490011Y-82288750D01*
X141515288Y-82332787D01*
X141534437Y-82373808D01*
X141544258Y-82406081D01*
X141544908Y-82413479D01*
X141544072Y-82416434D01*
X141540773Y-82419058D01*
X141533828Y-82421371D01*
X141522054Y-82423391D01*
X141504266Y-82425139D01*
X141479283Y-82426633D01*
X141445920Y-82427895D01*
X141402995Y-82428943D01*
X141349323Y-82429797D01*
X141283723Y-82430477D01*
X141205010Y-82431002D01*
X141112001Y-82431391D01*
X141003513Y-82431665D01*
X140878363Y-82431844D01*
X140735368Y-82431946D01*
X140573344Y-82431991D01*
X140427953Y-82432000D01*
X140249737Y-82432011D01*
X140091456Y-82432059D01*
X139951880Y-82432165D01*
X139829777Y-82432350D01*
X139723917Y-82432636D01*
X139633069Y-82433045D01*
X139556000Y-82433596D01*
X139491481Y-82434313D01*
X139438281Y-82435215D01*
X139395167Y-82436325D01*
X139360910Y-82437664D01*
X139334277Y-82439252D01*
X139314039Y-82441113D01*
X139298964Y-82443265D01*
X139287821Y-82445733D01*
X139279378Y-82448535D01*
X139272406Y-82451694D01*
X139271724Y-82452040D01*
X139227737Y-82480297D01*
X139197516Y-82515938D01*
X139179945Y-82551109D01*
X139177430Y-82558987D01*
X139175183Y-82570676D01*
X139173190Y-82587318D01*
X139171436Y-82610055D01*
X139169906Y-82640030D01*
X139168586Y-82678384D01*
X139167460Y-82726260D01*
X139166515Y-82784800D01*
X139165735Y-82855145D01*
X139165106Y-82938438D01*
X139164612Y-83035821D01*
X139164240Y-83148435D01*
X139163974Y-83277424D01*
X139163800Y-83423930D01*
X139163702Y-83589093D01*
X139163667Y-83774057D01*
X139163666Y-83812785D01*
X139163598Y-83971757D01*
X139163399Y-84124707D01*
X139163077Y-84270318D01*
X139162642Y-84407270D01*
X139162102Y-84534245D01*
X139161466Y-84649926D01*
X139160742Y-84752993D01*
X139159940Y-84842129D01*
X139159068Y-84916016D01*
X139158134Y-84973335D01*
X139157148Y-85012768D01*
X139156118Y-85032997D01*
X139155601Y-85035500D01*
X139146072Y-85028331D01*
X139123955Y-85008278D01*
X139091530Y-84977517D01*
X139051082Y-84938226D01*
X139004893Y-84892580D01*
X138986267Y-84873980D01*
X138825000Y-84712460D01*
X138825000Y-83637953D01*
X138824993Y-83458967D01*
X138825014Y-83299846D01*
X138825124Y-83159293D01*
X138825386Y-83036005D01*
X138825860Y-82928683D01*
X138826609Y-82836027D01*
X138827694Y-82756737D01*
X138829176Y-82689512D01*
X138831118Y-82633053D01*
X138833582Y-82586059D01*
X138836628Y-82547229D01*
X138840318Y-82515265D01*
X138844715Y-82488865D01*
X138849880Y-82466730D01*
X138855874Y-82447559D01*
X138862759Y-82430052D01*
X138870597Y-82412909D01*
X138879450Y-82394830D01*
X138884451Y-82384676D01*
X138934127Y-82305613D01*
X139000568Y-82233877D01*
X139079733Y-82172910D01*
X139167580Y-82126155D01*
X139204413Y-82112146D01*
X139274791Y-82088430D01*
X140179666Y-82085000D01*
X140371756Y-82084420D01*
X140543640Y-82084212D01*
X140695195Y-82084377D01*
G37*
X159028583Y-73478500D02*
X140867583Y-73478500D01*
X140867583Y-56979083D01*
X159028583Y-56979083D01*
X159028583Y-73478500D01*
G36*
X159028583Y-73478500D02*
G01*
X140867583Y-73478500D01*
X140867583Y-56979083D01*
X159028583Y-56979083D01*
X159028583Y-73478500D01*
G37*
G04 #@! TD*
D11*
G04 #@! TO.C,J2*
X152000000Y-105900000D03*
X150000000Y-105900000D03*
X148000000Y-105900000D03*
X148000000Y-107900000D03*
X150000000Y-107900000D03*
X152000000Y-107900000D03*
D12*
X156700000Y-113850000D03*
X156700000Y-108400000D03*
X143300000Y-113850000D03*
X143300000Y-108400000D03*
G04 #@! TD*
D13*
G04 #@! TO.C,GRAPHIC1*
X135428900Y-49995200D02*
X135182400Y-50009200D01*
X135182400Y-50009200D02*
X134939500Y-50050500D01*
X134939500Y-50050500D02*
X134702300Y-50119200D01*
X134702300Y-50119200D02*
X134474400Y-50213800D01*
X134474400Y-50213800D02*
X134258400Y-50333200D01*
X134258400Y-50333200D02*
X134057400Y-50475800D01*
X134057400Y-50475800D02*
X133873400Y-50640100D01*
X133873400Y-50640100D02*
X133708600Y-50823600D01*
X133708600Y-50823600D02*
X133566000Y-51025100D01*
X133566000Y-51025100D02*
X133446600Y-51240600D01*
X133446600Y-51240600D02*
X133352500Y-51468500D01*
X133352500Y-51468500D02*
X133284300Y-51705700D01*
X133284300Y-51705700D02*
X133243000Y-51949100D01*
X133243000Y-51949100D02*
X133229000Y-52195100D01*
X133229000Y-52195100D02*
X133229000Y-102795600D01*
X133229000Y-102795600D02*
X133243000Y-103042100D01*
X133243000Y-103042100D02*
X133284300Y-103285000D01*
X133284300Y-103285000D02*
X133352500Y-103522200D01*
X133352500Y-103522200D02*
X133446600Y-103750100D01*
X133446600Y-103750100D02*
X133566000Y-103966100D01*
X133566000Y-103966100D02*
X133708600Y-104167100D01*
X133708600Y-104167100D02*
X133872900Y-104351100D01*
X133872900Y-104351100D02*
X134057400Y-104515900D01*
X134057400Y-104515900D02*
X134258400Y-104658500D01*
X134258400Y-104658500D02*
X134474400Y-104777900D01*
X134474400Y-104777900D02*
X134702300Y-104872000D01*
X134702300Y-104872000D02*
X134939500Y-104940200D01*
X134939500Y-104940200D02*
X135182400Y-104981500D01*
X135182400Y-104981500D02*
X135428900Y-104995500D01*
X135428900Y-104995500D02*
X141613451Y-104995500D01*
X141613451Y-104995500D02*
X141721451Y-105007900D01*
X141721451Y-105007900D02*
X141822151Y-105040400D01*
X141822151Y-105040400D02*
X141913651Y-105090600D01*
X141913651Y-105090600D02*
X141993251Y-105156200D01*
X141993251Y-105156200D02*
X142058851Y-105236300D01*
X142058851Y-105236300D02*
X142109051Y-105327200D01*
X142109051Y-105327200D02*
X142141551Y-105428000D01*
X142141551Y-105428000D02*
X142153951Y-105536000D01*
X142153951Y-105536000D02*
X142153951Y-116895500D01*
X142153951Y-116895500D02*
X142153951Y-117016400D01*
X142153951Y-117016400D02*
X142178151Y-117216100D01*
X142178151Y-117216100D02*
X142239451Y-117401500D01*
X142239451Y-117401500D02*
X142334051Y-117568700D01*
X142334051Y-117568700D02*
X142457751Y-117713800D01*
X142457751Y-117713800D02*
X142606651Y-117832900D01*
X142606651Y-117832900D02*
X142776651Y-117922200D01*
X142776651Y-117922200D02*
X142963851Y-117977800D01*
X142963851Y-117977800D02*
X143164251Y-117995700D01*
X143164251Y-117995700D02*
X156874751Y-117995700D01*
X156874751Y-117995700D02*
X157072051Y-117972100D01*
X157072051Y-117972100D02*
X157255451Y-117912100D01*
X157255451Y-117912100D02*
X157421351Y-117819600D01*
X157421351Y-117819600D02*
X157565751Y-117698400D01*
X157565751Y-117698400D02*
X157685051Y-117552400D01*
X157685051Y-117552400D02*
X157775351Y-117385300D01*
X157775351Y-117385300D02*
X157832951Y-117201100D01*
X157832951Y-117201100D02*
X157853951Y-117003500D01*
X157853951Y-117003500D02*
X157853951Y-116895500D01*
X157853951Y-116895500D02*
X157853951Y-105545800D01*
X157853951Y-105545800D02*
X157864351Y-105437800D01*
X157864351Y-105437800D02*
X157895851Y-105335000D01*
X157895851Y-105335000D02*
X157946551Y-105240400D01*
X157946551Y-105240400D02*
X158015251Y-105156700D01*
X158015251Y-105156700D02*
X158098951Y-105088000D01*
X158098951Y-105088000D02*
X158193551Y-105037300D01*
X158193551Y-105037300D02*
X158296351Y-105005800D01*
X158296351Y-105005800D02*
X158333051Y-104995500D01*
X158333051Y-104995500D02*
X159079100Y-104995500D01*
X159079100Y-104995500D02*
X159582500Y-104978900D01*
X159582500Y-104978900D02*
X160083700Y-104929300D01*
X160083700Y-104929300D02*
X160580900Y-104847200D01*
X160580900Y-104847200D02*
X161071800Y-104733000D01*
X161071800Y-104733000D02*
X161553900Y-104586700D01*
X161553900Y-104586700D02*
X162025700Y-104409500D01*
X162025700Y-104409500D02*
X162484600Y-104201200D01*
X162484600Y-104201200D02*
X162929000Y-103963500D01*
X162929000Y-103963500D02*
X163356900Y-103697900D01*
X163356900Y-103697900D02*
X163766200Y-103404400D01*
X163766200Y-103404400D02*
X164155800Y-103085000D01*
X164155800Y-103085000D02*
X164523800Y-102740300D01*
X164523800Y-102740300D02*
X164868500Y-102372400D01*
X164868500Y-102372400D02*
X165187800Y-101982700D01*
X165187800Y-101982700D02*
X165481300Y-101572900D01*
X165481300Y-101572900D02*
X165747500Y-101145600D01*
X165747500Y-101145600D02*
X165984700Y-100701200D01*
X165984700Y-100701200D02*
X166192900Y-100242300D01*
X166192900Y-100242300D02*
X166370200Y-99770500D01*
X166370200Y-99770500D02*
X166516400Y-99288300D01*
X166516400Y-99288300D02*
X166630600Y-98797400D01*
X166630600Y-98797400D02*
X166712800Y-98300300D01*
X166712800Y-98300300D02*
X166762400Y-97799000D01*
X166762400Y-97799000D02*
X166778900Y-97295200D01*
X166778900Y-97295200D02*
X166778900Y-52195100D01*
X166778900Y-52195100D02*
X166771700Y-52013700D01*
X166771700Y-52013700D02*
X166749000Y-51833300D01*
X166749000Y-51833300D02*
X166711800Y-51655100D01*
X166711800Y-51655100D02*
X166659600Y-51481400D01*
X166659600Y-51481400D02*
X166593400Y-51311900D01*
X166593400Y-51311900D02*
X166514400Y-51148100D01*
X166514400Y-51148100D02*
X166420900Y-50992100D01*
X166420900Y-50992100D02*
X166314900Y-50844300D01*
X166314900Y-50844300D02*
X166197600Y-50705300D01*
X166197600Y-50705300D02*
X166068900Y-50577100D01*
X166068900Y-50577100D02*
X165930400Y-50459300D01*
X165930400Y-50459300D02*
X165782700Y-50353300D01*
X165782700Y-50353300D02*
X165626100Y-50260300D01*
X165626100Y-50260300D02*
X165462300Y-50180700D01*
X165462300Y-50180700D02*
X165293300Y-50114600D01*
X165293300Y-50114600D02*
X165119100Y-50062400D01*
X165119100Y-50062400D02*
X164941400Y-50025700D01*
X164941400Y-50025700D02*
X164760500Y-50003000D01*
X164760500Y-50003000D02*
X164579100Y-49995200D01*
X164579100Y-49995200D02*
X135428900Y-49995200D01*
X135428900Y-49995200D02*
X135428900Y-49995200D01*
G04 #@! TD*
M02*
