<?xml version="1.0" encoding="utf-8"?>
<!-- Generator: Adobe Illustrator 19.1.0, SVG Export Plug-In . SVG Version: 6.00 Build 0)  -->
<svg version="1.1" id="Ebene_9" xmlns="http://www.w3.org/2000/svg" xmlns:xlink="http://www.w3.org/1999/xlink" x="0px" y="0px"
	 viewBox="0 0 340.2 170.1" style="enable-background:new 0 0 340.2 170.1;" xml:space="preserve">
<style type="text/css">
	.st0{fill:#FFFFFF;}
</style>
<path d="M111.2,106.7c-17.3,0-31.4-14.1-31.4-31.4s14.1-31.4,31.4-31.4s31.4,14.1,31.4,31.4S128.5,106.7,111.2,106.7z M111.2,48.9
	c-14.5,0-26.4,11.8-26.4,26.4c0,14.5,11.8,26.4,26.4,26.4c14.5,0,26.4-11.8,26.4-26.4C137.6,60.8,125.8,48.9,111.2,48.9z"/>
<path d="M158,91.4v-32h20.5v4.4h-15.6v9.4h13.3v4.3h-13.3v9.6h15.6v4.4H158z"/>
<path d="M202.4,91.4l-6.8-13.5h-6.1v13.5h-4.9v-32h12.4c6.1,0,9.9,3.9,9.9,9.4c0,4.6-2.8,7.5-6.4,8.5l7.4,14.2H202.4z M196.8,63.8
	h-7.2v10h7.2c3.2,0,5.4-1.8,5.4-5C202.2,65.6,200,63.8,196.8,63.8z"/>
<path d="M232.5,91.4l-14.8-22.5v22.5h-4.9v-32h4.5l14.8,22.5V59.4h4.9v32H232.5z"/>
<path d="M271,91.4h-4.2L260.3,69l-6.5,22.5h-4.2l-8.4-32h5.1l5.6,22.9l6.4-22.9h3.9l6.4,22.9l5.6-22.9h5.1L271,91.4z"/>
<path d="M162.9,106.1c-0.4,0.4-1,0.6-1.7,0.6c-0.7,0-1.3-0.2-1.8-0.8v3.5h-1.4v-9.6h1.4v0.7c0.5-0.6,1.1-0.8,1.8-0.8
	c0.7,0,1.3,0.2,1.7,0.6c0.7,0.7,0.8,1.8,0.8,2.9S163.6,105.5,162.9,106.1z M160.9,101c-1.2,0-1.4,1.1-1.4,2.3c0,1.2,0.2,2.3,1.4,2.3
	c1.2,0,1.4-1.1,1.4-2.3C162.3,102,162.1,101,160.9,101z"/>
<path d="M169.2,101.4c-0.3-0.3-0.6-0.5-1-0.5c-0.7,0-1.4,0.6-1.4,1.5v4.2h-1.4v-6.8h1.4v0.7c0.4-0.5,1.1-0.8,1.8-0.8
	c0.7,0,1.2,0.2,1.6,0.6L169.2,101.4z"/>
<path d="M175.5,105.9c-0.4,0.5-1.1,0.8-2.1,0.8s-1.6-0.4-2-0.8c-0.6-0.7-0.8-1.5-0.8-2.7c0-1.1,0.2-2,0.8-2.7c0.4-0.5,1.1-0.8,2-0.8
	s1.6,0.4,2.1,0.8c0.6,0.7,0.8,1.5,0.8,2.7C176.3,104.4,176.1,105.3,175.5,105.9z M174.5,101.4c-0.3-0.3-0.6-0.4-1-0.4
	s-0.7,0.1-1,0.4c-0.4,0.4-0.5,1.1-0.5,1.9c0,0.7,0.1,1.5,0.5,1.9c0.3,0.3,0.6,0.4,1,0.4s0.8-0.1,1-0.4c0.4-0.4,0.5-1.1,0.5-1.9
	C174.9,102.5,174.9,101.8,174.5,101.4z"/>
<path d="M180.6,106.7h-1.1l-2.5-6.8h1.5l1.6,4.8l1.6-4.8h1.5L180.6,106.7z"/>
<path d="M184.2,98.5V97h1.5v1.5H184.2z M184.3,106.7v-6.8h1.4v6.8H184.3z"/>
<path d="M191.7,106.7v-0.7c-0.5,0.6-1.1,0.8-1.8,0.8c-0.7,0-1.3-0.2-1.7-0.6c-0.7-0.7-0.8-1.9-0.8-2.9s0.1-2.2,0.8-2.9
	c0.4-0.4,1-0.6,1.7-0.6c0.7,0,1.3,0.2,1.8,0.8v-3.5h1.4v9.6H191.7z M190.2,101c-1.2,0-1.4,1.1-1.4,2.3c0,1.2,0.2,2.3,1.4,2.3
	c1.2,0,1.4-1.1,1.4-2.3C191.6,102,191.5,101,190.2,101z"/>
<path d="M195.1,98.5V97h1.5v1.5H195.1z M195.1,106.7v-6.8h1.4v6.8H195.1z"/>
<path d="M202.8,106.7v-4.2c0-1.1-0.6-1.5-1.4-1.5c-0.8,0-1.4,0.5-1.4,1.5v4.2h-1.4v-6.8h1.4v0.7c0.5-0.5,1.1-0.8,1.8-0.8
	c0.7,0,1.3,0.2,1.7,0.6c0.5,0.5,0.7,1.2,0.7,1.9v4.4H202.8z"/>
<path d="M208.5,109.5c-1,0-1.7-0.2-2.4-0.9l0.9-0.9c0.4,0.4,0.8,0.6,1.5,0.6c1.2,0,1.6-0.8,1.6-1.7v-0.9c-0.5,0.6-1.1,0.8-1.8,0.8
	c-0.7,0-1.3-0.2-1.6-0.6c-0.7-0.7-0.8-1.6-0.8-2.8c0-1.2,0.1-2.1,0.8-2.8c0.4-0.4,1-0.6,1.6-0.6c0.7,0,1.3,0.2,1.8,0.8v-0.7h1.3v6.8
	C211.5,108.3,210.4,109.5,208.5,109.5z M208.7,101c-1.2,0-1.4,1.1-1.4,2.1c0,1.1,0.2,2.1,1.4,2.1s1.4-1.1,1.4-2.1
	C210.1,102,209.9,101,208.7,101z"/>
<path d="M219,106.8c-1.1,0-2.1-0.2-2.9-1l0.9-0.9c0.6,0.6,1.3,0.7,2,0.7c0.8,0,1.5-0.3,1.5-0.9c0-0.5-0.3-0.8-0.9-0.8l-1.1-0.1
	c-1.3-0.1-2-0.7-2-1.9c0-1.3,1.1-2.1,2.6-2.1c1,0,1.9,0.2,2.5,0.8l-0.9,0.9c-0.4-0.4-1-0.5-1.7-0.5c-0.8,0-1.2,0.4-1.2,0.9
	c0,0.4,0.2,0.7,0.9,0.8l1.1,0.1c1.3,0.1,2,0.7,2,1.9C221.8,106,220.6,106.8,219,106.8z"/>
<path d="M224.4,103.7c0,1.2,0.6,1.9,1.7,1.9c0.8,0,1.2-0.2,1.7-0.7l0.9,0.8c-0.7,0.7-1.4,1.1-2.6,1.1c-1.7,0-3.1-0.9-3.1-3.5
	c0-2.2,1.1-3.5,2.9-3.5c1.8,0,2.9,1.4,2.9,3.3v0.6H224.4z M227.3,101.8c-0.2-0.5-0.7-0.9-1.3-0.9c-0.6,0-1.1,0.4-1.4,0.9
	c-0.1,0.3-0.2,0.5-0.2,0.9h3.1C227.5,102.3,227.5,102.1,227.3,101.8z"/>
<path d="M233.3,106.8c-1.5,0-3.1-0.9-3.1-3.5s1.5-3.5,3.1-3.5c0.9,0,1.6,0.3,2.3,1l-0.9,0.9c-0.4-0.5-0.8-0.6-1.3-0.6
	c-0.5,0-1,0.2-1.3,0.6c-0.3,0.4-0.4,0.9-0.4,1.7s0.1,1.3,0.4,1.7c0.3,0.4,0.7,0.6,1.3,0.6c0.5,0,0.9-0.2,1.3-0.6l0.9,0.9
	C234.9,106.5,234.3,106.8,233.3,106.8z"/>
<path d="M241.2,106.7V106c-0.5,0.5-1.1,0.8-1.8,0.8c-0.7,0-1.3-0.2-1.7-0.6c-0.5-0.5-0.7-1.2-0.7-1.9v-4.4h1.4v4.2
	c0,1.1,0.6,1.5,1.4,1.5s1.4-0.5,1.4-1.5v-4.2h1.4v6.8H241.2z"/>
<path d="M248.5,101.4c-0.3-0.3-0.6-0.5-1-0.5c-0.7,0-1.4,0.6-1.4,1.5v4.2h-1.4v-6.8h1.4v0.7c0.4-0.5,1.1-0.8,1.8-0.8
	c0.7,0,1.2,0.2,1.6,0.6L248.5,101.4z"/>
<path d="M250.5,98.5V97h1.5v1.5H250.5z M250.6,106.7v-6.8h1.4v6.8H250.6z"/>
<path d="M256.1,106.7c-1.3,0-1.9-0.9-1.9-1.9V101h-0.8V100h0.8v-2.1h1.4v2.1h1.3v1.1h-1.3v3.7c0,0.5,0.2,0.8,0.8,0.8h0.6v1.2H256.1z
	"/>
<path d="M260.8,108c-0.1,0.4-0.3,0.6-0.5,0.9c-0.4,0.4-0.9,0.5-1.4,0.5h-0.6v-1.2h0.4c0.6,0,0.8-0.2,1-0.7l0.4-1.1l-2.4-6.5h1.5
	l1.6,4.8l1.6-4.8h1.5L260.8,108z"/>
<path d="M264,106.7V105h1.6v1.6H264z"/>
<path d="M77.4,75.3c0-0.5,0-1,0-1.5H65.2c-0.7-3.2-3.5-5.6-6.9-5.6c-3.9,0-7.1,3.2-7.1,7.1c0,3.9,3.2,7.1,7.1,7.1
	c3.4,0,6.2-2.4,6.9-5.6h12.2C77.4,76.3,77.4,75.8,77.4,75.3z M58.3,79.4c-2.3,0-4.1-1.8-4.1-4.1s1.8-4.1,4.1-4.1s4.1,1.8,4.1,4.1
	S60.5,79.4,58.3,79.4z"/>
<path d="M111.2,63.5c-6,0-10.9,4.5-11.7,10.3l-12.2,0c0,0.5,0,1,0,1.5c0,0.5,0,1,0,1.5l12.2,0c0.3,2,1,3.8,2.1,5.4L93,90.9
	c0.3,0.4,0.7,0.7,1,1.1c0.4,0.4,0.7,0.7,1.1,1l8.6-8.6c2,1.7,4.6,2.7,7.5,2.7c6.5,0,11.8-5.3,11.8-11.8S117.7,63.5,111.2,63.5z"/>
<path d="M88.1,100c-0.4-0.3-0.7-0.7-1.1-1c-0.4-0.4-0.7-0.7-1-1.1l-8.8,8.8c-1.6-1.2-3.7-1.9-5.9-1.9c-5.5,0-9.9,4.4-9.9,9.9
	c0,5.5,4.4,9.9,9.9,9.9s9.9-4.4,9.9-9.9c0-2.2-0.7-4.2-1.9-5.9L88.1,100z M71.4,121.6c-3.8,0-6.9-3.1-6.9-6.9s3.1-6.9,6.9-6.9
	s6.9,3.1,6.9,6.9S75.2,121.6,71.4,121.6z"/>
</svg>
